<svg width="163" height="205" viewBox="0 0 163 205" fill="none" xmlns="http://www.w3.org/2000/svg">
<path d="M47.7975 86.0105C79.0675 80.7605 84.0675 43.1705 77.7175 28.0105C71.3675 12.8505 71.8875 21.8405 71.8875 21.8405L70.8275 25.5605L21.5175 12.5605C13.4471 20.2044 8.20242 30.3554 6.63751 41.3605C6.35518 43.3654 6.19818 45.386 6.16748 47.4105L15.7075 53.6805C15.7075 53.6805 16.5175 91.3005 47.7975 86.0105Z" fill="#CB9E16"/>
<path d="M61.1573 6.54065C59.5498 5.70179 57.8778 4.99287 56.1573 4.42065H56.0873L50.3673 2.3606L50.1273 3.04065C46.5809 2.56068 42.9798 2.66534 39.4673 3.35059C32.7246 4.73733 26.5058 7.98702 21.5173 12.7306L70.8273 25.7306L71.8873 22.0106C71.8873 22.0106 71.3673 13.0707 77.7173 28.1807C84.0673 43.2907 79.0673 80.8907 47.7973 86.1807C16.5273 91.4707 15.7073 53.9207 15.7073 53.9207L6.16729 47.6506C5.93729 61.7106 11.6873 75.8606 22.2473 84.0406L21.7973 85.3406L29.4573 88.3406C30.2673 88.7006 31.0973 89.0106 31.9273 89.3406L32.1173 89.4106C52.7773 96.4106 77.2573 82.4107 81.5373 52.3107C81.5973 51.9007 81.6273 51.4906 81.6773 51.0906C84.1273 30.1206 74.7473 13.6706 61.1573 6.54065Z" fill="#B07320"/>
<path d="M61.1573 6.54041C59.5462 5.74259 57.8743 5.07383 56.1573 4.54041V4.54041L50.3473 2.54041L50.5373 2.45032L50.3074 3.14038V3.26038H50.1774C45.5798 2.69121 40.9138 3.10358 36.4874 4.47034C32.0882 5.86634 27.9881 8.07071 24.3973 10.9703C17.2442 16.8458 11.9701 24.6892 9.22735 33.5304C7.8372 37.9089 7.05982 42.4587 6.91735 47.0504C6.78521 51.6403 7.30367 56.2259 8.45733 60.6704C9.5752 65.1163 11.3587 69.3676 13.7474 73.2804C16.1271 77.1753 19.1735 80.6211 22.7474 83.4603L23.1573 83.7804L22.9874 84.2804L22.5474 85.5803L22.1174 84.6504L32.4274 88.6504L31.4274 89.0903L31.6774 88.4104L32.3574 88.6404C37.1767 90.2826 42.3118 90.7823 47.3574 90.1003C52.3973 89.4093 57.2261 87.628 61.5074 84.8804C63.6579 83.516 65.6678 81.9417 67.5074 80.1804C69.3467 78.4065 71.0203 76.4685 72.5074 74.3904C75.4565 70.2135 77.7183 65.5917 79.2073 60.7003C79.9626 58.2538 80.5473 55.7578 80.9573 53.2303C81.1774 51.9693 81.331 50.6976 81.4174 49.4204L81.5873 47.5104C81.6473 46.8704 81.5873 46.2303 81.6473 45.5903C81.8036 40.4592 81.1626 35.335 79.7474 30.4004C78.3235 25.4527 75.9904 20.8135 72.8674 16.7203C72.4938 16.1971 72.0897 15.6962 71.6573 15.2203L70.3874 13.7704L69.0074 12.4204L68.3174 11.7404L67.5774 11.1204L66.0973 9.87036L64.5273 8.74036L63.7374 8.18042L62.9073 7.68042L61.1573 6.54041ZM61.1573 6.54041C65.7791 8.92716 69.842 12.2673 73.0774 16.3403C76.3242 20.4207 78.7827 25.07 80.3274 30.0504C81.8506 35.0419 82.5762 40.2425 82.4773 45.4603C82.4773 46.1103 82.4773 46.7603 82.4773 47.4603L82.3274 49.4104C82.2517 50.7103 82.1081 52.0054 81.8973 53.2904C81.511 55.8697 80.9463 58.4192 80.2073 60.9204C78.7566 65.9606 76.4863 70.7276 73.4874 75.0304C71.9764 77.1808 70.2727 79.1891 68.3973 81.0304C66.5072 82.8602 64.4405 84.4982 62.2273 85.9204C57.7904 88.7941 52.7811 90.6675 47.5474 91.4104C42.2946 92.1389 36.9444 91.6391 31.9173 89.9503L32.8473 89.5004L32.5973 90.2103L31.8973 89.9404L21.5774 85.9404L20.9173 85.6804L21.1473 85.0104L21.5973 83.7103L21.8373 84.5304C18.1284 81.573 14.9701 77.9847 12.5074 73.9304C10.0629 69.8938 8.24235 65.511 7.10735 60.9304C4.76411 51.7465 5.11124 42.0824 8.10735 33.0903C10.9888 24.0914 16.4434 16.1336 23.7974 10.2003C27.4891 7.28056 31.7096 5.10078 36.2273 3.7804C40.7421 2.4878 45.4797 2.16736 50.1274 2.84033L49.9573 2.94043L50.1974 2.26038L50.2474 2.12036L50.3874 2.17041L56.1573 4.33032C57.88 4.92514 59.5521 5.65756 61.1573 6.52039V6.52039V6.54041Z" fill="#752714"/>
<path d="M3.49742 38.3504C1.00742 55.8504 8.82742 74.7005 24.2474 82.0105C44.7674 91.7405 70.9574 78.5504 75.9374 48.8304C78.9374 23.3204 64.1274 4.34045 45.5774 1.11045C42.2829 0.715113 38.9471 0.829757 35.6874 1.45042C18.7974 4.63042 5.98742 20.8504 3.49742 38.3504Z" fill="#FFEB47"/>
<path d="M24.2475 82.0105C8.82751 74.7005 1.00751 55.8605 3.49751 38.3505C5.98751 20.8405 18.7775 4.63059 35.6875 1.44059C38.9471 0.819924 42.283 0.705158 45.5775 1.1005C41.6526 0.421518 37.6366 0.46558 33.7275 1.2305C16.4675 4.5605 3.46749 21.3306 0.907486 39.4106C-1.65251 57.4906 6.14751 77.2105 21.8075 85.2205C43.2575 96.2205 71.2175 82.3806 75.8075 50.0506C75.8675 49.6406 75.8975 49.2305 75.9475 48.8305C70.9575 78.5505 44.7975 91.7405 24.2475 82.0105Z" fill="#CB9E16"/>
<path opacity="0.81" d="M75.7974 48.8505C78.5074 25.9505 66.7974 8.31051 50.9874 2.61051C49.1833 1.96107 47.3264 1.46926 45.4374 1.14054C41.5125 0.461557 37.4964 0.505619 33.5874 1.27054C16.3274 4.60054 3.32735 21.3705 0.767349 39.4505C-1.79265 57.5305 6.00737 77.2505 21.6674 85.2605C43.1174 96.2605 71.0774 82.4205 75.6674 50.0905C75.7974 49.6605 75.7974 49.2505 75.7974 48.8505Z" fill="url(#paint0_linear_428:5802)"/>
<path d="M23.9276 46.2104L22.2075 58.2805L22.4575 58.3505L23.0776 58.5205L24.8776 45.8105L24.0275 45.5205L23.9276 46.2104Z" fill="#B07320"/>
<path d="M13.5774 30.8005L13.5474 30.9005L32.8474 31.5005L27.4174 45.7705L27.6473 45.8505L28.1374 46.0205L33.9573 30.7805L13.7574 30.2805L13.5774 30.8005Z" fill="#B07320"/>
<path d="M37.3772 51.5205L35.8672 62.1705L36.1772 62.2505L36.9472 62.4705L38.5572 51.1105L37.4872 50.7505L37.3772 51.5205Z" fill="#B07320"/>
<path d="M41.3974 31.1805L36.6674 31.0405L36.4274 31.6705L36.3774 31.8005L40.1574 31.9305L38.0674 46.6205L41.9074 45.7605L42.7374 45.5804L42.8275 45.1906L39.2874 45.9905L41.3974 31.1805Z" fill="#B07320"/>
<path d="M47.1472 31.1604L46.9972 31.8503L46.9572 31.9904L60.4672 32.4503L44.0972 64.4404L44.4072 64.5204L45.0472 64.7003L62.0972 31.5903L47.1472 31.1604Z" fill="#B07320"/>
<path d="M24.9973 44.9506L27.4172 45.7706L32.8472 31.5006L13.5472 30.9006L10.4272 39.9806L18.9272 42.8806L14.2872 56.1106L22.2072 58.2806L23.9272 46.2106L24.0272 45.5206L24.8773 45.8107L24.8972 45.6506L24.9973 44.9506Z" fill="#CB9E16"/>
<path d="M46.9575 31.9905L44.0475 44.9205L43.1876 45.1105L42.8276 45.1906L42.7375 45.5804L41.9075 45.7605L38.0676 46.6205L40.1575 31.9305L36.3776 31.8005L25.9976 59.4504L35.8676 62.1705L37.3776 51.5205L37.4875 50.7505L38.5576 51.1105L38.5875 50.9305L38.6976 50.1605L42.5676 51.4305L39.8975 63.2805L44.0975 64.4406L60.4675 32.4504L46.9575 31.9905Z" fill="#CB9E16"/>
<g opacity="0.66">
<path opacity="0.66" d="M13.5472 30.9006L10.4272 39.9806L18.9272 42.8806L14.2872 56.1106L22.2072 58.2806L23.9272 46.2106L24.0272 45.5206L24.8773 45.8107L24.8972 45.6506L24.9973 44.9506L27.4172 45.7706L32.8472 31.5006L13.5472 30.9006Z" fill="url(#paint1_linear_428:5802)"/>
<path opacity="0.66" d="M46.9573 31.9907L44.0473 44.9208L43.1873 45.1107L42.8273 45.1908L42.7373 45.5807L41.9073 45.7607L38.0673 46.6207L40.1573 31.9308L36.3773 31.8008L25.9973 59.4507L35.8673 62.1708L37.3773 51.5208L37.4873 50.7507L38.5573 51.1107L38.5873 50.9308L38.6973 50.1608L42.5673 51.4308L39.8973 63.2808L44.0973 64.4408L60.4673 32.4507L46.9573 31.9907Z" fill="url(#paint2_linear_428:5802)"/>
</g>
<path d="M25.3573 45.6605L27.9973 46.5205L28.3573 46.6405L28.5073 46.2305C29.5073 43.6705 30.3673 41.0605 31.2773 38.4905L33.9973 30.7605L23.1773 30.1205C19.9073 29.9605 16.7773 29.8406 13.8173 29.8206H13.5673L13.4573 30.1505C12.9073 31.7905 12.3873 33.4406 11.8573 35.0706L10.2973 39.9105L10.2173 40.1605L10.3873 40.2104C11.7207 40.6171 13.084 41.0605 14.4773 41.5405L16.6373 42.3105C17.3173 42.5505 17.9973 42.7905 18.6973 43.0505L16.3373 49.4305C15.5273 51.5905 14.7573 53.7605 13.9773 55.8905L13.7573 56.4805L14.2273 56.6205L22.9873 59.1805L23.4873 59.3304L23.5773 58.6705C23.8973 56.4005 24.2273 54.1305 24.5773 51.8505C24.8307 49.7838 25.0906 47.7205 25.3573 45.6605ZM16.8373 49.7305L19.0873 42.9604L19.1773 42.7004L18.9873 42.6405C18.2173 42.4105 17.4673 42.1505 16.7173 41.9105L14.5473 41.2004C13.214 40.7471 11.9173 40.2872 10.6573 39.8206L12.3073 35.2905C12.8473 33.7905 13.4073 32.2905 13.9373 30.7605C16.7073 30.8805 19.6273 30.9105 22.7573 30.9105L33.9073 30.8206L30.7173 38.5505C29.7173 40.8805 28.8173 43.1405 27.9273 45.3905L25.1473 44.3905L24.6673 44.2205L24.5673 44.8705C24.214 47.1172 23.8807 49.3672 23.5673 51.6205C23.2573 53.6205 22.9773 55.6905 22.6873 57.7305L14.8473 55.7305C15.4973 53.7405 16.1773 51.7505 16.7973 49.7305H16.8373Z" fill="#B07320"/>
<path d="M62.1373 31.3406L54.2873 31.0906L47.2073 30.7906H46.8973L46.8173 31.1406C45.7373 35.6006 44.6573 40.0307 43.6173 44.4407L39.9773 45.2306L42.0473 31.2306L42.1573 30.5006H41.5073L36.7773 30.3806H36.3073L36.1173 30.9006L33.3773 38.2706C32.484 40.684 31.6073 43.0806 30.7473 45.4606C29.0473 50.1606 27.4573 54.8406 25.8373 59.4106L25.7373 59.6907L25.9773 59.7506C27.5673 60.1406 29.1973 60.5406 30.8773 60.9806C32.5573 61.4206 34.3673 61.9106 36.1873 62.3906L36.9573 62.6106H37.0173V62.5406C37.3173 60.4906 37.6073 58.4406 37.9373 56.3906C38.2673 54.3406 38.5573 52.4906 38.8773 50.5406L42.1773 51.7306L40.7873 57.2806C40.3073 59.234 39.8373 61.1839 39.3773 63.1306L39.2273 63.7706L39.8173 63.9407C41.4873 64.4207 43.2073 64.9406 44.9673 65.4106L45.3873 65.5306L45.5873 65.1406C48.2673 59.9906 50.8773 54.6106 53.5873 49.1406C54.9773 46.3406 56.3573 43.4806 57.8073 40.6106C59.2573 37.7406 60.8073 34.7506 62.3173 31.7806L62.4873 31.4506L62.1373 31.3406ZM57.3173 40.2806C55.8273 43.1206 54.3173 45.8906 52.8473 48.6306C50.0373 53.8606 47.2873 58.9207 44.7273 63.9307C43.3073 63.5407 41.9273 63.1807 40.5673 62.8207C40.9473 61.0607 41.3207 59.294 41.6873 57.5206L42.8973 51.5206L42.9673 51.1606L42.6673 51.0707L38.7673 49.9106L38.5273 49.8406V50.1106C38.2773 52.1706 38.0373 54.2306 37.7673 56.2806C37.4973 58.3306 37.2273 60.3406 36.9473 62.3706L36.2373 62.1807C34.4173 61.6607 32.6573 61.1807 30.9373 60.6707C29.2173 60.1607 27.8173 59.7406 26.3173 59.2806C28.0673 54.8806 29.8973 50.4206 31.6873 45.8406C32.614 43.4672 33.5373 41.0673 34.4573 38.6406L37.0673 31.7506L40.6873 31.8706L38.7773 45.8706L38.6573 46.7506L39.4173 46.5707L44.1673 45.4606L44.5273 45.3806L44.6073 45.0006C45.6073 40.5306 46.5073 36.0006 47.4573 31.5006L54.2373 31.6006L61.7373 31.7806C60.2506 34.6806 58.7773 37.514 57.3173 40.2806Z" fill="#B07320"/>
<path d="M76.1273 45.8304C76.5131 40.4473 75.9857 35.0376 74.5673 29.8304C73.163 24.6656 70.7873 19.8158 67.5673 15.5405C64.3346 11.3082 60.2456 7.80523 55.5672 5.26046C50.905 2.73772 45.7072 1.36626 40.4072 1.26046C37.7594 1.19193 35.114 1.46751 32.5372 2.08041C31.8972 2.23041 31.2472 2.37049 30.5972 2.54049L28.7072 3.1705L27.7672 3.49044C27.4572 3.60044 27.1572 3.75046 26.8472 3.88046L25.0272 4.69052C20.229 7.07375 15.9606 10.3999 12.4772 14.4704C5.44969 22.676 1.38527 33.0062 0.937246 43.8005C0.756822 49.138 1.40449 54.4712 2.85723 59.6104C4.33986 64.717 6.68353 69.5328 9.78722 73.8504C12.8972 78.1356 16.9254 81.6717 21.5773 84.2004C26.2238 86.7173 31.404 88.0886 36.6872 88.2004C41.9771 88.2536 47.2084 87.0904 51.9772 84.8005C56.775 82.5086 61.0502 79.2545 64.5372 75.2404C68.0571 71.2005 70.8333 66.569 72.7372 61.5605C74.6548 56.5184 75.7978 51.2148 76.1273 45.8304ZM76.2772 45.8304C76.1972 47.1804 76.0572 48.5204 75.9072 49.8304C75.8172 50.5004 75.6972 51.1604 75.5872 51.8304C75.4772 52.5004 75.3772 53.1604 75.2272 53.8304C74.7009 56.4794 73.9926 59.089 73.1072 61.6405C71.3394 66.7845 68.6861 71.58 65.2672 75.8105C61.82 80.0836 57.4916 83.5627 52.5773 86.0105C47.6337 88.4793 42.1726 89.734 36.6472 89.6705C31.1118 89.6029 25.677 88.1816 20.8173 85.5305C15.9929 82.8546 11.8279 79.1338 8.62725 74.6405C5.4658 70.1694 3.11657 65.1765 1.68725 59.8905C0.2979 54.6198 -0.238916 49.1607 0.0972194 43.7204L0.147207 42.7204L0.267202 41.7204L0.507254 39.7204C0.717254 38.3804 0.977254 37.0504 1.25725 35.7204C1.88912 33.0864 2.71467 30.5028 3.72722 27.9904L4.49724 26.1104L5.38726 24.2905C5.94726 23.0605 6.67726 21.9104 7.38726 20.7304C7.70726 20.1304 8.11722 19.5905 8.47722 19.0205L9.59722 17.3304L10.8273 15.7204C11.2473 15.1904 11.6372 14.6305 12.0972 14.1405C12.969 13.0941 13.8936 12.0928 14.8672 11.1405L16.3273 9.73043L17.8873 8.43051C18.9314 7.56182 20.0194 6.74734 21.1472 5.99044C21.6972 5.58044 22.3073 5.2805 22.8873 4.9205C23.4673 4.5605 24.0472 4.2005 24.6572 3.9205L26.5073 3.04049C26.8173 2.90049 27.1172 2.74044 27.4372 2.61044L28.4372 2.26046L30.3572 1.56051C31.0072 1.37051 31.6772 1.21049 32.3572 1.04049C33.6683 0.674746 35.0056 0.410591 36.3572 0.250452C37.7169 0.0765665 39.0865 -0.00695007 40.4572 0.000452014C43.2053 0.0240445 45.9397 0.390168 48.5972 1.09042C51.2576 1.76247 53.8215 2.77058 56.2272 4.09042C61.0307 6.7564 65.1677 10.4762 68.3273 14.9704C71.4608 19.4212 73.7208 24.4265 74.9872 29.7204C76.241 34.9959 76.6761 40.4327 76.2772 45.8404V45.8304Z" fill="#752714"/>
<path d="M69.5475 78.5605L66.9976 76.0706L70.0175 77.9705L69.5475 78.5605Z" fill="#752714"/>
<path d="M52.7972 84.8406L56.0772 87.5806L52.3672 85.4506L52.7972 84.8406Z" fill="#752714"/>
<path d="M59.7075 86.7805L57.4575 84.7905L60.1376 86.1605L59.7075 86.7805Z" fill="#752714"/>
<path d="M80.4672 31.5504L76.1172 28.1804L80.8872 30.9304L80.4672 31.5504Z" fill="#752714"/>
<path d="M81.3375 52.4406L75.9375 48.8206L81.7275 51.7905L81.3375 52.4406Z" fill="#752714"/>
<path d="M80.9275 54.3805L77.9375 52.2705L81.2875 53.7205L80.9275 54.3805Z" fill="#752714"/>
<path d="M123.207 183.41L124.107 182.82C143.107 170.43 155.377 150.82 155.797 132.58C155.903 128.574 155.397 124.575 154.297 120.72L155.677 119.83L149.677 110.76C136.367 90.7004 103.837 86.1504 73.5873 105.36C42.2473 125.27 32.9573 158.24 47.5873 178.72L52.6673 186.45L54.0073 185.58C71.0273 199.62 100.217 198.01 123.207 183.41Z" fill="#B07320"/>
<path d="M134.317 109.59L140.227 106.03C140.227 106.03 140.297 99.7304 121.437 95.3704C102.577 91.0104 66.9872 102.55 51.4372 130.99C35.8872 159.43 47.1072 149.29 55.2672 136.9C63.4272 124.51 102.877 134.12 102.877 134.12L134.587 140.99L134.317 109.59Z" fill="#CB9E16"/>
<path d="M123.157 183.33C124.457 182.48 125.717 181.561 126.997 180.691C128.277 179.821 129.458 178.801 130.698 177.851C131.938 176.901 133.048 175.851 134.198 174.771C135.348 173.691 136.457 172.641 137.497 171.481C141.736 166.961 145.382 161.921 148.347 156.481C151.25 151.043 153.275 145.18 154.347 139.111C154.517 137.591 154.807 136.111 154.837 134.551C154.963 133.031 154.99 131.504 154.917 129.981C154.785 126.936 154.305 123.916 153.487 120.981L153.317 120.371L153.847 120.031L155.227 119.141L154.977 120.311L149.047 111.21L150.157 111.441L149.477 111.881L149.047 111.22C145.163 105.336 139.687 100.675 133.257 97.7806C130.061 96.3034 126.706 95.1961 123.257 94.4805C119.779 93.7992 116.242 93.4642 112.698 93.4805C105.583 93.484 98.5187 94.6771 91.7975 97.0105C85.0692 99.3253 78.6796 102.527 72.7975 106.531C66.9154 110.468 61.5648 115.147 56.8775 120.45C52.2225 125.74 48.4477 131.743 45.6975 138.231C42.9494 144.683 41.6521 151.661 41.8975 158.671C42.1605 165.643 44.42 172.394 48.4075 178.121L49.0175 178.981L48.1375 179.551L48.4275 178.161L53.4975 185.891L52.1375 185.601L53.4775 184.741L54.0775 184.351L54.6375 184.801C59.3379 188.58 64.7938 191.308 70.6375 192.801C76.5117 194.306 82.5846 194.886 88.6375 194.521C94.7351 194.153 100.761 193.007 106.567 191.111C112.392 189.198 117.963 186.586 123.157 183.33V183.33ZM123.257 183.491C118.059 186.763 112.511 189.447 106.717 191.491C100.913 193.596 94.8646 194.957 88.7175 195.541C82.5284 196.171 76.2777 195.776 70.2175 194.371C64.0787 192.973 58.3333 190.211 53.4075 186.291L54.5675 186.361L53.2275 187.231L52.4075 187.761L51.8675 186.941L46.7675 179.22L46.2075 178.381L47.0575 177.83L46.7875 179.251C42.5376 173.224 40.1332 166.09 39.8675 158.72C39.6746 151.423 41.088 144.172 44.0075 137.481C46.8798 130.836 50.8371 124.716 55.7175 119.371C60.5714 114.053 66.1177 109.412 72.2075 105.571C78.238 101.681 84.7362 98.5696 91.5475 96.3106C98.3528 94.0284 105.47 92.8139 112.647 92.7105C116.236 92.67 119.821 92.9849 123.347 93.6506C126.893 94.2933 130.355 95.3331 133.667 96.7505C140.4 99.5794 146.188 104.265 150.357 110.261L149.247 110.041L149.907 109.59L150.357 110.271L156.357 119.271L156.828 119.981L156.107 120.45L154.727 121.351L155.087 120.351C155.983 123.408 156.49 126.566 156.597 129.751C156.657 131.338 156.613 132.928 156.467 134.511C156.356 136.09 156.159 137.662 155.877 139.221C154.641 145.413 152.383 151.358 149.198 156.811C146.049 162.262 142.218 167.289 137.797 171.771C133.404 176.211 128.527 180.145 123.257 183.501V183.491Z" fill="#752714"/>
<path d="M82.1875 155.32L98.3075 185.03L99.2575 184.7L116.647 178.72L109.517 161.43L132.698 152.81L123.867 141.15L123.287 140.39L106.417 151.1L105.497 151.68L103.957 147.95L103.688 147.3L82.1875 155.32Z" fill="#428A7A"/>
<path d="M76.2375 142.47L90.3375 134.71L91.0675 135.17L94.5675 137.39L78.3575 147.69L80.8275 152.28L81.6575 151.96L120.807 136.79L113.097 126.61L112.587 125.94L99.9775 133.96L99.1275 134.5L97.4975 130.77L110.737 123.49L108.117 120.04L107.767 119.58L69.9175 132.46L75.5075 142.87L76.2375 142.47Z" fill="#428A7A"/>
<path d="M122.277 187.15C153.487 167.33 161.747 133.48 143.977 114.94C129.197 99.5104 100.727 100.11 78.0674 114.06C59.0674 126.45 46.7974 146.06 46.3774 164.3C46.4493 168.159 47.1519 171.979 48.4574 175.61C57.3074 199.82 91.0774 207.01 122.277 187.15ZM105.497 151.69L106.417 151.1L123.287 140.38L123.867 141.15L132.697 152.81L109.517 161.43L116.647 178.71L99.2674 184.71L98.2674 185.04L82.1474 155.33L103.647 147.33L103.917 147.99L105.497 151.69ZM80.8275 152.29L78.3574 147.69L94.5674 137.4L91.0674 135.18L90.3374 134.72L76.2374 142.48L75.5074 142.88L69.9174 132.47L107.797 119.58L108.147 120.04L110.757 123.49L97.5274 130.77L99.1474 134.49L99.9974 133.95L112.617 125.95L113.127 126.62L120.837 136.8L81.6474 152.01L80.8275 152.29Z" fill="#FFEB47"/>
<path d="M143.987 114.941C161.747 133.481 153.487 167.321 122.287 187.151C91.0871 206.981 57.2871 199.821 48.4771 175.611C47.1716 171.979 46.469 168.159 46.3971 164.301C46.2557 169.118 47.0119 173.92 48.6271 178.461C58.1471 204.791 94.7771 212.971 128.567 191.521C162.357 170.071 170.517 133.421 150.727 113.611C134.257 97.1206 103.187 98.1006 78.9871 113.471L78.0871 114.061C100.727 100.111 129.197 99.5207 143.987 114.941Z" fill="#CB9E16"/>
<path opacity="0.81" d="M78.0773 114.061C59.0773 126.451 46.8073 146.061 46.3873 164.301C46.2459 169.118 47.0021 173.92 48.6173 178.461C58.1373 204.791 94.7673 212.971 128.557 191.521C162.347 170.071 170.507 133.421 150.717 113.611C134.247 97.1206 103.177 98.1006 78.9773 113.471L78.0773 114.061Z" fill="url(#paint3_linear_428:5802)"/>
<path d="M108.087 151.64L124.107 141.47L123.867 141.15L123.287 140.39L106.637 150.96L107.167 152.23L108.087 151.64Z" fill="#B07320"/>
<path d="M99.2575 184.7L99.4475 184.641L83.6875 155.86L104.087 148.271L103.957 147.95L103.688 147.301L82.1875 155.321L98.3075 185.031L99.2575 184.7Z" fill="#B07320"/>
<path d="M101.508 134.391L113.307 126.891L113.097 126.611L112.587 125.941L100.167 133.831L100.647 134.931L101.508 134.391Z" fill="#B07320"/>
<path d="M78.3574 147.69L80.8275 152.28L81.6574 151.96L81.8174 151.9L79.7874 148.18L96.0674 137.84L92.5374 135.6L91.8074 135.14L91.3774 135.37L94.5674 137.39L78.3574 147.69Z" fill="#B07320"/>
<path d="M75.5075 142.87L76.2375 142.47L76.3875 142.39L71.2175 132.86L108.297 120.27L108.117 120.04L107.767 119.58L69.9175 132.46L75.5075 142.87Z" fill="#B07320"/>
<path d="M105.497 151.681L104.087 148.271L83.6875 155.86L99.4475 184.641L116.647 178.72L109.517 161.431L132.698 152.811L124.107 141.47L108.087 151.641L107.167 152.23L106.638 150.96L106.417 151.1L105.497 151.681Z" fill="#CB9E16"/>
<path d="M76.3873 142.391L90.3373 134.71L91.0673 135.171L91.3773 135.37L91.8073 135.141L92.5373 135.6L96.0673 137.84L79.7873 148.181L81.8173 151.901L120.807 136.791L113.307 126.891L101.507 134.391L100.647 134.931L100.167 133.83L99.9773 133.96L99.1273 134.5L97.4973 130.771L110.737 123.49L108.297 120.271L71.2173 132.86L76.3873 142.391Z" fill="#CB9E16"/>
<g opacity="0.66">
<path opacity="0.66" d="M99.4473 184.641L116.647 178.72L109.517 161.431L132.697 152.811L124.107 141.47L108.087 151.641L107.167 152.23L106.637 150.96L106.417 151.1L105.497 151.681L104.087 148.271L83.6873 155.86L99.4473 184.641Z" fill="url(#paint4_linear_428:5802)"/>
<path opacity="0.66" d="M76.3873 142.391L90.3373 134.71L91.0673 135.171L91.3773 135.37L91.8073 135.141L92.5373 135.6L96.0673 137.84L79.7873 148.181L81.8173 151.901L120.807 136.791L113.307 126.891L101.507 134.391L100.647 134.931L100.167 133.83L99.9773 133.96L99.1273 134.5L97.4973 130.771L110.737 123.49L108.297 120.271L71.2173 132.86L76.3873 142.391Z" fill="url(#paint5_linear_428:5802)"/>
</g>
<path d="M105.967 150.58L104.367 146.95L104.157 146.48L103.557 146.71C99.8372 148.13 96.1772 149.631 92.5572 151.071L82.0972 155.291L89.0972 169.421C91.7072 174.581 94.5072 179.99 97.5672 185.5L97.8472 186L98.4572 185.791C101.457 184.731 104.457 183.59 107.537 182.48L116.737 179.09L117.217 178.911L117.047 178.531C115.714 175.537 114.451 172.587 113.257 169.681L111.537 165.411C111.027 164.131 110.537 162.87 110.027 161.61L121.167 157.691C125.077 156.331 128.987 154.91 132.937 153.5L134.047 153.11L133.467 152.33L124.157 139.84L123.697 139.22L122.837 139.771C119.837 141.651 116.917 143.521 113.977 145.421C111.297 147.147 108.627 148.867 105.967 150.58ZM120.857 156.641L109.447 161.12L109.017 161.291L109.167 161.61C109.767 162.95 110.327 164.33 110.917 165.71L112.707 169.941C113.847 172.721 114.977 175.57 116.097 178.49L107.297 181.311C104.457 182.231 101.617 183.121 98.8072 184.061C96.0272 178.841 93.2372 173.931 90.4672 169.161L82.2672 155.321L93.1172 151.59C96.4972 150.42 99.8472 149.28 103.187 148.08L104.717 152.08L104.997 152.801L105.867 152.26C108.867 150.414 111.867 148.551 114.867 146.671C117.577 144.981 120.257 143.271 122.947 141.561L131.407 152.561C127.797 153.921 124.337 155.261 120.857 156.641V156.641Z" fill="#B07320"/>
<path d="M69.6876 132.6L72.3676 137.71L75.1076 143.11L75.2376 143.37L75.6076 143.17C80.4276 140.59 85.2776 138.02 90.1176 135.4L93.2976 137.49L78.0276 147.09L77.2376 147.59L77.5576 148.19L80.0076 152.8L80.2676 153.28L80.9476 153.02L90.7376 149.21C94.0309 147.924 97.3409 146.617 100.668 145.29C107.358 142.62 114.088 139.8 120.898 137.04L121.328 136.87L121.118 136.61C119.718 134.89 118.338 133.19 117.018 131.5C115.698 129.81 114.448 128.19 113.188 126.57L112.688 125.9V125.85L112.608 125.9C110.358 127.32 108.118 128.74 105.848 130.14C103.578 131.54 101.528 132.8 99.3676 134.14L98.0676 130.89L104.368 127.57C106.594 126.39 108.821 125.197 111.048 123.99L111.778 123.59L111.418 123.11C110.418 121.79 109.418 120.47 108.418 119.19L108.188 118.89L107.678 119.06C101.178 121.27 94.7776 123.57 88.4476 125.82C85.3076 126.93 82.1976 128.06 79.0976 129.14C75.9976 130.22 72.9476 131.28 69.9076 132.3L69.5776 132.41L69.6876 132.6ZM79.1176 129.55C82.2276 128.55 85.3576 127.55 88.5076 126.49C94.7076 124.49 100.988 122.49 107.338 120.3C108.118 121.3 108.918 122.39 109.728 123.44C107.774 124.534 105.824 125.634 103.878 126.74L97.3476 130.49L96.9576 130.71L97.0876 130.98L98.8276 134.64L98.9376 134.88L99.2376 134.68C101.458 133.22 103.668 131.74 105.908 130.3C108.148 128.86 110.328 127.45 112.538 126.04L113.008 126.65C114.228 128.29 115.488 129.95 116.718 131.65C117.948 133.35 119.108 134.97 120.308 136.65C113.588 139.13 106.918 141.51 100.308 143.98C96.9743 145.227 93.6709 146.484 90.3976 147.75L81.3276 151.25L79.4076 147.74L94.8076 137.85L95.8076 137.23L95.0876 136.79L90.8076 134.17L90.5076 133.98L90.0976 134.21C85.2776 136.9 80.4976 139.63 75.7176 142.33L72.8876 137.33L70.2276 132.5C73.1809 131.507 76.1476 130.524 79.1276 129.55H79.1176Z" fill="#B07320"/>
<path d="M128.507 191.441C134.471 187.626 139.873 182.998 144.557 177.691C146.879 175.037 149.001 172.216 150.907 169.251C151.907 167.801 152.727 166.25 153.597 164.72C154.017 163.95 154.377 163.151 154.777 162.371C155.177 161.591 155.547 160.801 155.877 159.981C158.713 153.586 160.223 146.684 160.317 139.691C160.308 136.223 159.851 132.771 158.957 129.421C158.046 126.077 156.648 122.886 154.807 119.95C151.073 114.034 145.741 109.295 139.427 106.281C136.272 104.747 132.95 103.583 129.527 102.811C126.09 102.053 122.587 101.637 119.067 101.571C112.005 101.475 104.976 102.553 98.2674 104.761C94.914 105.87 91.6398 107.207 88.4674 108.761C82.1277 111.83 76.1925 115.672 70.7975 120.2C68.1273 122.477 65.5929 124.908 63.2074 127.481C58.4778 132.646 54.5873 138.52 51.6775 144.891C48.7725 151.224 47.2487 158.103 47.2074 165.071C47.0993 172.009 49.0194 178.828 52.7322 184.69C56.445 190.552 61.7888 195.203 68.1075 198.071C74.4629 200.982 81.3483 202.558 88.3374 202.7C102.548 203.014 116.531 199.095 128.507 191.441V191.441ZM128.607 191.601C122.613 195.418 116.149 198.443 109.377 200.601C102.591 202.796 95.5102 203.95 88.3775 204.021C81.1548 204.136 73.9922 202.693 67.3775 199.791C60.6993 196.807 55.0351 191.942 51.0775 185.791C47.1876 179.589 45.1606 172.401 45.2375 165.08C45.3419 157.837 46.9885 150.698 50.0675 144.141C53.1093 137.628 57.1853 131.651 62.1375 126.441C64.6024 123.851 67.2347 121.425 70.0174 119.181C75.5875 114.725 81.6749 110.958 88.1474 107.96C91.3886 106.49 94.7106 105.205 98.0974 104.111C101.495 103.06 104.964 102.258 108.477 101.71C111.992 101.142 115.548 100.871 119.107 100.901C122.675 100.936 126.232 101.314 129.727 102.031C133.238 102.726 136.658 103.823 139.917 105.301C146.605 108.188 152.281 113 156.224 119.124C160.167 125.249 162.198 132.408 162.057 139.691C161.924 146.902 160.218 153.997 157.057 160.481C156.697 161.301 156.287 162.091 155.857 162.881C155.427 163.671 155.027 164.461 154.577 165.231C153.637 166.751 152.747 168.291 151.697 169.731C149.678 172.661 147.445 175.439 145.017 178.041C140.132 183.225 134.619 187.78 128.607 191.601V191.601Z" fill="#752714"/>
<path d="M98.5774 104.36L96.5674 97.7405L99.7773 103.87L98.5774 104.36Z" fill="#752714"/>
<path d="M113.337 92.9604L115.837 98.8105L112.757 93.2405L113.337 92.9604Z" fill="#752714"/>
<path d="M132.977 96.8806L135.477 102.731L132.397 97.1707L132.977 96.8806Z" fill="#752714"/>
<path d="M120.907 101.431L118.177 95.3206L121.487 101.141L120.907 101.431Z" fill="#752714"/>
<path d="M53.8076 122.671L57.1075 128.871L53.2476 123.001L53.8076 122.671Z" fill="#752714"/>
<path d="M55.4272 121.14L57.1172 124.62L54.8672 121.47L55.4272 121.14Z" fill="#752714"/>
<path d="M49.7774 146.521L46.1074 138.941L50.3474 146.211L49.7774 146.521Z" fill="#752714"/>
<path d="M41.8574 147.47L47.0574 156.311" stroke="#752714" stroke-width="0.65" stroke-miterlimit="10"/>
<path d="M46.4871 160.11L41.3071 150.66" stroke="#752714" stroke-width="0.65" stroke-miterlimit="10"/>
<defs>
<linearGradient id="paint0_linear_428:5802" x1="184002" y1="221895" x2="195245" y2="231364" gradientUnits="userSpaceOnUse">
<stop stop-color="#D2A91D" stop-opacity="0.02"/>
<stop offset="0.17" stop-color="#FFEB47"/>
<stop offset="0.29" stop-color="white"/>
<stop offset="0.41" stop-color="#FFEB47"/>
<stop offset="0.6" stop-color="#D2A91D" stop-opacity="0.02"/>
<stop offset="0.75" stop-color="#FFEB47"/>
<stop offset="0.85" stop-color="white"/>
<stop offset="0.93" stop-color="#FFEB47"/>
<stop offset="1" stop-color="#D2A91D" stop-opacity="0.02"/>
</linearGradient>
<linearGradient id="paint1_linear_428:5802" x1="52899.7" y1="68705" x2="54042.1" y2="69292.3" gradientUnits="userSpaceOnUse">
<stop stop-color="#D2A91D" stop-opacity="0.02"/>
<stop offset="0.17" stop-color="#FFEB47"/>
<stop offset="0.29" stop-color="white"/>
<stop offset="0.41" stop-color="#FFEB47"/>
<stop offset="0.6" stop-color="#D2A91D" stop-opacity="0.02"/>
<stop offset="0.75" stop-color="#FFEB47"/>
<stop offset="0.85" stop-color="white"/>
<stop offset="0.93" stop-color="#FFEB47"/>
<stop offset="1" stop-color="#D2A91D" stop-opacity="0.02"/>
</linearGradient>
<linearGradient id="paint2_linear_428:5802" x1="85238.9" y1="84778.2" x2="87424.6" y2="86153.3" gradientUnits="userSpaceOnUse">
<stop stop-color="#D2A91D" stop-opacity="0.02"/>
<stop offset="0.17" stop-color="#FFEB47"/>
<stop offset="0.29" stop-color="white"/>
<stop offset="0.41" stop-color="#FFEB47"/>
<stop offset="0.6" stop-color="#D2A91D" stop-opacity="0.02"/>
<stop offset="0.75" stop-color="#FFEB47"/>
<stop offset="0.85" stop-color="white"/>
<stop offset="0.93" stop-color="#FFEB47"/>
<stop offset="1" stop-color="#D2A91D" stop-opacity="0.02"/>
</linearGradient>
<linearGradient id="paint3_linear_428:5802" x1="101063" y1="-240647" x2="104225" y2="-266679" gradientUnits="userSpaceOnUse">
<stop stop-color="#D2A91D" stop-opacity="0.02"/>
<stop offset="0.17" stop-color="#FFEB47"/>
<stop offset="0.29" stop-color="white"/>
<stop offset="0.41" stop-color="#FFEB47"/>
<stop offset="0.6" stop-color="#D2A91D" stop-opacity="0.02"/>
<stop offset="0.75" stop-color="#FFEB47"/>
<stop offset="0.85" stop-color="white"/>
<stop offset="0.93" stop-color="#FFEB47"/>
<stop offset="1" stop-color="#D2A91D" stop-opacity="0.02"/>
</linearGradient>
<linearGradient id="paint4_linear_428:5802" x1="42984.7" y1="-104147" x2="42425.6" y2="-108905" gradientUnits="userSpaceOnUse">
<stop stop-color="#D2A91D" stop-opacity="0.02"/>
<stop offset="0.17" stop-color="#FFEB47"/>
<stop offset="0.29" stop-color="white"/>
<stop offset="0.41" stop-color="#FFEB47"/>
<stop offset="0.6" stop-color="#D2A91D" stop-opacity="0.02"/>
<stop offset="0.75" stop-color="#FFEB47"/>
<stop offset="0.85" stop-color="white"/>
<stop offset="0.93" stop-color="#FFEB47"/>
<stop offset="1" stop-color="#D2A91D" stop-opacity="0.02"/>
</linearGradient>
<linearGradient id="paint5_linear_428:5802" x1="21305.5" y1="-91609.1" x2="21387.2" y2="-95490.4" gradientUnits="userSpaceOnUse">
<stop stop-color="#D2A91D" stop-opacity="0.02"/>
<stop offset="0.17" stop-color="#FFEB47"/>
<stop offset="0.29" stop-color="white"/>
<stop offset="0.41" stop-color="#FFEB47"/>
<stop offset="0.6" stop-color="#D2A91D" stop-opacity="0.02"/>
<stop offset="0.75" stop-color="#FFEB47"/>
<stop offset="0.85" stop-color="white"/>
<stop offset="0.93" stop-color="#FFEB47"/>
<stop offset="1" stop-color="#D2A91D" stop-opacity="0.02"/>
</linearGradient>
</defs>
</svg>
