<svg width="125" height="170" viewBox="0 0 125 170" fill="none" xmlns="http://www.w3.org/2000/svg">
<path d="M108.102 22.429C100.465 17.6911 89.9532 13.9051 78.4852 11.7691C67.0173 9.63317 55.9141 9.36176 47.171 11.0449C46.5094 11.1728 45.8736 11.3074 45.2475 11.4588C53.9874 9.78916 65.1068 10.0505 76.5586 12.1965C88.0104 14.3426 98.5352 18.1319 106.175 22.8564C114.756 28.1818 118.941 34.3354 117.927 40.1953C116.994 45.662 111.741 49.736 103.076 51.782C112.894 49.907 118.863 45.6479 119.864 39.7847C120.867 33.908 116.683 27.7544 108.102 22.429Z" fill="#FFEB47"/>
<path d="M117.93 40.1818C118.931 34.3186 114.759 28.1683 106.179 22.8429C98.5416 18.105 88.0298 14.319 76.5618 12.1831C65.11 10.037 53.9907 9.77567 45.2508 11.4453C36.5858 13.4913 31.3335 17.5653 30.4 23.032C29.3994 28.8952 33.5713 35.0455 42.1519 40.3709C49.7888 45.1088 60.3007 48.8948 71.7686 51.0308C83.2204 53.1768 94.3397 53.4381 103.08 51.7685C111.732 49.7192 116.984 45.6452 117.93 40.1818Z" fill="#CB9E16"/>
<path d="M108.076 22.4793C106.557 21.5425 105.003 20.6964 103.41 19.8973C102.609 19.518 101.811 19.1252 101.003 18.7727C100.198 18.4068 99.3745 18.0644 98.5603 17.7388C95.278 16.4297 91.9056 15.3255 88.5012 14.4129C81.6893 12.6011 74.7235 11.4345 67.736 10.8189L66.4283 10.7219L65.7696 10.665L65.1077 10.6216L63.7936 10.5515L62.4731 10.5083L61.8209 10.4817L61.1655 10.4685L59.8547 10.4421L58.5375 10.4426L57.8789 10.4428L57.217 10.4565C55.4673 10.4874 53.7144 10.5888 51.9745 10.7507L50.6672 10.8823L49.3664 11.044C48.9306 11.0878 48.4981 11.1754 48.0721 11.236C47.6428 11.3101 47.2039 11.3673 46.7843 11.4582C45.0608 11.7814 43.3569 12.1953 41.6887 12.7469C40.0334 13.3019 38.4042 13.9778 36.8754 14.8653C35.3595 15.7562 33.9473 16.8453 32.81 18.2199C31.6758 19.581 30.8683 21.2411 30.5678 23.0185C30.4111 23.9055 30.3868 24.8127 30.4755 25.7064C30.5642 26.6 30.7788 27.4836 31.0708 28.3301C31.3627 29.1767 31.758 29.993 32.2178 30.7689C32.6775 31.5449 33.1888 32.2771 33.7518 32.9657C34.8744 34.3562 36.1711 35.5921 37.5483 36.7205C38.237 37.2847 38.9449 37.8254 39.6754 38.3291C40.4027 38.8462 41.1396 39.3231 41.8926 39.7898C44.9079 41.6433 48.1035 43.2011 51.3665 44.5337L51.9771 44.7922L52.591 45.0372L53.8218 45.5139L55.0591 45.9636L55.6793 46.1818L56.3028 46.3865L57.5594 46.8127L58.8224 47.2121L59.4458 47.4168L60.0725 47.6081L61.3419 47.9805C64.7205 48.9436 68.1537 49.7352 71.6061 50.3891C75.0616 51.0295 78.5459 51.4919 82.0396 51.7997C82.482 51.8432 82.9147 51.87 83.3473 51.8967C83.78 51.9234 84.2224 51.9669 84.655 51.9936C85.5365 52.037 86.3986 52.1039 87.2865 52.1203C89.0396 52.1902 90.783 52.1862 92.5328 52.1554C94.2858 52.111 96.0226 52.0197 97.7753 51.8611C99.5184 51.6858 101.245 51.4634 102.969 51.1402L103.024 51.1402L102.969 51.1402C103.847 50.9685 104.712 50.7935 105.586 50.5782C106.448 50.3595 107.313 50.1273 108.161 49.8482C109.858 49.2898 111.514 48.6206 113.065 47.7532C114.607 46.869 116.067 45.8068 117.227 44.4523C117.814 43.7768 118.319 43.0375 118.718 42.2276C119.117 41.4178 119.403 40.5643 119.576 39.6671C119.736 38.7667 119.789 37.8528 119.704 36.9457C119.618 36.0385 119.423 35.1315 119.121 34.2681C118.508 32.5246 117.543 30.9324 116.401 29.5083C115.246 28.0808 113.937 26.7844 112.524 25.6325C111.813 25.0482 111.092 24.5041 110.342 23.9669C109.595 23.4732 108.839 22.9628 108.076 22.4793ZM108.128 22.3785C108.903 22.8654 109.663 23.3623 110.416 23.8862C111.169 24.41 111.903 24.9574 112.614 25.5418C114.04 26.697 115.398 27.9631 116.582 29.3839C117.766 30.8047 118.815 32.3901 119.486 34.1773C119.823 35.0641 120.067 35.9981 120.182 36.9556C120.296 37.9131 120.285 38.8807 120.138 39.8416C119.978 40.7992 119.702 41.7266 119.3 42.6071C118.898 43.4875 118.376 44.294 117.787 45.0401C116.585 46.5121 115.092 47.7088 113.506 48.6669C112.706 49.1443 111.877 49.5713 111.044 49.9546C110.199 50.3346 109.351 50.6709 108.47 50.9702C107.602 51.2729 106.718 51.5286 105.837 51.7708C104.946 51.9962 104.059 52.2082 103.168 52.3766L103.113 52.3766L103.168 52.3766C101.415 52.7065 99.653 52.9625 97.8808 53.1445C96.1119 53.3132 94.3429 53.4247 92.5609 53.4758C90.782 53.5134 89.0128 53.5107 87.2338 53.434C86.3459 53.4176 85.458 53.344 84.5765 53.3006C84.131 53.2706 83.6886 53.227 83.2559 53.2003C82.8135 53.1568 82.3648 53.1402 81.9256 53.0832C74.8702 52.4071 67.8815 51.049 61.0628 49.0356C57.6582 48.0088 54.3019 46.8374 51.0225 45.4007C47.7529 43.9807 44.5668 42.3255 41.5579 40.388C40.808 39.9078 40.0678 39.3873 39.3438 38.8567C38.6197 38.3261 37.902 37.7687 37.2198 37.1776C36.5376 36.5865 35.8715 35.9854 35.2312 35.3338C34.5908 34.6822 33.9957 34.0138 33.4262 33.2951C32.3003 31.8608 31.3355 30.2687 30.7224 28.5251C30.4239 27.6483 30.2028 26.7346 30.1076 25.8107C30.0286 24.8767 30.0593 23.9426 30.2095 23.0254C30.526 21.1807 31.3495 19.4535 32.5094 18.0419C33.6596 16.6136 35.0975 15.4741 36.6262 14.5294C38.1679 13.5881 39.8002 12.8416 41.478 12.2497C43.159 11.6443 44.8758 11.1767 46.6121 10.7997C50.0846 10.0459 53.6192 9.66492 57.1638 9.52922C60.7117 9.38009 64.2471 9.51318 67.786 9.80418C69.5426 9.97488 71.3089 10.1624 73.0591 10.4171C73.4983 10.474 73.9343 10.5444 74.3702 10.6148L75.6749 10.8395L76.3337 10.9534L76.9893 11.0809L78.2908 11.3189C81.7626 12.0064 85.2056 12.872 88.6069 13.9123C89.0301 14.0364 89.45 14.174 89.8699 14.3116C90.2899 14.4492 90.713 14.5734 91.1297 14.7244C91.9664 15.013 92.8063 15.2882 93.6365 15.6038C95.3066 16.1945 96.9575 16.8658 98.5891 17.5607C100.221 18.2556 101.836 19.0176 103.416 19.8133C105.041 20.5922 106.609 21.4417 108.128 22.3785Z" fill="#521CA6"/>
<path d="M109.609 27.6157C107.137 26.4742 104.446 25.39 101.565 24.4134C101.602 25.465 101.62 26.5401 101.609 27.622C106.141 31.2254 108.514 35.0815 107.9 38.6331C99.825 85.7773 78.1672 94.6686 65.3743 95.614C72.2114 97.0327 105.984 100.793 116.56 39.1406C117.199 35.4244 114.571 31.3734 109.609 27.6157Z" fill="#FFEB47"/>
<path d="M101.621 27.6252C101.633 26.5433 101.615 25.4682 101.577 24.4166C98.418 23.3393 95.0523 22.3796 91.5125 21.5746C95.5126 23.4411 98.9479 25.4894 101.621 27.6252Z" fill="#FFEB47"/>
<path d="M43.121 29.1753C43.754 25.486 47.4814 22.6859 53.2478 20.9434C54.0602 18.3426 54.9923 15.8728 56.0053 13.524C43.5541 14.13 34.6852 17.7786 33.6813 23.6552C25.0752 73.8873 45.3335 88.9822 56.8571 93.4733C46.6118 85.0608 36.612 67.1635 43.121 29.1753Z" fill="#B07320"/>
<path d="M109.609 27.6154C107.356 25.9027 104.606 24.2608 101.488 22.7231C101.518 23.2876 101.548 23.852 101.565 24.4131C104.443 25.4032 107.137 26.474 109.609 27.6154Z" fill="#B07320"/>
<path d="M70.1296 18.962C75.4663 19.0205 81.285 19.5895 87.3274 20.7162C88.7322 20.9811 90.1307 21.2729 91.4968 21.5848C95.0366 22.3899 98.4023 23.3495 101.562 24.4269C101.544 23.8658 101.514 23.3014 101.484 22.7369C95.0254 19.5609 86.8948 16.8929 77.9006 15.1995C71.8582 14.0728 66.0266 13.5004 60.7027 13.4453C59.0885 13.4257 57.5292 13.4633 56.0184 13.5276C54.9924 15.8732 54.0701 18.3598 53.2609 20.9471C57.7849 19.5814 63.5885 18.8905 70.1296 18.962Z" fill="#B07320"/>
<path d="M107.91 38.6497C108.527 35.0848 106.138 31.2387 101.619 27.6386C101.59 31.956 101.201 36.465 100.418 41.0715C96.1017 66.2414 81.4658 84.5778 67.7146 82.0059C53.9634 79.434 46.3384 56.9295 50.6414 31.7563C51.2936 27.9864 52.1721 24.3609 53.2447 20.957C47.4815 22.6861 43.751 25.4996 43.1179 29.1889C36.609 67.1771 46.6087 85.0744 56.8572 93.4735C61.099 95.1317 64.1632 95.3422 64.1632 95.3422C64.1632 95.3422 64.5992 95.4697 65.3808 95.6442C78.1898 94.6886 99.8378 85.7806 107.91 38.6497Z" fill="#CB9E16"/>
<path d="M87.3402 20.7193C81.2978 19.5926 75.4662 19.0203 70.1423 18.9651C63.6013 18.8936 57.7977 19.5845 53.2608 20.9469C52.185 24.3642 51.3097 27.9763 50.6575 31.7462C46.3384 56.9294 53.9795 79.4237 67.7177 81.9923C81.456 84.5608 96.1017 66.2412 100.421 41.058C101.204 36.4515 101.593 31.9425 101.622 27.6251C98.9481 25.4893 95.5128 23.4411 91.5128 21.5745C90.1305 21.2726 88.745 20.9842 87.3402 20.7193Z" fill="#FFEB47"/>
<path d="M109.583 27.6662C108.177 26.6017 106.703 25.648 105.184 24.7683C103.665 23.8886 102.111 23.0996 100.518 22.3577C97.3422 20.8907 94.0665 19.6689 90.7459 18.6353C87.4221 17.6151 84.0436 16.7664 80.6365 16.0957C78.9345 15.7536 77.2229 15.4518 75.5146 15.1938C73.8063 14.9357 72.0754 14.7146 70.364 14.527C68.6397 14.3362 66.9122 14.2159 65.1945 14.1123C63.4639 14.0055 61.7462 13.959 60.0158 13.9664C58.2853 13.9738 56.5614 14.0114 54.8343 14.1195C53.1073 14.2276 51.39 14.4097 49.6858 14.6522C47.9816 14.8948 46.2937 15.2414 44.6221 15.6923C43.7863 15.9177 42.9699 16.1767 42.1633 16.4525C41.3534 16.7417 40.5598 17.078 39.7856 17.4479C39.0114 17.8177 38.2631 18.2514 37.5698 18.7422C36.8765 19.233 36.2091 19.7876 35.6582 20.4295C35.0943 21.0681 34.6338 21.7906 34.3188 22.5937C34.2673 22.6945 34.2448 22.7886 34.2192 22.8961L34.1196 23.1985L34.0459 23.5077C34.0202 23.6152 33.9978 23.7093 33.9819 23.8336L33.7613 25.1608L33.3171 27.8286C33.2371 28.2789 33.1862 28.7224 33.1224 29.1625L32.9407 30.4998L32.7589 31.8371C32.6951 32.2772 32.628 32.7308 32.59 33.1777L32.317 35.8757L32.2535 36.5443L32.2153 36.877L32.1901 37.2129L32.102 38.5603L32.0138 39.9076C31.9888 40.3578 31.9379 40.8013 31.9386 41.2582L31.856 43.9629L31.8314 44.6416C31.8317 44.87 31.8321 45.0985 31.8357 45.3135L31.8412 46.6709L31.8468 48.0282L31.8473 48.3709L31.8641 48.7036L31.8943 49.3822L31.9547 50.7396L31.9849 51.4182C31.9982 51.65 32.0018 51.8651 32.028 52.1002L32.2489 54.7981C32.262 54.9157 32.2654 55.0165 32.2785 55.134L32.321 55.4734L32.4061 56.152L32.5795 57.4959L32.6678 58.1611C32.6972 58.3828 32.7396 58.6079 32.7819 58.833L33.0134 60.1634L33.1275 60.8353L33.1862 61.1645L33.2578 61.4971L33.5473 62.8141C33.6482 63.2542 33.7361 63.6909 33.8369 64.131L34.1845 65.4345C34.3015 65.8645 34.4023 66.3046 34.5322 66.7379L34.9411 68.0145L35.1456 68.6528C35.217 68.8712 35.2755 69.0862 35.363 69.2944L35.83 70.5575C36.122 71.4041 36.5044 72.217 36.8447 73.0333C36.9323 73.2416 37.0198 73.4499 37.1105 73.6447L37.4053 74.2494L37.9982 75.4452C38.2055 75.8416 38.4289 76.2279 38.6394 76.6108L38.9664 77.1953L39.1316 77.4809L39.3096 77.7697C39.7887 78.5221 40.2388 79.2813 40.7533 80.0001L41.1319 80.5409C41.2549 80.7156 41.3876 80.907 41.5267 81.0716L42.3356 82.1095L42.533 82.3748C42.6074 82.4655 42.6721 82.5394 42.7465 82.6301L43.1767 83.1272C43.4678 83.4597 43.7428 83.8023 44.0533 84.1113L44.9653 85.0618L45.916 85.9652C47.1965 87.1541 48.5543 88.2489 49.9927 89.2361C51.4342 90.2099 52.9272 91.0829 54.4879 91.845C56.0388 92.5903 57.6412 93.2348 59.2918 93.7348C60.1091 93.9899 60.9488 94.208 61.7821 94.3958C62.1987 94.4897 62.6186 94.5702 63.0416 94.6372C63.2515 94.6775 63.4647 94.7043 63.6649 94.7277C63.878 94.7545 64.0911 94.7813 64.2784 94.8014L64.3333 94.8014L64.3979 94.8182C64.6175 94.8752 64.8759 94.9423 65.1085 95.0027C65.3539 95.0664 65.6026 95.1167 65.8416 95.1503C66.3389 95.2509 66.8298 95.3213 67.3336 95.395C68.3314 95.5256 69.342 95.6025 70.3461 95.6492C72.3608 95.7157 74.3914 95.6007 76.3957 95.3077C80.3948 94.7048 84.2796 93.3729 87.8502 91.4027C89.6339 90.4244 91.3237 89.2646 92.9325 87.9839C93.3356 87.6747 93.7192 87.3319 94.1254 87.0092C94.522 86.6697 94.8927 86.3235 95.2763 85.9807C95.6502 85.621 96.0209 85.2748 96.3818 84.9118L96.9265 84.3539L97.1972 84.0817L97.4583 83.7926C100.278 80.7711 102.703 77.3332 104.802 73.7106L105.568 72.3395L106.312 70.9482C106.434 70.7231 106.547 70.4812 106.672 70.2426L107.032 69.5369C107.267 69.0698 107.492 68.5859 107.714 68.1154C108.175 67.1644 108.583 66.2 109.007 65.2255C109.406 64.2443 109.827 63.2833 110.2 62.2954C110.599 61.3142 110.946 60.3195 111.309 59.3148L111.82 57.8061L112.08 57.0601L112.318 56.294L112.79 54.7752L113.236 53.2497L113.461 52.4802C113.534 52.2282 113.595 51.9728 113.672 51.7074L114.093 50.1752C114.227 49.6678 114.352 49.1436 114.487 48.6362C114.609 48.1255 114.747 47.6047 114.872 47.0805L115.231 45.5181L115.404 44.7352L115.564 43.9489C115.785 42.9073 116.006 41.8657 116.201 40.8174L116.492 39.2516C116.588 38.7342 116.629 38.2167 116.606 37.6825C116.556 36.6276 116.267 35.5962 115.836 34.6422C115.405 33.6882 114.822 32.7947 114.181 31.9718C112.787 30.3394 111.229 28.9356 109.583 27.6662ZM109.644 27.5822C111.306 28.8415 112.893 30.2386 114.214 31.8945C114.867 32.7208 115.463 33.6176 115.919 34.5783C116.376 35.5391 116.701 36.5939 116.758 37.6791C116.794 38.2167 116.756 38.7778 116.657 39.3087L116.389 40.8946C116.219 41.9496 116.011 42.9946 115.816 44.0429L115.669 44.8325L115.509 45.6188L115.189 47.1913C115.076 47.7188 114.955 48.2295 114.843 48.7571C114.717 49.2812 114.621 49.7987 114.484 50.3195L114.099 51.8752C114.038 52.1306 113.974 52.3994 113.913 52.6548L113.714 53.4309L113.303 54.98L112.867 56.5223L112.642 57.2917L112.405 58.0579L111.929 59.5901C111.592 60.6015 111.268 61.6163 110.892 62.6176C110.705 63.1116 110.541 63.6257 110.342 64.1163L109.767 65.6083C109.352 66.5996 108.953 67.5808 108.516 68.5519C107.641 70.4942 106.702 72.4197 105.655 74.2747C103.573 78.0015 101.106 81.4999 98.2313 84.6357C95.36 87.758 92.0263 90.4604 88.3428 92.5012C87.8816 92.7668 87.4139 93.0021 86.9461 93.2375C86.7107 93.3619 86.4655 93.4695 86.2332 93.5805L85.8784 93.7452L85.5106 93.9066C84.5557 94.3438 83.5749 94.7171 82.5778 95.0433C81.5905 95.3864 80.5772 95.6656 79.5607 95.9012C78.5441 96.1367 77.5081 96.3387 76.4849 96.4869C74.4127 96.7766 72.3305 96.8782 70.2383 96.7916C69.1922 96.7483 68.1589 96.6512 67.1224 96.5105C66.6057 96.4334 66.089 96.3563 65.5787 96.2524C65.3171 96.1987 65.0684 96.1484 64.81 96.0813C64.5517 96.0142 64.303 95.9639 64.0219 95.8766L64.1414 95.8934C63.8993 95.8733 63.6861 95.8465 63.4601 95.8164C63.234 95.7862 63.0241 95.746 62.7981 95.7158C62.3621 95.6454 61.9326 95.5482 61.4869 95.461C60.6278 95.2664 59.7654 95.0282 58.9223 94.7664C57.2394 94.2295 55.5885 93.5581 53.9923 92.7725C52.3961 91.9869 50.8707 91.077 49.4 90.0528C47.9454 89.0185 46.5585 87.8733 45.2618 86.6374C44.9384 86.325 44.615 86.0127 44.3078 85.6903L43.3924 84.6961C43.0852 84.3737 42.8005 84.0143 42.5126 83.6683L42.0855 83.1578C42.0111 83.0671 41.9335 82.9899 41.872 82.9025L41.6746 82.6372L40.8625 81.5556C40.7266 81.3776 40.6068 81.1895 40.4741 80.9981L40.0987 80.4438C39.5744 79.7082 39.1308 78.9222 38.671 78.1463L38.493 77.8574L38.331 77.5584L38.0072 76.9605C37.7999 76.5641 37.5797 76.1644 37.3756 75.7546L36.8053 74.5217L36.5137 73.9036C36.4132 73.692 36.3386 73.4871 36.2511 73.2788C35.9172 72.4356 35.538 71.6093 35.2622 70.7526L34.8113 69.4794C34.7367 69.2745 34.6653 69.0561 34.61 68.8277L34.4087 68.176L34.0191 66.8759C33.8892 66.4425 33.7884 66.0024 33.6747 65.559L33.3431 64.2454C33.2847 64.0304 33.2423 63.8053 33.2 63.5802L33.0568 62.915L32.7833 61.588L32.7118 61.2554L32.6563 60.9127L32.5422 60.2408L32.3268 58.9003C32.2974 58.6786 32.255 58.4535 32.2256 58.2318L32.1405 57.5531L31.9833 56.1992L31.8982 55.5206L31.8556 55.1812C31.8425 55.0636 31.8391 54.9629 31.826 54.8453L31.6083 52.134C31.5918 51.9156 31.5785 51.6838 31.5652 51.452L31.535 50.7733L31.4746 49.416L31.4444 48.7373L31.4309 48.3913L31.4303 48.0486L31.4248 46.6912L31.4193 45.3338C31.4189 45.1054 31.4185 44.8769 31.4181 44.6484L31.4428 43.9698L31.5157 41.2483C31.5278 40.7947 31.5658 40.3479 31.578 39.8943L31.6532 38.5436L31.7284 37.193L31.7827 36.8502L31.8079 36.5143L31.8714 35.8456L32.1186 33.1409C32.1566 32.694 32.2107 32.2371 32.2616 31.7936L32.4176 30.4496L32.5735 29.1056C32.6244 28.6621 32.6785 28.2052 32.7423 27.765L33.1349 25.0838L33.3328 23.7364C33.3455 23.6255 33.3744 23.5046 33.4 23.397L33.4704 23.0442L33.5667 22.6981C33.6085 22.5805 33.6341 22.473 33.6759 22.3554C33.9972 21.4683 34.4931 20.6551 35.0891 19.9392C35.6852 19.2233 36.3783 18.6183 37.0941 18.0906C37.8261 17.5527 38.5937 17.0955 39.3904 16.6887C40.1872 16.2819 41.0001 15.9221 41.8293 15.6093C42.6585 15.2965 43.4942 15.014 44.3461 14.7785C45.198 14.543 46.0468 14.321 46.9117 14.1459C47.3474 14.045 47.7766 13.9709 48.2091 13.8834C48.6384 13.8093 49.0708 13.7218 49.5098 13.6645C51.2495 13.3884 52.9797 13.2097 54.7358 13.0948C56.4789 12.9766 58.2351 12.9188 59.9753 12.9282C63.4685 12.9505 66.9654 13.1877 70.4303 13.6165C73.8952 14.0453 77.3442 14.6555 80.7386 15.4371C84.146 16.222 87.5149 17.1683 90.8292 18.2859C94.1435 19.4034 97.4001 20.7058 100.567 22.2132C103.746 23.724 106.819 25.4498 109.644 27.5822Z" fill="#521CA6"/>
<path d="M81.6148 98.6752C82.267 94.9052 74.963 90.3823 65.3229 88.5782C57.2589 87.0693 50.1093 87.9388 47.5986 90.4696C51.0575 89.3126 56.4649 89.1325 62.3749 90.2391C72.015 92.0431 79.3061 96.5627 78.6667 100.336C78.5612 100.951 78.249 101.512 77.7623 101.999C79.9403 101.266 81.3622 100.137 81.6148 98.6752Z" fill="#FFEB47"/>
<path d="M62.3751 90.2387C56.478 89.1355 51.0738 89.3021 47.5987 90.4692C47.1089 90.97 46.7998 91.5177 46.6943 92.1326C46.0421 95.9025 53.3461 100.425 62.9862 102.23C68.8833 103.333 74.2875 103.166 77.7626 101.999C78.2525 101.498 78.5615 100.95 78.667 100.336C79.3063 96.5623 72.0152 92.0427 62.3751 90.2387Z" fill="#B07320"/>
<path d="M81.6148 98.6752C82.267 94.9052 74.963 90.3823 65.3229 88.5782C57.2589 87.0693 50.1093 87.9388 47.5986 90.4696C51.0575 89.3126 56.4649 89.1325 62.3749 90.2391C72.015 92.0431 79.3061 96.5627 78.6667 100.336C78.5612 100.951 78.249 101.512 77.7623 101.999C79.9403 101.266 81.3622 100.137 81.6148 98.6752Z" fill="#FFEB47"/>
<path d="M81.6141 98.6749C82.2663 94.905 74.9623 90.382 65.3223 88.578C57.7039 87.1562 50.9123 87.8475 48.0653 90.0627C51.2714 88.2976 57.5307 87.8249 64.4805 89.1159C74.1206 90.9199 81.4117 95.4395 80.7723 99.2128C80.6381 100.006 80.1582 100.695 79.4005 101.283C80.6456 100.607 81.4318 99.7266 81.6141 98.6749Z" fill="#FFEB47"/>
<path d="M64.4817 89.1152C57.535 87.8108 51.2629 88.2801 48.0665 90.062C47.8988 90.1897 47.7409 90.3343 47.599 90.4687C51.058 89.3117 56.4654 89.1316 62.3754 90.2382C72.0154 92.0422 79.3065 96.5618 78.6672 100.335C78.5617 100.95 78.2495 101.511 77.7628 101.999C78.3759 101.787 78.9243 101.558 79.4146 101.286C80.1723 100.697 80.6521 100.008 80.7864 99.2155C81.4257 95.4422 74.1217 90.9192 64.4817 89.1152Z" fill="#FFEB47"/>
<path d="M62.3751 90.2387C56.478 89.1355 51.0738 89.3021 47.5987 90.4692C47.1089 90.97 46.7998 91.5177 46.6943 92.1326C46.0421 95.9025 53.3461 100.425 62.9862 102.23C68.8833 103.333 74.2875 103.166 77.7626 101.999C78.2525 101.498 78.5615 100.95 78.667 100.336C79.3063 96.5623 72.0152 92.0427 62.3751 90.2387Z" fill="#B07320"/>
<path d="M80.2174 100.682C80.5398 100.423 80.8428 100.131 81.0779 99.778C81.313 99.4251 81.4737 99.0387 81.5312 98.6254C81.5886 98.2121 81.5394 97.7854 81.4161 97.3823C81.2927 96.9792 81.108 96.6029 80.8589 96.2671C80.3928 95.5751 79.7752 95.0008 79.1286 94.4904C78.4821 93.9799 77.7775 93.54 77.0504 93.1371C76.3363 92.7376 75.5834 92.3851 74.8403 92.0494C74.0843 91.7103 73.3186 91.4116 72.5498 91.1263C72.1589 90.9819 71.7809 90.841 71.3868 90.7101C70.9959 90.5658 70.6115 90.4517 70.2174 90.3208C69.4389 90.0758 68.6443 89.8409 67.8465 89.6195C66.2606 89.1933 64.649 88.8176 63.0149 88.536C61.3937 88.2578 59.7372 88.0702 58.0874 88.0271C56.4375 87.9841 54.7815 88.0821 53.1516 88.3582C52.7482 88.439 52.3447 88.5198 51.9381 88.614C51.7348 88.6611 51.5412 88.725 51.3379 88.7721C51.1443 88.836 50.9378 88.8966 50.7571 88.9638C49.9795 89.2329 49.2278 89.5658 48.57 90.023C48.4055 90.1373 48.241 90.2516 48.0992 90.386C48.0283 90.4532 47.9574 90.5205 47.8865 90.5877C47.8156 90.6549 47.7447 90.7221 47.6835 90.8061C47.4354 91.0985 47.2325 91.4312 47.1072 91.784C47.0526 91.9554 47.0077 92.1436 47.0048 92.3284C46.9953 92.4258 46.989 92.5098 46.9956 92.5972L47.0055 92.7282L47.0024 92.7987L47.0122 92.8726C47.0612 93.2422 47.1942 93.605 47.3756 93.9376L47.4404 94.0686C47.4566 94.1156 47.4889 94.1525 47.5213 94.1895C47.5699 94.2735 47.6184 94.3574 47.6831 94.4313C47.7964 94.5892 47.9097 94.7471 48.052 94.8982C48.3075 95.2072 48.5986 95.4826 48.8896 95.758C49.4878 96.2987 50.1569 96.7722 50.8485 97.2087C52.2318 98.0818 53.7245 98.7834 55.2429 99.3775C56.0086 99.6763 56.7806 99.9481 57.5591 100.193C58.3376 100.438 59.1322 100.673 59.9203 100.878C61.5062 101.304 63.1145 101.636 64.7389 101.901C66.3633 102.165 67.9876 102.373 69.6343 102.487L70.2542 102.534L70.8645 102.564C71.2713 102.584 71.6845 102.577 72.0913 102.597L72.7112 102.586C72.9178 102.583 73.1244 102.58 73.3342 102.563L73.9444 102.536L74.5609 102.482C75.3776 102.394 76.2007 102.279 77.0042 102.074L77.6076 101.903C77.8012 101.839 78.0078 101.778 78.1884 101.711C78.5788 101.57 78.9498 101.395 79.324 101.207L79.2886 101.24C79.2918 101.227 79.295 101.213 79.3111 101.203C79.3272 101.193 79.3401 101.196 79.3563 101.186L79.2918 101.227C79.295 101.213 79.2982 101.2 79.3143 101.19C79.3304 101.18 79.3433 101.183 79.3595 101.173L79.3304 101.18C79.6725 101.069 79.9466 100.897 80.2174 100.682ZM80.2886 100.786C80.0178 101.001 79.7275 101.183 79.4405 101.351L79.4114 101.358C79.4244 101.361 79.4405 101.351 79.4566 101.341C79.4727 101.331 79.4759 101.317 79.4791 101.304L79.4146 101.344C79.4276 101.348 79.4437 101.337 79.4598 101.327C79.4759 101.317 79.4791 101.304 79.4824 101.29L79.4469 101.324C77.9632 102.138 76.3238 102.568 74.6875 102.871C73.8677 103.03 73.0349 103.127 72.2022 103.225C71.3629 103.292 70.5236 103.36 69.6874 103.357C68.0054 103.391 66.3297 103.284 64.6666 103.066L64.0434 102.976L63.4233 102.872C63.0132 102.808 62.5934 102.728 62.1864 102.651C61.3629 102.48 60.5393 102.309 59.7254 102.097C59.312 101.99 58.9147 101.872 58.5013 101.765C58.091 101.644 57.6937 101.527 57.2899 101.379C56.4888 101.114 55.6941 100.822 54.909 100.49C53.3357 99.8385 51.817 99.073 50.3722 98.1127C49.6514 97.6258 48.9661 97.1053 48.3162 96.494C48.0057 96.185 47.6855 95.8592 47.4137 95.5032C47.2779 95.3252 47.1452 95.1337 47.0254 94.9456C46.9671 94.8449 46.9088 94.7441 46.8505 94.6433C46.8214 94.5929 46.7923 94.5425 46.7631 94.4921L46.6918 94.3309C46.5914 94.1193 46.5071 93.8976 46.4389 93.6658L46.3576 93.3164C46.3315 93.1954 46.3216 93.0644 46.3085 92.9468L46.3019 92.8595L46.2985 92.7587L46.3014 92.5739C46.2915 92.4429 46.3204 92.3219 46.3363 92.1976C46.3552 91.9456 46.4388 91.7104 46.5191 91.4886C46.6959 91.035 46.9826 90.6384 47.2952 90.3057C47.3693 90.225 47.4563 90.1477 47.5434 90.0704C47.6304 89.9931 47.7175 89.9158 47.8013 89.8519C47.9851 89.7141 48.1657 89.5897 48.343 89.4788C48.7139 89.2468 49.101 89.0619 49.4978 88.8938C49.8915 88.7391 50.298 88.5877 50.6949 88.4767C51.5049 88.2446 52.3278 88.0729 53.1541 87.9449C53.9804 87.817 54.81 87.7327 55.6461 87.6786C56.4821 87.6246 57.3118 87.5974 58.148 87.6004C59.8106 87.5897 61.4896 87.6832 63.1526 87.8439C63.9824 87.9309 64.8091 88.0314 65.6422 88.1621C66.0524 88.2258 66.4722 88.3063 66.8791 88.3834C67.2861 88.4605 67.7027 88.5545 68.1064 88.645C68.9235 88.843 69.7407 89.0409 70.545 89.2926C71.3493 89.5443 72.1472 89.8228 72.9355 90.1417C74.4992 90.7761 76.0308 91.545 77.4497 92.4986C78.1575 92.9822 78.8429 93.5027 79.4702 94.0938C79.7838 94.3893 80.0943 94.6983 80.3725 95.0275C80.6636 95.36 80.9096 95.7093 81.1362 96.0822L81.3013 96.3677C81.3467 96.4651 81.3921 96.5625 81.4342 96.6734C81.4796 96.7708 81.5217 96.8817 81.551 96.9892L81.6094 97.147C81.6256 97.1941 81.6386 97.2546 81.6516 97.315C81.7557 97.7417 81.7984 98.1952 81.7184 98.6455C81.6288 99.0789 81.4487 99.4889 81.2104 99.8552C80.9333 100.211 80.6272 100.517 80.2886 100.786Z" fill="#521CA6"/>
<path d="M64.3198 94.4554C59.1462 93.483 54.553 94.0458 52.9447 95.6691C52.6354 95.9884 52.4261 96.348 52.359 96.7445L46.4063 131.48C45.9939 133.899 50.6671 136.797 56.8645 137.964C60.6463 138.675 64.1167 138.563 66.3399 137.813C67.7434 137.335 68.6559 136.616 68.8125 135.672L74.7652 100.936C75.1808 98.5033 70.5075 95.6056 64.3198 94.4554Z" fill="#FFEB47"/>
<path d="M64.3198 94.4554C59.1462 93.483 54.553 94.0458 52.9447 95.6691C52.6354 95.9884 52.4261 96.348 52.359 96.7445L46.4063 131.48C45.9939 133.899 50.6671 136.797 56.8645 137.964C60.6463 138.675 64.1167 138.563 66.3399 137.813C67.7434 137.335 68.6559 136.616 68.8125 135.672L74.7652 100.936C75.1808 98.5033 70.5075 95.6056 64.3198 94.4554Z" stroke="#521CA6" stroke-width="8.4282" stroke-miterlimit="10"/>
<path d="M65.9961 96.8604C65.9961 96.8604 73.6291 99.3706 73.3616 101.528L71.0661 114.891L63.5716 112.202L65.9961 96.8604Z" fill="#FFEB47"/>
<path d="M78.0444 119.458C78.6967 115.688 71.3926 111.165 61.7526 109.361C55.1063 108.12 49.0922 108.485 45.776 110.079C49.2122 108.787 54.81 108.557 60.9428 109.707C70.5829 111.511 77.874 116.031 77.2346 119.804C77.0365 120.98 76.0792 121.945 74.5792 122.654C76.5506 121.924 77.8111 120.838 78.0444 119.458Z" fill="#FFEB47"/>
<path d="M77.2473 119.807C77.8996 116.037 70.5956 111.514 60.9556 109.71C54.8228 108.56 49.225 108.79 45.7888 110.082C45.0759 110.425 44.489 110.815 44.0378 111.269C47.4967 110.111 52.9041 109.931 58.8141 111.038C68.4542 112.842 75.7452 117.362 75.1059 121.135C75.0004 121.75 74.6882 122.311 74.2015 122.798C74.337 122.748 74.4693 122.711 74.6048 122.66C76.0919 121.948 77.0362 120.98 77.2473 119.807Z" fill="#FFEB47"/>
<path d="M58.8138 111.038C52.9167 109.935 47.5125 110.102 44.0374 111.269C43.5476 111.77 43.2385 112.318 43.133 112.932C42.4808 116.702 49.7848 121.225 59.4249 123.029C65.3219 124.133 70.7261 123.966 74.2012 122.799C74.6911 122.298 75.0001 121.75 75.1056 121.135C75.745 117.362 68.4539 112.843 58.8138 111.038Z" fill="#B07320"/>
<path d="M61.749 109.431C58.4419 108.8 55.0486 108.704 51.7466 109.088C51.5367 109.105 51.3366 109.139 51.1236 109.169C50.9235 109.203 50.7137 109.22 50.5104 109.267C50.1069 109.348 49.6938 109.412 49.2872 109.506C48.4803 109.667 47.6865 109.89 46.9315 110.179L46.6476 110.276C46.5572 110.31 46.4637 110.357 46.3733 110.391C46.1895 110.471 46.0056 110.552 45.8217 110.633C45.4636 110.811 45.125 111.023 44.8251 111.245C44.522 111.48 44.2416 111.735 44.0193 112.034C43.7971 112.334 43.6523 112.653 43.5819 113.006C43.441 113.711 43.6683 114.484 44.0666 115.172C44.4778 115.864 45.0406 116.496 45.6485 117.053C46.8901 118.175 48.338 119.065 49.847 119.814C52.8842 121.287 56.1562 122.18 59.4501 122.693C61.1035 122.951 62.7697 123.098 64.4228 123.185C66.0791 123.258 67.7418 123.247 69.3945 123.106C71.0376 122.947 72.6675 122.671 74.1839 122.123C74.9357 121.847 75.6647 121.494 76.2677 121.037C76.5708 120.802 76.8383 120.543 77.0412 120.267C77.2474 119.978 77.376 119.669 77.44 119.343C77.5551 118.688 77.3311 117.959 76.9265 117.297C76.716 116.971 76.4895 116.656 76.2049 116.353C76.0755 116.206 75.93 116.068 75.7877 115.917C75.6422 115.779 75.4837 115.638 75.3382 115.5C74.0999 114.422 72.6811 113.526 71.2108 112.73C68.2767 111.169 65.0463 110.044 61.749 109.431ZM61.7649 109.306C63.4184 109.622 65.0623 109.977 66.6999 110.417C66.9066 110.47 67.1133 110.524 67.3168 110.591C67.5236 110.645 67.7271 110.712 67.9338 110.766L68.5475 110.954L69.158 111.155C69.9591 111.42 70.7668 111.715 71.5518 112.048C72.3369 112.38 73.1253 112.756 73.875 113.179C74.2499 113.391 74.6215 113.616 74.99 113.854C75.1678 113.972 75.3552 114.106 75.5298 114.237C75.7044 114.368 75.8789 114.499 76.0503 114.643C76.7389 115.207 77.3922 115.862 77.9165 116.655C78.1787 117.051 78.399 117.508 78.5419 118.002C78.6848 118.496 78.7341 119.037 78.6478 119.571C78.5616 120.105 78.3332 120.603 78.0401 121.026C77.747 121.45 77.3925 121.786 77.0088 122.071C76.2543 122.646 75.4252 123.016 74.5895 123.299C73.7538 123.581 72.9083 123.79 72.0498 123.938C71.2041 124.089 70.3487 124.167 69.4965 124.231C67.7856 124.329 66.0777 124.3 64.3857 124.146C62.6937 123.992 61.0209 123.7 59.3608 123.355C58.5276 123.167 57.7104 122.969 56.8997 122.744C56.4863 122.637 56.089 122.519 55.6788 122.398L55.065 122.211L54.4674 122.013C52.8491 121.492 51.2661 120.881 49.7184 120.18C48.9398 119.821 48.1804 119.438 47.4307 119.015C46.681 118.592 45.957 118.118 45.2749 117.584C44.929 117.309 44.5992 117.023 44.292 116.701C43.9686 116.389 43.6839 116.029 43.4153 115.66L43.2243 115.368C43.166 115.267 43.1109 115.153 43.0527 115.052C42.9944 114.951 42.9522 114.84 42.9101 114.729L42.842 114.555C42.8289 114.494 42.803 114.43 42.7868 114.383C42.6375 113.916 42.5849 113.389 42.6648 112.882C42.7447 112.374 42.9569 111.887 43.2339 111.474C43.5108 111.06 43.8654 110.724 44.22 110.445C44.5908 110.156 44.9746 109.927 45.3779 109.732C45.5811 109.628 45.7779 109.551 45.9908 109.463C46.0973 109.42 46.1908 109.373 46.2941 109.342L46.6071 109.238C46.8168 109.164 47.0265 109.09 47.2298 109.043C47.4364 108.982 47.6429 108.922 47.8591 108.878C48.2787 108.787 48.6982 108.696 49.1243 108.636C49.5535 108.562 49.9732 108.528 50.396 108.481C50.6059 108.464 50.8286 108.45 51.0384 108.433C51.2482 108.417 51.4581 108.4 51.6776 108.4C53.3789 108.342 55.0676 108.452 56.7532 108.633C58.4516 108.76 60.1082 109.005 61.7649 109.306Z" fill="#521CA6"/>
<path d="M60.5886 116.194C55.4149 115.222 50.8218 115.785 49.2135 117.408C48.9041 117.727 48.6949 118.087 48.6277 118.484L42.675 153.219C42.2626 155.638 64.9246 158.355 65.0812 157.411L71.0339 122.675C71.4592 120.259 66.773 117.358 60.5886 116.194Z" fill="#FFEB47"/>
<path d="M31.5942 139.28C31.5942 139.28 45.4152 137.303 47.5892 124.623L59.2121 126.799L56.287 143.894L31.5942 139.28Z" fill="#FFEB47"/>
<path d="M80.1238 148.357C80.1238 148.357 67.8214 141.495 69.9953 128.814L58.3724 126.638L55.4472 143.733L80.1238 148.357Z" fill="#FFEB47"/>
<path d="M80.0593 148.341C80.0431 148.351 80.0399 148.364 80.0399 148.364C80.0367 148.378 80.0497 148.381 80.0497 148.381L80.0141 148.357L79.9398 148.324L79.7944 148.243L79.5067 148.069C79.3129 147.961 79.1351 147.844 78.9444 147.723C78.576 147.484 78.2107 147.233 77.8487 146.967C77.1375 146.44 76.4457 145.889 75.7828 145.275C75.1297 144.677 74.5022 144.029 73.9071 143.36C73.3119 142.692 72.7715 141.966 72.2666 141.207C71.2536 139.702 70.4598 138.026 69.937 136.249L69.755 135.574L69.7128 135.406L69.6834 135.241L69.6151 134.895L69.5467 134.549L69.5173 134.385L69.4912 134.207L69.3964 133.511C69.3541 133.286 69.3569 133.044 69.3436 132.812C69.3303 132.58 69.304 132.345 69.3037 132.117L69.3057 131.418L69.3051 131.075L69.3336 130.726L69.3776 130.024C69.3933 129.785 69.4317 129.567 69.4604 129.331L69.5561 128.643L69.6615 127.971L70.1057 125.303L70.55 122.635L70.5692 122.554L70.5691 122.497C70.5658 122.454 70.5754 122.413 70.5818 122.386C70.5752 122.299 70.5783 122.228 70.5588 122.138C70.5522 122.05 70.5166 121.97 70.5067 121.896C70.4905 121.849 70.4711 121.815 70.4549 121.768C70.4387 121.721 70.4192 121.688 70.403 121.641C70.2475 121.315 70.008 120.996 69.7234 120.693C69.1639 120.106 68.4561 119.622 67.7354 119.192C67.0018 118.759 66.236 118.403 65.438 118.068C64.653 117.735 63.8389 117.467 63.0185 117.225C62.198 116.984 61.3712 116.769 60.5186 116.604C58.8424 116.269 57.1245 116.051 55.4102 116.049C54.5611 116.042 53.6992 116.09 52.86 116.214C52.0208 116.339 51.1785 116.534 50.4236 116.88C50.2397 116.961 50.0494 117.069 49.8721 117.18C49.6947 117.29 49.5399 117.422 49.3852 117.553C49.2434 117.687 49.108 117.852 49.0115 118.027C48.9632 118.114 48.9278 118.205 48.8925 118.295C48.8797 118.349 48.87 118.389 48.8572 118.443L48.8412 118.51L48.822 118.591L48.339 121.249C48.1823 122.136 48.0256 123.023 47.8689 123.91L47.7505 124.579L47.6193 125.244C47.568 125.459 47.5393 125.694 47.4751 125.906L47.2922 126.558L47.1991 126.89L47.0932 127.22L46.8715 127.861C46.7943 128.07 46.7011 128.288 46.611 128.493C46.521 128.698 46.4406 128.92 46.3377 129.122L46.0288 129.726L45.9515 129.878L45.8614 130.026L45.694 130.325L45.5266 130.624L45.4365 130.772L45.3463 130.919L44.9792 131.481C44.4607 132.217 43.8937 132.926 43.262 133.561L43.0267 133.8L42.7785 134.035C42.6174 134.193 42.4562 134.351 42.2853 134.492L41.7824 134.932C41.6116 135.074 41.4278 135.211 41.2569 135.353C39.8544 136.458 38.2997 137.339 36.6867 138.062C35.8738 138.422 35.0575 138.738 34.2121 139.004C33.7958 139.138 33.3699 139.256 32.9439 139.374C32.505 139.488 32.0855 139.579 31.6401 139.663L31.6549 138.854L34.923 139.417L38.188 139.994L44.7276 141.164L45.2411 141.254L45.1517 141.802L44.1801 147.658L43.7008 150.588L43.4611 152.053L43.3429 152.779L43.2822 153.149L43.2597 153.243L43.2501 153.283L43.2437 153.31L43.2469 153.296C43.2565 153.256 43.2403 153.209 43.2435 153.196C43.2241 153.162 43.2532 153.212 43.2985 153.253C43.3437 153.293 43.4246 153.357 43.4957 153.404C43.6637 153.505 43.8447 153.609 44.0547 153.706C44.465 153.884 44.8947 154.038 45.3404 154.183C46.2223 154.455 47.1396 154.693 48.0633 154.904C48.987 155.115 49.9171 155.3 50.8375 155.467C51.7708 155.638 52.7041 155.809 53.6439 155.954C55.5201 156.255 57.3963 156.5 59.2788 156.718C60.2153 156.818 61.1646 156.922 62.0977 156.979C62.5691 157.015 63.0438 157.039 63.5055 157.059C63.7379 157.062 63.9704 157.065 64.1899 157.065C64.2997 157.065 64.4127 157.052 64.5224 157.052C64.6193 157.048 64.7323 157.035 64.7903 157.021L64.8033 157.025L64.7871 157.035L64.7549 157.055C64.7388 157.065 64.7356 157.078 64.7194 157.088C64.7001 157.112 64.6776 157.149 64.6582 157.172C64.6325 157.223 64.6068 157.273 64.6068 157.33L64.6133 157.304L64.6229 157.263L64.6453 157.169L64.706 156.8L64.8404 156.064L65.1059 154.605L65.6369 151.689L66.7279 145.849L66.8016 145.483L67.1407 145.557C68.2 145.775 69.2464 145.989 70.3025 146.221C71.3586 146.452 72.4147 146.684 73.4934 146.935C74.5592 147.184 75.6541 147.425 76.7522 147.653C77.8341 147.891 78.9451 148.123 80.0593 148.341ZM80.1756 148.371C79.1228 148.183 78.0538 148.005 76.972 147.824C75.8901 147.643 74.8019 147.489 73.7039 147.318C72.6027 147.161 71.4789 146.983 70.368 146.809C69.2442 146.631 68.1204 146.453 66.9998 146.262L67.4126 145.97L66.4927 151.84L66.0263 154.773L65.7866 156.238L65.6684 156.964L65.6077 157.333L65.5982 157.431L65.5885 157.471L65.5821 157.498C65.5661 157.565 65.5501 157.632 65.5082 157.693C65.4825 157.743 65.447 157.777 65.4116 157.811C65.3761 157.844 65.36 157.854 65.3406 157.878L65.3052 157.911L65.2729 157.932L65.2116 157.958C65.1794 157.979 65.1503 157.985 65.1213 157.992L65.0471 158.016C64.8696 158.069 64.7437 158.08 64.6049 158.086C64.479 158.097 64.3402 158.103 64.2143 158.113C63.9657 158.12 63.7171 158.127 63.4718 158.12C62.981 158.107 62.5032 158.097 62.0156 158.071C61.0535 158.021 60.0977 157.944 59.1451 157.853C57.24 157.672 55.338 157.421 53.4425 157.143C51.5469 156.865 49.6641 156.533 47.7748 156.114C46.8381 155.899 45.8918 155.668 44.9615 155.369C44.4899 155.218 44.0215 155.053 43.5498 154.845C43.3139 154.741 43.0813 154.624 42.8324 154.459C42.7128 154.385 42.5867 154.281 42.4638 154.164C42.3442 154.033 42.1987 153.895 42.0981 153.626C42.0462 153.498 42.0201 153.32 42.0425 153.169L42.0553 153.115L42.0617 153.089L42.0713 153.048L42.0938 152.954L42.1545 152.585L42.2888 151.849L42.5414 150.387L43.0595 147.467L44.0956 141.628L44.5196 142.266L38.0025 141.002L34.7406 140.354L31.4819 139.694L29.1244 139.224L31.4967 138.884C31.8937 138.83 32.3262 138.742 32.7458 138.652C33.1653 138.561 33.5751 138.453 33.9882 138.332C34.8143 138.09 35.6338 137.817 36.4243 137.494C38.0212 136.839 39.5501 136.008 40.9463 134.986C42.3555 133.968 43.5996 132.721 44.627 131.289C45.6416 129.854 46.4395 128.235 46.9176 126.518L47.0974 125.879C47.1616 125.667 47.187 125.446 47.2383 125.231L47.3663 124.579L47.4847 123.91C47.6284 123.02 47.7851 122.133 47.9289 121.242L48.3603 118.571L48.3795 118.49L48.4019 118.396C48.418 118.329 48.4308 118.275 48.4468 118.208C48.4886 118.091 48.5304 117.973 48.598 117.862C48.7203 117.637 48.862 117.445 49.0264 117.274C49.1907 117.103 49.3777 116.951 49.5744 116.817C49.7679 116.696 49.9646 116.561 50.1647 116.471C50.9775 116.054 51.8521 115.838 52.7267 115.68C53.6014 115.522 54.4826 115.451 55.3672 115.424C57.1363 115.369 58.8993 115.513 60.627 115.805C62.3677 116.1 64.0828 116.559 65.7401 117.204C66.5703 117.519 67.3813 117.916 68.1666 118.362C68.9487 118.822 69.7147 119.349 70.3874 120.038C70.7173 120.38 71.0182 120.787 71.2482 121.261C71.2742 121.324 71.3033 121.375 71.326 121.452C71.352 121.516 71.3779 121.58 71.3909 121.64C71.4267 121.778 71.4656 121.902 71.4852 122.05C71.5081 122.184 71.5116 122.342 71.5183 122.487C71.5152 122.557 71.512 122.628 71.4928 122.709L71.4801 122.819L71.4608 122.9L70.9908 125.561L70.5207 128.222L70.4023 128.891L70.3034 129.536C70.2779 129.758 70.2266 129.973 70.2173 130.185L70.17 130.843C70.0406 132.594 70.2211 134.368 70.6534 136.064C70.8905 136.911 71.1566 137.75 71.5293 138.547C71.5746 138.644 71.6168 138.755 71.6621 138.852L71.8111 139.148C71.9148 139.346 72.0023 139.554 72.1092 139.739L72.4233 140.32C72.5269 140.518 72.6499 140.693 72.7536 140.891C73.2197 141.64 73.7182 142.369 74.2714 143.041C74.8214 143.726 75.4068 144.378 76.0245 145.009C76.6454 145.627 77.2986 146.225 77.9743 146.786C78.3202 147.061 78.6661 147.337 79.0152 147.599C79.1898 147.729 79.3644 147.86 79.555 147.981L79.8265 148.166L79.9688 148.26L80.0399 148.307L80.0754 148.331C80.0883 148.334 80.111 148.354 80.1207 148.371C80.169 148.341 80.1626 148.367 80.1756 148.371Z" fill="#521CA6"/>
<path d="M56.4803 140.148C41.9799 137.439 29.2738 138.135 24.9856 141.504C25.0727 141.483 25.1728 141.466 25.2599 141.446C30.5179 138.844 42.1915 138.507 55.3517 140.968C72.6877 144.214 86.0038 151.083 85.1087 156.332C84.9841 157.084 84.5655 157.746 83.9014 158.345C85.2238 157.575 86.039 156.63 86.2341 155.525C87.1292 150.277 73.8162 143.394 56.4803 140.148Z" fill="#FFEB47"/>
<path d="M55.3523 140.968C42.205 138.51 30.5314 138.847 25.2604 141.446C31.3762 140.137 40.8811 140.322 51.3221 142.277C68.6581 145.523 81.9743 152.392 81.0792 157.64C80.9289 158.5 80.4071 159.25 79.5624 159.915C81.318 159.515 82.7861 158.997 83.8859 158.355C84.55 157.757 84.9557 157.091 85.0932 156.342C86.0044 151.084 72.6883 144.214 55.3523 140.968Z" fill="#FFEB47"/>
<path d="M51.3348 142.28C40.7356 140.298 31.0886 140.134 24.9859 141.503C24.1443 142.155 23.6194 142.918 23.4691 143.778C22.574 149.027 35.8902 155.896 53.2261 159.142C63.8253 161.124 73.4723 161.288 79.5751 159.918C80.4166 159.266 80.9415 158.503 81.0918 157.643C81.9869 152.395 68.6611 145.509 51.3348 142.28Z" fill="#B07320"/>
<path d="M56.4774 140.219C55.8186 140.105 55.163 139.977 54.501 139.877C53.8422 139.763 53.177 139.676 52.515 139.575C51.1846 139.401 49.8639 139.243 48.5335 139.126C45.8697 138.905 43.2092 138.786 40.5361 138.834C39.1995 138.858 37.8695 138.912 36.5557 139.013C35.2289 139.111 33.9087 139.239 32.608 139.458C31.2976 139.66 30.0034 139.909 28.7579 140.299C28.1254 140.478 27.522 140.706 26.9252 140.965C26.3413 141.228 25.7736 141.537 25.2835 141.923L24.8849 141.006C25.0882 140.959 25.2883 140.926 25.4884 140.892L25.6741 141.896L25.0835 142.014L25.2706 141.92C24.7805 142.307 24.3454 142.75 24.1074 143.288C23.8597 143.809 23.8123 144.41 23.9457 145.001C24.014 145.29 24.121 145.589 24.2603 145.868C24.3996 146.147 24.568 146.419 24.7621 146.698C25.1311 147.222 25.5903 147.712 26.056 148.176C27.0164 149.096 28.1058 149.878 29.2208 150.61C30.352 151.332 31.5121 151.99 32.7141 152.588C35.1182 153.783 37.6122 154.773 40.1415 155.616C42.6838 156.462 45.2581 157.173 47.8612 157.763C53.0675 158.944 58.3506 159.688 63.6524 160.066L64.6501 160.139L65.6413 160.182C66.3032 160.226 66.9586 160.239 67.6269 160.256L68.1177 160.269L68.6116 160.269L69.6125 160.272C69.9418 160.272 70.2743 160.258 70.6036 160.258C70.9361 160.244 71.2622 160.258 71.5979 160.231C72.2629 160.204 72.9118 160.187 73.5833 160.133C74.2386 160.089 74.8971 160.031 75.5588 159.96C76.8693 159.816 78.1668 159.61 79.4448 159.314L79.0032 159.727L79.0804 159.576L79.2287 159.415L79.4287 159.324L79.5965 159.311L79.4416 159.327C80.3 159.122 81.139 158.883 81.9521 158.581C82.7652 158.278 83.5426 157.895 84.2197 157.414C84.5519 157.172 84.8516 156.893 85.09 156.584C85.2092 156.429 85.3155 156.271 85.3959 156.107C85.4763 155.942 85.5439 155.774 85.6017 155.589C85.7974 154.883 85.6024 154.091 85.1976 153.372C84.796 152.639 84.2106 151.988 83.5735 151.38C82.9365 150.772 82.2285 150.231 81.5142 149.718C80.7869 149.201 80.0371 148.72 79.2518 148.274C78.4826 147.817 77.6942 147.384 76.8961 146.991C73.6907 145.36 70.3308 144.03 66.9229 142.903C63.5052 141.758 60.0073 140.893 56.4774 140.219ZM56.4934 140.094C60.0296 140.741 63.5436 141.54 67.0351 142.489C68.7729 142.969 70.5139 143.493 72.226 144.08C73.9349 144.681 75.6341 145.322 77.3045 146.084C78.1317 146.47 78.9556 146.869 79.77 147.309C80.5714 147.746 81.3631 148.223 82.1453 148.74C82.5364 148.998 82.9113 149.267 83.2799 149.562C83.6516 149.845 84.017 150.153 84.3662 150.473C85.0614 151.124 85.7277 151.839 86.2425 152.73C86.4919 153.18 86.7058 153.663 86.8229 154.208C86.8815 154.48 86.911 154.759 86.9115 155.044C86.912 155.33 86.8737 155.605 86.8064 155.888C86.675 156.439 86.4046 156.939 86.0728 157.353C85.7409 157.766 85.3573 158.109 84.9575 158.405C84.161 158.983 83.2804 159.397 82.406 159.726C81.5316 160.056 80.6346 160.308 79.7374 160.503L79.5824 160.52L79.7503 160.507L79.9503 160.416L80.0985 160.254L80.1758 160.103L79.7342 160.517C78.4045 160.799 77.0553 160.991 75.706 161.126C75.0346 161.18 74.36 161.248 73.695 161.275C73.0267 161.315 72.352 161.326 71.6741 161.349C68.9848 161.408 66.2985 161.281 63.625 161.043C60.9514 160.806 58.2969 160.43 55.6552 159.944C53.0135 159.458 50.4039 158.895 47.8039 158.234C46.5119 157.898 45.2103 157.546 43.9279 157.17C42.6488 156.781 41.3567 156.388 40.0872 155.959C37.5482 155.099 35.0348 154.133 32.5889 152.998C31.3676 152.424 30.1527 151.823 28.9892 151.121C27.8226 150.433 26.6752 149.664 25.634 148.737C25.1135 148.273 24.6154 147.773 24.1754 147.202C23.7354 146.631 23.3565 145.976 23.1519 145.224C23.0511 144.841 23.0085 144.444 23.0207 144.048C23.0491 143.641 23.1324 143.235 23.2996 142.878C23.6245 142.149 24.1594 141.574 24.7204 141.121L24.8043 141.057L24.9043 141.04L25.511 140.912L25.6968 141.917C25.4967 141.95 25.3063 142.001 25.1062 142.034L22.8697 142.553L24.7075 141.117C25.2814 140.667 25.9136 140.317 26.5459 140.025C27.1782 139.732 27.8396 139.49 28.4882 139.302C29.8015 138.915 31.1506 138.666 32.4837 138.484C33.8264 138.319 35.1693 138.211 36.5252 138.163C37.8649 138.126 39.2209 138.135 40.5544 138.182C43.2342 138.278 45.9142 138.546 48.5654 138.878C51.21 139.179 53.8646 139.611 56.4934 140.094Z" fill="#521CA6"/>
<path d="M68.4156 122.609C68.4156 122.609 63.8494 137.266 72.494 144.164C72.494 144.164 65.742 141.468 57.2968 139.889C48.8517 138.31 60.7535 127.813 61.5015 123.411C62.2496 119.009 62.2496 119.009 62.2496 119.009C62.2496 119.009 68.5138 119.608 68.4156 122.609Z" fill="#FFEB47"/>
<path d="M81.4984 61.9494C79.0848 64.6482 76.2108 66.1713 73.3635 66.3168C71.5408 67.1137 69.6333 67.4605 67.7476 67.3133C68.132 67.4274 68.5196 67.5281 68.9007 67.5985C72.8278 68.3329 76.9771 66.8698 80.2711 63.5861C81.6731 62.1946 82.8842 60.5109 83.8625 58.6526C83.1737 59.8725 82.3749 60.9781 81.4984 61.9494Z" fill="#B07320"/>
<path d="M81.4984 61.9498C82.3749 60.9785 83.1608 59.8694 83.8754 58.6563C85.034 56.4451 85.8756 53.9518 86.3264 51.3142C87.1576 46.4489 86.5908 41.5774 84.7374 37.6135C82.7382 33.3406 79.337 30.4592 75.4099 29.7248C75.0159 29.651 74.6284 29.6075 74.2248 29.574C77.6552 30.6076 80.588 33.3246 82.3993 37.1776C84.2656 41.1449 84.8194 46.013 83.9882 50.8783C83.157 55.7436 81.0078 60.0953 77.9459 63.1539C76.5438 64.5453 74.9863 65.611 73.3635 66.3171C76.2076 66.1851 79.0848 64.6486 81.4984 61.9498Z" fill="#FFEB47"/>
<path d="M68.3396 60.288C68.7111 60.4559 69.0923 60.5834 69.4863 60.6572C69.5768 60.6807 69.6833 60.6941 69.777 60.7041C69.4927 60.6303 69.2149 60.5296 68.9564 60.4054C65.538 58.804 63.5849 53.1872 64.5983 47.2702C65.6118 41.3532 69.32 36.7926 73.0582 36.5359C73.352 36.5123 73.6393 36.5155 73.9331 36.549C73.8427 36.5255 73.7394 36.4987 73.6457 36.4887C73.2517 36.4149 72.8449 36.3949 72.4543 36.4219C68.7161 36.6786 65.0078 41.2392 63.9944 47.1562C62.9551 53.0664 64.9211 58.6867 68.3396 60.288Z" fill="#715262"/>
<path d="M67.4665 67.2265C67.5666 67.2668 67.67 67.2936 67.7701 67.3339C69.6558 67.481 71.5665 67.1208 73.386 66.3373C73.0955 66.3475 72.792 66.3544 72.5079 66.3377C70.856 66.9934 69.1487 67.3065 67.4665 67.2265Z" fill="#B07320"/>
<path d="M77.9426 63.1669C81.0044 60.1084 83.1537 55.7567 83.9849 50.8914C84.8161 46.0261 84.2493 41.1546 82.3959 37.1907C80.5976 33.3411 77.6616 30.6375 74.2215 29.5872C74.1149 29.5738 74.0181 29.5772 73.9083 29.5772C77.2129 30.678 80.0358 33.3379 81.7791 37.0734C83.6454 41.0406 84.1992 45.9087 83.3681 50.774C82.5369 55.6393 80.3876 59.991 77.3257 63.0496C75.8496 64.5217 74.2017 65.621 72.4821 66.3305C72.7791 66.3506 73.0665 66.3538 73.3602 66.3302C74.9959 65.6274 76.5405 64.5584 77.9426 63.1669Z" fill="#CB9E16"/>
<path d="M71.349 66.1926C71.0067 66.1323 70.6611 66.0283 70.3284 65.9276C70.2379 65.9041 70.1507 65.8672 70.0635 65.8303C67.1529 64.8032 64.711 62.2137 63.2294 58.5319C61.6537 54.6116 61.2549 49.7838 62.0861 44.9185C62.9173 40.0532 64.9115 35.6612 67.6827 32.5557C68.672 31.4567 69.7262 30.5458 70.8356 29.8634C68.412 30.4186 66.0671 31.7365 64.0495 33.7531C60.9876 36.8117 58.8383 41.1634 58.0072 46.0287C57.176 50.894 57.7427 55.7655 59.5961 59.7294C61.3523 63.4682 64.1623 66.1247 67.4669 67.2255C69.1491 67.3055 70.8564 66.9925 72.4986 66.3199C72.1047 66.3032 71.7301 66.2631 71.349 66.1926Z" fill="#B07320"/>
<path d="M67.6832 32.5574C64.912 35.6629 62.9177 40.0549 62.0866 44.9202C61.2554 49.7855 61.6542 54.6133 63.2298 58.5336C64.7115 62.2154 67.1534 64.8049 70.064 65.832C70.1512 65.8689 70.2416 65.8924 70.3289 65.9293C70.6616 66.03 71.0072 66.134 71.3495 66.1943C71.7306 66.2648 72.1052 66.3049 72.4991 66.3216C74.2186 65.6121 75.8665 64.5128 77.3427 63.0407C80.4046 59.9821 82.5539 55.6304 83.385 50.7651C84.2162 45.8998 83.6495 41.0283 81.7961 37.0644C80.0399 33.3256 77.2299 30.6691 73.9253 29.5683C72.8953 29.5149 71.8688 29.6194 70.8393 29.8516C69.7235 30.561 68.6725 31.4584 67.6832 32.5574ZM72.4292 36.4161C72.8327 36.3924 73.2266 36.4091 73.6206 36.4828C73.711 36.5063 73.8176 36.5197 73.908 36.5432C74.0146 36.5566 74.1211 36.57 74.2277 36.5834C78.3389 37.3513 80.8578 43.529 79.7325 50.0878C78.6104 56.6331 74.1924 61.5232 70.0812 60.7553C69.9747 60.7419 69.8713 60.7151 69.7679 60.6882C69.6743 60.6782 69.5677 60.6648 69.4773 60.6413C69.0833 60.5675 68.7021 60.44 68.3306 60.2721C64.9121 58.6708 62.9591 53.0539 63.9725 47.1369C64.9827 41.2334 68.691 36.6728 72.4292 36.4161Z" fill="#CB9E16"/>
<path d="M71.6614 61.9491C69.9011 61.5063 68.3787 60.4116 67.2658 59.0949C66.153 57.7783 65.3885 56.2667 64.808 54.7315C64.2276 53.1962 63.8536 51.6005 63.6378 49.9744C63.4348 48.3517 63.3642 46.692 63.4873 45.0255C63.6233 43.3623 63.9563 41.679 64.5702 40.0828C65.1712 38.4834 66.0662 36.9745 67.1939 35.6402C67.6514 35.1025 68.1542 34.6051 68.6926 34.1311C67.1668 34.891 65.8773 35.9834 64.814 37.2202C63.6862 38.5545 62.7816 40.0465 62.1903 41.6628C61.5763 43.2589 61.2434 44.9423 61.1074 46.6055C60.9843 48.272 61.0549 49.9317 61.2578 51.5544C61.4736 53.1805 61.8476 54.7762 62.4281 56.3114C63.0086 57.8466 63.7763 59.3448 64.8859 60.6749C65.989 61.9747 67.5083 63.0829 69.2815 63.5291C71.0417 63.972 72.9494 63.7394 74.5559 62.9862C75.4334 62.5861 76.2073 62.0449 76.9068 61.413C75.3003 62.1662 73.4056 62.4021 71.6614 61.9491Z" fill="#801A53"/>
<path d="M80.6639 55.153C81.1843 53.6039 81.5529 52.0583 81.8441 50.4925C82.1094 48.9201 82.2842 47.3241 82.317 45.6912C82.3497 44.0584 82.2339 42.3583 81.7823 40.6853C81.3275 39.0258 80.5305 37.363 79.2723 36.0229C78.0271 34.6861 76.3176 33.6855 74.4734 33.3066C72.6261 32.941 70.6798 33.2206 69.0282 33.9906C68.9217 34.0343 68.812 34.0915 68.7153 34.152C68.164 34.6226 67.6741 35.1233 67.2166 35.6611C66.0889 36.9953 65.1842 38.4874 64.5929 40.1037C63.9789 41.6998 63.646 43.3832 63.51 45.0463C63.3869 46.7128 63.4575 48.3725 63.6604 49.9952C63.8763 51.6213 64.2502 53.2171 64.8307 54.7523C65.4112 56.2875 66.1789 57.7857 67.2885 59.1158C68.3916 60.4156 69.9109 61.5238 71.6841 61.97C73.4314 62.4095 75.3261 62.1736 76.9424 61.4372C77.5387 60.8927 78.0672 60.2877 78.5213 59.6492C79.4745 58.2411 80.1435 56.7021 80.6639 55.153Z" fill="#A51659"/>
<path d="M72.7893 34.1538C73.8875 34.439 74.9182 34.9493 75.8556 35.6209C76.793 36.2925 77.6177 37.149 78.2425 38.1533C78.8673 39.1577 79.3083 40.2998 79.5363 41.4723C79.6013 41.7747 79.6309 42.0535 79.683 42.3525C79.7223 42.6482 79.7776 42.9337 79.804 43.226L79.8958 44.1063L79.9587 44.9932C80.022 46.1658 80.0531 47.3585 79.9776 48.5378C79.9021 49.7171 79.7298 50.8998 79.4411 52.0523C79.1396 53.2015 78.7347 54.3238 78.2232 55.3756C77.7116 56.4274 77.087 57.4356 76.3298 58.3094L76.236 58.2423C76.7186 57.1972 77.1494 56.1387 77.5027 55.0601C77.856 53.9814 78.1318 52.8827 78.3527 51.784C78.5639 50.6684 78.7331 49.5563 78.8765 48.4374L78.9687 47.5907C78.9941 47.3118 79.0065 47.0296 79.0351 46.7373C79.0604 46.4584 79.0599 46.1728 79.0724 45.8906C79.0719 45.605 79.0843 45.3228 79.0709 45.0339L79.0566 44.1738L79.0002 43.317C78.9868 43.0281 78.9573 42.7492 78.9278 42.4704C78.8982 42.1915 78.8719 41.8993 78.8263 41.6305C78.6791 40.5218 78.3189 39.4434 77.7814 38.476C76.7095 36.5277 74.857 35.0333 72.7702 34.2916L72.7893 34.1538Z" fill="#521CA6"/>
<path d="M82.2522 45.6747C82.2669 44.8079 82.2428 43.931 82.1607 43.0676C82.0656 42.2008 81.9124 41.3475 81.6721 40.5143C81.4318 39.6812 81.0882 38.8783 80.6769 38.1292C80.2527 37.3768 79.7447 36.6882 79.1464 36.0904C77.953 34.8813 76.4568 34.0217 74.8613 33.636C73.2658 33.2502 71.5613 33.3785 70.0223 33.9065C68.4768 34.4615 67.061 35.3926 65.8879 36.5724C64.7147 37.7521 63.7195 39.1636 63.0118 40.6925C62.8381 41.0756 62.6773 41.462 62.5263 41.8653C62.3752 42.2685 62.2532 42.665 62.128 43.075C61.9066 43.8881 61.7337 44.7281 61.6254 45.5849C61.5647 46.0116 61.5332 46.4316 61.5016 46.8516C61.4829 47.2749 61.4611 47.7117 61.4683 48.1418C61.4697 48.9985 61.5131 49.8519 61.6114 50.7052C61.7951 52.4086 62.1498 54.085 62.7272 55.6908C63.3078 57.2831 64.0691 58.8082 65.1108 60.0778C66.1266 61.3407 67.4681 62.3313 68.9444 62.8146C70.4174 63.3113 72.0606 63.267 73.561 62.786C75.0744 62.3084 76.4126 61.3571 77.5147 60.1303C78.0592 59.5153 78.5488 58.8431 78.9834 58.1139C79.4181 57.3847 79.7784 56.6219 80.1063 55.8221C80.759 54.2361 81.2534 52.5661 81.6315 50.8659C81.7308 50.4492 81.8076 50.0124 81.8682 49.5857C81.9417 49.1623 82.0056 48.7222 82.0533 48.2921C82.1648 47.4219 82.2344 46.555 82.2522 45.6747ZM82.3717 45.6915C82.3668 46.5751 82.3101 47.4453 82.2406 48.3122C82.1549 49.1891 82.0595 50.0493 81.906 50.9229C81.6183 52.6466 81.2338 54.3736 80.6717 56.0403C80.1224 57.7103 79.36 59.3535 78.2163 60.755C77.6525 61.4507 77.0079 62.0826 76.2759 62.6204C75.9115 62.8826 75.5374 63.128 75.131 63.3365C74.7375 63.5483 74.3245 63.7265 73.9051 63.8745C73.0533 64.1671 72.1625 64.3354 71.265 64.3593C70.3675 64.3831 69.4537 64.2457 68.5879 63.9638C66.8597 63.3865 65.3662 62.228 64.2532 60.7971C63.6967 60.0817 63.2208 59.3158 62.8224 58.513C62.4239 57.7101 62.0867 56.8804 61.7947 56.0338C61.2237 54.344 60.8785 52.5702 60.7269 50.7896C60.6512 49.8992 60.6142 49.019 60.6224 48.1219C60.6313 47.6818 60.6434 47.2282 60.6814 46.7813C60.7194 46.3345 60.7703 45.891 60.8342 45.4508C60.9618 44.5705 61.1443 43.6902 61.4044 42.8299C61.5328 42.4066 61.6774 41.9731 61.8445 41.5598C61.9988 41.1431 62.1789 40.7332 62.3719 40.3265C63.1505 38.7304 64.1973 37.2752 65.4608 36.0618C66.7243 34.8485 68.2175 33.8803 69.8728 33.3253C71.5216 32.7972 73.3101 32.7193 74.9832 33.1823C75.8198 33.4139 76.6114 33.7764 77.3385 34.2364C78.0657 34.6965 78.7446 35.2439 79.3301 35.8955C80.5203 37.1751 81.3172 38.7808 81.7915 40.474C82.0286 41.3205 82.1785 42.1873 82.2736 43.0541C82.3526 43.931 82.3767 44.8079 82.3717 45.6915Z" fill="#521CA6"/>
<path d="M84.6859 37.6572C84.2128 36.6494 83.6462 35.6887 82.9958 34.7919C82.3421 33.9085 81.5756 33.0957 80.7414 32.3939C79.0603 30.9867 77.0151 30.0702 74.9 29.7922C73.8311 29.6716 72.7561 29.6922 71.7104 29.8773C70.6517 30.0591 69.6288 30.3787 68.6578 30.8259C66.7029 31.717 64.965 33.0783 63.544 34.7218C62.1004 36.3451 60.9478 38.2438 60.0698 40.2566C59.1919 42.2695 58.6079 44.43 58.292 46.6174C57.9761 48.8047 57.9379 51.0356 58.2096 53.2329C58.4845 55.4166 59.0692 57.5667 60.012 59.5385C60.9581 61.4969 62.2492 63.2738 63.8916 64.6137C64.7063 65.282 65.5983 65.8562 66.5546 66.2759C66.7937 66.3665 67.0264 66.484 67.2815 66.5645L67.6498 66.6887C67.6886 66.6988 67.7661 66.7189 67.8307 66.7357L68.0245 66.786C68.2829 66.8531 68.5413 66.9202 68.7867 66.984L68.9676 67.0309L69.0451 67.0511L69.1388 67.0611L69.523 67.1181C70.5467 67.2555 71.5798 67.2383 72.5933 67.0733C73.6067 66.9083 74.6006 66.5954 75.5523 66.1718C77.4556 65.3244 79.1677 64.0134 80.5985 62.4439C81.3204 61.6608 81.9775 60.8038 82.5668 59.8864C83.1529 58.9824 83.6839 58.0213 84.1536 57.03C85.0801 55.044 85.748 52.9338 86.135 50.7363C86.5316 48.5557 86.644 46.3012 86.4207 44.0738C86.3026 42.9584 86.1135 41.8531 85.834 40.7814C85.5223 39.7299 85.146 38.6616 84.6859 37.6572ZM84.7826 37.5967C85.2686 38.6078 85.661 39.666 85.9663 40.7444C86.2846 41.8261 86.5124 42.9415 86.6596 44.0502C86.9604 46.2978 86.9643 48.5824 86.6872 50.8369C86.4101 53.0915 85.836 55.3259 84.9614 57.4396C84.5177 58.4947 83.9996 59.5163 83.4105 60.4908C82.8084 61.462 82.1352 62.3862 81.3812 63.2466C81.1943 63.455 81.0042 63.6768 80.8076 63.8684C80.6077 64.0734 80.3982 64.2616 80.1984 64.4666C79.9986 64.6717 79.7793 64.8431 79.5569 65.028C79.3473 65.2162 79.1152 65.3843 78.8959 65.5557C77.9899 66.2481 77.0159 66.823 75.9706 67.2938C74.9286 67.7511 73.8347 68.0808 72.7115 68.2458C71.5882 68.4108 70.4486 68.4146 69.3216 68.2504L68.8985 68.1834L68.792 68.17L68.6757 68.1398L68.469 68.0861C68.1977 68.0156 67.9263 67.9452 67.6712 67.8646L67.4677 67.7975C67.4031 67.7807 67.3385 67.764 67.2512 67.727L66.8474 67.5794C66.5825 67.482 66.324 67.3578 66.0623 67.247C65.0252 66.7636 64.0782 66.1323 63.1988 65.3901C61.4529 63.9091 60.1001 61.9878 59.141 59.9118C58.185 57.8223 57.5969 55.5715 57.3412 53.3071C57.0888 51.0292 57.1591 48.721 57.5169 46.4732C57.8747 44.2254 58.4973 42.0178 59.4301 39.9478C60.3628 37.8778 61.5767 35.9522 63.0848 34.2885C64.593 32.6249 66.4115 31.2702 68.444 30.3993C69.4667 29.9655 70.5251 29.6695 71.6193 29.5111C72.6974 29.3629 73.808 29.3659 74.8963 29.52C75.9813 29.6876 77.0311 30.003 78.0295 30.4764C79.015 30.9464 79.9394 31.5576 80.7832 32.2762C81.6271 32.9949 82.3775 33.8178 83.044 34.7045C83.73 35.6249 84.3095 36.5889 84.7826 37.5967Z" fill="#521CA6"/>
<path d="M44.2715 54.8369C43.5121 58.2507 42.2606 60.8516 40.7391 62.2263C39.9022 63.7217 38.9453 64.8577 37.8843 65.567C38.1199 65.4997 38.3457 65.4156 38.578 65.3047C40.8813 64.2186 42.839 61.1303 43.952 56.8092C44.4299 54.9779 44.7397 52.9888 44.888 50.9292C44.7417 52.29 44.5373 53.6071 44.2715 54.8369Z" fill="#B07320"/>
<path d="M44.2723 54.8373C44.5414 53.5941 44.7555 52.2937 44.8888 50.9296C45.059 48.4903 45.0063 45.9504 44.6985 43.4441C44.1387 38.8313 42.8276 34.837 40.9765 32.1868C38.9958 29.3317 36.534 28.3213 34.2339 29.3939C34.0017 29.5049 33.7791 29.6326 33.5502 29.7873C35.6412 29.1884 37.8126 30.2661 39.5893 32.8256C41.4276 35.4725 42.7515 39.4701 43.3114 44.0829C43.8712 48.6957 43.6048 53.4365 42.5656 57.4485C42.0876 59.2797 41.4576 60.8859 40.727 62.2234C42.2614 60.852 43.5129 58.2511 44.2723 54.8373Z" fill="#FFEB47"/>
<path d="M36.724 59.1574C36.9596 59.1472 37.192 59.0934 37.4242 58.9824C37.4855 58.9555 37.5339 58.9253 37.5984 58.8849C37.4339 58.9421 37.2596 58.9825 37.082 58.9792C34.8868 59.0942 32.6427 55.0431 31.9617 49.4426C31.2807 43.8421 32.3592 38.2275 34.3513 36.3755C34.5092 36.231 34.664 36.0999 34.8349 36.0158C34.7768 36.0293 34.7156 36.0562 34.6672 36.0865C34.4349 36.1974 34.2059 36.3521 33.9932 36.5537C32.0109 38.4225 30.9356 44.0237 31.6036 49.6208C32.2717 55.218 34.5288 59.2724 36.724 59.1574Z" fill="#715262"/>
<path d="M37.6972 65.6043C37.7553 65.5908 37.8134 65.5774 37.8844 65.5673C38.9422 64.8714 39.9152 63.7253 40.7392 62.2266C40.5812 62.3711 40.4136 62.4988 40.262 62.6165C39.4991 63.917 38.6259 64.932 37.6972 65.6043Z" fill="#B07320"/>
<path d="M42.5782 57.4516C43.6175 53.4397 43.8839 48.6989 43.324 44.0861C42.7642 39.4733 41.4531 35.479 39.6019 32.8288C37.8122 30.266 35.6538 29.1916 33.5628 29.7904C33.4983 29.8308 33.4467 29.8745 33.3822 29.9148C35.4185 29.4302 37.5092 30.5013 39.2471 32.9936C41.0853 35.6404 42.4093 39.6381 42.9692 44.2509C43.529 48.8637 43.2626 53.6044 42.2234 57.6164C41.723 59.5417 41.0446 61.2353 40.2527 62.5997C40.4172 62.4854 40.572 62.3543 40.7299 62.2098C41.4702 60.8891 42.1003 59.2829 42.5782 57.4516Z" fill="#CB9E16"/>
<path d="M39.5946 62.9989C39.3946 63.0897 39.1849 63.1637 38.9816 63.2108C38.9235 63.2243 38.8654 63.2378 38.8234 63.2411C37.0193 63.6147 35.1448 62.4429 33.5779 59.8665C31.9106 57.1356 30.677 53.1043 30.1171 48.4915C29.5573 43.8787 29.7301 39.185 30.5984 35.2571C30.9028 33.866 31.2977 32.6126 31.7511 31.5172C30.5463 33.0598 29.533 35.2373 28.8433 37.8985C27.8041 41.9105 27.5377 46.6513 28.0975 51.264C28.6574 55.8768 29.9685 59.8712 31.8196 62.5214C33.5575 65.0137 35.645 66.0981 37.6845 65.6001C38.6261 64.9312 39.4864 63.9128 40.2493 62.6123C40.0365 62.7569 39.8237 62.9014 39.5946 62.9989Z" fill="#B07320"/>
<path d="M30.6079 35.2745C29.7396 39.2024 29.5667 43.8961 30.1266 48.5089C30.6864 53.1217 31.9039 57.1631 33.5873 59.8839C35.1575 62.4468 37.0417 63.6355 38.8328 63.2585C38.8909 63.2451 38.9458 63.2451 38.991 63.2283C39.1975 63.1677 39.404 63.1071 39.604 63.0164C39.8202 62.9155 40.0459 62.7743 40.2588 62.6297C41.0507 61.2654 41.7258 59.5852 42.2294 57.6464C43.2687 53.6344 43.5351 48.8937 42.9752 44.2809C42.4154 39.6681 41.1043 35.6738 39.2531 33.0236C37.5152 30.5312 35.4278 29.4468 33.3883 29.9448C32.8111 30.3515 32.2696 30.896 31.7574 31.548C31.3104 32.6166 30.9154 33.8699 30.6079 35.2745ZM33.9967 36.5398C34.2094 36.3382 34.4255 36.1802 34.6706 36.0726C34.7319 36.0457 34.79 36.0322 34.8384 36.002C34.9029 35.9616 34.9642 35.9347 35.0255 35.9078C37.4353 34.778 40.0898 39.0642 40.8461 45.2694C41.6023 51.4747 40.1923 57.6741 37.7954 58.8072C37.7342 58.8341 37.6729 58.861 37.6116 58.8879C37.5503 58.9148 37.4987 58.9585 37.4374 58.9854C37.2051 59.0964 36.9728 59.1502 36.7371 59.1604C34.5419 59.2754 32.2978 55.2243 31.6168 49.6238C30.9358 44.0232 32.0143 38.4086 33.9967 36.5398Z" fill="#CB9E16"/>
<path d="M38.8903 59.163C37.8352 59.5599 36.7693 59.2545 35.8965 58.5997C35.0108 57.9415 34.2827 56.9674 33.6513 55.8757C33.0199 54.784 32.4755 53.5579 32.0212 52.241C31.5702 50.9107 31.1804 49.4964 30.9099 47.9846C30.6394 46.4728 30.4752 44.8601 30.4756 43.1903C30.4728 41.534 30.6475 39.8238 30.9869 38.1706C31.1182 37.5053 31.2914 36.8367 31.5001 36.1915C30.8276 37.5155 30.3395 39.0444 30.0257 40.59C29.6863 42.2432 29.5116 43.9534 29.5144 45.6097C29.514 47.2795 29.6782 48.8922 29.9487 50.404C30.2321 51.9191 30.609 53.3301 31.06 54.6604C31.511 55.9907 32.0555 57.2169 32.6901 58.2951C33.3247 59.3734 34.0528 60.3474 34.9353 61.0191C35.8081 61.6739 36.8772 61.9658 37.929 61.5824C38.9809 61.199 39.9703 60.1571 40.7073 58.7928C41.0999 58.0669 41.4182 57.2504 41.6621 56.4003C40.9283 57.7512 39.9421 58.7796 38.8903 59.163Z" fill="#801A53"/>
<path d="M42.3988 49.284C42.3639 47.7049 42.2451 46.1896 42.0682 44.6879C41.8881 43.1996 41.6499 41.7247 41.3214 40.2835C40.9929 38.8422 40.5805 37.4078 39.9875 36.1548C39.3946 34.9018 38.6147 33.8001 37.6483 33.1923C36.682 32.5845 35.5485 32.4472 34.4614 32.9213C33.3709 33.4089 32.3655 34.518 31.6221 35.9092C31.5738 35.9966 31.5223 36.0974 31.487 36.1881C31.2911 36.8366 31.1211 37.4919 30.9738 38.1672C30.6343 39.8204 30.4597 41.5306 30.4625 43.187C30.4621 44.8568 30.6262 46.4694 30.8967 47.9812C31.1802 49.4964 31.5571 50.9074 32.0081 52.2377C32.4591 53.568 33.0035 54.7941 33.6381 55.8724C34.2727 56.9506 35.0008 57.9247 35.8833 58.5963C36.7561 59.2512 37.8252 59.5431 38.8771 59.1597C39.9289 58.7763 40.9151 57.7478 41.636 56.3936C41.8511 55.6644 42.0048 54.905 42.1326 54.139C42.3881 52.4926 42.437 50.8496 42.3988 49.284Z" fill="#A51659"/>
<path d="M33.7056 34.4234C34.6026 34.114 35.6295 34.2379 36.489 34.7181C37.3486 35.1982 38.0118 35.9841 38.5072 36.8407C38.7468 37.274 38.9574 37.7141 39.1358 38.1743C39.3012 38.6312 39.4828 39.078 39.6321 39.5449C39.9468 40.4687 40.2034 41.406 40.4471 42.34C40.6876 43.2873 40.8862 44.2381 41.0686 45.1989C41.2381 46.1564 41.3334 47.1374 41.3738 48.1185C41.4158 50.0705 41.2448 52.0528 40.7024 53.9244L40.5958 53.911C40.5554 52.93 40.5215 51.9792 40.4747 51.025C40.4279 50.0708 40.3391 49.1201 40.2601 48.1861C40.0632 46.308 39.9405 44.4064 39.5758 42.5419C39.3869 41.6079 39.182 40.6841 38.9189 39.7736C38.7955 39.3134 38.6559 38.8632 38.5195 38.3996C38.3767 37.9629 38.2081 37.5195 38.004 37.1097C37.612 36.2799 37.0522 35.5208 36.3087 35.0138C35.9403 34.7754 35.5171 34.5941 35.0714 34.5069C34.6386 34.4231 34.1608 34.4132 33.7348 34.5309L33.7056 34.4234Z" fill="#521CA6"/>
<path d="M42.3445 49.284C42.3239 48.565 42.3033 47.846 42.2537 47.1338C42.204 46.4215 42.1286 45.7025 42.0531 44.9836C41.886 43.5557 41.635 42.1346 41.3098 40.7371C40.9846 39.3395 40.5852 37.9655 40.0019 36.6722C39.7167 36.0272 39.3702 35.4091 38.9657 34.8616C38.5644 34.3007 38.0922 33.807 37.5299 33.4611C37.2552 33.2899 36.9579 33.1556 36.6511 33.0616C36.3442 32.9677 36.0213 32.9409 35.7178 32.9477C35.3982 32.9647 35.0949 33.0286 34.7948 33.1362C34.4947 33.2439 34.2206 33.4153 33.9562 33.6035C33.4241 33.9935 32.9762 34.4909 32.5833 35.0454C32.3933 35.3243 32.2001 35.6167 32.0456 35.9191C31.8782 36.2182 31.7335 36.5375 31.5887 36.8567C31.0259 38.1235 30.644 39.4945 30.3816 40.8822C30.1192 42.2699 29.9731 43.6877 29.9658 45.0989C29.9585 46.51 30.061 47.9211 30.2764 49.3187C30.4919 50.7162 30.8235 52.0869 31.2584 53.4273C31.6772 54.7778 32.1895 56.0812 32.8178 57.3006C33.1385 57.912 33.4914 58.5032 33.883 59.0473C34.2745 59.5914 34.7048 60.0885 35.1994 60.4882C35.6811 60.8844 36.2369 61.1429 36.7987 61.2032C37.0829 61.2199 37.3734 61.2097 37.6509 61.1391C37.9317 61.055 38.2059 60.9406 38.4671 60.7658C38.9863 60.4297 39.4698 59.9558 39.8725 59.418C40.2751 58.8803 40.6228 58.2855 40.9123 57.647C41.488 56.3835 41.8731 54.9992 42.087 53.5846C42.1859 52.8824 42.2751 52.1634 42.3094 51.4443C42.3308 50.722 42.3521 49.9996 42.3445 49.284ZM42.4543 49.284C42.4878 50.0063 42.4954 50.7219 42.474 51.4443C42.4656 52.17 42.4313 52.889 42.355 53.6114C42.2917 54.3371 42.1896 55.0528 42.0326 55.7685C41.8885 56.4876 41.6928 57.1932 41.4454 57.8854C41.1979 58.5776 40.8859 59.253 40.4737 59.8882C40.0648 60.5099 39.5783 61.1115 38.9592 61.5787C38.6432 61.8107 38.2949 62.0057 37.9077 62.1335C37.5205 62.2613 37.1073 62.3253 36.7005 62.3053C35.8868 62.2652 35.1211 61.9094 34.4908 61.446C33.8765 60.9725 33.3687 60.3981 32.9222 59.7969C32.4756 59.1956 32.0936 58.5541 31.7567 57.8957C31.0829 56.5789 30.564 55.1881 30.1581 53.7839C29.7521 52.3796 29.4365 50.9417 29.263 49.4837C29.0733 48.0356 28.9868 46.5574 29.036 45.0858C29.0852 43.6142 29.2538 42.1593 29.5549 40.7246C29.8559 39.2898 30.2765 37.8718 30.8941 36.5479C31.055 36.2185 31.2158 35.8892 31.4025 35.5666C31.5892 35.244 31.7857 34.9382 32.0079 34.6391C32.4524 34.0409 32.9649 33.5031 33.5743 33.0762C33.8839 32.8711 34.2193 32.6728 34.5775 32.5517C34.9357 32.4306 35.31 32.3566 35.6845 32.3396C36.0558 32.3361 36.4433 32.3797 36.7986 32.5005C37.1572 32.6079 37.5029 32.769 37.8099 32.9772C38.437 33.397 38.9351 33.9545 39.3526 34.5625C39.7701 35.1704 40.0941 35.8255 40.3696 36.5108C40.9111 37.8646 41.246 39.2789 41.5261 40.6933C42.0732 43.5187 42.3461 46.4013 42.4543 49.284Z" fill="#521CA6"/>
<path d="M44.8204 50.9263C45.1047 47.2606 44.824 43.5482 43.9851 39.9905C43.5591 38.2099 42.9848 36.4765 42.2104 34.8338C41.8281 34.0209 41.3844 33.2349 40.8731 32.5026C40.3618 31.7704 39.7827 31.0919 39.1167 30.5479L38.8645 30.3397C38.7837 30.2759 38.6868 30.2222 38.606 30.1583C38.4314 30.0274 38.2472 29.9367 38.0663 29.8326C37.9693 29.7789 37.8821 29.742 37.7819 29.7017L37.6333 29.6346C37.5816 29.6212 37.5332 29.5943 37.4815 29.5809C37.3813 29.5406 37.278 29.5138 37.1907 29.4768L36.8936 29.3997C36.4867 29.3225 36.0701 29.2857 35.6731 29.3396C35.6182 29.3397 35.5731 29.3565 35.5182 29.3565L35.373 29.3901L35.2148 29.4204C35.1696 29.4373 35.1116 29.4507 35.0664 29.4675C34.9631 29.4978 34.8728 29.5314 34.7695 29.5617L34.4792 29.6861C34.0985 29.8442 33.7373 30.0929 33.4149 30.3518C33.0764 30.6207 32.7734 30.9131 32.4769 31.2357C31.8969 31.8844 31.4171 32.6304 30.9858 33.4033C30.1458 34.9693 29.5579 36.6864 29.1509 38.4504C28.9425 39.324 28.7826 40.2245 28.6517 41.1183C28.5209 42.012 28.4417 42.9192 28.3754 43.8297C28.1556 47.455 28.433 51.1238 29.2557 54.6345C29.659 56.3948 30.2108 58.1081 30.9496 59.7273C31.319 60.5368 31.74 61.3027 32.2255 62.0282C32.6981 62.7504 33.2545 63.4087 33.8914 63.9595C34.2115 64.2282 34.538 64.47 34.8902 64.6613C35.2424 64.8527 35.6172 65.0071 35.9951 65.091C36.3729 65.1748 36.7604 65.2184 37.1542 65.1779C37.2511 65.1745 37.3511 65.1577 37.4512 65.1409C37.5512 65.124 37.6513 65.1072 37.7384 65.087C37.9417 65.0399 38.1353 64.976 38.316 64.9087C39.0613 64.6027 39.7481 64.0817 40.3475 63.4666C40.947 62.8516 41.4623 62.129 41.9195 61.3628C42.8338 59.8304 43.4765 58.1133 43.9514 56.3526C44.1888 55.4723 44.3745 54.5785 44.5215 53.6747C44.6459 52.7507 44.7509 51.8502 44.8204 50.9263ZM44.9398 50.943C44.8865 51.8569 44.7912 52.7741 44.6669 53.6981C44.5457 54.6087 44.3955 55.5259 44.1937 56.4298C43.806 58.2274 43.2441 60.0083 42.4075 61.6751C41.9892 62.5085 41.4966 63.3083 40.8844 64.0342C40.5686 64.3804 40.2496 64.74 39.8659 65.0257C39.6918 65.1803 39.4822 65.3114 39.2823 65.4594C39.1823 65.5333 39.0758 65.577 38.963 65.6476C38.8533 65.7048 38.7565 65.7653 38.634 65.8191C38.4049 65.9166 38.179 66.0007 37.9564 66.0713C37.8402 66.0982 37.7208 66.1386 37.5949 66.1487C37.4788 66.1757 37.3497 66.1992 37.2367 66.2127C36.7525 66.2868 36.2489 66.2702 35.7644 66.1729C35.28 66.0757 34.8148 65.8978 34.3721 65.6829C33.9327 65.4546 33.5319 65.1792 33.1633 64.8837C32.4197 64.2624 31.7986 63.5302 31.2614 62.7342C30.7209 61.9515 30.2772 61.1084 29.8883 60.2652C29.5027 59.4086 29.1783 58.5251 28.883 57.6349C28.5942 56.7178 28.3602 55.8006 28.1649 54.8936C27.9729 53.973 27.8196 53.0626 27.6986 52.132C27.5776 51.2014 27.4953 50.2808 27.4291 49.3502C27.363 48.4195 27.3517 47.4889 27.3566 46.5481C27.3583 45.6208 27.4019 44.6902 27.4746 43.7528C27.544 42.8288 27.6555 41.9015 27.7927 40.9808C27.9429 40.0636 28.1222 39.1395 28.3499 38.2424C28.7956 36.4313 29.4253 34.6537 30.3362 33.0206C30.7901 32.2107 31.3214 31.4209 31.9498 30.742C32.2656 30.3959 32.617 30.0732 32.9878 29.7841C33.3715 29.4984 33.7488 29.2395 34.2037 29.058L34.536 28.9302C34.6554 28.8898 34.7587 28.8595 34.8748 28.8326C34.9329 28.8191 34.9942 28.7922 35.0491 28.7922L35.2202 28.7653L35.3912 28.7383C35.4493 28.7249 35.5074 28.7114 35.5623 28.7114C36.0303 28.6474 36.5115 28.701 36.97 28.7915L37.3189 28.8821C37.4352 28.9123 37.545 28.9694 37.6484 28.9962C37.7 29.0096 37.7614 29.0399 37.8131 29.0533L37.9747 29.1238C38.0845 29.1808 38.1847 29.2211 38.2945 29.2782C38.4981 29.4024 38.705 29.5132 38.8924 29.6475C38.9862 29.7147 39.0799 29.7819 39.1737 29.849L39.4485 30.0774C40.1533 30.6886 40.7454 31.4276 41.2503 32.1867C41.7649 32.9626 42.186 33.7856 42.5619 34.6254C42.9379 35.4652 43.2493 36.3454 43.5187 37.2289C43.7882 38.1124 44.0125 39.0128 44.1948 39.9165C44.5594 41.7239 44.795 43.5549 44.9176 45.3994C44.9869 46.3166 45.0014 47.2338 45.0126 48.1644C45.0239 49.0951 44.9964 50.0157 44.9398 50.943Z" fill="#521CA6"/>
<path d="M109.79 69.9962C107.66 72.7117 105.433 74.4596 103.48 74.9945C102.1 75.9492 100.742 76.5242 99.4991 76.6725C99.7349 76.7195 99.9739 76.753 100.232 76.763C102.751 76.846 105.831 74.9769 108.663 71.616C109.868 70.1877 110.998 68.5544 111.999 66.7733C111.297 67.9327 110.557 69.0249 109.79 69.9962Z" fill="#B07320"/>
<path d="M109.79 69.9961C110.56 69.0114 111.298 67.9327 111.999 66.7733C113.187 64.6696 114.216 62.3678 115.003 59.9888C116.462 55.6004 116.968 51.4072 116.446 48.1887C115.875 44.7148 114.096 42.6828 111.578 42.5997C111.319 42.5898 111.067 42.61 110.8 42.6404C112.934 43.0663 114.416 45.0211 114.932 48.1523C115.467 51.3741 114.947 55.564 113.489 59.9524C112.031 64.3408 109.784 68.4674 107.149 71.5796C105.944 73.0079 104.696 74.1541 103.464 75.0046C105.433 74.4596 107.661 72.7116 109.79 69.9961Z" fill="#FFEB47"/>
<path d="M101.187 70.4022C101.397 70.4995 101.642 70.5633 101.888 70.5699C101.956 70.5733 102.01 70.5732 102.081 70.5631C101.91 70.5329 101.729 70.486 101.581 70.4188C99.5614 69.5091 99.2598 64.8492 101.039 59.5165C102.819 54.1839 106.162 49.657 108.731 48.8967C108.938 48.8362 109.125 48.7992 109.318 48.7924C109.251 48.789 109.199 48.7756 109.131 48.7723C108.873 48.7623 108.602 48.8061 108.337 48.8801C105.756 49.637 102.412 54.1639 100.645 59.4999C98.8659 64.8325 99.1675 69.4924 101.187 70.4022Z" fill="#715262"/>
<path d="M99.3184 76.6254C99.383 76.6422 99.4347 76.6556 99.4993 76.6724C100.755 76.5275 102.1 75.9491 103.48 74.9944C103.274 75.055 103.087 75.092 102.887 75.1257C101.651 75.9325 100.442 76.4604 99.3184 76.6254Z" fill="#B07320"/>
<path d="M107.152 71.566C109.787 68.4539 112.034 64.3272 113.492 59.9388C114.951 55.5503 115.457 51.3571 114.935 48.1386C114.416 45.0209 112.938 43.0526 110.803 42.6267C110.732 42.6368 110.661 42.6469 110.59 42.657C112.625 43.1569 114.045 45.0816 114.541 48.122C115.076 51.3438 114.557 55.5337 113.098 59.9221C111.64 64.3106 109.394 68.4372 106.758 71.5494C105.495 73.0483 104.167 74.2449 102.877 75.1088C103.077 75.0752 103.264 75.0381 103.471 74.9776C104.712 74.1439 105.947 72.9944 107.152 71.566Z" fill="#CB9E16"/>
<path d="M102.135 75.1721C101.915 75.1722 101.705 75.1319 101.495 75.0917C101.444 75.0783 101.392 75.0648 101.34 75.0514C99.5638 74.5615 98.3757 72.6402 98.0542 69.6165C97.7098 66.4013 98.3258 62.2081 99.7809 57.8331C101.236 53.4581 103.392 49.308 105.837 46.1892C106.704 45.0869 107.59 44.1324 108.457 43.3727C106.722 44.2066 104.884 45.699 103.144 47.7592C100.508 50.8713 98.262 54.998 96.8037 59.3864C95.3454 63.7748 94.8391 67.968 95.3611 71.1865C95.8602 74.2135 97.2775 76.1516 99.3123 76.6514C100.436 76.4864 101.658 75.9618 102.884 75.1382C102.632 75.1585 102.38 75.1787 102.135 75.1721Z" fill="#B07320"/>
<path d="M105.827 46.1734C103.382 49.2922 101.229 53.4289 99.7709 57.8173C98.3126 62.2057 97.6998 66.3855 98.0442 69.6007C98.3657 72.6244 99.5538 74.5458 101.33 75.0357C101.382 75.0491 101.434 75.0625 101.485 75.0759C101.695 75.1162 101.905 75.1564 102.125 75.1563C102.37 75.1629 102.622 75.1427 102.877 75.109C104.167 74.2451 105.482 73.0451 106.758 71.5496C109.394 68.4374 111.64 64.3108 113.098 59.9224C114.557 55.5339 115.063 51.3407 114.541 48.1222C114.042 45.0952 112.624 43.1572 110.59 42.6573C109.905 42.7651 109.179 42.9904 108.45 43.3435C107.58 44.1166 106.697 45.0576 105.827 46.1734ZM108.337 48.8805C108.618 48.7964 108.873 48.7627 109.131 48.7727C109.199 48.776 109.254 48.776 109.318 48.7927C109.389 48.7826 109.457 48.786 109.525 48.7893C112.166 48.8757 112.74 53.9488 110.767 59.8594C108.808 65.7733 104.919 70.6868 102.278 70.6004C102.211 70.597 102.143 70.5937 102.078 70.5769C102.01 70.5736 101.952 70.5871 101.885 70.5837C101.626 70.5737 101.394 70.5134 101.184 70.416C99.1643 69.5062 98.8626 64.8463 100.642 59.5137C102.412 54.1642 105.756 49.6374 108.337 48.8805Z" fill="#CB9E16"/>
<path d="M103.129 71.4061C102.009 71.2721 101.187 70.5165 100.682 69.5289C100.167 68.5245 99.9325 67.3218 99.8109 66.0484C99.7022 64.7785 99.7354 63.4312 99.888 62.0435C100.044 60.6425 100.306 59.1977 100.701 57.7158C101.108 56.2374 101.635 54.7186 102.349 53.2198C103.047 51.7312 103.93 50.2761 104.944 48.9553C105.347 48.4176 105.785 47.9034 106.243 47.4228C105.072 48.3035 103.99 49.4496 103.049 50.6897C102.031 52.0239 101.152 53.4655 100.454 54.9542C99.743 56.4395 99.2129 57.9717 98.8054 59.4502C98.4108 60.932 98.1614 62.3802 97.9926 63.7779C97.8368 65.179 97.8036 66.5263 97.9155 67.7828C98.0274 69.0393 98.2716 70.2588 98.7866 71.2632C99.2919 72.2508 100.126 73.0098 101.234 73.1404C102.338 73.2845 103.674 72.8036 104.902 71.9094C105.563 71.4388 106.198 70.8472 106.779 70.1986C105.556 71.0659 104.224 71.5334 103.129 71.4061Z" fill="#801A53"/>
<path d="M110.471 64.1497C111.101 62.7148 111.644 61.3001 112.133 59.8855C112.608 58.4675 113.016 57.0461 113.333 55.6013C113.65 54.1565 113.89 52.6915 113.897 51.2804C113.901 49.8827 113.66 48.5355 113.045 47.548C112.443 46.5638 111.473 45.9123 110.294 45.8489C109.116 45.7855 107.741 46.3135 106.481 47.2278C106.397 47.2917 106.316 47.3421 106.232 47.406C105.775 47.8866 105.349 48.4042 104.934 48.9385C103.916 50.2728 103.037 51.7144 102.339 53.2031C101.628 54.6884 101.098 56.2206 100.69 57.6991C100.296 59.1809 100.046 60.6291 99.8776 62.0268C99.7218 63.4279 99.6885 64.7752 99.8004 66.0317C99.9123 67.2882 100.157 68.5077 100.672 69.5121C101.177 70.4997 102.011 71.2587 103.119 71.3894C104.223 71.5334 105.546 71.0491 106.768 70.1819C107.271 69.6273 107.744 69.0224 108.169 68.3906C109.097 67.0329 109.827 65.5812 110.471 64.1497Z" fill="#A51659"/>
<path d="M108.989 46.8372C109.932 46.9679 110.808 47.5522 111.365 48.3818C111.938 49.2014 112.188 50.2227 112.267 51.2138C112.3 51.7077 112.304 52.2083 112.27 52.6988C112.222 53.186 112.203 53.6665 112.143 54.1503C112.035 55.1213 111.875 56.0789 111.686 57.0432C111.5 57.9941 111.273 58.9484 111.032 59.8993C110.779 60.8469 110.451 61.7608 110.059 62.658C109.264 64.4357 108.27 66.1327 106.984 67.5544L106.89 67.4872C107.266 66.6001 107.639 65.7264 108.012 64.8527C108.372 63.9757 108.694 63.0886 109.028 62.2048C109.645 60.4239 110.349 58.6799 110.817 56.8319C111.051 55.9079 111.256 54.9906 111.413 54.0464C111.496 53.5827 111.57 53.1022 111.64 52.6352C111.697 52.1648 111.738 51.7045 111.725 51.2442C111.726 50.3169 111.55 49.3863 111.094 48.5969C110.858 48.2073 110.56 47.8445 110.198 47.5793C109.839 47.3005 109.425 47.0789 108.983 46.9783L108.989 46.8372Z" fill="#521CA6"/>
<path d="M113.826 51.2909C113.819 50.5753 113.756 49.8597 113.577 49.171C113.399 48.4823 113.117 47.8239 112.664 47.3066C112.437 47.048 112.188 46.8264 111.917 46.6417C111.629 46.4671 111.332 46.3328 111.019 46.2657C110.709 46.1852 110.386 46.1584 110.063 46.1888C109.743 46.2057 109.424 46.2797 109.114 46.3706C108.495 46.5522 107.898 46.8683 107.346 47.2246C107.069 47.4095 106.792 47.5944 106.534 47.8129C106.266 48.0145 106.008 48.233 105.76 48.4683C104.761 49.3792 103.839 50.4244 102.998 51.5335C102.158 52.6425 101.385 53.812 100.732 55.0554C100.403 55.6838 100.101 56.3189 99.8212 56.9741C99.5543 57.6328 99.3133 58.2981 99.1078 58.9869C98.9986 59.3297 98.9056 59.6623 98.8222 60.0118C98.7389 60.3612 98.6555 60.7107 98.5851 61.0635C98.4443 61.7691 98.3195 62.4646 98.2465 63.1735C98.0713 64.5982 98.0447 66.0328 98.1762 67.4371C98.2419 68.1393 98.3626 68.8415 98.5348 69.4999C98.6193 69.8359 98.7361 70.1517 98.8657 70.4708C98.9986 70.7765 99.1476 71.0721 99.316 71.3442C99.4875 71.6028 99.7042 71.8446 99.9177 72.0428C100.147 72.2309 100.396 72.3954 100.674 72.4961C101.213 72.7076 101.824 72.6804 102.421 72.5358C103.021 72.3776 103.611 72.0885 104.146 71.7422C104.698 71.3859 105.211 70.9623 105.681 70.4851C106.152 70.0078 106.603 69.497 107.022 68.9492C107.437 68.4148 107.82 67.8435 108.181 67.252C108.915 66.0725 109.542 64.8224 110.125 63.532C110.269 63.2128 110.414 62.8936 110.562 62.5609C110.707 62.2416 110.855 61.909 110.987 61.5864C111.266 60.9311 111.546 60.2759 111.8 59.6139C112.308 58.2899 112.793 56.9458 113.152 55.5548C113.557 54.1469 113.816 52.7155 113.826 51.2909ZM113.936 51.2909C113.932 52.7457 113.728 54.177 113.485 55.5983C113.229 57.0162 112.918 58.4342 112.543 59.8354C111.766 62.631 110.731 65.3595 109.238 67.8833C108.484 69.1435 107.586 70.3231 106.522 71.3314C105.99 71.8356 105.4 72.2961 104.771 72.6894C104.129 73.0794 103.439 73.3854 102.697 73.5638C102.319 73.6512 101.938 73.6951 101.531 73.6751C101.328 73.665 101.128 73.6416 100.931 73.6047C100.737 73.5544 100.53 73.5007 100.343 73.4235C99.9682 73.2691 99.6255 73.0374 99.3216 72.7586C99.0306 72.4832 98.7782 72.1608 98.5839 71.8249C98.1856 71.1363 97.9617 70.4073 97.8216 69.6715C97.6815 68.9358 97.6093 68.2034 97.5919 67.471C97.5442 66.0027 97.687 64.5412 97.8912 63.1098C98.1083 61.6818 98.3933 60.2572 98.7815 58.8594C98.9741 58.1672 99.1828 57.4649 99.4141 56.7828C99.6453 56.1007 99.9057 55.4118 100.185 54.7565C100.468 54.0878 100.79 53.4292 101.135 52.7907C101.479 52.1522 101.859 51.5372 102.265 50.929C103.086 49.7292 104.027 48.6033 105.129 47.6622C105.68 47.1916 106.264 46.758 106.912 46.3983C107.561 46.0385 108.241 45.7728 108.974 45.6348C109.336 45.5574 109.713 45.527 110.078 45.5504C110.459 45.5637 110.824 45.6442 111.179 45.765C111.887 46.0201 112.485 46.5037 112.915 47.115C113.132 47.414 113.301 47.7432 113.437 48.0925C113.576 48.4285 113.67 48.7812 113.748 49.144C113.885 49.8361 113.932 50.5618 113.936 51.2909Z" fill="#521CA6"/>
<path d="M116.388 48.2018C116.247 47.2947 115.991 46.4145 115.612 45.5881C115.524 45.3799 115.404 45.1918 115.301 44.9936C115.243 44.8928 115.181 44.8055 115.12 44.7181C115.058 44.6308 115 44.53 114.925 44.4394L114.715 44.1706L114.485 43.9255C114.411 43.8348 114.33 43.771 114.236 43.7038C114.143 43.6366 114.068 43.546 113.984 43.4956L113.713 43.3109C113.616 43.2572 113.519 43.2035 113.422 43.1497C113.325 43.096 113.225 43.0557 113.125 43.0155C113.025 42.9752 112.928 42.9215 112.821 42.9081C112.404 42.757 111.975 42.7169 111.539 42.7036C111.319 42.7037 111.11 42.7205 110.884 42.7475C110.671 42.7778 110.454 42.8216 110.238 42.8653C109.815 42.9696 109.399 43.1042 108.999 43.2858C108.189 43.6321 107.435 44.0927 106.729 44.6372C106.013 45.165 105.362 45.7666 104.73 46.4018C103.479 47.6757 102.384 49.104 101.392 50.6163C100.896 51.3724 100.439 52.1386 100.002 52.9384C99.567 53.7247 99.1551 54.5312 98.7788 55.3612C98.4025 56.1912 98.0552 57.0145 97.7273 57.8714C97.4156 58.7182 97.1265 59.5851 96.8664 60.4453C96.356 62.1825 95.9587 63.9633 95.7487 65.7643C95.5419 67.5518 95.5159 69.3862 95.8127 71.1332C95.9006 71.5699 95.9885 72.0067 96.1118 72.4098C96.232 72.8264 96.3941 73.2396 96.5788 73.6158C96.7602 74.0055 96.9901 74.3649 97.2424 74.6873C97.3071 74.7612 97.3686 74.8486 97.4333 74.9224L97.6403 75.1475L97.8666 75.349C97.9443 75.4262 98.0283 75.4766 98.0962 75.537C98.4227 75.7788 98.7652 75.9534 99.1496 76.0675L99.4338 76.1413C99.4467 76.1447 99.4597 76.148 99.4855 76.1547L99.563 76.1749L99.7212 76.2017C99.9344 76.2285 100.144 76.2687 100.309 76.2687C101.106 76.2617 101.907 76.0699 102.671 75.7403C103.436 75.4108 104.171 74.9737 104.868 74.4695C105.564 73.9653 106.212 73.3771 106.837 72.7687C107.463 72.1604 108.046 71.4983 108.607 70.816C109.167 70.1338 109.696 69.4146 110.201 68.6753C110.707 67.9359 111.187 67.1899 111.634 66.4069C112.081 65.6239 112.516 64.8375 112.912 64.0411C113.723 62.4248 114.42 60.7648 115.011 59.0343C115.599 57.3172 116.064 55.5397 116.329 53.7387C116.463 52.8316 116.543 51.9244 116.557 51.0004C116.572 50.0194 116.528 49.1089 116.388 48.2018ZM116.504 48.1749C116.657 49.0853 116.727 50.0025 116.738 50.9332C116.749 51.8638 116.709 52.7811 116.613 53.6983C116.518 54.6156 116.381 55.5362 116.205 56.4468C116.029 57.3574 115.827 58.2612 115.586 59.155C114.624 62.7302 113.144 66.1711 111.129 69.273C110.114 70.8222 108.971 72.2808 107.646 73.5781C106.982 74.2336 106.276 74.8352 105.518 75.3663C104.757 75.9109 103.944 76.3849 103.08 76.7313C102.212 77.0911 101.257 77.2998 100.288 77.2766C100.001 77.2734 99.794 77.2197 99.555 77.1862L99.3839 77.156L99.2934 77.1325C99.2676 77.1258 99.2288 77.1157 99.1901 77.1057L98.8315 76.9983C98.3631 76.8338 97.9139 76.5887 97.5163 76.2999C97.4258 76.2193 97.3191 76.1488 97.2286 76.0682L96.9602 75.813L96.7112 75.5342C96.6238 75.4402 96.5526 75.336 96.4782 75.2453C96.187 74.8557 95.9312 74.4325 95.7238 73.979C95.5262 73.5423 95.3478 73.082 95.2243 72.6218C95.088 72.1582 94.9936 71.6912 94.9153 71.2142C94.6247 69.3261 94.6926 67.4311 94.9283 65.5798C95.177 63.7318 95.5969 61.914 96.1557 60.1465C96.435 59.2628 96.7403 58.3858 97.081 57.5323C97.4218 56.6788 97.7884 55.832 98.1809 54.9919C98.5733 54.1518 98.9981 53.3486 99.4649 52.5421C99.9156 51.7457 100.405 50.9593 100.914 50.2065C101.957 48.7077 103.111 47.2659 104.426 46.0089C105.083 45.3803 105.786 44.7921 106.525 44.2845C107.266 43.7635 108.056 43.3264 108.892 42.9868C109.724 42.6606 110.625 42.4519 111.526 42.4718C111.971 42.5018 112.423 42.5621 112.853 42.7165C113.283 42.8709 113.687 43.0757 114.045 43.3545C114.766 43.8985 115.323 44.671 115.715 45.5008C116.097 46.3708 116.351 47.2644 116.504 48.1749Z" fill="#521CA6"/>
</svg>
