<svg width="115" height="42" viewBox="0 0 115 42" fill="none" xmlns="http://www.w3.org/2000/svg">
<g clip-path="url(#clip0_701:5977)">
<path d="M76.4178 42.0001H38.2921C37.58 42.0001 36.8971 41.7172 36.3936 41.2137C35.8901 40.7102 35.6072 40.0273 35.6072 39.3152V34.8314C35.6072 34.1193 35.8901 33.4364 36.3936 32.9329C36.8971 32.4294 37.58 32.1465 38.2921 32.1465H76.3909C77.103 32.1465 77.7859 32.4294 78.2894 32.9329C78.793 33.4364 79.0758 34.1193 79.0758 34.8314V39.3152C79.0801 39.6667 79.0145 40.0156 78.8827 40.3415C78.751 40.6674 78.5558 40.9639 78.3085 41.2137C78.0612 41.4635 77.7666 41.6617 77.4421 41.7967C77.1175 41.9317 76.7693 42.0008 76.4178 42.0001Z" fill="#9958FF"/>
<path d="M114.678 22.9909C114.664 22.7836 114.637 22.5773 114.597 22.3734C114.168 20.6282 113.362 18.3997 111.885 16.7888C112.021 16.3458 112.076 15.8819 112.047 15.4195C111.881 13.7826 111.288 12.218 110.328 10.882C109.066 9.16366 106.623 7.12313 102.166 7.12313H101.012C97.5749 7.09628 95.2927 7.12313 95.2927 7.12313C94.9273 7.13102 94.5652 7.19438 94.2188 7.31106L94.9706 5.72698C95.1643 5.31888 95.2511 4.86826 95.2229 4.41741C95.1948 3.96656 95.0525 3.53025 94.8095 3.14946C94.5646 2.76926 94.2261 2.45843 93.8264 2.24684C93.4268 2.03525 92.9794 1.93001 92.5273 1.94125L90.8895 1.99495C90.477 2.00819 90.0732 2.11692 89.7098 2.31259C89.3464 2.50825 89.0334 2.78552 88.7953 3.12261L88.5268 3.52535C88.4295 3.18444 88.2623 2.86752 88.0358 2.59479C87.8092 2.32206 87.5284 2.09949 87.2112 1.94125L84.1235 0.303461C83.6753 0.0690191 83.1694 -0.0327697 82.6654 0.0100287C82.1613 0.052827 81.6799 0.238445 81.2775 0.545109H77.0622C76.654 0.551228 76.2516 0.642684 75.8809 0.8136C75.5581 0.676023 75.2115 0.603036 74.8606 0.598794H72.9006C72.4906 0.59978 72.0862 0.694674 71.7186 0.876183C71.3509 1.05769 71.0297 1.321 70.7795 1.64591C69.6401 0.950304 68.3288 0.587571 66.9938 0.598794H64.3895C63.8969 0.599108 63.4143 0.737683 62.9966 0.998744C62.5789 1.25981 62.2429 1.63287 62.0268 2.07549C61.395 1.55117 60.6647 1.15862 59.8788 0.920986C57.9725 0.357156 55.9589 0.733053 54.2137 2.02181C53.8494 2.28805 53.5081 2.58443 53.1934 2.90782C51.9852 1.51167 50.0789 0.625643 47.9041 0.598794H45.2998C44.5949 0.59914 43.919 0.879179 43.4203 1.37742C43.1773 1.13492 42.8881 0.943493 42.57 0.814386C42.2518 0.68528 41.9111 0.621111 41.5678 0.625653H38.856L30.8013 0.598794C30.3918 0.602743 29.9884 0.698947 29.6212 0.880231C29.254 1.06151 28.9324 1.32322 28.6802 1.64591C28.4298 1.96873 28.2602 2.3467 28.1855 2.74834C28.1108 3.14998 28.1331 3.56366 28.2506 3.95493L29.1635 7.20368C28.9861 7.17251 28.8066 7.15455 28.6265 7.14997H18.2628C17.8221 7.14605 17.3852 7.23213 16.9789 7.40295C16.5727 7.57376 16.2055 7.82573 15.9 8.14339C15.291 7.58811 14.4958 7.28152 13.6716 7.28422H9.56366C8.83673 7.28418 8.12999 7.52342 7.55255 7.965C6.9751 8.40658 6.55905 9.02593 6.36862 9.72748L4.0596 18.2923C3.4702 18.3875 2.91731 18.6397 2.45903 19.0224C2.00076 19.4051 1.65402 19.9041 1.45524 20.4671L0.193335 24.038C0.0163477 24.5352 -0.0394382 25.0673 0.0306083 25.5904C0.100655 26.1134 0.294511 26.6121 0.596071 27.0451C0.828651 27.3898 1.13038 27.6824 1.48209 27.9043L0.112791 33.0325C-0.0209488 33.5226 -0.0395338 34.037 0.0584956 34.5354C0.156525 35.0339 0.368512 35.503 0.677881 35.9059C0.987249 36.3089 1.38562 36.6348 1.84185 36.8583C2.29808 37.0818 2.79982 37.1967 3.30783 37.1941H13.6716C14.0953 37.197 14.5153 37.1148 14.9066 36.9524C15.2987 37.1123 15.7182 37.1944 16.1417 37.1941H20.2227C20.8496 37.1937 21.4632 37.0139 21.9913 36.6762C22.5193 36.3384 22.9398 35.8567 23.203 35.2878C24.1242 36.1334 25.2261 36.7578 26.4249 37.1135C27.0886 37.3036 27.775 37.4029 28.4654 37.4089C29.5071 37.4012 30.5375 37.1915 31.4994 36.7914C31.984 37.0595 32.5296 37.1982 33.0835 37.1941H40.4132C40.9062 37.1991 41.3935 37.0887 41.8362 36.8719C42.279 37.0887 42.7663 37.1991 43.2592 37.1941H46.159C46.7421 37.1947 47.315 37.0411 47.8196 36.7487C48.3241 36.4563 48.7424 36.0357 49.0318 35.5294C49.0855 35.6368 49.166 35.7174 49.2197 35.8248C49.5318 36.2251 49.9309 36.5492 50.3868 36.7725C50.8426 36.9958 51.3433 37.1124 51.8509 37.1135H59.1808C59.6272 37.1126 60.0688 37.0219 60.4794 36.8466C60.8899 36.6713 61.2609 36.4151 61.5703 36.0933C61.8779 36.4285 62.2511 36.6968 62.6668 36.8815C63.0825 37.0663 63.5318 37.1636 63.9867 37.1672L78.888 37.1941C79.1231 37.1954 79.3574 37.1683 79.5861 37.1135H85.6539C86.3457 37.1063 87.0192 36.8911 87.5871 36.496C88.143 36.8948 88.8092 37.1106 89.4934 37.1135H96.7963C97.0031 37.109 97.2094 37.0911 97.4138 37.0598H106.006C107.05 37.0567 108.083 36.838 109.039 36.4176C109.995 35.9972 110.855 35.3841 111.563 34.6166C113.953 32.1733 114.973 28.2533 114.678 22.9909Z" fill="#9958FF"/>
<path d="M41.8095 15.3658H36.8692C36.6071 15.3616 36.3568 15.2556 36.1714 15.0702C35.986 14.8848 35.88 14.6345 35.8758 14.3724V9.70062L32.5734 10.1571C32.3332 10.1905 32.089 10.1353 31.8864 10.0019C31.6839 9.86855 31.5368 9.66601 31.4726 9.43212L29.7811 3.47163C29.7398 3.3257 29.7329 3.17221 29.7608 3.02315C29.7888 2.8741 29.8509 2.73352 29.9422 2.61245C30.0339 2.49168 30.1514 2.39287 30.286 2.3232C30.4207 2.25353 30.5693 2.21476 30.7208 2.20972L36.8424 2.23658H41.5141C41.732 2.23658 41.944 2.30723 42.1182 2.43794C42.2925 2.56865 42.4197 2.75237 42.4807 2.9615L43.7426 7.41844C43.7807 7.55433 43.7885 7.69693 43.7653 7.83614C43.7421 7.97535 43.6885 8.10775 43.6084 8.22392C43.5325 8.34401 43.4301 8.44515 43.3091 8.51961C43.1881 8.59407 43.0517 8.63985 42.9103 8.65349L41.353 8.8683L42.7492 14.0502C42.7905 14.1961 42.7974 14.3496 42.7694 14.4986C42.7415 14.6477 42.6794 14.7883 42.5881 14.9093C42.5098 15.0471 42.3967 15.1618 42.26 15.2419C42.1233 15.3221 41.9679 15.3648 41.8095 15.3658ZM37.8627 13.3789H40.5207L39.1783 8.35816C39.1401 8.22228 39.1324 8.07967 39.1556 7.94046C39.1788 7.80125 39.2324 7.66886 39.3125 7.55269C39.3884 7.4326 39.4908 7.33145 39.6118 7.257C39.7328 7.18254 39.8692 7.13675 40.0106 7.12311L41.541 6.90831L40.7892 4.25026H36.8692L32.0633 4.2234L33.1372 8.06283L36.7082 7.55269C36.8478 7.53029 36.9907 7.54045 37.1258 7.58237C37.2608 7.62428 37.3844 7.69682 37.4868 7.79434C37.5954 7.88736 37.6827 8.00261 37.743 8.13231C37.8032 8.26201 37.8348 8.40312 37.8358 8.54611V13.3789H37.8627Z" fill="#521CA6"/>
<path d="M47.206 15.3657H42.2657C42.1155 15.3686 41.9668 15.3361 41.8315 15.2708C41.6962 15.2055 41.5782 15.1092 41.4871 14.9898C41.3958 14.8687 41.3337 14.7282 41.3058 14.5791C41.2778 14.4301 41.2848 14.2766 41.326 14.1306L44.3063 3.01512C44.3636 2.8039 44.4899 2.61788 44.665 2.48656C44.8401 2.35524 45.054 2.28614 45.2728 2.29021H47.8503C50.6158 2.29021 52.8443 4.14278 52.8443 6.42496C52.8286 7.03713 52.6669 7.6367 52.3727 8.17377C52.0785 8.71083 51.6602 9.16984 51.1528 9.5126L55.4486 13.6742C55.5922 13.8083 55.692 13.9826 55.7351 14.1743C55.7781 14.366 55.7624 14.5662 55.6899 14.7489C55.6174 14.9315 55.4916 15.088 55.3288 15.1981C55.166 15.3081 54.9739 15.3665 54.7774 15.3657H49.8372C49.6511 15.3661 49.4687 15.3132 49.3117 15.2133C49.1547 15.1134 49.0296 14.9706 48.9512 14.8019L48.2531 13.352V14.3723C48.2331 14.6384 48.1149 14.8875 47.9213 15.0711C47.7277 15.2548 47.4727 15.3598 47.206 15.3657ZM43.5813 13.3789H46.2394V9.48576C46.2382 9.34893 46.2664 9.21344 46.322 9.0884C46.3776 8.96336 46.4593 8.85166 46.5616 8.76083C46.462 8.66782 46.3821 8.5557 46.3267 8.43115C46.2714 8.3066 46.2417 8.17218 46.2394 8.0359V5.1362C46.2398 4.96046 46.2874 4.78806 46.3771 4.63695C46.4668 4.48583 46.5954 4.36154 46.7495 4.27703H46.0515L43.5813 13.3789ZM50.4279 13.3789H52.3073L48.7901 9.96904L48.7632 9.94219L50.4279 13.3789ZM48.1725 8.81453C48.25 8.89264 48.3136 8.98345 48.3605 9.08302L48.5216 9.40521C48.4947 9.29042 48.4947 9.17095 48.5216 9.05616C48.5571 8.88991 48.6351 8.73573 48.7481 8.60867C48.861 8.48161 49.005 8.38602 49.1659 8.33125C50.1862 7.95536 50.8574 7.20359 50.8574 6.39811C50.8574 5.27045 49.5687 4.33073 48.0114 4.25019C48.0846 4.27257 48.1564 4.29946 48.2262 4.33073C48.6511 4.5279 49.0108 4.84243 49.2629 5.23726C49.515 5.6321 49.6489 6.09077 49.6489 6.5592C49.6489 7.02763 49.515 7.4863 49.2629 7.88114C49.0108 8.27597 48.6511 8.5905 48.2262 8.78767C48.1994 8.78767 48.1994 8.81453 48.1725 8.81453Z" fill="#521CA6"/>
<path d="M66.3494 15.3657H61.4092C61.259 15.3686 61.1102 15.3361 60.9749 15.2708C60.8396 15.2055 60.7217 15.1093 60.6305 14.9898C60.5392 14.8688 60.4772 14.7282 60.4492 14.5791C60.4213 14.4301 60.4282 14.2766 60.4695 14.1306L63.4497 2.98828C63.5071 2.77706 63.6333 2.59105 63.8084 2.45972C63.9835 2.3284 64.1974 2.25929 64.4163 2.26335H66.9938C69.7592 2.26335 71.9877 4.11595 71.9877 6.39812C71.9877 8.57289 69.9472 10.3718 67.3697 10.5329V14.3991C67.354 14.6596 67.2399 14.9044 67.0504 15.0839C66.861 15.2634 66.6104 15.3641 66.3494 15.3657ZM62.7248 13.3789H65.3828V9.48576C65.3869 9.20248 65.5027 8.93228 65.705 8.73399C65.6027 8.64315 65.521 8.53146 65.4654 8.40642C65.4098 8.28138 65.3817 8.14589 65.3828 8.00906V5.10936C65.3833 4.93362 65.4308 4.7612 65.5206 4.61009C65.6103 4.45898 65.7389 4.3347 65.893 4.25019H65.1949L62.7248 13.3789ZM67.1549 4.25019C67.2281 4.27257 67.2998 4.29947 67.3697 4.33073C67.7945 4.52812 68.154 4.8427 68.4061 5.23748C68.6582 5.63226 68.7923 6.09081 68.7927 6.5592C68.7934 6.912 68.7168 7.26068 68.5684 7.58073C68.42 7.90078 68.2033 8.18444 67.9335 8.4118C69.1149 8.11646 69.974 7.31099 69.974 6.39812C70.0009 5.27046 68.7121 4.30389 67.1549 4.25019Z" fill="#521CA6"/>
<path d="M56.8985 15.2583C56.4795 15.2617 56.0626 15.1982 55.6635 15.0703C54.2673 14.6676 53.1665 13.5936 52.5758 12.0364C52.0153 10.4985 51.9776 8.81875 52.4684 7.25727C52.9141 5.68641 53.856 4.30187 55.1534 3.31045C56.4958 2.34388 57.9994 2.04854 59.3955 2.45128C62.1878 3.2836 63.6108 6.77398 62.5905 10.2375C61.7045 13.2715 59.315 15.2583 56.8985 15.2583ZM54.4821 11.4994C54.6306 11.8894 54.8644 12.2412 55.1663 12.5292C55.4683 12.8172 55.8308 13.0341 56.2273 13.1641C57.9725 13.6742 59.9593 12.1438 60.6843 9.72737C61.4092 7.31095 60.5769 4.92139 58.8317 4.41126C58.4284 4.31088 58.008 4.29973 57.5999 4.37856C57.1918 4.4574 56.8059 4.62432 56.469 4.86769C56.8508 4.73846 57.263 4.7291 57.6503 4.84085C58.4021 5.05564 58.9659 5.72686 59.1807 6.69343C59.3343 7.54256 59.2883 8.41577 59.0465 9.24409C58.8023 10.0739 58.3706 10.8364 57.7846 11.4726C57.0865 12.1438 56.2542 12.4123 55.5024 12.1975C55.1038 12.0646 54.7504 11.8228 54.4821 11.4994ZM57.0865 6.74713C56.8717 6.80083 56.3079 7.31097 56.0125 8.33123C55.7172 9.35149 55.9051 10.1033 56.0394 10.2643C56.2542 10.2107 56.818 9.70053 57.1133 8.68026C57.4087 7.66 57.2207 6.90822 57.0865 6.74713Z" fill="#521CA6"/>
<path d="M78.002 15.3658H76.0688C75.858 15.361 75.653 15.2958 75.4782 15.1778C75.3091 15.3073 75.1002 15.3737 74.8875 15.3658H69.9473C69.7971 15.3687 69.6483 15.3362 69.513 15.2709C69.3777 15.2056 69.2597 15.1093 69.1686 14.9899C69.0773 14.8688 69.0152 14.7283 68.9873 14.5792C68.9593 14.4301 68.9663 14.2766 69.0075 14.1307L71.9878 3.01519C72.0452 2.80397 72.1714 2.61795 72.3465 2.48663C72.5216 2.35531 72.7355 2.28621 72.9544 2.29028H74.9143C75.1765 2.29443 75.4268 2.40041 75.6122 2.58582C75.7976 2.77123 75.9036 3.0215 75.9078 3.28368V5.43161L76.1226 3.12259C76.1475 2.87514 76.2625 2.64547 76.4456 2.47719C76.6287 2.30891 76.8673 2.21372 77.116 2.20972H82.0562C82.2152 2.21082 82.3716 2.25049 82.5118 2.32531C82.6521 2.40014 82.7722 2.50789 82.8617 2.63931C82.9556 2.76956 83.0168 2.92049 83.0402 3.07936C83.0635 3.23824 83.0484 3.40039 82.9959 3.55217L79.0223 14.7482C78.9183 14.9291 78.7702 15.0806 78.5918 15.1886C78.4134 15.2966 78.2104 15.3576 78.002 15.3658ZM77.1428 13.3789H77.3039L80.5795 4.16971H77.9483L77.5455 8.59981C77.5302 8.76817 77.4731 8.93002 77.3793 9.07068C77.2855 9.21135 77.1581 9.32637 77.0086 9.40528C77.0623 9.43213 77.0891 9.48582 77.1428 9.51267C77.3212 9.72201 77.4167 9.98945 77.4113 10.2644L77.1428 13.3789ZM71.236 13.3789H73.8941V10.1839C73.8937 10.0179 73.9353 9.85452 74.0151 9.70897C74.0949 9.56343 74.2103 9.44047 74.3505 9.35158C74.2125 9.26039 74.0988 9.13692 74.0193 8.99189C73.9398 8.84686 73.8968 8.68463 73.8941 8.51925V4.25026H73.7061L71.236 13.3789Z" fill="#521CA6"/>
<path d="M87.9091 15.3658H82.6467C82.4497 15.3685 82.2565 15.3108 82.0933 15.2004C81.9301 15.09 81.8046 14.9322 81.7339 14.7483C81.6577 14.5663 81.6401 14.3652 81.6834 14.1727C81.7267 13.9803 81.8288 13.8061 81.9755 13.6743L84.2308 11.4727C82.9761 10.4914 82.0644 9.13795 81.6265 7.60643C81.0626 5.72699 81.1969 3.74015 82.0292 2.20975C82.0903 2.09462 82.1737 1.99276 82.2745 1.91008C82.3753 1.82739 82.4915 1.76554 82.6163 1.72808C82.7412 1.69062 82.8722 1.67831 83.0019 1.69186C83.1316 1.70541 83.2572 1.74455 83.3717 1.80702L86.4593 3.44482C86.6451 3.54896 86.7939 3.70822 86.8853 3.9006C86.9767 4.09298 87.0061 4.30898 86.9694 4.51878C86.9014 5.02202 86.938 5.53386 87.0768 6.02232C87.2575 6.50543 87.5865 6.91897 88.0165 7.20369L90.1645 4.11605C90.2549 3.99182 90.3715 3.88896 90.506 3.81473C90.6406 3.7405 90.7898 3.69671 90.9431 3.68645L92.5809 3.63277H92.6077C92.7754 3.63296 92.9403 3.6758 93.0868 3.75729C93.2333 3.83878 93.3567 3.95623 93.4453 4.09856C93.534 4.2409 93.5849 4.40344 93.5934 4.57089C93.6018 4.73835 93.5676 4.90522 93.4938 5.05576L88.7952 14.802C88.7122 14.9673 88.586 15.107 88.43 15.2063C88.274 15.3056 88.094 15.3607 87.9091 15.3658ZM85.09 13.379H87.2648L89.896 7.87492L89.0905 9.02942C88.9642 9.21512 88.7775 9.35137 88.5622 9.415C88.3468 9.47863 88.1161 9.46571 87.9091 9.37846C87.6944 9.29791 85.7344 8.43875 85.1437 6.53246C84.9864 5.98228 84.9051 5.41318 84.902 4.84097L83.3717 4.0355C83.1404 5.02066 83.1775 6.04979 83.479 7.01574C83.9355 8.54614 84.9826 9.8349 86.1908 10.345C86.3433 10.4049 86.4777 10.5031 86.5812 10.6301C86.6846 10.7571 86.7536 10.9085 86.7815 11.0699C86.8064 11.2346 86.7927 11.4028 86.7414 11.5612C86.6902 11.7196 86.6028 11.864 86.4861 11.9828L85.09 13.379Z" fill="#521CA6"/>
<path d="M42.6416 7.06932L41.4871 2.90771L31.0428 2.88086L32.6269 8.49232L37.1107 7.84794V13.701H41.6482L39.9836 7.4452L42.6416 7.06932Z" fill="#FFEB47"/>
<path d="M49.4882 8.57287C50.8575 8.08958 51.7435 7.01563 51.7435 5.86112C51.7435 4.22332 50.0252 2.88086 47.9041 2.88086H45.4609L42.5612 13.6742H47.1255V8.76081L47.3134 8.78766C47.394 8.78766 47.4477 8.81451 47.5282 8.81451H47.6356L49.9983 13.6742H54.4284L49.2466 8.65341L49.4882 8.57287ZM47.9578 7.52576C47.8548 7.57353 47.7467 7.60954 47.6356 7.63315C47.5207 7.65542 47.4036 7.66444 47.2866 7.66001H47.1255L47.0986 5.86112V4.41126H47.2597C47.4932 4.41035 47.7234 4.46561 47.931 4.57236C48.2114 4.70416 48.4487 4.91293 48.6151 5.17437C48.7814 5.43582 48.8701 5.73917 48.8707 6.04906C48.8778 6.35715 48.7953 6.66065 48.6332 6.92277C48.4712 7.18489 48.2366 7.39437 47.9578 7.52576Z" fill="#FFEB47"/>
<path d="M67.0474 2.90771H64.6042L61.7045 13.701H66.2688V8.86821L66.4299 8.81451H66.4836C66.6797 8.83622 66.877 8.84518 67.0743 8.84135C69.1954 8.84135 70.9137 7.49891 70.9137 5.86111C70.9137 4.22332 69.1685 2.90771 67.0474 2.90771ZM67.1011 7.52576C66.9981 7.57353 66.89 7.60954 66.7789 7.63315C66.664 7.65542 66.5469 7.66443 66.4299 7.66H66.2688V4.43812H66.4299C66.6633 4.4372 66.8935 4.49245 67.1011 4.5992C67.3816 4.731 67.6189 4.93978 67.7852 5.20123C67.9516 5.46267 68.0402 5.76601 68.0409 6.0759C68.04 6.3823 67.951 6.68199 67.7843 6.93911C67.6177 7.19623 67.3805 7.3999 67.1011 7.52576Z" fill="#FFEB47"/>
<path d="M61.4629 5.43153C61.0064 4.25017 60.1741 3.41786 59.127 3.09567C58.8298 3.01169 58.5229 2.96657 58.2141 2.96143C57.3779 2.97494 56.5683 3.25736 55.9051 3.7669C54.8029 4.59395 54.0091 5.76586 53.6498 7.09617C53.2442 8.41255 53.2725 9.82442 53.7303 11.1235C54.1868 12.3049 55.0191 13.1372 56.0662 13.4594C58.241 14.1038 60.7111 12.3049 61.5434 9.45889C61.949 8.14251 61.9207 6.73064 61.4629 5.43153ZM58.2947 8.49233C57.8651 9.94218 56.9254 10.9087 56.0662 10.9087C55.957 10.904 55.8488 10.886 55.744 10.855C54.8043 10.5866 54.4553 9.08301 54.9385 7.47207C55.1205 6.77399 55.4815 6.13544 55.9857 5.61947C56.4689 5.13619 56.9791 4.97511 57.4624 5.10935C58.4289 5.40469 58.778 6.88138 58.2947 8.49233Z" fill="#FFEB47"/>
<path d="M77.277 2.82715L76.7937 8.17011H74.78V2.9077H73.1154L70.2157 13.701H74.78V9.51257H76.6863L76.3104 13.701H77.9482L81.8145 2.82715H77.277Z" fill="#FFEB47"/>
<path d="M91.1042 4.27713L88.4193 8.1434L88.2851 8.0897C88.2045 8.06285 86.4862 7.33793 86.0029 5.78069C85.8064 5.15626 85.7513 4.4959 85.8418 3.84755L82.9958 2.34399C82.3746 3.72217 82.2885 5.28222 82.7542 6.72041C83.2912 8.51929 84.4725 9.96914 85.9492 10.5598L86.1909 10.6672L83.1032 13.6743H87.8555L92.3661 4.22343L91.1042 4.27713Z" fill="#FFEB47"/>
<path d="M28.4922 35.7711C27.9572 35.7675 27.4248 35.6953 26.9081 35.5563C25.1898 35.073 23.7399 33.8111 22.6928 32.0122L21.8068 34.4824C21.6936 34.8048 21.4829 35.084 21.2039 35.2813C20.9248 35.4785 20.5913 35.5841 20.2496 35.5832H16.1416C15.91 35.5832 15.6807 35.5355 15.4683 35.4431C15.2558 35.3507 15.0646 35.2156 14.9066 35.0462L14.8797 35.0193C14.7266 35.1967 14.537 35.3389 14.3238 35.4362C14.1107 35.5335 13.879 35.5837 13.6447 35.5832H3.28093C3.0274 35.5811 2.77758 35.5221 2.54988 35.4105C2.32219 35.299 2.12243 35.1378 1.96533 34.9388C1.80635 34.737 1.69683 34.5007 1.64555 34.2489C1.59426 33.9972 1.60263 33.7369 1.66999 33.4889L3.46888 26.8035H3.28093C3.01757 26.8035 2.75808 26.74 2.52442 26.6185C2.29075 26.497 2.08978 26.321 1.93848 26.1054C1.78577 25.8899 1.68664 25.6411 1.64928 25.3797C1.61193 25.1182 1.63744 24.8516 1.72369 24.6019L2.9856 21.031C3.09876 20.7085 3.30949 20.4293 3.58854 20.232C3.86758 20.0348 4.20112 19.9293 4.54284 19.9302H5.32146L7.92582 10.184C8.02098 9.82949 8.23043 9.51632 8.52169 9.29302C8.81295 9.06972 9.16975 8.94877 9.53677 8.9489H13.6447C14.0855 8.95102 14.5077 9.12708 14.8194 9.4388C15.1311 9.75053 15.3072 10.1727 15.3093 10.6135V19.9033H15.7389L16.5981 10.2914C16.6318 9.88066 16.8192 9.49778 17.1228 9.2191C17.4263 8.94042 17.8238 8.78641 18.2359 8.7878H28.5996C28.863 8.78785 29.1225 8.85132 29.3561 8.97283C29.5898 9.09433 29.7908 9.27031 29.9421 9.48588C30.0948 9.7014 30.1939 9.9502 30.2313 10.2117C30.2686 10.4732 30.2431 10.7398 30.1569 10.9894L28.5191 15.6075H30.3985C30.6619 15.6075 30.9213 15.671 31.155 15.7925C31.3887 15.914 31.5897 16.09 31.741 16.3055C31.8996 16.5182 32.0024 16.7673 32.0399 17.03C32.0774 17.2926 32.0485 17.5605 31.9557 17.8091C31.0966 20.3061 30.1569 23.1252 30.0226 23.6085C29.6736 25.4879 29.9421 26.8841 30.2106 27.4748C30.5864 27.0452 31.1771 26.0518 31.4993 24.3603C31.5794 23.9254 31.6332 23.486 31.6604 23.0447C31.6774 22.7135 31.7942 22.3952 31.9955 22.1316C32.1967 21.8681 32.473 21.6716 32.7881 21.568L34.936 20.843L35.9831 16.9768C36.0783 16.6223 36.2877 16.3091 36.579 16.0858C36.8702 15.8625 37.227 15.7416 37.5941 15.7417H40.4937C40.855 15.7363 41.2077 15.8524 41.495 16.0716C41.7823 16.2907 41.9876 16.6001 42.0778 16.9499L42.9102 19.9302L43.1518 17.1379C43.1856 16.7272 43.3729 16.3443 43.6765 16.0656C43.9801 15.7869 44.3775 15.6329 44.7896 15.6343H52.3073L56.1736 15.6612H59.2344L69.1417 15.6343C69.2498 15.6299 69.358 15.6389 69.4639 15.6612L80.1498 15.6343C80.4034 15.6364 80.6532 15.6954 80.8809 15.807C81.1086 15.9185 81.3083 16.0797 81.4654 16.2787L81.4923 16.3055C81.6474 16.1129 81.8436 15.9575 82.0667 15.8507C82.2897 15.7438 82.5338 15.6882 82.781 15.688H86.5668C87.6567 15.6685 88.7398 15.8649 89.7535 16.2658C90.7673 16.6667 91.6917 17.2642 92.4735 18.0239L93.6281 10.184C93.6879 9.79104 93.8855 9.43221 94.1855 9.17154C94.4855 8.91087 94.8684 8.76534 95.2659 8.76096C95.2927 8.76096 97.5749 8.73411 100.958 8.76096H102.112C105.898 8.76096 107.939 10.4256 108.959 11.8218C109.749 12.9011 110.24 14.17 110.382 15.5001C110.414 15.7916 110.369 16.0865 110.251 16.3551C110.133 16.6237 109.947 16.8566 109.711 17.0305C111.644 18.3192 112.584 21.1115 112.959 22.7225C112.986 22.8299 112.986 22.9373 113.013 23.0178C113.282 27.8238 112.396 31.3142 110.409 33.4353C109.854 34.0375 109.182 34.5197 108.434 34.8522C107.686 35.1847 106.878 35.3603 106.059 35.3684L89.547 35.4221C89.2359 35.4272 88.9302 35.3408 88.6677 35.1738C88.4052 35.0067 88.1975 34.7663 88.0703 34.4824L87.3722 33.0594V33.7843C87.3701 34.2251 87.1941 34.6473 86.8823 34.959C86.5706 35.2707 86.1484 35.4468 85.7076 35.4489L66.4568 35.5026H64.0672C63.8137 35.5005 63.5639 35.4415 63.3362 35.33C63.1085 35.2185 62.9087 35.0573 62.7516 34.8583C62.5926 34.6564 62.4831 34.4201 62.4318 34.1684C62.3806 33.9166 62.3889 33.6563 62.4563 33.4084L64.0404 27.5016L60.899 27.072V33.7843C60.8969 34.2251 60.7209 34.6473 60.4091 34.959C60.0974 35.2707 59.6752 35.4468 59.2344 35.4489H51.9046C51.6511 35.4468 51.4013 35.3878 51.1736 35.2763C50.9459 35.1648 50.7461 35.0036 50.589 34.8046C50.43 34.6027 50.3205 34.3665 50.2692 34.1147C50.2179 33.8629 50.2263 33.6026 50.2937 33.3547L52.3073 25.8638L50.8843 25.6759L47.7698 34.4287C47.6567 34.7511 47.446 35.0303 47.1669 35.2276C46.8879 35.4248 46.5543 35.5304 46.2126 35.5295H43.3129C43.0268 35.5275 42.7459 35.4524 42.4968 35.3114C42.2478 35.1705 42.0389 34.9683 41.8899 34.724C41.7435 34.9706 41.5351 35.1747 41.2855 35.316C41.0359 35.4572 40.7537 35.5308 40.4669 35.5295H33.1103C32.8567 35.5274 32.6069 35.4684 32.3792 35.3568C32.1515 35.2453 31.9518 35.0841 31.7947 34.8851C31.7678 34.8582 31.7678 34.8314 31.741 34.8046C30.7712 35.4274 29.6447 35.7626 28.4922 35.7711ZM22.7197 25.3H22.8808C23.2494 25.341 23.5942 25.5028 23.8613 25.7602C24.1284 26.0176 24.3028 26.3561 24.3575 26.723C24.787 29.6764 26.1295 31.9049 27.821 32.3613C29.1097 32.7372 30.5596 32.0122 31.7678 30.455L31.741 30.4819C31.3949 30.7165 31.0012 30.8719 30.5882 30.9369C30.1751 31.0018 29.7528 30.9748 29.3514 30.8577C28.6265 30.6429 27.3646 29.9717 26.8007 27.609C26.4816 26.0871 26.4725 24.5165 26.7739 22.991C26.8544 22.5345 27.472 20.6819 28.0626 18.9099H26.1563C25.893 18.9098 25.6335 18.8464 25.3998 18.7249C25.1662 18.6034 24.9652 18.4274 24.8139 18.2118C24.6612 17.9963 24.5621 17.7475 24.5247 17.486C24.4873 17.2245 24.5128 16.9579 24.5991 16.7083L26.2369 12.0902H19.7394L18.8802 21.7022C18.8465 22.1129 18.6591 22.4958 18.3556 22.7745C18.052 23.0531 17.6545 23.2071 17.2425 23.2058H13.6447C13.2038 23.2036 12.7817 23.0276 12.4699 22.7159C12.1582 22.4041 11.9822 21.9819 11.98 21.5411V12.2245H10.8255L8.22117 21.9707C8.12601 22.3252 7.91656 22.6383 7.6253 22.8616C7.33404 23.0849 6.97723 23.2059 6.61022 23.2058H5.7242L5.61681 23.4742C5.87034 23.4764 6.12016 23.5354 6.34786 23.6469C6.57555 23.7584 6.77531 23.9196 6.93241 24.1186C7.09139 24.3205 7.20091 24.5567 7.25219 24.8085C7.30348 25.0602 7.29511 25.3205 7.22775 25.5685L5.45571 32.2539H12.0069V25.1389C12.009 24.698 12.1851 24.2759 12.4968 23.9641C12.8085 23.6524 13.2307 23.4764 13.6715 23.4742H16.9471C17.1778 23.4723 17.4064 23.5185 17.6183 23.61C17.8301 23.7015 18.0205 23.8363 18.1772 24.0056C18.3339 24.175 18.4535 24.3752 18.5283 24.5935C18.6032 24.8118 18.6316 25.0432 18.6118 25.2731L17.9942 32.227H19.1219L21.2161 26.3739C21.3135 26.0543 21.5136 25.7758 21.7855 25.5816C22.0574 25.3874 22.3858 25.2884 22.7197 25.3ZM44.4943 32.2539H45.0581L49.0317 21.0847C49.1601 20.7065 49.4218 20.3879 49.768 20.1887C50.1142 19.9894 50.5211 19.9231 50.9126 20.002C51.3041 20.081 51.6535 20.2999 51.8954 20.6177C52.1372 20.9356 52.2551 21.3306 52.2268 21.7291L52.1731 22.5345L54.6164 22.8836C54.849 22.9151 55.0722 22.9959 55.2711 23.1206C55.47 23.2454 55.64 23.4111 55.7696 23.6069C55.8993 23.8026 55.9856 24.0238 56.0229 24.2556C56.0601 24.4874 56.0474 24.7244 55.9857 24.9509L54.0525 32.1733H57.5698V25.1926C57.5719 24.9548 57.6231 24.72 57.7201 24.5028C57.8171 24.2857 57.9579 24.0909 58.1336 23.9307C58.3112 23.7732 58.5206 23.6558 58.7476 23.5863C58.9746 23.5168 59.2139 23.4969 59.4492 23.5279L64.7116 24.2797L65.356 22.6151C65.507 22.2156 65.8059 21.8895 66.1908 21.7046C66.5758 21.5196 67.0171 21.4899 67.4234 21.6217C67.8271 21.7564 68.165 22.0388 68.3692 22.4123C68.5734 22.7858 68.6288 23.2227 68.5242 23.6353L66.2152 32.227H66.4837L78.4852 32.2539C78.6409 32.2011 78.8041 32.1739 78.9685 32.1733H84.0429V26.6156C84.0415 26.2123 84.1843 25.8219 84.4457 25.5148C84.1918 25.2138 84.0496 24.8345 84.0429 24.4408V20.1181C84.0447 19.7154 84.1872 19.326 84.4457 19.0173H84.0429L81.7876 27.3942C81.7055 27.709 81.5313 27.992 81.2874 28.2073C81.0434 28.4225 80.7409 28.5601 80.4183 28.6024L71.5581 29.8375C71.3228 29.8685 71.0835 29.8486 70.8565 29.7792C70.6296 29.7097 70.4202 29.5922 70.2425 29.4347C70.0668 29.2745 69.926 29.0797 69.829 28.8626C69.732 28.6454 69.6808 28.4106 69.6787 28.1728V25.4342C69.6868 25.1645 69.7508 24.8994 69.8666 24.6556C69.7385 24.4164 69.6739 24.1483 69.6787 23.877V22.6151C69.6808 22.3773 69.732 22.1425 69.829 21.9253C69.926 21.7082 70.0668 21.5134 70.2425 21.3532C70.4202 21.1957 70.6296 21.0782 70.8565 21.0088C71.0835 20.9393 71.3228 20.9194 71.5581 20.9504L77.1427 21.7291L77.9482 18.9099L69.1149 18.9368C69.0068 18.9412 68.8985 18.9321 68.7927 18.9099L59.2076 18.9368H56.281L52.0657 18.9099H46.2394L45.3266 29.1394C45.2927 29.5223 45.1269 29.8815 44.8576 30.1557C44.5883 30.4299 44.2321 30.6021 43.8499 30.6429L44.4943 32.2539ZM35.285 32.2539H38.8023V25.7296C38.8034 25.3397 38.9409 24.9624 39.191 24.6633C39.4411 24.3642 39.788 24.162 40.1716 24.0918C40.3226 24.0695 40.4754 24.0605 40.628 24.0649L39.205 19.0173H38.8291L37.5135 23.9575C37.4059 24.3561 37.1539 24.7005 36.8066 24.9238C36.4593 25.1471 36.0414 25.2333 35.6341 25.1657C35.3252 25.1095 35.0375 24.9703 34.8017 24.763C34.8017 24.8167 34.7749 24.8704 34.7749 24.9241C34.5868 25.9733 34.2618 26.9933 33.8083 27.958C34.1683 27.8462 34.555 27.8556 34.9091 27.9849C35.2933 28.1317 35.6085 28.4172 35.7924 28.785C35.9764 29.1529 36.0157 29.5763 35.9026 29.9717L35.285 32.2539ZM90.5941 32.1733H96.2861C96.4941 32.1071 96.7126 32.0798 96.9305 32.0928H96.9573C97.0379 32.0928 97.1453 32.1196 97.199 32.1196H106.086C106.452 32.1141 106.813 32.0325 107.146 31.8799C107.479 31.7274 107.776 31.5073 108.019 31.2336C108.771 30.4282 109.979 28.3608 109.738 23.4205C109.281 21.6217 108.502 20.1718 107.804 19.7959C107.716 19.745 107.617 19.7139 107.515 19.7046C107.413 19.6953 107.31 19.7082 107.214 19.7422C106.274 20.0376 104.717 20.5745 103.079 21.1652C103.854 21.171 104.607 21.4251 105.227 21.8902C105.612 22.1825 105.924 22.5601 106.138 22.9934C106.352 23.4267 106.463 23.9038 106.462 24.3871C106.596 26.7767 106.462 29.0857 103.804 30.9651C102.112 32.1465 100.904 31.7169 100.34 31.3679C98.8905 30.4282 98.8368 28.3339 98.8905 26.8304C98.8847 26.74 98.8937 26.6493 98.9173 26.5619L94.2187 27.5285C94.1784 28.1848 94.2235 28.8437 94.353 29.4884C94.4368 29.8351 94.4032 30.1999 94.2575 30.5254C94.1117 30.851 93.862 31.119 93.5475 31.2873C93.2348 31.4572 92.8761 31.5228 92.5235 31.4745C92.1709 31.4262 91.843 31.2666 91.5875 31.0188L88.5804 28.1191L90.5941 32.1733ZM102.515 24.4945C102.52 24.5848 102.51 24.6753 102.488 24.763C102.291 25.8342 102.201 26.9226 102.22 28.0117C103.133 27.2331 103.267 26.4276 103.159 24.5482V24.4945C102.946 24.4674 102.729 24.4674 102.515 24.4945ZM74.5652 24.7362V25.4342C74.5653 25.656 74.5196 25.8753 74.431 26.0786L78.9416 25.4611L79.0222 25.1389C78.7576 25.2419 78.4719 25.2787 78.1898 25.2463L74.5652 24.7362ZM87.3991 25.6759C87.4155 25.6886 87.4288 25.7049 87.4381 25.7235C87.4473 25.7421 87.4524 25.7625 87.4528 25.7833C87.4796 25.7296 87.4796 25.6759 87.5065 25.6222C87.4796 25.649 87.4528 25.649 87.3991 25.6759ZM87.9361 19.1784C88.3565 19.4726 88.7126 19.8494 88.9825 20.2859C89.2524 20.7223 89.4305 21.2092 89.5059 21.7168C89.5812 22.2244 89.5523 22.7421 89.4209 23.2381C89.2895 23.7342 89.0583 24.1982 88.7415 24.6019C90.084 24.0649 90.9163 23.0715 90.9163 21.9975C90.9163 20.7088 89.6276 19.5811 87.9361 19.1784ZM98.7294 19.0978L98.7025 19.2321H98.7294C98.7025 19.1784 98.7294 19.1515 98.7294 19.0978ZM98.1656 12.842C98.647 12.834 99.1245 12.9307 99.5649 13.1254C100.005 13.3201 100.398 13.6082 100.716 13.9697C101.441 14.7752 101.79 15.9297 101.951 16.9768L103.831 16.1176C105.039 15.5538 106.032 15.1242 106.73 14.802C106.757 14.7751 106.811 14.7751 106.838 14.7483C106.408 13.6475 105.227 12.1171 102.139 12.1171H96.7426L96.2861 15.1779L96.5546 14.1308C96.64 13.7666 96.8452 13.4416 97.1373 13.2079C97.4294 12.9742 97.7915 12.8454 98.1656 12.842ZM108.502 14.1039L108.18 14.1845C108.261 14.1576 108.395 14.1308 108.502 14.1039Z" fill="#521CA6"/>
<path d="M111.375 23.152C110.838 20.9503 109.415 17.2989 106.73 18.1581C104.046 19.0172 96.3399 21.8632 96.3399 21.8632L98.1656 14.5066C100.904 14.4797 100.367 19.5273 100.367 19.5273C100.367 19.5273 108.744 15.6611 108.771 15.7416C108.798 15.8222 108.529 10.4524 102.139 10.4524H100.985C97.5481 10.4255 95.2928 10.4524 95.2928 10.4524L93.2522 24.4676L102.193 22.8835C102.193 22.8835 104.744 22.3465 104.851 24.4676C104.958 26.5887 104.878 28.1996 102.891 29.6226C99.4544 32.0659 100.877 24.4676 100.877 24.4676L92.7421 26.1322C92.5275 27.3597 92.5457 28.6166 92.7958 29.8374L89.0906 26.2396C91.158 25.5147 92.581 23.9037 92.581 21.9975C92.581 19.42 89.923 17.3526 86.6474 17.3526H82.8616L80.2841 26.9645L71.424 28.1996V25.461H72.9275V23.9038H71.424V22.6418L78.4315 23.6353L80.2036 17.2989L69.1686 17.3257V17.2989L59.2345 17.3257H56.3348L52.1195 17.2989H44.7897L43.7426 29.0319L40.467 17.4063H37.5673L35.9026 23.5816C35.9295 23.1251 35.9563 22.6687 35.9563 22.2391L33.2983 23.152C33.2754 23.6662 33.2125 24.1779 33.1103 24.6824C32.5733 27.6089 31.0966 29.6763 29.781 29.3004C28.4654 28.9245 27.8479 26.2665 28.3849 23.3131C28.4923 22.6687 30.3717 17.2989 30.3717 17.2989H26.1564L28.5997 10.4524H18.2359L17.2425 21.5679H13.6447V10.5866H9.53684L6.58344 21.5679H4.54292L3.28101 25.1388H5.64372L3.28101 33.8916H13.6447V25.1388H16.9203L16.1417 33.8916H20.2228L22.6929 26.9377C23.203 30.4818 24.8945 33.2472 27.3378 33.9453C29.9153 34.6702 32.6002 32.8445 34.2648 29.5421L33.1103 33.8916H40.4401V25.7026L43.2861 33.8916H46.1858L50.5622 21.6216L50.428 23.9574L54.4016 24.5213L51.9047 33.8379H59.2345V25.2194L65.8125 26.1322L66.9133 23.2057L64.0673 33.8648H66.4837L85.7076 33.8111V26.5887C85.815 26.5887 85.9224 26.6155 86.0567 26.6155L89.5471 33.8111L106.059 33.7574C108.69 33.7574 111.832 31.2604 111.375 23.152ZM86.6205 24.2259C86.4814 24.2828 86.3377 24.3277 86.1909 24.3602C86.0409 24.3929 85.888 24.4108 85.7345 24.4139V20.118C86.0392 20.1232 86.34 20.187 86.6205 20.306C86.9972 20.4765 87.3166 20.7522 87.5405 21.0999C87.7643 21.4476 87.8831 21.8525 87.8824 22.266C87.8791 22.6786 87.7588 23.0818 87.5354 23.4288C87.312 23.7757 86.9948 24.0521 86.6205 24.2259Z" fill="#FFEB47"/>
<path d="M75.3706 40.6039H39.3392C39.1064 40.6043 38.8758 40.5587 38.6606 40.4698C38.4455 40.3809 38.25 40.2503 38.0854 40.0857C37.9207 39.9211 37.7902 39.7256 37.7013 39.5105C37.6124 39.2953 37.5668 39.0647 37.5671 38.8319V34.2407H77.1427V38.8319C77.143 39.0647 77.0974 39.2953 77.0085 39.5105C76.9196 39.7256 76.7891 39.9211 76.6244 40.0857C76.4598 40.2503 76.2643 40.3809 76.0492 40.4698C75.834 40.5587 75.6034 40.6043 75.3706 40.6039Z" fill="#521CA6"/>
<path d="M40.3058 38.617V35.9053C40.3264 35.9033 40.3456 35.8937 40.3595 35.8784H42.1584C42.2854 35.8812 42.4116 35.8992 42.5343 35.9321C42.6473 35.9846 42.7551 36.0475 42.8564 36.1201C42.949 36.2119 43.0221 36.3215 43.0712 36.4422C43.1262 36.5787 43.1536 36.7247 43.1518 36.8718C43.1471 36.981 43.129 37.0892 43.0981 37.194C43.0844 37.2827 43.0473 37.3661 42.9907 37.4357C42.9438 37.5038 42.8898 37.5668 42.8296 37.6236C42.7737 37.6772 42.7104 37.7224 42.6417 37.7579C42.5611 37.7847 42.5074 37.8115 42.4269 37.8384C42.358 37.8658 42.2857 37.8839 42.2121 37.8921C42.1584 37.8921 42.0778 37.9189 41.9973 37.9189H41.6214C41.6214 38.1337 41.5945 38.3754 41.5945 38.6439V38.8587C41.5958 38.8695 41.5946 38.8806 41.5911 38.891C41.5875 38.9013 41.5816 38.9107 41.5738 38.9185C41.5661 38.9262 41.5567 38.9321 41.5463 38.9357C41.5359 38.9393 41.5249 38.9405 41.514 38.9392H40.3595C40.3241 38.8355 40.3059 38.7266 40.3058 38.617ZM41.4603 37.2209L41.514 37.3014H41.6751C41.7321 37.2959 41.7872 37.2775 41.8362 37.2477C41.8899 37.2209 41.9167 37.194 41.9704 37.1672C42.0031 37.1262 42.0302 37.0811 42.051 37.0329C42.0728 36.9822 42.0821 36.9269 42.0778 36.8718C42.082 36.8254 42.0727 36.7788 42.051 36.7376C42.051 36.7107 42.0241 36.657 41.9973 36.657C41.9704 36.657 41.9436 36.6033 41.9167 36.6033C41.9061 36.5932 41.8934 36.5855 41.8795 36.5809C41.8655 36.5762 41.8508 36.5747 41.8362 36.5765C41.8093 36.5765 41.7825 36.5496 41.7288 36.5496H41.514C41.4541 36.768 41.4359 36.9957 41.4603 37.2209Z" fill="#FFEB47"/>
<path d="M46.4811 38.9124C46.4274 38.9533 46.3603 38.9725 46.2932 38.9661H45.3266C45.2998 38.9661 45.2729 38.9124 45.2461 38.8319C45.2219 38.7166 45.204 38.6001 45.1924 38.4828C45.1751 38.4034 45.1661 38.3224 45.1655 38.2412C45.1694 38.1487 45.151 38.0566 45.1118 37.9727C45.085 37.919 45.0044 37.919 44.897 37.919H44.8165V38.9124C44.8165 38.9393 44.7896 38.9393 44.7628 38.9661C44.7359 38.993 44.7091 38.993 44.6554 38.993H43.6083C43.5814 38.993 43.5814 38.9661 43.5546 38.9661V35.959C43.5546 35.9322 43.6083 35.9053 43.7157 35.9053H45.4877C45.7383 35.8932 45.9853 35.9692 46.1858 36.1201C46.2691 36.1931 46.3343 36.2844 46.3762 36.387C46.4182 36.4895 46.4357 36.6003 46.4274 36.7108C46.429 36.8662 46.3838 37.0185 46.2976 37.1478C46.2114 37.2771 46.0882 37.3774 45.9441 37.4357L46.1052 37.5163C46.1589 37.5431 46.1858 37.5968 46.2395 37.6237C46.2722 37.6646 46.2993 37.7098 46.32 37.7579C46.3498 37.8069 46.3682 37.8619 46.3737 37.919C46.3956 37.9697 46.4048 38.025 46.4006 38.0801C46.4006 38.1338 46.4274 38.1875 46.4274 38.2412C46.4543 38.4024 46.4543 38.4024 46.4812 38.5634L46.4811 38.7513C46.4811 38.7782 46.508 38.805 46.508 38.8319C46.5256 38.855 46.535 38.8833 46.5348 38.9124C46.508 38.8856 46.508 38.9124 46.4811 38.9124ZM44.7896 36.7108V36.8987C44.7892 36.9536 44.7982 37.0081 44.8165 37.0598C44.8433 37.1135 44.8433 37.1672 44.8702 37.1941C44.9253 37.1983 44.9805 37.1891 45.0313 37.1672C45.0811 37.1663 45.1288 37.1472 45.1655 37.1135C45.2135 37.0924 45.2518 37.0541 45.2729 37.0061C45.3065 36.9491 45.325 36.8844 45.3266 36.8182C45.3266 36.7645 45.3266 36.7376 45.2998 36.7108C45.2729 36.6839 45.2729 36.6571 45.2461 36.6302C45.2192 36.6034 45.1924 36.6034 45.1655 36.5765C45.1387 36.5497 45.1118 36.5497 45.0581 36.5497H44.8433C44.8165 36.5497 44.8165 36.5765 44.8165 36.6034C44.8165 36.6302 44.7896 36.6571 44.7896 36.7108Z" fill="#FFEB47"/>
<path d="M46.8302 38.9392C46.8302 38.5365 46.8571 38.268 46.8571 38.08C46.8571 37.5162 46.857 36.9524 46.8839 36.3617V35.9321C46.8821 35.9175 46.8836 35.9027 46.8883 35.8888C46.8929 35.8749 46.9006 35.8622 46.9107 35.8516C47.2502 35.8776 47.5907 35.8866 47.931 35.8784H48.1458V38.966H46.8302V38.9392Z" fill="#FFEB47"/>
<path d="M48.468 35.9052C48.468 35.8784 48.4949 35.8516 48.5486 35.8516H49.6762C49.7166 35.8583 49.754 35.877 49.7836 35.9052L50.1327 37.9189C50.1595 37.7847 50.1864 37.5967 50.2401 37.3819C50.2668 37.2278 50.3026 37.0754 50.3475 36.9255L50.5622 35.9052C50.8357 35.8477 51.116 35.8296 51.3946 35.8516H51.7167C51.7436 35.8516 51.7705 35.8784 51.7705 35.9321L51.314 37.5699C51.314 37.5967 51.2872 37.6773 51.2603 37.8115C51.2335 37.9458 51.2066 38.0532 51.1798 38.1606C51.1529 38.268 51.1261 38.4022 51.0992 38.5096C51.0724 38.617 51.0187 38.7244 50.9918 38.805C50.965 38.8855 50.9113 38.9392 50.8844 38.9392H50.3206C50.2214 38.9359 50.1222 38.9449 50.0253 38.966H49.3809L48.468 35.9052Z" fill="#FFEB47"/>
<path d="M51.4482 38.9123C51.5288 38.5902 51.6362 38.2948 51.7167 37.9726C51.7973 37.6504 51.9315 37.2746 52.0926 36.8181C52.2537 36.3617 52.3343 36.0663 52.388 35.9052C52.4033 35.8913 52.4129 35.8722 52.4148 35.8516H53.9721C53.9756 35.8516 53.9791 35.8522 53.9823 35.8536C53.9856 35.8549 53.9886 35.8569 53.991 35.8594C53.9935 35.8619 53.9955 35.8649 53.9969 35.8681C53.9982 35.8714 53.9989 35.8749 53.9989 35.8784V35.9052L54.9386 38.8586C54.9386 38.8855 54.9386 38.9123 54.9118 38.9123C54.8849 38.9123 54.8581 38.9392 54.8044 38.9392H53.7841C53.7304 38.9392 53.7036 38.9392 53.6767 38.9123C53.6629 38.9111 53.6499 38.9051 53.6401 38.8953C53.6303 38.8855 53.6242 38.8725 53.623 38.8586V38.7244C53.5962 38.6439 53.5962 38.5902 53.5425 38.5365C53.5324 38.5154 53.5174 38.497 53.4987 38.483C53.48 38.469 53.4581 38.4597 53.4351 38.4559H52.737L52.6296 38.8855C52.6028 38.9124 52.5491 38.9392 52.4148 38.9392H51.4482C51.4751 38.9661 51.4751 38.9392 51.4482 38.9123ZM52.8444 37.6773L52.8981 37.7847H53.0323C53.1316 37.7904 53.2311 37.7813 53.3277 37.7578C53.4082 37.7578 53.4619 37.731 53.4619 37.7041L53.1934 36.5496C53.1666 36.5496 53.1397 36.6033 53.086 36.6839C53.0302 36.7835 52.9938 36.8929 52.9786 37.0061L52.8444 37.6773Z" fill="#FFEB47"/>
<path d="M54.7506 36.4691V36.0664C54.7506 35.9321 54.7775 35.8516 54.8043 35.8516H57.3281C57.4087 35.8516 57.4355 35.8516 57.4624 35.8784C57.4892 35.9053 57.4892 35.9053 57.4892 35.9589V36.657C57.4892 36.7376 57.4624 36.7644 57.4355 36.7644H56.7374V38.9392C56.7374 38.9929 56.7106 38.9929 56.6569 38.9929H55.5561L55.4755 38.8855C55.4755 38.6707 55.4755 38.3754 55.5024 37.9726C55.5292 37.5699 55.5292 37.2746 55.5292 37.0598V36.845C55.5292 36.8414 55.5285 36.8379 55.5272 36.8347C55.5258 36.8314 55.5239 36.8285 55.5214 36.826C55.5189 36.8235 55.5159 36.8215 55.5127 36.8202C55.5094 36.8188 55.5059 36.8181 55.5024 36.8181L55.4755 36.7913H54.8312C54.7775 36.7376 54.7506 36.657 54.7506 36.4691Z" fill="#FFEB47"/>
<path d="M57.8114 38.8318V35.8784H60.1741V36.657L60.1473 36.6839C60.1473 36.6874 60.1466 36.6909 60.1452 36.6942C60.1439 36.6974 60.1419 36.7004 60.1394 36.7029C60.1369 36.7054 60.134 36.7074 60.1307 36.7087C60.1274 36.71 60.124 36.7107 60.1204 36.7107H59.9862C59.6371 36.7107 59.315 36.7107 59.0196 36.6839V36.7913C59.0196 36.845 59.0196 36.8718 58.9928 36.8987V37.0061H59.9593C60.013 37.0061 60.0399 37.0061 60.0399 37.0329C60.0399 37.0598 60.0667 37.0598 60.0667 37.0866V37.731C60.0639 37.7514 60.0545 37.7702 60.0399 37.7847H60.013C59.5834 37.8115 59.2613 37.8116 59.0733 37.8116H59.0196V38.1069C59.1901 38.1088 59.3604 38.0998 59.5297 38.08C59.7445 38.08 59.9325 38.0532 60.0399 38.0532C60.0985 38.0497 60.1562 38.0689 60.201 38.1069V38.8587C60.201 38.9392 60.1741 38.9661 60.1204 38.9661H59.4761C59.2881 38.9661 58.9928 38.9661 58.6437 38.9929C58.2947 39.0198 58.0262 39.0198 57.8651 39.0198L57.8114 38.9661V38.8318Z" fill="#FFEB47"/>
<path d="M64.9264 37.8117C64.9052 37.9988 64.8507 38.1807 64.7653 38.3486C64.6954 38.5018 64.5838 38.632 64.4431 38.7245C64.3079 38.8276 64.1523 38.9009 63.9867 38.9393C63.813 38.9942 63.6318 39.0214 63.4497 39.0199C63.2784 39.0167 63.1078 38.9987 62.9396 38.9662C62.8025 38.9457 62.673 38.8902 62.5637 38.8051C62.4561 38.7472 62.3641 38.6643 62.2952 38.5634C62.2231 38.4713 62.1602 38.3724 62.1073 38.2681C62.0595 38.1651 62.0235 38.057 61.9999 37.9459C61.9711 37.8406 61.9531 37.7326 61.9462 37.6237C61.9462 37.5163 61.9193 37.4089 61.9193 37.3015V37.1136C61.9224 36.9267 61.9683 36.743 62.0536 36.5766C62.1137 36.4254 62.2162 36.2949 62.3489 36.2007C62.4568 36.0958 62.5846 36.0137 62.7248 35.9591C62.8639 35.9022 63.0076 35.8573 63.1544 35.8248C63.2874 35.8025 63.4223 35.7935 63.5571 35.798C63.7481 35.7945 63.9385 35.8217 64.1209 35.8785C64.2659 35.928 64.4019 36.0005 64.5237 36.0933C64.6209 36.1871 64.7025 36.2959 64.7653 36.4155C64.8259 36.5419 64.8623 36.6785 64.8727 36.8182V37.0062C64.8727 37.0599 64.7116 37.0599 64.4163 37.0599H63.8256C63.7987 37.0599 63.7719 37.033 63.745 37.0062C63.7182 36.9793 63.7182 36.9525 63.7182 36.8988C63.7182 36.8451 63.6913 36.8182 63.6913 36.7645C63.6854 36.7239 63.6665 36.6863 63.6375 36.6573C63.6085 36.6283 63.5709 36.6094 63.5302 36.6034C63.4838 36.5993 63.4372 36.6086 63.396 36.6303L63.3155 36.7108C63.2886 36.7377 63.2886 36.7914 63.2618 36.8182C63.2374 36.8585 63.2279 36.906 63.2349 36.9525V37.57C63.2349 37.919 63.3155 38.0801 63.5034 38.0801C63.5242 38.0797 63.5446 38.0747 63.5632 38.0654C63.5818 38.0561 63.598 38.0428 63.6108 38.0264C63.6391 37.9968 63.6578 37.9594 63.6645 37.919C63.6761 37.8749 63.685 37.83 63.6913 37.7848C63.6917 37.764 63.6968 37.7436 63.7061 37.725C63.7154 37.7065 63.7287 37.6902 63.745 37.6774H64.8459C64.8996 37.7311 64.9264 37.758 64.9264 37.8117Z" fill="#FFEB47"/>
<path d="M65.3561 36.2005C65.3561 35.9857 65.3829 35.8514 65.4366 35.8246H65.9736C66.1263 35.8175 66.2792 35.8265 66.43 35.8515C66.5374 35.8783 66.618 35.9052 66.618 35.932L66.5911 38.0262H67.4234C67.504 38.0262 67.5845 38.0262 67.6114 38.0531C67.6382 38.0799 67.6651 38.0799 67.6651 38.1068V38.8854C67.6382 38.9391 67.3429 38.9659 66.7522 38.9659H65.3561C65.3225 38.8992 65.3042 38.8258 65.3024 38.7512V36.4421C65.3406 36.3675 65.3591 36.2843 65.3561 36.2005Z" fill="#FFEB47"/>
<path d="M68.0678 37.8921V36.1469C68.0559 36.0539 68.0748 35.9596 68.1215 35.8784H68.1752C68.39 35.8784 68.6585 35.8516 68.9538 35.8516H69.3028V37.8921C69.2988 37.9299 69.3083 37.968 69.3297 37.9995C69.3301 38.0202 69.3351 38.0407 69.3444 38.0592C69.3537 38.0778 69.367 38.0941 69.3834 38.1069C69.4102 38.1337 69.4371 38.1337 69.4908 38.1337C69.5185 38.1342 69.5457 38.1269 69.5695 38.1127C69.5932 38.0985 69.6124 38.0778 69.625 38.0532C69.6548 38.0042 69.6732 37.9491 69.6787 37.8921V35.8516C69.6799 35.8377 69.686 35.8247 69.6958 35.8149C69.7056 35.8051 69.7186 35.7991 69.7324 35.7979H70.8869V35.8247H70.9675C70.9675 36.12 70.9406 36.4422 70.9406 36.8181V37.8115C70.9448 37.9676 70.9174 38.1228 70.8601 38.268C70.8104 38.3885 70.7374 38.4979 70.6452 38.5901C70.5531 38.6823 70.4436 38.7553 70.3231 38.805C70.2005 38.8496 70.0749 38.8855 69.9472 38.9123C69.8053 38.9355 69.6614 38.9445 69.5176 38.9392C69.3828 38.9446 69.2478 38.9356 69.1149 38.9123C68.9855 38.8927 68.8592 38.8566 68.739 38.805C68.6146 38.7586 68.4971 38.6954 68.39 38.617C68.2887 38.5268 68.2065 38.4173 68.1483 38.2948C68.0848 38.1706 68.0569 38.0312 68.0678 37.8921Z" fill="#FFEB47"/>
<path d="M71.4777 38.617V35.9052L73.2228 35.8515C73.3221 35.8458 73.4216 35.8549 73.5182 35.8783C73.6196 35.8926 73.7189 35.9196 73.8135 35.9589C73.9047 35.9809 73.9883 36.0273 74.0552 36.0931C74.1378 36.1501 74.1955 36.2366 74.2163 36.3348C74.2622 36.445 74.2807 36.5648 74.2699 36.6838C74.2795 36.8262 74.2418 36.9678 74.1626 37.0865C74.0738 37.1964 73.9644 37.2876 73.8404 37.355C73.9917 37.4029 74.1297 37.4857 74.2431 37.5967C74.335 37.7308 74.3821 37.8906 74.3773 38.0531C74.3793 38.1829 74.3518 38.3114 74.2968 38.429C74.2499 38.5286 74.1864 38.6194 74.1089 38.6975C74.0266 38.7766 73.9246 38.8322 73.8135 38.8586C73.7139 38.9104 73.6036 38.938 73.4913 38.9391C73.3839 38.9391 73.2765 38.966 73.1691 38.966H72.5785C72.2026 38.966 71.8536 38.966 71.5582 38.9928C71.5314 38.8854 71.5045 38.778 71.4777 38.617ZM72.659 36.5764V37.1134C72.6602 37.1272 72.6663 37.1402 72.6761 37.15C72.6859 37.1598 72.6989 37.1659 72.7127 37.1671H72.8201C72.8738 37.1671 72.9007 37.1671 72.9275 37.1403C72.9543 37.1134 72.9812 37.1134 73.0349 37.1134C73.0886 37.1134 73.1154 37.0866 73.1154 37.0597C73.1318 37.0469 73.1451 37.0306 73.1544 37.0121C73.1637 36.9935 73.1688 36.9731 73.1691 36.9523C73.1909 36.9111 73.2002 36.8645 73.196 36.8181C73.196 36.6033 73.0618 36.5227 72.7664 36.5227C72.7127 36.5227 72.6859 36.5496 72.659 36.5496V36.5764ZM72.6859 38.1068C72.6859 38.2142 72.6859 38.2679 72.7127 38.2679H72.9007C72.9469 38.2697 72.9929 38.2605 73.0349 38.2411C73.0886 38.2142 73.1154 38.2142 73.1423 38.1874C73.1755 38.1568 73.2028 38.1204 73.2228 38.08C73.2447 38.0292 73.2539 37.9739 73.2497 37.9189V37.8383C73.2497 37.8115 73.2228 37.7846 73.2228 37.7578L73.1691 37.7041C73.1423 37.6772 73.1423 37.6772 73.1154 37.6772C73.0951 37.6744 73.0762 37.665 73.0617 37.6504C73.0472 37.6521 73.0324 37.6506 73.0185 37.646C73.0045 37.6414 72.9918 37.6337 72.9812 37.6235H72.7396V37.7041C72.7383 37.7588 72.7293 37.813 72.7127 37.8652C72.7127 37.9457 72.6859 38.0263 72.6859 38.08V38.1068Z" fill="#FFEB47"/>
</g>
<defs>
<clipPath id="clip0_701:5977">
<rect width="114.729" height="42" fill="white"/>
</clipPath>
</defs>
</svg>
