<svg xmlns="http://www.w3.org/2000/svg">
   <symbol id="instagram" viewBox="0 0 20 20">
      <g>
         <path d="M10.0001 7.39706C8.5665 7.39706 7.39658 8.56699 7.39658 10.0006C7.39658 11.4342 8.5665 12.6041 10.0001 12.6041C11.4337 12.6041 12.6036 11.4342 12.6036 10.0006C12.6036 8.56699 11.4337 7.39706 10.0001 7.39706ZM17.8087 10.0006C17.8087 8.92246 17.8185 7.8541 17.7579 6.77792C17.6974 5.52792 17.4122 4.41855 16.4981 3.50449C15.5821 2.58847 14.4747 2.30527 13.2247 2.24472C12.1466 2.18417 11.0782 2.19394 10.002 2.19394C8.92392 2.19394 7.85556 2.18417 6.77939 2.24472C5.52939 2.30527 4.42001 2.59042 3.50595 3.50449C2.58994 4.4205 2.30673 5.52792 2.24619 6.77792C2.18564 7.85605 2.19541 8.92441 2.19541 10.0006C2.19541 11.0768 2.18564 12.1471 2.24619 13.2232C2.30673 14.4732 2.59189 15.5826 3.50595 16.4967C4.42197 17.4127 5.52939 17.6959 6.77939 17.7564C7.85752 17.817 8.92587 17.8072 10.002 17.8072C11.0802 17.8072 12.1485 17.817 13.2247 17.7564C14.4747 17.6959 15.5841 17.4107 16.4981 16.4967C17.4142 15.5807 17.6974 14.4732 17.7579 13.2232C17.8204 12.1471 17.8087 11.0787 17.8087 10.0006V10.0006ZM10.0001 14.0064C7.7833 14.0064 5.99423 12.2174 5.99423 10.0006C5.99423 7.78378 7.7833 5.99472 10.0001 5.99472C12.2169 5.99472 14.006 7.78378 14.006 10.0006C14.006 12.2174 12.2169 14.0064 10.0001 14.0064ZM14.17 6.76621C13.6524 6.76621 13.2345 6.34824 13.2345 5.83066C13.2345 5.31308 13.6524 4.89511 14.17 4.89511C14.6876 4.89511 15.1056 5.31308 15.1056 5.83066C15.1057 5.95356 15.0816 6.07528 15.0347 6.18886C14.9877 6.30243 14.9188 6.40563 14.8319 6.49253C14.745 6.57944 14.6418 6.64834 14.5282 6.69531C14.4146 6.74227 14.2929 6.76636 14.17 6.76621V6.76621Z" fill="white"/>
      </g>
   </symbol>

   <symbol id="facebook" viewBox="0 0 17 17">
      <g>
         <path fill-rule="evenodd" clip-rule="evenodd" d="M0 8.54746C0 12.7734 3.06921 16.2874 7.08333 17V10.8609H4.95833V8.5H7.08333V6.61088C7.08333 4.48588 8.45254 3.30579 10.3891 3.30579C11.0025 3.30579 11.6641 3.4 12.2775 3.49421V5.66667H11.1917C10.1525 5.66667 9.91667 6.18587 9.91667 6.84746V8.5H12.1833L11.8058 10.8609H9.91667V17C13.9308 16.2874 17 12.7741 17 8.54746C17 3.84625 13.175 0 8.5 0C3.825 0 0 3.84625 0 8.54746Z" fill="white"/>
      </g>
   </symbol>

   <symbol id="twitter" viewBox="0 0 18 14">
      <g>
         <path d="M17.7324 1.70269C17.1061 1.98019 16.4334 2.16769 15.7261 2.25244C16.4559 1.81578 17.0018 1.12854 17.2621 0.318936C16.5765 0.726178 15.8261 1.01283 15.0436 1.16644C14.5174 0.604585 13.8204 0.23218 13.0609 0.107041C12.3013 -0.018098 11.5217 0.111029 10.8431 0.474375C10.1644 0.837721 9.62471 1.41496 9.30775 2.11646C8.99078 2.81797 8.91428 3.6045 9.09013 4.35394C7.7009 4.28418 6.34185 3.9231 5.1012 3.29411C3.86055 2.66513 2.76601 1.78231 1.88863 0.702936C1.58863 1.22044 1.41613 1.82044 1.41613 2.45944C1.4158 3.03468 1.55746 3.60112 1.82854 4.10848C2.09962 4.61585 2.49175 5.04846 2.97013 5.36794C2.41534 5.35028 1.87279 5.20037 1.38763 4.93069V4.97569C1.38757 5.78249 1.66666 6.56447 2.17752 7.18893C2.68838 7.8134 3.39956 8.24188 4.19038 8.40169C3.67572 8.54097 3.13613 8.56149 2.61238 8.46169C2.8355 9.1559 3.27013 9.76296 3.85541 10.1979C4.44069 10.6328 5.14732 10.8738 5.87638 10.8872C4.63876 11.8587 3.1103 12.3858 1.53688 12.3834C1.25817 12.3835 0.979688 12.3672 0.702881 12.3347C2.29999 13.3616 4.15914 13.9066 6.05788 13.9044C12.4854 13.9044 15.9991 8.58094 15.9991 3.96394C15.9991 3.81394 15.9954 3.66244 15.9886 3.51244C16.6721 3.01817 17.2621 2.40611 17.7309 1.70494L17.7324 1.70269Z" fill="white"/>
      </g>
   </symbol>

   <symbol id="vk" viewBox="0 0 17 17">
      <g>
         <path d="M11.1085 0H5.89006C1.12793 0 -0.000976562 1.12891 -0.000976562 5.89103V11.1095C-0.000976562 15.8716 1.12793 17.0005 5.89006 17.0005H11.1085C15.8706 17.0005 16.9996 15.8716 16.9996 11.1095V5.89103C16.9996 1.12891 15.8595 0 11.1085 0ZM13.7233 12.1274H12.4892C12.0217 12.1274 11.8778 11.7566 11.0368 10.9044C10.3063 10.1963 9.9828 10.1023 9.80271 10.1023C9.54824 10.1023 9.47599 10.174 9.47599 10.523V11.6381C9.47599 11.9372 9.38196 12.1168 8.5904 12.1168C7.2814 12.1168 5.82896 11.3252 4.81055 9.85044C3.27471 7.68931 2.85449 6.07059 2.85449 5.73591C2.85449 5.55581 2.92621 5.38741 3.27205 5.38741H4.5088C4.82171 5.38741 4.94071 5.53137 5.06237 5.86606C5.67384 7.63141 6.69224 9.17787 7.11246 9.17787C7.26759 9.17787 7.3393 9.10616 7.3393 8.71037V6.88713C7.29202 6.04616 6.84949 5.97391 6.84949 5.67534C6.84949 5.53137 6.96849 5.38741 7.15921 5.38741H9.10412C9.36709 5.38741 9.46377 5.53137 9.46377 5.84109V8.30078C9.46377 8.56641 9.58277 8.66044 9.65449 8.66044C9.80962 8.66044 9.94243 8.56641 10.2298 8.27847C11.1181 7.28238 11.7545 5.74653 11.7545 5.74653C11.8374 5.56644 11.9814 5.39803 12.2943 5.39803H13.531C13.9018 5.39803 13.9847 5.58875 13.9018 5.85438C13.7467 6.57369 12.2332 8.70984 12.2332 8.70984C12.103 8.92553 12.0531 9.01956 12.2332 9.26022C12.366 9.44031 12.7979 9.81378 13.0853 10.1485C13.6139 10.7488 14.0203 11.2524 14.1287 11.6009C14.2503 11.9467 14.0708 12.1268 13.7217 12.1268L13.7233 12.1274Z" fill="white"/>
      </g>
   </symbol>

   <symbol id="download" width="16" height="16" fill="currentColor" viewBox="0 0 16 16" >
      <g>
         <path d="M.5 9.9a.5.5 0 0 1 .5.5v2.5a1 1 0 0 0 1 1h12a1 1 0 0 0 1-1v-2.5a.5.5 0 0 1 1 0v2.5a2 2 0 0 1-2 2H2a2 2 0 0 1-2-2v-2.5a.5.5 0 0 1 .5-.5z"/>
         <path d="M7.646 11.854a.5.5 0 0 0 .708 0l3-3a.5.5 0 0 0-.708-.708L8.5 10.293V1.5a.5.5 0 0 0-1 0v8.793L5.354 8.146a.5.5 0 1 0-.708.708l3 3z"/>
      </g>
   </symbol>


</svg>