<svg width="263" height="275" viewBox="0 0 263 275" fill="none" xmlns="http://www.w3.org/2000/svg">
<path d="M100.011 82.1798C100.488 82.1073 100.976 82.1141 101.532 82.0294C100.405 84.2322 100.103 85.9844 100.877 87.329C104.574 93.9968 132.383 85.6175 163.1 68.5895C193.738 51.5736 215.689 32.4684 211.993 25.8006C211.542 24.9755 210.639 24.3818 209.443 23.9953C210.917 22.4709 212.153 20.9827 213.23 19.5188C216.203 15.5723 217.252 12.3252 216.108 10.1434L222.703 21.9756C226.863 29.5479 202.221 51.2565 167.604 70.4221C132.988 89.5876 101.519 99.0118 97.2679 91.3722L90.6723 79.54C91.7497 81.8133 95.0279 82.5327 100.011 82.1798Z" fill="#B07320"/>
<path d="M160.862 58.6931C172.401 52.3045 182.767 45.6882 191.387 39.3381C198.833 33.8167 205.021 28.5682 209.363 24.007C210.56 24.3935 211.463 24.9872 211.913 25.8123C215.61 32.4801 193.75 51.6525 163.021 68.6011C132.383 85.617 104.482 93.9291 100.797 87.3407C100.115 86.0634 100.326 84.2439 101.453 82.0411C108.159 81.2634 117.494 78.5416 128.223 74.3075C138.183 70.3532 149.402 65.0695 160.862 58.6931Z" fill="#CB9E16"/>
<path d="M145.624 31.1967C111.007 50.3622 86.3654 72.0709 90.5248 79.6432C91.6575 81.7455 95.0272 82.5322 99.9313 82.1915C101.702 82.0843 103.608 81.794 105.66 81.4001C111.818 80.2186 119.564 77.7387 128.143 74.3196C138.103 70.3653 149.243 65.0937 160.782 58.7051C172.321 52.3166 182.687 45.7003 191.307 39.3502C200.66 32.4821 207.803 26.0321 212.116 20.7441C212.464 20.366 212.721 19.9206 213.07 19.5425C216.044 15.596 217.093 12.3489 215.948 10.1672C211.789 2.59488 180.32 12.019 145.624 31.1967Z" fill="#FFEB47"/>
<path d="M209.323 14.6701C205.382 7.47068 175.624 16.3906 142.951 34.4476C110.73 52.2733 87.6418 72.4454 90.8 79.8452C94.6692 85.5118 115.525 80.5479 141.245 68.587C146.47 66.085 151.817 63.3206 157.287 60.2938C189.972 42.3161 213.263 21.8696 209.323 14.6701ZM163.732 38.5946L163.616 38.3685L161.155 33.9498L162.433 33.2677L180.56 23.1946L177.14 31.6776L198.688 20.5959L195.986 26.8572L195.875 27.199L153.619 50.6155L157.4 41.8338L158.384 41.359L163.732 38.5946ZM148.895 53.2038L141.256 57.4547L138.783 52.9565L133.318 56.5513L132.133 57.3005L132.687 62.0096L132.724 62.2478L113.319 73.003L123.612 54.6987L124.504 54.1565L131.251 50.4477L131.758 54.8391L138.01 51.612L137.894 51.3858L135.976 47.8595L137.253 47.1774L155.38 37.1043L149.085 52.8499L148.895 53.2038Z" fill="#FFEB47"/>
<path d="M142.883 34.5379C175.556 16.4808 205.315 7.56093 209.255 14.7604C213.195 21.9598 189.905 42.4065 157.232 60.4635C151.762 63.4903 146.414 66.2547 141.19 68.7566C147.49 65.8471 154.127 62.4802 160.794 58.7834C195.411 39.6179 220.053 17.9092 215.893 10.3369C211.734 2.76465 180.253 12.1095 145.557 31.2871C110.941 50.4527 86.2985 72.1613 90.4579 79.7336C90.47 79.813 90.5615 79.8803 90.6651 80.027C87.5742 72.5357 110.663 52.3636 142.883 34.5379Z" fill="#CB9E16"/>
<path opacity="0.81" d="M90.7328 79.9373C94.602 85.6039 115.457 80.6399 141.178 68.679C147.478 65.7695 154.115 62.4025 160.783 58.7058C195.399 39.5403 220.041 17.8316 215.882 10.2593C211.722 2.68703 180.241 12.0318 145.545 31.2094C110.929 50.375 86.2868 72.0837 90.4462 79.656C90.6292 79.7906 90.7207 79.8579 90.7328 79.9373Z" fill="url(#paint0_linear_577:10777)"/>
<path d="M165.218 37.1503L162.952 32.9456L162.433 33.2684L161.156 33.9505L163.604 38.2898L165.413 37.3643L165.218 37.1503Z" fill="#B07320"/>
<path d="M196.065 26.846L196.053 26.7666L155.221 49.3975L158.757 41.1406L158.305 41.372L157.412 41.9141L153.619 50.6164L195.875 27.1999L196.065 26.846Z" fill="#B07320"/>
<path d="M139.496 50.1677L137.693 46.8675L137.173 47.1903L135.896 47.8724L137.802 51.3193L139.611 50.3938L139.496 50.1677Z" fill="#B07320"/>
<path d="M141.176 57.4676L148.895 53.2046L149.006 52.8628L149.073 52.7713L142.857 56.2366L140.373 51.6591L134.829 55.2658L133.722 56.0031L133.746 56.1619L138.692 52.89L141.176 57.4676Z" fill="#B07320"/>
<path d="M132.644 62.2604L132.608 62.0222L132.596 61.9428L114.921 71.7846L124.956 53.9256L124.504 54.157L123.612 54.6992L113.24 73.0156L132.644 62.2604Z" fill="#B07320"/>
<path d="M163.732 38.5945L158.757 41.1397L155.221 49.3966L196.053 26.7656L198.7 20.6752L177.14 31.6775L180.56 23.1945L162.952 32.9448L165.218 37.1495L165.413 37.3636L163.604 38.289L163.616 38.3685L163.732 38.5945Z" fill="#CB9E16"/>
<path d="M132.596 61.942L132.041 57.233L133.227 56.4837L133.746 56.1608L133.722 56.002L134.829 55.2647L140.373 51.658L142.857 56.2355L149.073 52.7702L155.301 37.1161L137.693 46.8664L139.496 50.1667L139.611 50.3927L137.802 51.3183L137.894 51.3855L138.01 51.6117L131.758 54.8388L131.251 50.4474L124.956 53.9248L114.921 71.7838L132.596 61.942Z" fill="#CB9E16"/>
<g opacity="0.66">
<path opacity="0.66" d="M196.053 26.7647L198.701 20.6743L177.14 31.6766L180.56 23.1935L162.953 32.9438L165.218 37.1485L165.413 37.3626L163.604 38.288L163.616 38.3675L163.732 38.5936L158.757 41.1387L155.221 49.3956L196.053 26.7647Z" fill="url(#paint1_linear_577:10777)"/>
<path opacity="0.66" d="M132.596 61.9415L132.041 57.2325L133.227 56.4832L133.747 56.1603L133.722 56.0015L134.829 55.2642L140.373 51.6575L142.858 56.235L149.073 52.7697L155.301 37.1156L137.693 46.8659L139.496 50.1662L139.612 50.3922L137.803 51.3178L137.894 51.3851L138.01 51.6112L131.758 54.8383L131.252 50.4469L124.957 53.9243L114.921 71.7833L132.596 61.9415Z" fill="url(#paint2_linear_577:10777)"/>
</g>
<path d="M162.724 38.9106L157.376 41.6749L156.698 42.022L156.575 42.2845C155.987 43.7553 155.478 45.214 154.957 46.5933L153.473 50.7191L174.393 39.2456C181.513 35.3176 188.712 31.3774 195.9 27.3578L196.499 27.0228L196.621 26.7604C197.099 25.6314 197.43 24.606 197.841 23.5685L198.982 20.3887L199.037 20.2178L198.585 20.4492C194.967 22.3001 191.428 24.139 187.81 25.99L182.463 28.7544C180.801 29.5763 179.151 30.4776 177.568 31.2874L179.449 27.1011C180.117 25.6182 180.717 24.2268 181.385 22.7439L181.563 22.3106L180.444 22.9684L161.028 33.6442L159.977 34.2105L160.092 34.4366C160.531 35.1823 160.902 36.0195 161.42 36.7531C161.859 37.4987 162.297 38.2444 162.724 38.9106ZM178.172 27.7831L176.767 31.8969L176.712 32.0678L177.164 31.8364C178.973 30.9109 180.782 29.9854 182.591 29.0599L188.018 26.2834C191.489 24.5361 194.881 22.8008 198.352 21.0534L196.814 24.2937C196.324 25.3433 195.754 26.4049 195.344 27.4424C188.597 31.1512 181.941 34.9274 175.194 38.6362L153.87 50.6586L156.167 46.0028C156.847 44.5993 157.606 43.1837 158.206 41.7923L163.939 38.888L164.923 38.4131L164.807 38.1871C164.436 37.3499 164.077 36.5921 163.626 35.7671C163.267 35.0093 162.84 34.3431 162.493 33.6647L179.716 24.0543C179.091 25.2869 178.637 26.5747 178.172 27.7831Z" fill="#B07320"/>
<path d="M113.331 73.0825L122.994 67.711L132.748 62.4068L133.2 62.1754L133.176 62.0166C133.081 60.3249 132.985 58.6333 132.902 57.021L138.006 53.725L140.216 58.1006L140.332 58.3267L141.383 57.7604L149.023 53.5094L149.848 53.0588L149.971 52.7964L151.558 48.8173C152.091 47.5174 152.612 46.1381 153.066 44.8503C154.053 42.2626 154.802 39.7111 155.698 37.0561L155.753 36.8852L155.301 37.1166C152.306 38.7914 149.311 40.4662 146.237 42.1531C143.242 43.8279 140.168 45.5148 137.173 47.1897L135.896 47.8718L135.817 47.8839C136.152 48.4828 136.499 49.1612 136.754 49.7722C137.089 50.3712 137.265 50.9943 137.612 51.6726L132.265 54.4369L132.177 52.2568C132.147 51.5301 132.106 50.7239 132.076 49.9972L132.04 49.759L131.148 50.3012C128.605 51.7446 126.051 53.1086 123.508 54.5521L122.909 54.8871L122.787 55.1495C121.054 58.1758 119.48 61.1778 117.906 64.1799C117.079 65.687 116.332 67.182 115.506 68.689C114.679 70.1961 113.852 71.7032 112.946 73.2224L112.812 73.4054L113.331 73.0825ZM116.172 68.2626C117.078 66.7434 118.051 65.1327 118.957 63.6136C120.769 60.5752 122.582 57.5368 124.326 54.59C126.349 53.4694 128.452 52.3367 130.462 51.1368C130.559 51.772 130.656 52.4071 130.832 53.0303L131.318 55.15L131.342 55.3088L131.794 55.0775L138.034 51.7709L138.407 51.5517L138.315 51.4843C137.901 50.8975 137.486 50.3107 137.072 49.7238C136.658 49.137 136.323 48.538 135.988 47.9391L137.106 47.2812C140.101 45.6064 143.175 43.9195 146.17 42.2447C149.018 40.6734 151.945 39.0901 154.793 37.5188C153.58 40.2222 152.287 42.9378 151.154 45.6291C150.553 47.0205 150.02 48.3203 149.419 49.7117L147.875 53.4406L141.953 56.6987L139.437 52.4508L139.309 52.1453L138.203 52.8826L131.553 57.2266L131.112 57.5374L131.137 57.6962C131.378 59.2843 131.7 60.8603 132.021 62.4362L122.811 67.5764L113.521 72.7286C114.427 71.2094 115.345 69.7696 116.172 68.2626Z" fill="#B07320"/>
<path d="M213.242 19.5984C211.492 21.9773 209.467 24.1543 207.351 26.264C205.235 28.3737 203.095 30.3247 200.875 32.2877C196.424 36.1343 191.777 39.7667 186.948 43.2647C177.368 50.2485 167.35 56.4866 156.894 61.9791C146.449 67.551 135.646 72.3651 124.471 76.3421C118.923 78.3245 113.26 80.0808 107.444 81.3728C104.531 81.9791 101.605 82.506 98.6063 82.5565C97.1528 82.6154 95.5958 82.5276 94.0939 82.2689C92.6594 81.9187 91.0177 81.2749 90.2321 79.8509L90.9104 79.5039L96.3735 89.2338C96.812 89.9794 97.2748 90.8839 97.7927 91.6174C98.2986 92.2716 99.0185 92.7307 99.7936 93.0188C101.423 93.5831 103.298 93.6226 105.081 93.5947C112.404 93.1294 119.515 90.7462 126.547 88.3752C140.484 83.3276 153.953 76.8076 166.903 69.5541C179.946 62.3679 192.446 54.2892 204.153 45.2751C209.87 40.6671 215.721 35.8761 220.096 29.9287C221.082 28.3975 222.067 26.8662 222.448 25.102C222.645 24.2595 222.671 23.3619 222.391 22.5921C222.111 21.8222 221.569 20.9298 221.118 20.1048L215.881 10.2592L216.187 10.1315C216.638 10.9565 216.691 11.8421 216.666 12.7397C216.56 13.6494 216.272 14.4245 215.984 15.1996C215.169 16.7861 214.251 18.2259 213.242 19.5984ZM213.059 19.4637C214.068 18.0913 214.986 16.6515 215.642 15.0892C215.93 14.3141 216.206 13.4596 216.324 12.6293C216.441 11.7989 216.308 10.9255 215.881 10.2592L216.187 10.1315L221.729 19.8492C222.18 20.6743 222.698 21.4079 223.081 22.3244C223.465 23.241 223.555 24.3647 223.291 25.2987C222.934 27.2217 221.972 28.9118 220.999 30.5224C218.881 33.6886 216.386 36.506 213.707 39.1889C211.028 41.8718 208.234 44.3286 205.348 46.7181C202.462 49.1075 199.485 51.4296 196.483 53.593C193.482 55.7563 190.389 57.8524 187.216 59.9605C180.938 64.0853 174.533 67.9045 168.024 71.577C161.423 75.1822 154.787 78.5492 147.943 81.6228C141.111 84.7758 134.218 87.5318 127.107 89.9149C123.551 91.1064 119.983 92.2185 116.287 93.0252C112.592 93.8318 108.884 94.5591 105.079 94.6511C103.217 94.691 101.251 94.5843 99.3587 93.8975C98.4127 93.5541 97.5098 92.9605 96.8883 92.0802C96.3461 91.1878 95.987 90.43 95.5363 89.605L90.22 79.7716L90.8983 79.4245C91.5683 80.6223 92.8803 81.235 94.3027 81.5059C95.7372 81.8561 97.1234 81.8886 98.5768 81.8298C101.484 81.712 104.41 81.1851 107.244 80.5909C112.98 79.311 118.54 77.408 124.063 75.2668C135.031 70.9964 145.603 65.73 155.98 60.2496C166.333 54.6104 176.491 48.7572 186.314 42.3051C191.18 39.0453 196.022 35.6268 200.576 31.9269C205.04 28.1598 209.467 24.1543 213.059 19.4637Z" fill="#752714"/>
<path d="M145.624 31.1968C134.629 37.4213 123.866 44.098 113.736 51.7344C108.704 55.5068 103.801 59.5848 99.3668 64.0787C97.1834 66.2799 95.0243 68.6399 93.219 71.1897C92.3561 72.4586 91.5052 73.8069 90.9962 75.2656C90.4751 76.6449 90.3079 78.214 90.8984 79.424C91.5683 80.6219 93.0391 81.2104 94.4615 81.4812C95.9634 81.7399 97.5083 81.7483 99.0412 81.6773C102.095 81.456 105.247 80.8134 108.228 80.1156C114.337 78.6165 120.269 76.4941 126.086 74.1457C137.812 69.5162 149.154 63.97 160.161 57.8249C171.18 51.7593 181.944 45.0826 192.098 37.605C197.13 33.8326 202.149 29.9808 206.607 25.6457C208.87 23.4324 211.041 21.1518 212.858 18.6813C213.721 17.4124 214.584 16.1436 215.173 14.6728C215.694 13.2935 216.032 11.7795 215.362 10.5816C214.692 9.38375 213.289 8.70382 211.787 8.4451C210.273 8.10697 208.728 8.09854 207.195 8.16952C204.05 8.32359 200.965 8.87466 197.905 9.58455C191.784 11.0043 185.748 12.9799 179.827 15.1816C168.157 19.6403 156.723 25.1191 145.624 31.1968ZM145.624 31.1968C156.632 25.0518 168.041 19.4142 179.846 14.7725C185.754 12.4914 191.675 10.2897 197.863 8.77842C200.924 8.06853 204.064 7.34654 207.288 7.18039C208.9 7.09731 210.525 7.09366 212.106 7.3403C213.687 7.58693 215.42 8.29789 216.401 9.93592C216.852 10.761 216.985 11.6344 216.959 12.532C216.933 13.4297 216.645 14.2048 216.357 14.9799C215.781 16.5301 214.942 17.9578 213.999 19.2387C212.127 21.8801 209.968 24.2401 207.796 26.5207C203.283 31.0267 198.379 35.1046 193.36 38.9565C183.23 46.5929 172.479 53.349 161.404 59.5855C150.305 65.6633 138.792 71.1542 126.976 75.7164C121.067 77.9975 114.951 79.9852 108.751 81.4171C105.611 82.1391 102.527 82.6901 99.302 82.8563C97.6898 82.9394 96.0533 82.8636 94.46 82.5376C93.6175 82.3409 92.8545 82.1321 92.0552 81.6852C91.2559 81.2382 90.5913 80.6082 90.1527 79.8626C89.3308 78.2003 89.6879 76.2773 90.2763 74.8065C90.8527 73.2563 91.7829 71.8959 92.7252 70.6149C94.5978 67.9736 96.769 65.693 99.1112 63.4676C103.716 59.0289 108.644 55.1098 113.767 51.4047C123.842 43.9392 134.605 37.2625 145.624 31.1968Z" fill="#752714"/>
<path d="M96.6469 81.9608L102.571 93.6516L95.7546 82.503L96.6469 81.9608Z" fill="#752714"/>
<path d="M99.2725 82.1299L105.129 93.9121L98.3007 82.6841L99.2725 82.1299Z" fill="#752714"/>
<path d="M124.664 89.8802L118.704 77.9512L125.636 89.3259L124.664 89.8802Z" fill="#752714"/>
<path d="M128.743 73.9849L133.248 83.292L127.771 74.5391L128.743 73.9849Z" fill="#752714"/>
<path d="M137.129 85.3005L131.168 73.3716L138.1 84.7462L137.129 85.3005Z" fill="#752714"/>
<path d="M171.539 52.5176L177.616 64.6727L170.568 53.0718L171.539 52.5176Z" fill="#752714"/>
<path d="M179.92 63.2653L176.523 55.9019L180.892 62.7111L179.92 63.2653Z" fill="#752714"/>
<path d="M168.557 54.2714L172.599 62.674L167.664 54.8135L168.557 54.2714Z" fill="#752714"/>
<path d="M210.446 23.1113L215.608 33.5369L209.474 23.6656L210.446 23.1113Z" fill="#752714"/>
<path d="M211.761 21.6108L217.929 33.8332L210.777 22.0857L211.761 21.6108Z" fill="#752714"/>
<path d="M218.945 31.9724L215.226 24.0894L219.929 31.4976L218.945 31.9724Z" fill="#752714"/>
<path d="M140.212 105.55C138.248 104.387 136.307 103.382 134.355 102.298C132.402 101.215 130.315 100.314 128.387 99.3889C126.312 98.5676 124.304 97.6546 122.15 96.8453L118.982 95.7841C117.945 95.3734 116.919 95.0421 115.814 94.7229C107.306 92.2004 98.4655 90.7033 89.5686 90.4335C80.6838 90.2431 71.8337 91.3474 63.4396 93.8446L60.3481 94.8842C59.2606 95.2123 58.2767 95.6872 57.2808 96.0826C56.2969 96.5574 55.3009 96.9529 54.2377 97.4398C53.2538 97.9146 52.2699 98.3895 51.2981 98.9437C47.4784 101.069 43.8899 103.647 40.6796 106.573L39.9581 107.171L39.1588 106.724L37.1027 105.493L38.8254 105.068L30.9523 118.454L30.5516 116.89L31.5339 117.472L30.9523 118.454C28.4361 122.737 26.5604 127.492 25.3441 132.308C24.1398 137.204 23.6865 142.228 23.8132 147.328C24.0546 157.447 26.8852 167.496 31.4332 176.553C35.9934 185.689 42.2037 193.924 49.4598 201.025C56.7281 208.205 64.9629 214.262 73.8467 219.247C78.2885 221.739 82.8529 223.968 87.5398 225.935C92.2146 227.823 97.0241 229.528 101.932 230.812C111.735 233.3 121.913 234.512 131.96 233.794C142.006 233.076 151.921 230.429 160.612 225.611C169.302 220.794 176.641 213.502 181.399 204.734L182.159 203.318L183.495 204.089L181.466 204.642L188.176 193.221L188.717 195.169L186.752 194.006L185.862 193.492L186.113 192.479C187.097 188.266 187.5 183.98 187.507 179.755C187.501 175.449 187.006 171.137 186.195 166.874C184.412 158.371 181.212 150.165 176.894 142.617C172.564 134.989 167.115 128.02 161.048 121.794C157.975 118.687 154.688 115.776 151.187 113.059C147.606 110.355 143.971 107.821 140.212 105.55ZM140.335 105.287C144.093 107.559 147.796 110.001 151.218 112.729C154.719 115.446 158.073 118.266 161.226 121.361C167.598 127.459 173.273 134.312 178 141.88C182.648 149.459 186.337 157.671 188.394 166.376C190.451 175.081 190.718 184.303 188.732 193.136L188.093 191.608L190.058 192.771L191.303 193.476L190.598 194.72L183.98 206.209L183.209 207.545L181.872 206.774L183.98 206.209C179.056 215.49 171.21 223.184 161.988 228.245C152.765 233.306 142.441 235.935 132.053 236.542C121.677 237.229 111.237 235.894 101.306 233.101C96.3063 231.75 91.4847 229.966 86.7736 227.84C82.0746 225.793 77.4861 223.405 73.0994 220.742C68.7128 218.079 64.3814 215.245 60.3192 212.045C56.257 208.845 52.4088 205.45 48.7747 201.86C41.4943 194.601 35.3392 186.195 30.6997 177.071C28.3738 172.469 26.433 167.728 25.0237 162.743C23.6144 157.757 22.6816 152.7 22.384 147.545C21.7094 137.249 23.9054 126.596 29.0119 117.45L29.4126 119.014L28.4303 118.432L29.0119 117.45L36.7814 103.917L37.4304 102.843L38.5041 103.492L40.5602 104.723L39.1189 104.861C42.4638 101.752 46.1989 99.0704 50.257 96.9086C51.2287 96.3544 52.292 95.8675 53.2759 95.3927C54.3392 94.9057 55.3351 94.5102 56.3984 94.0233C58.4455 93.0615 60.712 92.4726 62.7954 91.749C67.1694 90.5953 71.6471 89.5883 76.1541 89.3081C80.6249 88.7896 85.1925 88.9064 89.6806 89.0353C98.7053 89.6106 107.514 91.4374 116.072 94.2775C124.513 96.8916 132.659 100.769 140.335 105.287Z" fill="#752714"/>
<path d="M140.28 105.458C139.834 105.201 139.389 104.944 138.943 104.687C110.847 88.2486 77.7727 84.9992 54.1236 96.1571C48.8866 98.5797 44.0882 101.748 39.8871 105.638L37.8311 104.407L29.9701 117.873C12.7535 147.793 27.7638 192.467 71.7769 218.993C117.401 246.492 165.718 237.264 182.632 205.358L189.33 193.857L187.365 192.694C194.556 162.025 173.726 125.55 140.28 105.458Z" fill="#B07320"/>
<path d="M38.3846 138.446L30.0205 133.14C30.0205 133.14 21.844 137.066 28.3986 164.097C34.8738 191.141 72.4758 229.449 118.975 231.222C165.474 232.996 145.248 225.027 124.154 222.553C103.059 220.078 90.0947 163.231 90.0947 163.231L78.5903 118.105L38.3846 138.446Z" fill="#CB9E16"/>
<path d="M130.483 176.091L158.309 136.348L157.266 135.369L138.443 116.869L120.807 137.104L94.9333 112.853L85.611 131.659L84.9863 132.892L109.58 147.67L110.916 148.441L107.117 152.838L106.42 153.595L130.483 176.091Z" fill="#428A7A"/>
<path d="M117.782 191.918L98.8038 178.804L98.94 177.564L99.5106 171.709L123.122 185.905L127.473 179.799L126.521 178.888L81.9247 138.396L73.8638 154.816L73.2943 155.878L91.6281 166.897L92.8849 167.681L89.1776 172.145L71.3771 159.826L68.5658 165.373L68.1982 166.16L109.034 206.494L118.788 192.659L117.782 191.918Z" fill="#428A7A"/>
<path d="M39.0557 122.582C51.4796 87.8663 100.257 76.862 145.698 104.226C191.139 131.591 203.567 179.583 178.154 206.365C174.307 210.444 169.85 213.723 164.955 216.256C171.176 213.359 176.91 209.398 181.736 204.276C209.479 175.189 196.477 122.897 147.278 93.2615C98.0786 63.6258 45.7868 76.6278 33.0647 114.72C22.4529 146.397 43.6266 185.664 78.7992 206.955C79.2446 207.212 79.69 207.469 80.1354 207.726C47.7456 187.636 28.7473 151.451 39.0557 122.582Z" fill="#CB9E16"/>
<path d="M145.698 104.227C100.257 76.8621 51.4917 87.9458 39.0557 122.582C28.7473 151.451 47.7456 187.636 80.1474 207.806C108.244 224.244 141.306 227.414 164.967 216.336C169.85 213.723 174.307 210.445 178.166 206.444C203.555 179.504 191.139 131.591 145.698 104.227Z" fill="#FFEB47"/>
<path opacity="0.81" d="M80.1474 207.805C108.244 224.243 141.306 227.413 164.967 216.335C171.188 213.437 176.922 209.477 181.748 204.354C209.491 175.267 196.489 122.976 147.29 93.3401C98.0906 63.7044 45.7989 76.7064 33.0768 114.799C22.4649 146.476 43.6387 185.742 78.8113 207.034C79.2567 207.291 79.702 207.548 80.1474 207.805Z" fill="url(#paint3_linear_577:10777)"/>
<path d="M117.547 128.501L93.2158 113.845L92.9466 114.211L92.2062 115.218L117.703 130.59L118.895 129.352L117.547 128.501Z" fill="#B07320"/>
<path d="M158.015 124.287L157.832 124.152L142.234 158.295L116.132 135.216L115.772 135.515L115.154 136.259L142.871 160.879L158.967 125.198L158.015 124.287Z" fill="#B07320"/>
<path d="M97.8983 147.256L77.0631 134.749L76.7265 135.206L75.8394 136.316L97.9435 149.686L99.4175 148.162L97.8983 147.256Z" fill="#B07320"/>
<path d="M136.85 173.09L140.446 165.23L139.324 164.263L139.05 164.061L136.189 170.347L107.471 153.028L106.8 160.361L106.633 161.931L107.353 162.39L107.962 155.716L136.85 173.09Z" fill="#B07320"/>
<path d="M132.94 182.623L131.671 181.76L131.396 181.558L121.686 202.617L67.8485 146.796L67.512 147.253L66.8389 148.168L122.353 205.928L132.94 182.623Z" fill="#B07320"/>
<path d="M119.484 131.619L116.132 135.216L142.234 158.296L157.832 124.153L140.396 109.422L128.01 122.52L102.889 101.079L93.2156 113.846L117.547 128.501L118.895 129.352L117.702 130.59L118.056 130.78L119.484 131.619Z" fill="#CB9E16"/>
<path d="M131.397 181.557L107.136 164.697L107.303 163.128L107.353 162.389L106.633 161.93L106.8 160.361L107.471 153.028L136.189 170.347L139.05 164.061L88.4989 119.682L77.0631 134.748L97.8983 147.255L99.4175 148.161L97.9436 149.686L98.2975 149.876L99.8166 150.782L94.8683 156.166L72.5171 140.641L67.8486 146.795L121.686 202.617L131.397 181.557Z" fill="#CB9E16"/>
<g opacity="0.66">
<path opacity="0.66" d="M157.832 124.153L140.396 109.422L128.01 122.52L102.889 101.079L93.2158 113.846L117.547 128.501L118.895 129.352L117.702 130.59L118.056 130.78L119.484 131.619L116.132 135.216L142.234 158.296L157.832 124.153Z" fill="url(#paint4_linear_577:10777)"/>
<path opacity="0.66" d="M131.396 181.558L107.136 164.698L107.303 163.129L107.353 162.39L106.633 161.931L106.8 160.362L107.471 153.029L136.189 170.347L139.05 164.062L88.4987 119.683L77.063 134.749L97.8982 147.256L99.4174 148.162L97.9434 149.686L98.2973 149.876L99.8165 150.782L94.8682 156.167L72.517 140.641L67.8484 146.796L121.686 202.617L131.396 181.558Z" fill="url(#paint5_linear_577:10777)"/>
</g>
<path d="M117.689 131.566L114.147 135.518L113.664 136.079L114.42 136.776C119.116 140.936 123.959 144.992 128.71 148.98L142.896 161.038L152.12 142.652C154.894 136.868 157.614 131.254 159.87 125.791L160.047 125.358L159.395 124.808C156.235 122.202 153.076 119.595 149.917 116.989L140.543 109.318L140.073 108.902L139.871 109.176C138.005 111.329 136.048 113.415 134.024 115.592L130.874 118.915C129.895 119.958 128.916 121 127.846 121.976L115.844 111.455C111.722 107.858 107.611 104.34 103.568 100.731L102.446 99.7648L101.828 100.509L90.8701 114.446L90.2642 115.269L91.6004 116.041C96.158 118.759 100.728 121.557 105.285 124.275C109.397 126.736 113.589 129.185 117.689 131.566ZM114.793 112.021L127.717 122.727L128.187 123.143L128.468 122.856C129.502 121.642 130.627 120.496 131.673 119.362L134.731 115.971C136.689 113.886 138.658 111.879 140.56 109.965L149.183 117.507C152.001 120.003 154.898 122.487 157.795 124.97C155.387 129.968 153.12 135.35 150.73 140.995L142.756 160.653L128.858 147.82C124.687 143.906 120.54 140.15 116.473 136.383L120.411 132.37L121.121 131.693L119.784 130.922C115.294 128.112 110.816 125.382 106.259 122.664C102.146 120.203 98.1136 117.73 94.0015 115.269L103.278 102.563C107.157 105.628 110.981 108.864 114.793 112.021Z" fill="#B07320"/>
<path d="M122.798 206.184L128.355 194.126L133.648 183.002L133.893 182.477L133.252 182.006C124.962 176.119 116.66 170.152 108.382 164.345L109.046 157.5L136.269 174.072L137.696 174.91L138.186 173.861L141.783 166.001L142.15 165.214L141.211 164.382L127.812 152.692C123.403 148.814 119.018 145.095 114.621 141.296C105.93 133.845 97.1843 126.565 88.6887 119.328L88.1276 118.845L87.8584 119.211C86.1325 121.749 84.3273 124.299 82.3632 126.873C80.4906 129.514 78.4593 132.18 76.3606 134.937L75.4735 136.047L75.4061 136.138L75.577 136.193C79.5977 138.587 83.551 141.072 87.5717 143.466C91.342 145.817 95.1124 148.167 98.8827 150.518L94.4487 155.012L84.0421 147.497C80.3943 144.884 76.6671 142.283 73.0193 139.67L71.8298 138.795L71.1446 139.631C69.2358 142.034 67.2596 144.529 65.3749 147.09L64.9038 147.731L65.5806 148.44C74.3785 157.662 83.5856 166.903 92.8963 176.291C97.6095 181.098 102.402 185.892 107.207 190.766C112.024 195.72 116.932 200.741 121.773 205.853L122.346 206.416L122.798 206.184ZM108.227 190.53C103.49 185.564 98.9231 180.654 94.3566 175.743C85.6139 166.35 77.0662 157.172 68.4875 148.323C70.0477 146.298 71.5285 144.285 73.0093 142.272C76.3584 144.524 79.7076 146.776 83.0688 149.108L94.4645 156.715L95.105 157.186L95.4415 156.729L100.195 151.13L100.464 150.764L99.9271 150.44C95.9185 148.126 91.8185 145.744 87.7978 143.35C83.7893 141.036 79.848 138.63 75.9068 136.224L76.7145 135.126C78.8252 132.449 80.8566 129.783 82.9001 127.197C84.8089 124.794 86.6505 122.482 88.5714 120.159C96.67 127.456 104.793 134.912 113.087 142.423C117.416 146.314 121.734 150.124 126.155 154.082L138.639 165.099L135.9 171.122L108.464 154.745L106.762 153.705L106.662 155.183L105.927 164.231L105.865 164.891L106.585 165.35C115.022 171.133 123.526 176.825 132.042 182.596L127.348 193.386L122.128 204.986C117.415 200.18 112.781 195.361 108.227 190.53Z" fill="#B07320"/>
<path d="M147.235 93.512C138.553 88.2535 129.1 84.3312 119.272 81.6845C114.376 80.4803 109.425 79.4469 104.388 78.9142C101.897 78.5624 99.3753 78.5403 96.8291 78.3594C95.6017 78.3026 94.3071 78.3374 93.0919 78.36L91.2293 78.3999C90.582 78.4173 89.9467 78.514 89.3788 78.5193C88.0963 78.6334 86.881 78.656 85.5985 78.7701L81.8544 79.2591C80.5719 79.3733 79.405 79.7135 78.1345 79.907C76.8762 80.1799 75.6851 80.3612 74.4388 80.7135L70.8467 81.6669L67.2909 82.8585C66.1241 83.1987 64.9935 83.7771 63.8508 84.2762C62.7081 84.7752 61.5655 85.2743 60.4349 85.8527C55.9798 88.0749 51.8598 90.8961 48.142 94.2247C44.5036 97.5413 41.1881 101.377 38.5804 105.593C35.9727 109.809 33.9934 114.416 32.6976 119.245C31.4019 124.073 30.7777 129.043 30.8923 134.063C30.9275 139.094 31.6101 144.109 32.7569 148.972C33.9832 153.822 35.6859 158.6 37.8529 163.226C42.1748 172.398 48.2936 180.566 55.3358 187.862C58.8905 191.464 62.6472 194.791 66.6973 197.912C70.7353 200.953 74.9079 203.811 79.2825 206.394C83.6449 208.898 88.142 211.219 92.7495 213.199C97.357 215.178 102.166 216.883 106.927 218.27C111.768 219.645 116.707 220.599 121.677 221.223C126.646 221.848 131.647 222.142 136.643 221.869C146.646 221.401 156.542 219.163 165.44 214.639C169.895 212.417 174.015 209.595 177.654 206.279C181.292 202.962 184.528 199.138 187.056 194.935C189.585 190.731 191.564 186.124 192.78 181.307C193.997 176.491 194.541 171.533 194.439 166.593C194.336 161.653 193.654 156.638 192.428 151.788C191.201 146.937 189.499 142.159 187.423 137.601C178.974 119.47 164.586 103.95 147.235 93.512ZM147.357 93.2497C156.118 98.4962 164.072 104.841 171.205 112.204C178.327 119.487 184.47 127.814 189.042 137.029C193.682 146.153 196.683 156.258 197.052 166.682C197.409 177.028 194.963 187.637 189.503 196.593C184.134 205.617 175.964 212.792 166.578 217.309C157.204 221.906 146.911 224.205 136.565 224.562C126.233 224.998 115.982 223.309 106.118 220.425C101.174 218.903 96.432 217.106 91.7209 214.98C87.0892 212.842 82.568 210.362 78.1813 207.699C73.862 204.945 69.6894 202.087 65.6272 198.887C61.6444 195.675 57.8756 192.268 54.3088 188.587C50.8214 184.893 47.5359 180.925 44.5559 176.829C41.6432 172.642 38.9446 168.259 36.7102 163.725C34.4638 159.111 32.6817 154.345 31.3519 149.348C30.0341 144.43 29.1686 139.281 29.0419 134.182C28.6969 123.916 30.9965 113.41 36.2982 104.478C41.5999 95.5462 49.6775 88.3036 58.9846 83.7987C68.2795 79.2143 78.6883 77.1415 88.8987 76.9675C89.546 76.9502 90.1934 76.9328 90.8407 76.9154L92.7948 76.9428C94.1015 76.9875 95.3167 76.9649 96.6356 77.089C99.1938 77.3493 101.728 77.4508 104.231 77.882C109.292 78.5736 114.267 79.7656 119.187 81.1287C121.58 81.9017 124.04 82.5832 126.457 83.515C127.665 83.9809 128.861 84.3674 129.99 84.8454L133.469 86.3467C134.073 86.5797 134.677 86.8127 135.214 87.1371L136.959 87.9275L140.383 89.5997C142.915 90.7576 145.13 91.964 147.357 93.2497Z" fill="#752714"/>
<path d="M54.5728 187.653L47.3324 194.524L53.1762 186.484L54.5728 187.653Z" fill="#752714"/>
<path d="M30.463 176.051L36.3846 169.056L31.195 176.589L30.463 176.051Z" fill="#752714"/>
<path d="M22.9019 148.279L28.8357 141.363L23.646 148.897L22.9019 148.279Z" fill="#752714"/>
<path d="M36.5251 160.909L30.4137 168.258L35.7811 160.291L36.5251 160.909Z" fill="#752714"/>
<path d="M106.716 233.414L112.615 225.204L107.527 233.941L106.716 233.414Z" fill="#752714"/>
<path d="M103.707 232.329L107.096 227.913L104.518 232.855L103.707 232.329Z" fill="#752714"/>
<path d="M139.95 223.315L132.553 232.891L139.218 222.777L139.95 223.315Z" fill="#752714"/>
<path d="M146.207 232.924L154.238 220.57" stroke="#752714" stroke-width="1.1607" stroke-miterlimit="10"/>
<path d="M159.504 218.874L150.716 231.587" stroke="#752714" stroke-width="1.1607" stroke-miterlimit="10"/>
<path d="M180.896 173.693L179.01 165.043L179.784 173.863C180.384 181.002 180.497 187.078 180.118 191.523C179.758 195.559 178.465 198.275 176.644 199.121L165.615 204.051L177.398 205.668C179.388 205.934 181.455 208.3 183.012 212.125C184.941 216.787 186.8 223.654 188.43 231.693L191.419 246.512L189.859 231.475C189.149 224.677 188.889 218.705 189.061 213.966C189.247 208.251 191.061 204.156 193.596 203.201L201.802 200.001L191.816 197.379C189.356 196.697 186.851 193.585 185.081 188.899C183.566 184.823 182.133 179.679 180.896 173.693Z" fill="white"/>
<defs>
<linearGradient id="paint0_linear_577:10777" x1="258.354" y1="57.482" x2="-8.30088" y2="24.2224" gradientUnits="userSpaceOnUse">
<stop stop-color="#D2A91D" stop-opacity="0.0235507"/>
<stop offset="0.1692" stop-color="#FFEB47"/>
<stop offset="0.2915" stop-color="white"/>
<stop offset="0.4111" stop-color="#FFEB47"/>
<stop offset="0.6027" stop-color="#D2A91D" stop-opacity="0.0235507"/>
<stop offset="0.7538" stop-color="#FFEB47"/>
<stop offset="0.8477" stop-color="white"/>
<stop offset="0.93" stop-color="#FFEB47"/>
<stop offset="1" stop-color="#D2A91D" stop-opacity="0.0235507"/>
</linearGradient>
<linearGradient id="paint1_linear_577:10777" x1="210.861" y1="30.865" x2="91.7826" y2="43.3535" gradientUnits="userSpaceOnUse">
<stop stop-color="#D2A91D" stop-opacity="0.0235507"/>
<stop offset="0.1692" stop-color="#FFEB47"/>
<stop offset="0.2915" stop-color="white"/>
<stop offset="0.4111" stop-color="#FFEB47"/>
<stop offset="0.6027" stop-color="#D2A91D" stop-opacity="0.0235507"/>
<stop offset="0.7538" stop-color="#FFEB47"/>
<stop offset="0.8477" stop-color="white"/>
<stop offset="0.93" stop-color="#FFEB47"/>
<stop offset="1" stop-color="#D2A91D" stop-opacity="0.0235507"/>
</linearGradient>
<linearGradient id="paint2_linear_577:10777" x1="225.189" y1="44.3973" x2="84.8348" y2="59.1171" gradientUnits="userSpaceOnUse">
<stop stop-color="#D2A91D" stop-opacity="0.0235507"/>
<stop offset="0.1692" stop-color="#FFEB47"/>
<stop offset="0.2915" stop-color="white"/>
<stop offset="0.4111" stop-color="#FFEB47"/>
<stop offset="0.6027" stop-color="#D2A91D" stop-opacity="0.0235507"/>
<stop offset="0.7538" stop-color="#FFEB47"/>
<stop offset="0.8477" stop-color="white"/>
<stop offset="0.93" stop-color="#FFEB47"/>
<stop offset="1" stop-color="#D2A91D" stop-opacity="0.0235507"/>
</linearGradient>
<linearGradient id="paint3_linear_577:10777" x1="237.673" y1="97.5039" x2="-77.5141" y2="230.347" gradientUnits="userSpaceOnUse">
<stop stop-color="#D2A91D" stop-opacity="0.0235507"/>
<stop offset="0.1692" stop-color="#FFEB47"/>
<stop offset="0.2915" stop-color="white"/>
<stop offset="0.4111" stop-color="#FFEB47"/>
<stop offset="0.6027" stop-color="#D2A91D" stop-opacity="0.0235507"/>
<stop offset="0.7538" stop-color="#FFEB47"/>
<stop offset="0.8477" stop-color="white"/>
<stop offset="0.93" stop-color="#FFEB47"/>
<stop offset="1" stop-color="#D2A91D" stop-opacity="0.0235507"/>
</linearGradient>
<linearGradient id="paint4_linear_577:10777" x1="157.336" y1="104.465" x2="60.3917" y2="174.771" gradientUnits="userSpaceOnUse">
<stop stop-color="#D2A91D" stop-opacity="0.0235507"/>
<stop offset="0.1692" stop-color="#FFEB47"/>
<stop offset="0.2915" stop-color="white"/>
<stop offset="0.4111" stop-color="#FFEB47"/>
<stop offset="0.6027" stop-color="#D2A91D" stop-opacity="0.0235507"/>
<stop offset="0.7538" stop-color="#FFEB47"/>
<stop offset="0.8477" stop-color="white"/>
<stop offset="0.93" stop-color="#FFEB47"/>
<stop offset="1" stop-color="#D2A91D" stop-opacity="0.0235507"/>
</linearGradient>
<linearGradient id="paint5_linear_577:10777" x1="186.465" y1="102.111" x2="62.5394" y2="191.985" gradientUnits="userSpaceOnUse">
<stop stop-color="#D2A91D" stop-opacity="0.0235507"/>
<stop offset="0.1692" stop-color="#FFEB47"/>
<stop offset="0.2915" stop-color="white"/>
<stop offset="0.4111" stop-color="#FFEB47"/>
<stop offset="0.6027" stop-color="#D2A91D" stop-opacity="0.0235507"/>
<stop offset="0.7538" stop-color="#FFEB47"/>
<stop offset="0.8477" stop-color="white"/>
<stop offset="0.93" stop-color="#FFEB47"/>
<stop offset="1" stop-color="#D2A91D" stop-opacity="0.0235507"/>
</linearGradient>
</defs>
</svg>
