<svg width="330" height="576" viewBox="0 0 330 576" fill="none" xmlns="http://www.w3.org/2000/svg">
<path d="M136.694 72.8821C135.33 104.558 171.136 117.26 187.226 114.082C203.335 111.002 194.449 109.696 194.449 109.696L191.063 107.881L213.968 62.358C208.494 53.099 199.286 45.6489 188.828 41.8875C186.974 41.2132 184.943 40.6737 183.027 40.2142L174.947 48.2165C174.929 48.1182 138.058 41.2062 136.694 72.8821Z" fill="#CB9E16"/>
<path d="M211.797 102.319C212.956 100.884 213.998 99.3696 214.941 97.8731L215.021 97.7566L218.235 92.5862L217.652 92.1854C218.877 88.9082 219.439 85.3467 219.571 81.6612C219.73 74.8184 217.67 68.0805 214.129 62.1251L191.223 107.648L194.609 109.463C194.609 109.463 203.495 110.769 187.387 113.849C171.278 116.929 135.49 104.325 136.854 72.6492C138.218 40.9733 175.089 47.8852 175.089 47.8852L183.169 39.883C169.466 36.7215 154.421 39.5031 144.214 48.102L143.067 47.3988L138.535 54.2368C138.054 54.9359 137.591 55.7333 137.11 56.4324L137.048 56.6472C125.87 75.3919 134.599 102.253 163.162 112.633C163.591 112.757 163.923 112.899 164.353 113.023C183.943 119.977 201.994 114.199 211.797 102.319Z" fill="#B07320"/>
<path d="M211.797 102.319C212.956 100.884 213.998 99.3694 214.825 97.7927L218.02 92.524L218.056 92.7206L217.474 92.3199L217.357 92.2398L217.438 92.1232C218.972 87.7717 219.531 83.0922 219.088 78.4961C218.645 73.9001 217.317 69.4676 215.238 65.3773C211.082 57.1966 204.237 50.4282 196.281 45.8992C192.312 43.6838 188.023 41.9345 183.548 40.8297C179.072 39.7249 174.527 39.3449 169.877 39.4928C165.343 39.7209 160.703 40.4771 156.423 42.0819C152.125 43.5883 148.071 45.8632 144.655 48.8339L144.217 49.2198L143.77 48.9976L142.623 48.2943L143.606 48.1125L137.587 57.3609L137.387 56.2793L137.97 56.68L137.569 57.2626C135.015 61.5992 133.393 66.5771 133.103 71.6136C132.716 76.6683 133.465 81.818 135.259 86.571C136.106 88.9566 137.249 91.2877 138.651 93.3676C139.972 95.564 141.552 97.5091 143.329 99.4179C146.765 103.155 150.898 106.256 155.333 108.792C157.591 110.002 159.83 111.113 162.248 112.09C163.457 112.578 164.647 112.968 165.838 113.358L167.673 113.934C168.318 114.12 168.944 114.207 169.589 114.393C174.592 115.604 179.764 116.072 184.87 115.636C189.994 115.299 195.034 113.96 199.696 111.674C200.268 111.467 200.822 111.161 201.357 110.757L203.018 109.84L204.643 108.726L205.455 108.169L206.267 107.612L207.775 106.418L209.167 105.144L209.863 104.507L210.54 103.771L211.797 102.319ZM211.797 102.319C208.464 106.291 204.413 109.684 199.751 111.969C195.089 114.255 189.986 115.809 184.88 116.244C179.676 116.698 174.425 116.347 169.323 115.154C168.678 114.968 168.052 114.881 167.407 114.695L165.572 114.119C164.283 113.747 163.092 113.357 161.883 112.869C159.484 111.99 157.048 110.915 154.772 109.607C150.239 107.09 145.909 104.026 142.338 100.11C140.561 98.2008 138.963 96.1573 137.525 93.8807C136.106 91.7025 134.945 89.2731 133.98 86.8074C132.15 81.8576 131.267 76.5294 131.618 71.2781C131.969 66.0267 133.555 60.8522 136.269 56.2826L136.549 57.2477L135.868 56.8651L136.269 56.2826L142.288 47.0342L142.689 46.4516L143.271 46.8524L144.418 47.5556L143.613 47.6027C147.227 44.5956 151.478 42.2844 155.954 40.6432C160.43 39.0021 165.07 38.2459 169.819 38.0798C179.2 37.6674 188.777 39.9645 196.886 44.7704C204.977 49.4779 211.858 56.443 215.971 64.9369C218.067 69.1255 219.333 73.7728 219.678 78.3871C220.04 83.0996 219.384 87.7974 217.751 92.167L217.714 91.9704L218.297 92.3711L218.413 92.4513L218.333 92.5678L215.021 97.7564C214.016 99.4677 212.974 100.982 211.797 102.319Z" fill="#752714"/>
<path d="M192.532 39.372C175.949 33.2854 155.907 37.0925 145.51 50.7097C131.771 68.809 139.243 97.1225 167.307 108.103C191.607 116.323 213.238 105.713 220.279 88.2419C221.344 85.1977 221.96 81.9312 222.03 78.4606C222.418 61.3043 209.115 45.4586 192.532 39.372Z" fill="#FFEB47"/>
<path d="M145.51 50.7097C155.809 37.1106 175.869 33.4018 192.532 39.372C209.115 45.4586 222.417 61.3042 222.03 78.4606C221.942 81.8328 221.325 85.0993 220.279 88.2419C221.744 84.6151 222.546 80.704 222.606 76.6253C222.921 59.0756 209.152 42.9093 192.023 36.6186C174.894 30.3279 154.011 33.9854 142.907 47.6316C127.766 66.397 135.485 96.5969 166.215 107.695C166.644 107.819 166.976 107.961 167.405 108.085C139.243 97.1224 131.753 68.7107 145.51 50.7097Z" fill="#CB9E16"/>
<path opacity="0.81" d="M167.289 108.005C189.09 115.364 208.798 107.551 217.656 93.3034C218.679 91.6904 219.587 89.9972 220.261 88.1438C221.726 84.517 222.528 80.6059 222.588 76.5271C222.903 58.9775 209.134 42.8112 192.005 36.5205C174.876 30.2298 153.993 33.8873 142.889 47.5335C127.748 66.2988 135.467 96.4987 166.197 107.597C166.528 107.739 166.958 107.863 167.289 108.005Z" fill="url(#paint0_linear_577:10778)"/>
<path d="M180.673 57.734L169.22 53.5462L169.06 53.7792L168.758 54.3436L180.854 58.7173L181.335 58.0182L180.673 57.734Z" fill="#B07320"/>
<path d="M197.798 50.805L197.78 50.7067L193.23 69.548L180.307 61.2591L180.245 61.474L179.925 61.94L193.663 70.7899L198.363 51.1075L197.798 50.805Z" fill="#B07320"/>
<path d="M172.632 69.7968L162.603 66.1594L162.443 66.3924L162.079 67.1716L172.77 71.0933L173.393 70.0628L172.632 69.7968Z" fill="#B07320"/>
<path d="M191.734 77.9603L192.821 73.3865L192.238 72.9857L192.122 72.9056L191.283 76.62L177.314 71.4737L177.335 75.436L177.382 76.2408L177.732 76.4813L177.667 72.8322L191.734 77.9603Z" fill="#B07320"/>
<path d="M190.534 83.5716L189.871 83.2873L189.755 83.2072L186.583 96.3021L158.61 73.7112L158.467 74.0426L158.165 74.607L187.027 98.1523L190.534 83.5716Z" fill="#B07320"/>
<path d="M181.634 59.082L180.308 61.2594L193.23 69.5482L197.78 50.7069L189.555 45.8209L184.891 53.5984L172.955 46.2458L169.221 53.5465L180.673 57.7342L181.335 58.0185L180.855 58.7176L180.971 58.7977L181.634 59.082Z" fill="#CB9E16"/>
<path d="M189.755 83.2075L177.753 77.6976L177.688 76.7944L177.732 76.4813L177.382 76.2408L177.335 75.4359L177.314 71.4737L191.283 76.62L192.122 72.9056L167.227 57.0675L162.603 66.1597L172.632 69.7971L173.393 70.0632L172.77 71.0936L172.984 71.1556L173.746 71.4217L171.654 74.9609L160.647 69.8773L158.61 73.7116L186.583 96.3024L189.755 83.2075Z" fill="#CB9E16"/>
<g opacity="0.66">
<path opacity="0.66" d="M197.78 50.7069L189.555 45.8209L184.891 53.5984L172.955 46.2458L169.221 53.5465L180.673 57.7342L181.335 58.0185L180.855 58.7176L180.971 58.7977L181.634 59.082L180.308 61.2594L193.23 69.5482L197.78 50.7069Z" fill="url(#paint1_linear_577:10778)"/>
<path opacity="0.66" d="M189.755 83.2075L177.754 77.6976L177.688 76.7944L177.732 76.4813L177.383 76.2408L177.335 75.4359L177.315 71.4737L191.283 76.62L192.122 72.9056L167.228 57.0675L162.603 66.1597L172.632 69.7971L173.393 70.0632L172.77 71.0936L172.985 71.1556L173.746 71.4217L171.654 74.9609L160.647 69.8773L158.61 73.7116L186.583 96.3024L189.755 83.2075Z" fill="url(#paint2_linear_577:10778)"/>
</g>
<path d="M180.847 59.2272L179.459 61.6194L179.317 61.9508L179.666 62.1913C181.978 63.696 184.371 65.0842 186.665 66.4906L193.663 70.79L196.503 60.2988C197.334 57.0943 198.103 54.1046 198.694 51.2496L198.756 51.0348L198.425 50.8926C196.947 50.0473 195.468 49.202 193.972 48.2583L189.537 45.7223L189.304 45.562L189.224 45.6786C188.539 46.9239 187.854 48.1691 187.07 49.4326L185.904 51.377C185.503 51.9596 185.121 52.6405 184.72 53.223L178.967 49.6087C177.005 48.3444 175.06 47.1785 173.116 46.0125L172.551 45.7101L172.329 46.158L168.015 54.1759L167.793 54.6238L168.437 54.8097C170.622 55.6261 172.69 56.3624 174.875 57.1788C176.944 57.915 178.895 58.5711 180.847 59.2272ZM178.647 50.0747L184.811 53.7147L185.044 53.875L185.106 53.6601C185.489 52.9792 185.871 52.2984 186.254 51.6174L187.42 49.6731C188.105 48.4278 188.808 47.2808 189.609 46.1157L193.731 48.6079C195.111 49.4714 196.491 50.3349 197.853 51.1001C197.128 53.7766 196.537 56.6315 195.884 59.7014L193.626 70.5933L186.752 65.8643C184.655 64.4215 182.674 63.0589 180.595 61.7145L182.162 59.1875L182.384 58.7396L181.74 58.5537C179.653 57.7192 177.486 57.0011 175.4 56.1665C173.43 55.4121 171.576 54.7378 169.625 54.0817L173.163 46.8174C174.991 47.9032 176.819 48.989 178.647 50.0747Z" fill="#B07320"/>
<path d="M187.34 98.1964L189.178 90.5346L190.964 83.6958L191.008 83.3827L190.677 83.2405C186.547 81.2582 182.418 79.2759 178.307 77.3919L178.323 73.6263L191.647 78.5866L192.31 78.8709L192.495 78.2263L193.582 73.6526L193.706 73.2229L193.24 72.9023L186.573 68.745C184.396 67.4188 182.2 65.9942 180.121 64.6498C175.864 61.9791 171.644 59.5051 167.523 57.0129L167.29 56.8526L167.228 57.0675C166.481 58.5276 165.752 60.0861 165.023 61.6445C164.196 63.2212 163.387 64.8962 162.578 66.5712L162.195 67.2521L162.214 67.3504L162.312 67.3322C164.282 68.0866 166.234 68.7427 168.105 69.5153C169.959 70.1896 171.83 70.9622 173.684 71.6365L171.797 74.6295L166.655 72.1224C164.864 71.2333 163.072 70.3442 161.2 69.5716L160.636 69.2692L160.334 69.8336C159.506 71.4102 158.679 72.9869 157.852 74.5635L157.612 74.913L157.961 75.1535C162.4 78.8075 167.151 82.5053 172.019 86.2833C174.52 88.2615 177.003 90.1414 179.505 92.1196C182.024 94.1962 184.642 96.2545 187.162 98.3311L187.413 98.5897L187.34 98.1964ZM179.512 91.6098C176.993 89.5332 174.688 87.5186 172.285 85.5222C167.712 81.6897 163.354 77.9192 158.952 74.4619C159.619 73.1182 160.304 71.8729 160.891 70.6458C162.547 71.3565 164.204 72.0671 165.879 72.8761L171.512 75.2922L171.844 75.4343L172.004 75.2013L173.979 71.5819L174.139 71.3489L173.924 71.2869C171.973 70.6309 170.021 69.9748 168.051 69.2203C166.099 68.5643 164.245 67.89 162.275 67.1356L162.56 66.4728C163.467 64.7797 164.294 63.203 165.121 61.6264C165.868 60.1662 166.633 58.8044 167.399 57.4426C171.342 60.0695 175.303 62.7947 179.462 65.4836C181.559 66.9263 183.736 68.2526 185.932 69.6771L192.151 73.6121L191.276 77.1298L177.988 72.3661L177.129 72.1182L177.176 72.9231L177.262 77.7885L177.236 78.2L177.568 78.3421C181.777 80.208 185.986 82.0738 190.196 83.9396L188.668 90.5271L186.972 97.8576C184.435 95.6827 181.915 93.6062 179.512 91.6098Z" fill="#B07320"/>
<path d="M170.199 108.891C175.355 110.378 180.759 111.006 186.178 110.614C191.499 110.241 196.853 108.946 201.613 106.642C206.374 104.338 210.756 101.087 214.169 96.9984C217.583 92.9097 220.064 88.1798 221.239 82.9796C221.786 80.4378 222.198 77.7176 222.02 75.1063C221.991 74.3998 221.981 73.7917 221.952 73.0851L221.686 71.1003L221.603 70.0988C221.548 69.8038 221.476 69.4104 221.421 69.1154L220.959 67.1669C219.701 62.0098 217.182 57.1873 213.949 52.9036C210.815 48.6018 206.69 44.9916 202.28 42.0441C197.871 39.0966 192.882 36.8664 187.664 35.5939C182.446 34.3214 177.078 33.89 171.856 34.2454C166.535 34.619 161.279 35.8957 156.501 38.1012C151.704 40.2084 147.322 43.4593 143.908 47.548C140.477 51.5384 138.013 56.3667 136.937 61.5486C135.745 66.6504 135.94 72.1059 137.082 77.1829C138.341 82.34 140.663 87.1988 143.895 91.4825C147.03 95.7844 151.057 99.4127 155.564 102.342C160.072 105.271 165.06 107.502 170.199 108.891ZM170.235 109.087C168.946 108.715 167.657 108.344 166.35 107.873C165.705 107.688 165.042 107.403 164.478 107.101C163.815 106.817 163.171 106.631 162.606 106.328C160.072 105.271 157.698 103.981 155.422 102.673C150.834 99.8606 146.629 96.3669 143.2 92.1196C139.77 87.8723 137.233 82.9515 135.84 77.6159C134.447 72.2802 134.314 66.6099 135.568 61.2933C136.804 55.8783 139.33 50.8352 142.922 46.6118C146.532 42.4867 151.092 39.1011 156.086 36.9576C161.061 34.7157 166.532 33.5009 171.969 33.2075C177.406 32.9141 182.909 33.5239 188.163 34.9931L189.121 35.2228L190.097 35.5509L192.049 36.207C193.356 36.6771 194.583 37.2638 195.792 37.7522C198.246 38.9255 200.62 40.2154 202.834 41.7383L204.465 42.8605L206.016 44.0991C207.083 44.9189 208.07 45.8551 209.056 46.7913C209.541 47.2103 210.043 47.7275 210.545 48.2448L211.936 49.7165L213.247 51.3047C213.651 51.8402 214.153 52.3575 214.557 52.8929C215.366 53.9638 216.174 55.0347 216.902 56.2222L217.935 57.9633L218.871 59.7225C219.599 60.91 220.032 62.1519 220.563 63.3757C220.887 64.0277 220.996 64.6177 221.222 65.2878C221.447 65.958 221.655 66.5298 221.88 67.2L222.342 69.1485C222.397 69.4435 222.47 69.8368 222.524 70.1318L222.706 71.1151L222.971 73.1C223 73.8065 223.029 74.513 223.04 75.1212C223.098 76.5342 223.137 77.8489 222.98 79.2C222.823 80.551 222.666 81.9021 222.411 83.2713C221.784 85.9296 220.844 88.5442 219.67 90.9984C218.497 93.4526 216.894 95.7829 215.138 97.8363C211.546 102.06 206.949 105.249 201.955 107.392C196.962 109.536 191.59 110.732 186.116 110.829C180.796 111.203 175.373 110.476 170.235 109.087Z" fill="#752714"/>
<path d="M139.597 95.7351L142.489 93.7766L140.001 96.2705L139.597 95.7351Z" fill="#752714"/>
<path d="M136.834 78.0423L133.56 80.6817L136.332 77.5251L136.834 78.0423Z" fill="#752714"/>
<path d="M133.526 84.3491L135.945 82.5799L134.046 84.9647L133.526 84.3491Z" fill="#752714"/>
<path d="M183.333 116.123L187.543 112.497L183.835 116.641L183.333 116.123Z" fill="#752714"/>
<path d="M162.652 112.625L167.307 108.103L163.253 113.124L162.652 112.625Z" fill="#752714"/>
<path d="M160.878 111.834L163.563 109.304L161.479 112.333L160.878 111.834Z" fill="#752714"/>
<path d="M262.721 427.478C262.532 427.004 262.324 426.432 262.135 425.959C249.427 393.529 223.8 368.775 196.474 362.336C190.414 360.914 184.322 360.413 178.098 360.852L177.152 358.484L161.607 364.613C127.221 378.292 110.09 425.9 129.501 477.532C149.569 531.075 196.367 555.372 231.838 539.865L245.114 534.665L244.186 532.396C270.679 511.226 277.488 466.646 262.721 427.478Z" fill="#B07320"/>
<path d="M155.038 387.387L151.555 377.353C151.555 377.353 142.113 375.234 129.617 402.256C117.122 429.278 123.23 486.521 161.161 518.966C199.092 551.411 187.324 531.214 171.319 515.054C155.315 498.895 182.204 442.466 182.204 442.466L202.56 396.906L155.038 387.387Z" fill="#CB9E16"/>
<path d="M262.623 427.496C261.793 425.209 260.785 423.056 259.875 420.885C258.965 418.714 257.76 416.598 256.752 414.446C255.547 412.329 254.459 410.293 253.254 408.177L251.376 405.168C250.783 404.16 250.091 403.169 249.399 402.178C243.884 394.35 237.477 387.196 230.151 381.127C222.826 375.057 214.681 370.055 205.905 366.592C203.64 365.892 201.535 364.96 199.19 364.376C198.018 364.084 196.943 363.775 195.771 363.483C194.598 363.191 193.444 362.998 192.289 362.805C187.672 362.031 182.949 361.786 178.236 362.149L177.234 362.232L176.856 361.285L175.91 358.918L177.683 359.708L162.12 365.738L162.849 364.18L163.264 365.323L162.12 365.738C152.06 369.632 143.271 376.545 136.848 385.258C130.326 393.989 126.019 404.243 123.823 414.92C121.529 425.616 121.348 436.734 122.721 447.463C124.014 458.309 126.998 468.944 131.106 479.065C133.151 484.077 135.492 489.034 138.207 493.82C140.904 498.508 143.798 503.159 147.031 507.443C153.613 516.091 161.346 523.813 170.299 529.887C179.154 535.979 189.328 540.403 199.896 542.008C210.482 543.712 221.444 542.499 231.234 538.248L232.735 537.564L233.321 539.083L231.216 538.15L244.492 532.949L243.639 534.938L242.81 532.65L242.413 531.605L243.305 530.931C246.937 528.023 250.103 524.793 252.981 521.109C255.877 517.523 258.289 513.517 260.37 509.37C264.531 501.075 267.232 492.033 268.681 482.816C270.111 473.501 270.19 464.029 269.188 454.757C268.629 450.08 267.872 445.44 266.723 440.873C265.592 436.405 264.264 431.972 262.623 427.496ZM262.918 427.441C264.559 431.918 266.003 436.43 267.153 440.997C268.302 445.564 269.273 450.266 269.833 454.942C271.166 464.357 271.4 473.873 270.301 483.33C269.202 492.788 266.869 502.168 262.682 510.875C258.593 519.563 252.75 527.558 245.129 533.645L245.625 531.926L246.553 534.196L247.121 535.616L245.7 536.184L232.443 541.482L230.924 542.068L230.338 540.549L232.443 541.482C222.099 546.039 210.43 547.281 199.298 545.373C188.165 543.465 177.74 538.782 168.634 532.432C159.429 526.1 151.624 517.984 144.987 509.041C141.718 504.561 138.806 499.811 136.171 494.908C133.536 490.006 131.276 484.932 129.311 479.804C127.346 474.676 125.657 469.395 124.362 464.041C123.068 458.687 122.068 453.279 121.461 447.798C120.15 436.854 120.528 425.699 122.705 414.924C124.882 404.148 129.037 393.617 135.387 384.511C141.738 375.405 150.633 367.964 161.014 363.604L160.285 365.162L159.772 364.037L160.915 363.622L176.442 357.395L177.666 356.864L178.197 358.088L179.143 360.455L177.763 359.592C182.673 359.193 187.611 359.5 192.443 360.335C193.597 360.529 194.868 360.802 196.041 361.094C197.214 361.386 198.404 361.776 199.577 362.067C201.922 362.651 204.242 363.646 206.525 364.444C215.552 368.165 223.689 373.677 230.971 380.06C238.173 386.559 244.42 393.946 249.676 402.025C255.173 409.755 259.42 418.427 262.918 427.441Z" fill="#752714"/>
<path d="M212.556 413.566L162.735 428.472L162.928 430.064L166.481 458.085L194.703 452.867L200.432 490.452L220.734 480.902L222.136 480.236L211.317 451.422L210.713 449.805L216.81 448.678L217.892 448.478L212.556 413.566Z" fill="#428A7A"/>
<path d="M233.829 408.718L241.055 432.398L240.1 433.287L235.66 437.871L225.256 410.201L217.553 412.54L217.789 413.819L228.255 477.578L246.029 469.207L247.253 468.676L239.095 447.1L238.625 445.661L244.704 444.436L251.558 466.66L257.543 463.825L258.373 463.366L250.849 402.317L233.396 407.476L233.829 408.718Z" fill="#428A7A"/>
<path d="M152 463.914C172.014 517.163 220.418 540.248 253.888 519.416C281.797 502.052 289.898 458.962 275.964 420.453C263.257 388.023 237.63 363.269 210.303 356.83C204.513 355.765 198.475 355.559 192.637 356.435C153.406 362.061 131.986 410.665 152 463.914ZM210.713 449.805L211.317 451.422L222.136 480.235L220.832 480.883L200.45 490.55L194.82 452.947L166.518 458.281L162.964 430.26L162.79 428.767L212.61 413.861L217.946 448.773L216.865 448.973L210.713 449.805ZM217.553 412.54L225.274 410.299L235.678 437.969L240.118 433.385L241.054 432.399L233.829 408.718L233.494 407.457L250.947 402.298L258.373 463.366L257.524 463.726L251.54 466.562L244.784 444.319L238.607 445.563L239.175 446.983L247.217 468.48L246.091 468.993L228.317 477.364L217.851 413.604L217.553 412.54Z" fill="#FFEB47"/>
<path d="M253.888 519.416C220.338 540.364 172.014 517.163 152 463.914C131.986 410.665 153.406 362.061 192.619 356.337C198.555 355.443 204.495 355.666 210.285 356.732C203.053 355.018 195.646 354.557 188.216 355.625C145.507 361.691 121.675 414.301 143.312 471.927C164.949 529.554 217.577 553.485 253.696 529.926C283.735 510.338 292.111 463.23 276.532 421.873C276.343 421.4 276.136 420.828 275.946 420.355C289.898 458.962 281.797 502.052 253.888 519.416Z" fill="#CB9E16"/>
<path opacity="0.81" d="M276.063 420.435C263.355 388.004 237.728 363.251 210.402 356.812C203.17 355.098 195.762 354.637 188.333 355.705C145.624 361.771 121.791 414.381 143.428 472.007C165.066 529.634 217.693 553.565 253.812 530.006C283.852 510.418 292.227 463.31 276.649 421.953C276.459 421.48 276.252 420.908 276.063 420.435Z" fill="url(#paint3_linear_577:10778)"/>
<path d="M209.929 453.814L220.162 481.109L220.734 480.901L222.136 480.235L211.39 451.815L209.325 452.197L209.929 453.814Z" fill="#B07320"/>
<path d="M162.928 430.063L162.982 430.358L211.31 415.627L216.318 448.769L216.81 448.678L217.892 448.478L212.556 413.566L162.735 428.472L162.928 430.063Z" fill="#B07320"/>
<path d="M237.983 449.339L245.556 469.397L246.029 469.208L247.253 468.676L239.266 447.475L237.496 447.802L237.983 449.339Z" fill="#B07320"/>
<path d="M225.256 410.201L217.553 412.54L217.789 413.819L217.843 414.114L224.108 412.244L234.53 440.012L238.97 435.428L239.907 434.441L239.681 433.771L235.659 437.871L225.256 410.201Z" fill="#B07320"/>
<path d="M233.396 407.476L233.829 408.718L233.865 408.914L249.861 404.126L257.167 463.996L257.543 463.825L258.373 463.366L250.849 402.317L233.396 407.476Z" fill="#B07320"/>
<path d="M210.714 449.805L216.319 448.769L211.31 415.627L162.983 430.359L166.482 458.084L194.703 452.867L200.432 490.452L220.162 481.109L209.929 453.814L209.325 452.197L211.39 451.815L211.318 451.422L210.714 449.805Z" fill="#CB9E16"/>
<path d="M233.865 408.915L241.054 432.399L240.1 433.287L239.681 433.771L239.907 434.442L238.971 435.428L234.53 440.012L224.108 412.244L217.843 414.114L228.255 477.579L245.556 469.397L237.983 449.34L237.496 447.803L239.266 447.475L239.095 447.1L238.625 445.662L244.704 444.436L251.558 466.66L257.167 463.996L249.861 404.127L233.865 408.915Z" fill="#CB9E16"/>
<g opacity="0.66">
<path opacity="0.66" d="M162.982 430.36L166.481 458.086L194.703 452.868L200.432 490.453L220.162 481.11L209.929 453.816L209.325 452.199L211.39 451.817L211.317 451.424L210.713 449.807L216.318 448.77L211.31 415.629L162.982 430.36Z" fill="url(#paint4_linear_577:10778)"/>
<path opacity="0.66" d="M233.865 408.916L241.054 432.4L240.1 433.289L239.681 433.773L239.907 434.443L238.971 435.43L234.53 440.013L224.108 412.245L217.843 414.115L228.255 477.58L245.556 469.399L237.983 449.341L237.496 447.804L239.266 447.477L239.095 447.102L238.625 445.663L244.704 444.438L251.558 466.662L257.167 463.998L249.861 404.128L233.865 408.916Z" fill="url(#paint5_linear_577:10778)"/>
</g>
<path d="M212.246 450.945L218.208 449.64L218.995 449.494L218.813 448.511C217.802 442.494 216.792 436.478 215.701 430.578L212.636 413.45L189.148 419.521C180.524 421.827 171.524 424.305 162.302 427.23L161.436 427.492L161.519 428.494C162.115 433.366 162.926 438.301 163.638 443.254L165.891 458.194L166.037 458.98L166.627 458.871C171.525 457.864 176.424 456.856 181.144 455.984L188.126 454.693C190.191 454.311 192.256 453.929 194.339 453.646L196.763 471.706C197.533 478.072 198.5 484.402 199.368 490.75L199.597 492.538L200.901 491.89L222.624 481.772L223.749 481.259L223.181 479.839C221.333 474.791 219.386 469.761 217.439 464.731C215.762 460.058 214.004 455.502 212.246 450.945ZM198.336 471.415L195.195 452.776L195.068 452.087L194.576 452.178C192.332 452.695 190.169 453.095 187.809 453.531L180.846 454.92C176.322 455.757 171.701 456.611 166.846 457.305L165.346 443.142C164.903 438.546 164.38 434.066 163.839 429.488C172.623 426.949 180.88 424.304 188.922 421.597L212.359 413.603L214.576 431.091C215.28 436.554 215.967 441.918 216.672 447.381L210.164 448.483L208.984 448.701L209.57 450.22C211.436 455.366 213.285 460.414 215.134 465.462C216.793 470.037 218.569 474.692 220.326 479.248L201.088 488.5C200.248 482.858 199.39 477.119 198.336 471.415Z" fill="#B07320"/>
<path d="M250.678 401.942L242.17 404.329L233.17 406.806L232.777 406.879L232.984 407.451C235.396 415.547 237.71 423.662 240.122 431.758L236.002 435.876L226.399 409.787L225.948 408.446L224.983 408.726L217.262 410.968L216.493 411.211L216.693 412.293L219.343 428.278C220.227 433.606 221.128 439.032 222.128 444.441C224.048 455.374 226.182 466.369 228.138 477.499L228.266 478.187L228.739 477.998C231.802 476.415 234.767 474.85 237.75 473.383C240.635 471.934 243.538 470.584 246.423 469.135L247.647 468.604L247.745 468.586L247.727 468.488C246.311 464.681 244.877 460.777 243.462 456.971C242.083 453.362 240.784 449.636 239.485 445.91L244.813 445.026L247.876 455.545C248.978 459.307 250.063 462.971 251.165 466.733L251.5 467.993L252.348 467.633C254.698 466.589 256.948 465.562 259.181 464.438L259.735 464.132L259.688 463.327C258.467 452.875 256.952 442.477 255.571 432.258C254.84 427.206 254.208 422.137 253.477 417.085C252.863 412.114 252.151 407.161 251.654 402.27L251.563 401.778L250.678 401.942ZM252.359 417.089C252.973 422.06 253.507 427.148 254.041 432.235C255.073 442.214 256.22 452.273 257.405 462.529C255.627 463.366 253.751 464.221 251.894 465.175C250.882 461.904 249.871 458.634 248.743 455.283L245.177 444.247L244.952 443.577L244.46 443.668L238.418 445.09L238.024 445.163L238.214 445.636C239.728 449.424 241.241 453.212 242.675 457.116C244.189 460.904 245.605 464.71 247.002 468.418L245.975 468.913C243.17 470.245 240.267 471.595 237.266 472.964C234.462 474.296 231.54 475.548 228.521 476.818C226.915 465.929 225.425 455.119 223.756 444.445C222.953 439 222.07 433.672 221.186 428.344L218.754 413.539L224.625 411.742L234.676 438.053L235.28 439.67L236.216 438.683L241.477 433.033L241.816 432.665L241.59 431.995C239.079 423.917 236.471 415.857 233.862 407.797L242.315 405.115L250.393 402.605C251.204 407.54 251.782 412.314 252.359 417.089Z" fill="#B07320"/>
<path d="M276.452 421.99C272.638 411.813 267.306 402.223 260.804 393.459C257.473 389.193 253.946 384.964 250.097 381.201C248.204 379.212 246.169 377.555 244.097 375.7C243.03 374.881 241.964 374.061 240.879 373.143L239.328 371.904C238.745 371.503 238.261 371.084 237.696 370.782C233.349 367.62 228.601 365.04 223.692 362.693L220.047 361.13L216.242 359.799C215.033 359.311 213.664 359.056 212.375 358.684C211.086 358.312 209.797 357.94 208.526 357.667C203.246 356.609 197.976 356.16 192.655 356.533C187.335 356.907 182.025 357.888 177.093 359.817C167.077 363.398 158.251 370.114 151.595 378.667C148.316 382.934 145.522 387.62 143.273 392.511C141.025 397.401 139.341 402.593 138.086 407.91C135.56 418.445 135.261 429.483 136.34 440.267C136.928 445.65 137.91 450.96 139.205 456.313C140.58 461.551 142.25 466.733 144.099 471.782C146.144 476.793 148.386 481.769 150.886 486.493C153.485 491.199 156.379 495.85 159.433 500.268C162.586 504.669 166.095 508.799 169.845 512.581C173.613 516.46 177.622 519.99 182.067 523.134C190.744 529.361 200.579 534.153 211.023 536.188C216.205 537.264 221.573 537.695 226.894 537.321C232.214 536.948 237.408 535.886 242.358 534.056C252.355 530.377 260.967 523.598 267.444 515.18C270.625 510.931 273.321 506.263 275.569 501.373C277.818 496.483 279.52 491.388 280.792 486.17C285.926 464.984 284.079 442.342 276.452 421.99ZM276.747 421.935C280.56 432.111 283.15 442.819 284.247 453.701C285.344 464.583 284.947 475.639 282.77 486.415C280.592 497.19 276.438 507.721 269.756 516.685C263.173 525.631 254.044 532.912 243.493 536.897C232.942 540.881 221.361 541.497 210.45 539.141C199.54 536.785 189.374 531.851 180.428 525.268C171.482 518.685 163.971 510.514 157.532 501.535C154.361 497.037 151.547 492.269 149.109 487.33C146.572 482.409 144.527 477.397 142.562 472.269C140.695 467.123 139.105 461.823 137.926 456.55C136.73 451.178 135.828 445.751 135.24 440.369C134.732 434.869 134.635 429.396 134.851 423.966C135.166 418.518 135.776 413.015 137.03 407.699C139.422 396.985 143.614 386.651 150.197 377.705C156.682 368.777 165.712 361.515 176.067 357.566C186.502 353.501 198.083 352.886 208.993 355.241C219.903 357.597 230.007 362.746 238.757 369.366C239.339 369.767 239.823 370.185 240.406 370.586L241.975 371.923C243.06 372.841 244.127 373.661 245.114 374.597C247.087 376.47 249.159 378.324 250.953 380.331C254.74 384.309 258.169 388.556 261.34 393.055C262.876 395.313 264.412 397.572 265.868 399.946C266.596 401.134 267.306 402.223 267.936 403.429L269.923 407.027C270.553 408.233 271.182 409.438 271.812 410.644L273.603 414.279C274.684 416.825 275.764 419.371 276.747 421.935Z" fill="#752714"/>
<path d="M135.823 439.659L125.215 440.595L135.457 437.693L135.823 439.659Z" fill="#752714"/>
<path d="M123.31 413.795L132.929 411.919L123.59 414.76L123.31 413.795Z" fill="#752714"/>
<path d="M135.453 385.414L145.072 383.539L135.635 386.398L135.453 385.414Z" fill="#752714"/>
<path d="M138.481 405.095L128.407 407.259L138.201 404.13L138.481 405.095Z" fill="#752714"/>
<path d="M149.345 512.812L159.667 509.785L149.625 513.777L149.345 512.812Z" fill="#752714"/>
<path d="M147.485 509.901L153.331 508.516L147.864 510.848L147.485 509.901Z" fill="#752714"/>
<path d="M184.001 526.442L171.363 529.588L183.721 525.477L184.001 526.442Z" fill="#752714"/>
<path d="M182.9 538.642L197.841 533.642" stroke="#752714" stroke-miterlimit="10"/>
<path d="M203.401 535.665L187.521 540.533" stroke="#752714" stroke-miterlimit="10"/>
<path d="M269.713 316.151C317.63 310.749 328.4 254.046 319.995 230.584C311.589 207.121 311.665 220.734 311.665 220.734L309.741 226.276L235.889 202.506C223.281 212.973 214.15 228.491 210.908 245.057C210.354 248.109 209.897 251.142 209.656 254.237L223.667 264.562C223.667 264.562 221.796 321.552 269.713 316.151Z" fill="#CB9E16"/>
<path d="M296.602 196.468C294.192 194.981 291.738 193.808 289.105 192.769L288.989 192.689L280.49 189.074L280.063 190.068C274.783 189.01 269.371 188.892 263.81 189.615C253.394 191.032 243.873 195.64 235.772 202.426L309.624 226.196L311.549 220.653C311.549 220.653 311.472 207.04 319.878 230.503C328.284 253.966 317.611 310.651 269.597 316.071C221.68 321.472 223.532 264.384 223.532 264.384L209.656 254.237C208.11 275.574 215.733 297.555 231.112 310.881L230.357 312.851L241.776 317.96C243.003 318.546 244.231 319.133 245.44 319.622L245.771 319.764C276.54 332.177 314.952 312.77 323.87 267.494C323.957 266.868 324.045 266.241 324.132 265.615C329.612 234.195 316.709 208.411 296.602 196.468Z" fill="#B07320"/>
<path d="M296.602 196.467C294.21 195.079 291.658 193.924 289.123 192.867L280.428 189.288L280.705 189.136L280.278 190.13L280.216 190.344L280.001 190.283C273.057 189.024 265.893 189.332 259.083 190.997C252.272 192.663 245.833 195.786 240.183 199.882C228.785 208.09 220.18 219.851 215.263 232.862C212.814 239.416 211.224 246.218 210.691 253.232C210.04 260.166 210.526 267.195 211.897 274.06C213.268 280.925 215.506 287.528 218.869 293.619C222.233 299.709 226.525 305.322 231.735 309.85L232.335 310.349L232.069 311.11L231.315 313.08L230.747 311.66L246.063 318.591L244.544 319.177L244.97 318.183L245.964 318.609C253.101 321.459 260.949 322.652 268.568 322.057C276.285 321.444 283.773 319.043 290.497 315.257C293.917 313.404 297.05 311.096 299.949 308.628C302.831 306.062 305.559 303.218 307.956 300.233C312.831 294.145 316.54 287.256 319.255 279.94C320.604 276.233 321.756 272.563 322.576 268.75C323.036 266.834 323.299 264.955 323.543 262.978L323.919 260.061C324.05 259.121 324.065 258.102 324.197 257.162C324.8 249.424 324.347 241.473 322.554 233.974C320.841 226.359 317.573 219.133 313.215 212.616C312.658 211.804 312.101 210.992 311.464 210.296L309.615 207.994L307.587 205.826L306.582 204.792L305.479 203.775L303.371 201.725L301.103 199.907L299.919 199.007L298.656 198.223L296.602 196.467ZM296.602 196.467C303.349 200.508 309.412 205.794 313.885 212.391C318.439 218.871 321.922 226.159 323.752 233.855C325.68 241.532 326.249 249.562 325.781 257.48C325.668 258.517 325.733 259.421 325.521 260.477L325.145 263.394C324.901 265.371 324.656 267.348 324.197 269.264C323.395 273.175 322.261 276.944 321.029 280.731C318.35 288.243 314.677 295.329 309.642 301.65C307.165 304.752 304.454 307.694 301.376 310.296C298.397 312.881 295.067 315.226 291.567 317.195C284.566 321.133 276.801 323.687 268.789 324.355C260.777 325.023 252.616 323.786 245.166 320.892L246.586 320.325L246.178 321.417L245.166 320.892L229.851 313.961L228.857 313.535L229.283 312.541L230.037 310.571L230.372 311.831C224.911 307.044 220.484 301.252 217.084 294.965C213.685 288.679 211.393 281.781 209.985 274.719C207.189 260.693 208.406 245.824 213.778 232.526C219.051 219.246 227.933 207.333 239.644 199.168C245.509 195.134 252.047 191.993 259.09 190.488C266.017 188.902 273.315 188.773 280.296 190.228L280.02 190.381L280.446 189.387L280.508 189.172L280.723 189.234L289.356 193.027C291.738 193.808 294.192 194.981 296.602 196.467Z" fill="#752714"/>
<path d="M206.43 240.088C201.24 266.471 211.542 295.787 234.368 308.143C264.765 324.591 305.606 306.769 315.634 261.999C322.353 223.537 301.334 193.457 273.4 187.028C268.469 186.211 263.451 186.02 258.4 186.751C232.363 190.039 211.62 213.705 206.43 240.088Z" fill="#FFEB47"/>
<path d="M234.35 308.045C211.523 295.689 201.222 266.373 206.412 239.99C211.602 213.607 232.462 190.021 258.363 186.555C263.531 185.904 268.531 185.997 273.364 186.832C267.519 185.472 261.463 185.168 255.33 186.098C228.856 189.773 207.731 214.119 202.293 241.362C196.855 268.604 207.098 299.253 230.223 312.672C261.905 331.12 305.542 312.476 315.138 263.719C315.226 263.092 315.313 262.466 315.401 261.84C305.588 306.671 264.765 324.591 234.35 308.045Z" fill="#CB9E16"/>
<path opacity="0.81" d="M315.51 261.998C321.497 227.442 305.143 199.644 281.521 189.658C278.868 188.52 276.055 187.614 273.181 186.924C267.333 185.56 261.275 185.253 255.141 186.179C228.664 189.836 207.553 214.162 202.137 241.394C196.722 268.625 206.994 299.271 230.137 312.701C261.844 331.163 305.478 312.551 315.034 263.814C315.336 263.25 315.423 262.624 315.51 261.998Z" fill="url(#paint6_linear_577:10778)"/>
<path d="M236.81 253.692L233.152 271.86L233.581 271.984L234.459 272.33L238.23 253.124L237.021 252.636L236.81 253.692Z" fill="#B07320"/>
<path d="M222.356 229.415L222.275 229.532L251.527 232.065L242.144 253.321L242.475 253.463L243.236 253.729L253.268 231.032L222.621 228.654L222.356 229.415Z" fill="#B07320"/>
<path d="M256.8 262.81L253.565 278.865L254.112 279.069L255.204 279.478L258.651 262.366L256.994 261.655L256.8 262.81Z" fill="#B07320"/>
<path d="M264.581 232.286L257.352 231.69L257.006 232.568L256.944 232.783L262.643 233.356L258.281 255.417L264.101 254.443L265.397 254.305L265.583 253.66L260.157 254.562L264.581 232.286Z" fill="#B07320"/>
<path d="M273.303 232.708L272.993 233.782L272.931 233.997L293.499 235.787L265.921 282.988L266.369 283.21L267.345 283.538L296.027 234.608L273.303 232.708Z" fill="#B07320"/>
<path d="M238.504 251.853L242.131 253.318L251.522 232.057L222.275 229.532L216.841 243.045L229.495 248.231L221.343 267.941L233.152 271.86L236.81 253.692L237.021 252.636L238.23 253.124L238.292 252.909L238.504 251.853Z" fill="#CB9E16"/>
<path d="M272.931 233.996L267.47 253.413L266.174 253.551L265.584 253.66L265.398 254.305L264.101 254.443L258.281 255.417L262.643 233.356L256.944 232.783L238.829 273.962L253.566 278.865L256.801 262.809L256.994 261.655L258.651 262.365L258.694 262.052L258.888 260.898L264.699 263.179L259.636 280.895L265.921 282.987L293.499 235.787L272.931 233.996Z" fill="#CB9E16"/>
<g opacity="0.66">
<path opacity="0.66" d="M222.275 229.533L216.844 243.044L229.5 248.232L221.352 267.939L233.163 271.859L236.817 253.694L237.028 252.638L238.237 253.126L238.299 252.911L238.51 251.856L242.138 253.321L251.525 232.063L222.275 229.533Z" fill="url(#paint7_linear_577:10778)"/>
<path opacity="0.66" d="M272.931 233.996L267.47 253.413L266.174 253.551L265.584 253.66L265.398 254.305L264.101 254.443L258.281 255.417L262.643 233.356L256.944 232.783L238.829 273.962L253.566 278.865L256.801 262.809L256.994 261.655L258.651 262.365L258.694 262.052L258.888 260.898L264.699 263.179L259.636 280.895L265.921 282.987L293.499 235.787L272.931 233.996Z" fill="url(#paint8_linear_577:10778)"/>
</g>
<path d="M239.031 252.983L242.972 254.493L243.518 254.697L243.802 254.035C245.445 250.274 247.05 246.317 248.674 242.458L253.447 230.9L237.035 229.048C232.059 228.542 227.299 228.099 222.87 227.798L222.458 227.772L222.254 228.318C221.278 230.735 220.321 233.251 219.443 235.65L216.713 242.865L216.571 243.196L216.786 243.258C218.756 244.013 220.825 244.75 222.912 245.585L226.111 246.927C227.105 247.354 228.099 247.78 229.192 248.189L225.056 257.697C223.618 260.912 222.278 264.108 220.938 267.304L220.592 268.181L221.255 268.466L234.313 273.073L235.075 273.339L235.304 272.381C235.999 268.999 236.676 265.518 237.371 262.136C237.844 259.202 238.478 256.034 239.031 252.983ZM225.712 258.491L229.64 248.411L229.764 247.982L229.433 247.839C228.241 247.449 227.13 246.942 226.038 246.534L222.759 245.308C220.789 244.553 218.8 243.7 216.928 242.927L219.848 236.185C220.762 233.983 221.756 231.664 222.67 229.462C226.92 229.897 231.349 230.199 236.073 230.446L253.01 231.286L247.512 242.774C245.914 246.222 244.199 249.589 242.68 252.92L238.488 251.151L237.825 250.867L237.596 251.824C236.9 255.207 236.205 258.589 235.51 261.971C234.859 265.04 234.305 268.091 233.654 271.161L221.878 267.436C223.352 264.418 224.532 261.455 225.712 258.491Z" fill="#B07320"/>
<path d="M296.053 234.196L284.163 233.14L273.39 232.081L272.881 232.073L272.775 232.601C270.755 239.28 268.736 245.958 266.796 252.52L261.173 253.458L265.502 232.319L265.714 231.263L264.676 231.15L257.447 230.554L256.722 230.484L256.358 231.264L251.57 242.217C249.988 245.763 248.523 249.39 246.941 252.937C243.975 259.994 241.187 266.916 238.381 273.74L238.257 274.17L238.588 274.312C240.951 274.993 243.431 275.755 245.929 276.615C248.526 277.457 251.122 278.299 253.835 279.222L255.026 279.612L255.124 279.593L255.106 279.495C255.759 276.425 256.295 273.275 257.046 270.187C257.619 267.234 258.308 264.361 258.979 261.389L263.931 263.423L261.397 271.722C260.512 274.631 259.626 277.541 258.74 280.45L258.412 281.426L259.289 281.772C261.787 282.633 264.402 283.573 266.998 284.415L267.643 284.601L267.945 284.037C272.431 276.394 276.861 268.456 281.452 260.285C283.828 256.083 286.105 251.899 288.579 247.679C291.035 243.361 293.589 239.024 296.125 234.589L296.446 234.123L296.053 234.196ZM288.015 247.377C285.541 251.597 283.031 255.62 280.538 259.742C275.857 267.421 271.237 274.886 266.912 282.295C264.745 281.577 262.695 280.94 260.645 280.302C261.37 277.625 262.114 275.047 262.741 272.389L265.049 263.42L265.155 262.892L264.725 262.768L258.851 260.701L258.52 260.559L258.494 260.97C257.958 264.12 257.404 267.172 256.867 270.322C256.313 273.374 255.66 276.443 255.106 279.495L254.031 279.185C251.319 278.263 248.704 277.323 246.108 276.481C243.726 275.701 241.425 274.804 239.24 273.988C242.297 267.423 245.453 260.839 248.554 253.961C250.136 250.414 251.717 246.867 253.379 243.204L257.883 232.914L263.368 233.425L259.352 254.608L259.097 255.978L260.277 255.759L267.572 254.512L268.162 254.403L268.366 253.857C270.17 247.117 271.975 240.376 273.78 233.636L284.086 234.375L295.448 235.325C292.901 239.152 290.427 243.372 288.015 247.377Z" fill="#B07320"/>
<path d="M316.112 257.437C317.054 249.33 316.841 241.031 315.056 233.022C313.27 225.013 310.144 217.455 305.535 210.68C300.945 204.004 295.007 198.288 288.223 194.051C281.36 189.93 273.535 187.207 265.501 186.658C261.484 186.384 257.442 186.521 253.508 187.248C252.525 187.43 251.542 187.612 250.558 187.794L247.663 188.634L246.206 189.005C245.733 189.195 245.259 189.384 244.786 189.573L241.926 190.61C234.467 193.718 227.747 198.622 222.013 204.461C216.261 210.203 211.765 217.237 208.343 224.582C204.921 231.926 202.745 239.956 201.999 248.026C201.254 256.096 201.86 264.323 203.627 272.233C205.493 280.125 208.619 287.683 213.013 294.396C217.407 301.109 223.265 306.942 230.03 311.081C236.894 315.201 244.701 317.826 252.636 318.393C260.67 318.941 268.733 317.45 276.112 314.459C283.59 311.449 290.347 306.743 296 301.019C301.752 295.278 306.266 288.342 309.572 280.917C312.975 273.474 315.17 265.543 316.112 257.437ZM316.309 257.4C316.082 259.476 315.739 261.472 315.396 263.467C315.185 264.523 314.955 265.481 314.725 266.439C314.496 267.397 314.284 268.453 314.055 269.41C313.074 273.456 311.645 277.279 310.216 281.103C307.046 288.706 302.783 295.901 297.103 302.036C291.541 308.251 284.623 313.191 277.004 316.531C269.384 319.872 260.811 321.356 252.464 320.763C244.117 320.171 235.917 317.619 228.784 313.141C221.651 308.664 215.658 302.653 211.192 295.546C206.744 288.538 203.661 280.668 201.857 272.56C200.152 264.435 199.823 256.055 200.747 247.851L200.867 246.303L201.086 244.737L201.641 241.685C202.082 239.672 202.622 237.64 203.081 235.724C204.295 231.839 205.705 227.917 207.447 224.137L208.763 221.352L210.293 218.628C211.28 216.818 212.483 215.071 213.587 213.341C214.13 212.427 214.807 211.692 215.368 210.876L217.248 208.393L219.263 206.088C219.94 205.353 220.6 204.519 221.277 203.784C222.731 202.295 224.086 200.824 225.773 199.495L228.137 197.431L230.635 195.545C232.224 194.235 234.081 193.281 235.804 192.149C236.715 191.574 237.662 191.195 238.474 190.638C239.403 190.161 240.332 189.685 241.26 189.208L244.101 188.072C244.575 187.883 245.048 187.694 245.522 187.505L246.96 187.035L249.954 186.177C250.938 185.995 252.019 185.795 252.984 185.515C255.031 185.035 257.114 184.751 259.136 184.683C261.237 184.498 263.276 184.527 265.432 184.637C269.646 184.875 273.772 185.739 277.657 186.953C281.659 188.247 285.439 189.989 288.996 192.179C296.111 196.558 302.023 202.686 306.472 209.694C310.92 216.702 313.904 224.591 315.394 232.654C317.136 240.976 317.349 249.276 316.309 257.4Z" fill="#752714"/>
<path d="M272.408 166.263L270.851 160.042L271.621 166.408C272.253 171.478 272.463 175.913 272.258 179.205C272.079 182.086 271.245 184.173 269.922 184.722L262.081 188.511L270.58 189.38C272.03 189.519 273.555 191.169 274.771 193.893C276.194 197.19 277.809 202.077 279.195 207.923L281.668 218.55L280.178 207.741C279.484 202.886 279.194 198.567 279.166 195.115C279.207 190.938 280.388 187.974 282.184 187.235L288.026 184.731L280.695 183.035C278.896 182.656 277.065 180.452 275.624 177.058C274.685 174.18 273.503 170.535 272.408 166.263Z" fill="white"/>
<path d="M227.165 295.034L225.997 290.369L226.575 295.143C227.087 299.014 227.177 302.252 227.024 304.721C226.914 306.877 226.283 308.417 225.256 308.912L219.37 311.729L225.794 312.372C226.93 312.467 228.088 313.779 228.961 315.753C230.042 318.299 231.225 321.944 232.221 326.235L234.106 334.225L233.008 326.089C232.532 322.415 232.245 319.213 232.283 316.664C232.309 313.507 233.224 311.304 234.546 310.754L238.986 308.916L233.571 307.68C232.201 307.425 230.873 305.738 229.792 303.192C228.882 301.022 227.98 298.341 227.165 295.034Z" fill="white"/>
<defs>
<linearGradient id="paint0_linear_577:10778" x1="239.425" y1="31.6211" x2="86.1663" y2="134.699" gradientUnits="userSpaceOnUse">
<stop stop-color="#D2A91D" stop-opacity="0.0235507"/>
<stop offset="0.1692" stop-color="#FFEB47"/>
<stop offset="0.2915" stop-color="white"/>
<stop offset="0.4111" stop-color="#FFEB47"/>
<stop offset="0.6027" stop-color="#D2A91D" stop-opacity="0.0235507"/>
<stop offset="0.7538" stop-color="#FFEB47"/>
<stop offset="0.8477" stop-color="white"/>
<stop offset="0.93" stop-color="#FFEB47"/>
<stop offset="1" stop-color="#D2A91D" stop-opacity="0.0235507"/>
</linearGradient>
<linearGradient id="paint1_linear_577:10778" x1="197.02" y1="42.9495" x2="158.949" y2="83.8039" gradientUnits="userSpaceOnUse">
<stop stop-color="#D2A91D" stop-opacity="0.0235507"/>
<stop offset="0.1692" stop-color="#FFEB47"/>
<stop offset="0.2915" stop-color="white"/>
<stop offset="0.4111" stop-color="#FFEB47"/>
<stop offset="0.6027" stop-color="#D2A91D" stop-opacity="0.0235507"/>
<stop offset="0.7538" stop-color="#FFEB47"/>
<stop offset="0.8477" stop-color="white"/>
<stop offset="0.93" stop-color="#FFEB47"/>
<stop offset="1" stop-color="#D2A91D" stop-opacity="0.0235507"/>
</linearGradient>
<linearGradient id="paint2_linear_577:10778" x1="211.049" y1="40.0797" x2="159.518" y2="95.3788" gradientUnits="userSpaceOnUse">
<stop stop-color="#D2A91D" stop-opacity="0.0235507"/>
<stop offset="0.1692" stop-color="#FFEB47"/>
<stop offset="0.2915" stop-color="white"/>
<stop offset="0.4111" stop-color="#FFEB47"/>
<stop offset="0.6027" stop-color="#D2A91D" stop-opacity="0.0235507"/>
<stop offset="0.7538" stop-color="#FFEB47"/>
<stop offset="0.8477" stop-color="white"/>
<stop offset="0.93" stop-color="#FFEB47"/>
<stop offset="1" stop-color="#D2A91D" stop-opacity="0.0235507"/>
</linearGradient>
<linearGradient id="paint3_linear_577:10778" x1="70.0988" y1="408.372" x2="423.664" y2="506.332" gradientUnits="userSpaceOnUse">
<stop stop-color="#D2A91D" stop-opacity="0.0235507"/>
<stop offset="0.1692" stop-color="#FFEB47"/>
<stop offset="0.2915" stop-color="white"/>
<stop offset="0.4111" stop-color="#FFEB47"/>
<stop offset="0.6027" stop-color="#D2A91D" stop-opacity="0.0235507"/>
<stop offset="0.7538" stop-color="#FFEB47"/>
<stop offset="0.8477" stop-color="white"/>
<stop offset="0.93" stop-color="#FFEB47"/>
<stop offset="1" stop-color="#D2A91D" stop-opacity="0.0235507"/>
</linearGradient>
<linearGradient id="paint4_linear_577:10778" x1="147.749" y1="450.646" x2="301.319" y2="457.054" gradientUnits="userSpaceOnUse">
<stop stop-color="#D2A91D" stop-opacity="0.0235507"/>
<stop offset="0.1692" stop-color="#FFEB47"/>
<stop offset="0.2915" stop-color="white"/>
<stop offset="0.4111" stop-color="#FFEB47"/>
<stop offset="0.6027" stop-color="#D2A91D" stop-opacity="0.0235507"/>
<stop offset="0.7538" stop-color="#FFEB47"/>
<stop offset="0.8477" stop-color="white"/>
<stop offset="0.93" stop-color="#FFEB47"/>
<stop offset="1" stop-color="#D2A91D" stop-opacity="0.0235507"/>
</linearGradient>
<linearGradient id="paint5_linear_577:10778" x1="151.769" y1="437.234" x2="284.876" y2="442.789" gradientUnits="userSpaceOnUse">
<stop stop-color="#D2A91D" stop-opacity="0.0235507"/>
<stop offset="0.1692" stop-color="#FFEB47"/>
<stop offset="0.2915" stop-color="white"/>
<stop offset="0.4111" stop-color="#FFEB47"/>
<stop offset="0.6027" stop-color="#D2A91D" stop-opacity="0.0235507"/>
<stop offset="0.7538" stop-color="#FFEB47"/>
<stop offset="0.8477" stop-color="white"/>
<stop offset="0.93" stop-color="#FFEB47"/>
<stop offset="1" stop-color="#D2A91D" stop-opacity="0.0235507"/>
</linearGradient>
<linearGradient id="paint6_linear_577:10778" x1="183.718" y1="171.425" x2="374.48" y2="378.048" gradientUnits="userSpaceOnUse">
<stop stop-color="#D2A91D" stop-opacity="0.0235507"/>
<stop offset="0.1692" stop-color="#FFEB47"/>
<stop offset="0.2915" stop-color="white"/>
<stop offset="0.4111" stop-color="#FFEB47"/>
<stop offset="0.6027" stop-color="#D2A91D" stop-opacity="0.0235507"/>
<stop offset="0.7538" stop-color="#FFEB47"/>
<stop offset="0.8477" stop-color="white"/>
<stop offset="0.93" stop-color="#FFEB47"/>
<stop offset="1" stop-color="#D2A91D" stop-opacity="0.0235507"/>
</linearGradient>
<linearGradient id="paint7_linear_577:10778" x1="210.651" y1="232.542" x2="280.96" y2="280.278" gradientUnits="userSpaceOnUse">
<stop stop-color="#D2A91D" stop-opacity="0.0235507"/>
<stop offset="0.1692" stop-color="#FFEB47"/>
<stop offset="0.2915" stop-color="white"/>
<stop offset="0.4111" stop-color="#FFEB47"/>
<stop offset="0.6027" stop-color="#D2A91D" stop-opacity="0.0235507"/>
<stop offset="0.7538" stop-color="#FFEB47"/>
<stop offset="0.8477" stop-color="white"/>
<stop offset="0.93" stop-color="#FFEB47"/>
<stop offset="1" stop-color="#D2A91D" stop-opacity="0.0235507"/>
</linearGradient>
<linearGradient id="paint8_linear_577:10778" x1="203.069" y1="212.117" x2="298.214" y2="276.721" gradientUnits="userSpaceOnUse">
<stop stop-color="#D2A91D" stop-opacity="0.0235507"/>
<stop offset="0.1692" stop-color="#FFEB47"/>
<stop offset="0.2915" stop-color="white"/>
<stop offset="0.4111" stop-color="#FFEB47"/>
<stop offset="0.6027" stop-color="#D2A91D" stop-opacity="0.0235507"/>
<stop offset="0.7538" stop-color="#FFEB47"/>
<stop offset="0.8477" stop-color="white"/>
<stop offset="0.93" stop-color="#FFEB47"/>
<stop offset="1" stop-color="#D2A91D" stop-opacity="0.0235507"/>
</linearGradient>
</defs>
</svg>
