<svg width="220" height="210" viewBox="0 0 220 210" fill="none" xmlns="http://www.w3.org/2000/svg">
<path d="M157.236 144.135C157.539 143.738 157.938 143.312 158.241 142.915C179.372 116.647 187.658 83.2141 179.874 57.2531C178.14 51.5083 175.663 46.0783 172.306 41.2098L173.848 39.3169L161.228 29.2813C133.177 6.9935 85.0856 15.5494 51.1267 56.6845C16.0252 99.2874 18.0928 150.156 48.2047 172.378L58.9587 180.968L60.4043 179.103C90.946 191.12 131.481 175.354 157.236 144.135Z" fill="#B07320"/>
<path d="M138.952 34.6677L145.697 26.9324C145.697 26.9324 142.842 17.9715 114.266 20.5726C85.6903 23.1737 40.5926 55.8279 31.7049 103.257C22.8171 150.686 33.9913 131.09 39.825 109.892C45.6587 88.6934 105.858 83.9773 105.858 83.9773L153.847 79.0888L138.952 34.6677Z" fill="#CB9E16"/>
<path d="M157.113 144.066C158.585 142.297 159.908 140.362 161.353 138.497C162.702 136.659 163.997 134.628 165.25 132.817C166.449 130.814 167.647 128.81 168.75 126.834L170.376 123.774C170.927 122.786 171.451 121.702 171.879 120.645C175.739 112.272 178.639 103.445 180.221 94.3684C181.803 85.2916 181.998 76.0888 180.695 67.1031C180.259 64.8359 179.947 62.6375 179.319 60.4249C179.019 59.3667 178.787 58.185 178.391 57.1541C178.09 56.0959 177.667 54.9688 177.27 53.9379C175.656 49.7181 173.658 45.6075 171.041 41.8805L170.507 41.0966L171.14 40.3972L172.682 38.5043L172.885 40.3178L160.334 30.1586L162.051 29.9831L161.28 30.9295L160.334 30.1586C152.241 23.6198 142.262 19.5915 131.866 18.4881C121.442 17.2886 110.781 18.5474 100.789 21.7991C90.7969 25.0508 81.3512 30.2265 72.9611 36.5579C64.4748 42.9166 57.0442 50.431 50.56 58.7163C47.2698 62.8725 44.3502 67.2355 41.6775 71.7363C39.0048 76.237 36.5792 80.8756 34.524 85.7208C30.4137 95.4113 27.7036 105.64 26.9161 116.051C26.1287 126.461 27.264 137.054 30.9421 146.716C34.6202 156.379 40.91 164.989 49.1134 171.185L50.4303 172.162L49.4255 173.383L49.2096 171.157L59.9636 179.748L57.8342 179.936L59.2798 178.071L59.9817 177.248L61.0387 177.675C69.3433 180.932 78.3382 182.225 87.3226 181.65C96.307 181.075 105.198 179.071 113.61 175.748C122.022 172.425 130.011 167.975 137.341 162.672C141.041 159.958 144.494 157.107 147.865 153.968C151.139 150.855 154.263 147.578 157.113 144.066ZM157.36 144.204C154.414 147.743 151.317 151.116 148.043 154.229C144.795 157.437 141.274 160.412 137.698 163.194C130.449 168.786 122.57 173.621 114.143 177.26C105.716 180.899 96.6737 183.466 87.4007 184.122C78.155 184.875 68.6102 183.842 59.9351 180.379L61.5704 179.915L60.1249 181.781L59.2162 182.974L58.0228 182.066L47.2687 173.475L46.048 172.471L47.0528 171.25L47.3649 173.448C38.5714 167.004 31.898 157.776 28.1796 147.604C24.4612 137.433 23.3129 126.429 24.2108 115.675C25.1087 104.921 28.0529 94.4182 32.4517 84.6458C34.6031 79.7732 37.1939 74.9839 39.99 70.552C42.8551 65.9966 45.9945 61.6753 49.4082 57.5879C52.8219 53.5005 56.3591 49.482 60.2252 45.8899C64.064 42.2016 68.1771 38.7473 72.4957 35.6505C81.0782 29.2645 90.5785 24.2812 100.639 20.906C110.7 17.5308 121.472 15.9288 132.253 16.9229C142.91 17.8481 153.467 21.7127 162.095 28.3073L160.378 28.4829L161.149 27.5365L162.095 28.3073L174.811 38.3157L175.854 39.0593L175.014 40.1292L173.472 42.0221L173.544 40.4426C176.215 44.362 178.364 48.6377 180.032 53.0499C180.456 54.177 180.784 55.3314 181.181 56.3623C181.508 57.5167 181.74 58.6984 182.04 59.7566C182.695 62.0654 182.938 64.3873 183.374 66.6545C184.566 75.9834 183.945 85.5151 182.048 94.5776C180.054 103.667 176.838 112.48 172.661 120.838C168.416 129.32 163.224 137.03 157.36 144.204Z" fill="#752714"/>
<path d="M144.684 95.5151L108.261 60.9463L107.051 61.8096L85.223 78.2959L103.29 99.4673L74.5281 122.288L92.2946 134.709L93.4607 135.521L112.415 112.574L113.42 111.353L117.327 115.961L118.054 116.691L144.684 95.5151Z" fill="#428A7A"/>
<path d="M159.025 110.884L142.69 128.41L141.44 128.037L135.495 126.501L153.679 104.501L148.002 99.1474L146.984 99.956L98.6324 139.459L114.286 150.296L115.329 151.04L129.466 133.826L130.402 132.729L134.378 137.214L119.074 153.615L124.384 157.306L125.029 157.746L172.604 122.102L159.919 110.006L159.025 110.884Z" fill="#428A7A"/>
<path d="M73.3301 68.9895C38.3937 111.442 42.3281 163.027 75.9226 181.039C103.987 196.047 143.873 182.023 169.516 151.876C190.647 125.609 198.933 92.1758 191.149 66.2148C189.208 60.8406 186.525 55.781 182.934 51.1869C159.319 21.091 108.267 26.5374 73.3301 68.9895ZM113.42 111.353L112.415 112.574L93.5569 135.494L92.3908 134.681L74.5281 122.288L103.29 99.4673L85.223 78.2959L107.051 61.8095L108.261 60.9463L144.78 95.4877L118.054 116.691L117.396 115.838L113.42 111.353ZM148.002 99.1471L153.583 104.528L135.399 126.529L141.344 128.064L142.566 128.341L158.929 110.911L159.823 110.033L172.508 122.129L124.932 157.774L124.26 157.237L118.951 153.546L134.254 137.145L130.278 132.66L129.37 133.853L115.205 150.971L114.163 150.227L98.5088 139.39L146.86 99.8869L148.002 99.1471Z" fill="#FFEB47"/>
<path d="M76.0188 181.012C42.3282 163.027 38.3664 111.345 73.4263 68.9623C108.363 26.5102 159.416 21.0639 183.057 51.2559C186.621 55.7538 189.332 60.9096 191.273 66.2838C189.211 59.3847 186.049 53.0056 181.622 47.2974C155.883 14.4781 100.311 19.7517 62.5256 65.7152C24.7396 111.679 29.986 167.154 67.1503 186.024C98.0016 201.696 141.476 186.03 168.635 153.166C168.938 152.768 169.337 152.343 169.64 151.945C143.997 182.092 103.987 196.047 76.0188 181.012Z" fill="#CB9E16"/>
<path opacity="0.81" d="M169.464 151.914C190.6 125.631 198.897 92.1861 191.125 66.2219C189.066 59.3219 185.907 52.9426 181.483 47.2349C155.887 14.4874 100.327 19.7865 62.5333 65.778C24.7395 111.769 29.9633 167.257 67.1111 186.115C97.9487 201.777 141.418 186.089 168.583 153.205C168.858 152.71 169.161 152.312 169.464 151.914Z" fill="url(#paint0_linear_577:10824)"/>
<path d="M109.819 112.583L91.8969 134.406L92.2947 134.709L93.4608 135.521L112.182 112.848L110.824 111.362L109.819 112.583Z" fill="#B07320"/>
<path d="M107.051 61.8096L106.79 61.9877L142.349 95.3461L116.998 115.535L117.327 115.961L118.054 116.691L144.684 95.5151L108.261 60.9463L107.051 61.8096Z" fill="#B07320"/>
<path d="M127.117 133.973L113.889 149.994L114.286 150.296L115.329 151.04L129.232 134.1L128.026 132.779L127.117 133.973Z" fill="#B07320"/>
<path d="M153.679 104.501L148.002 99.1473L146.984 99.956L146.819 100.107L151.372 104.428L133.119 126.552L139.187 128.156L140.409 128.433L140.877 127.884L135.495 126.501L153.679 104.501Z" fill="#B07320"/>
<path d="M159.919 110.006L159.025 110.883L158.86 111.034L170.544 122.167L123.986 157.003L124.384 157.306L125.029 157.746L172.604 122.102L159.919 110.006Z" fill="#B07320"/>
<path d="M113.42 111.353L116.998 115.535L142.349 95.346L106.79 61.9876L85.2231 78.2958L103.29 99.4672L74.5282 122.287L91.8968 134.406L109.819 112.583L110.824 111.362L112.182 112.848L112.416 112.574L113.42 111.353Z" fill="#CB9E16"/>
<path d="M158.86 111.034L142.69 128.409L141.44 128.036L140.877 127.884L140.409 128.433L139.187 128.156L133.119 126.552L151.372 104.428L146.819 100.107L98.6324 139.459L113.888 149.993L127.117 133.973L128.026 132.779L129.232 134.1L129.466 133.826L130.402 132.729L134.378 137.213L119.074 153.615L123.986 157.003L170.544 122.167L158.86 111.034Z" fill="#CB9E16"/>
<g opacity="0.66">
<path opacity="0.66" d="M106.79 61.9876L85.2232 78.2958L103.29 99.4672L74.5283 122.287L91.897 134.406L109.819 112.583L110.824 111.362L112.182 112.848L112.416 112.574L113.42 111.353L116.998 115.535L142.349 95.346L106.79 61.9876Z" fill="url(#paint1_linear_577:10824)"/>
<path opacity="0.66" d="M158.86 111.034L142.69 128.409L141.44 128.036L140.877 127.884L140.409 128.433L139.187 128.156L133.119 126.552L151.372 104.428L146.819 100.107L98.6325 139.459L113.889 149.993L127.117 133.973L128.026 132.779L129.232 134.1L129.466 133.826L130.402 132.729L134.378 137.213L119.075 153.615L123.986 157.003L170.544 122.167L158.86 111.034Z" fill="url(#paint2_linear_577:10824)"/>
</g>
<path d="M113.308 113.153L117.256 117.542L117.736 118.134L118.492 117.503C123.059 113.816 127.571 109.937 132.042 106.277L144.78 95.4888L128.381 78.7296C122.293 72.6614 115.903 66.2629 109.005 59.9048L108.429 59.3406L107.673 59.9711C103.931 62.9041 100.094 65.8644 96.3524 68.7974L84.8943 77.8706L84.3028 78.3503L84.7553 78.8456C88.0731 82.4777 91.1711 86.0683 94.1457 89.5899L98.5321 94.7898C99.8205 96.3992 101.178 97.8851 102.466 99.4944L88.5603 110.198C83.6775 113.871 78.7532 117.763 73.8978 121.532L72.5224 122.546L73.6886 123.359L92.6485 136.688L93.5676 137.363L94.4763 136.17C97.7938 132.109 101.139 128.146 104.36 124.113C107.375 120.451 110.293 116.816 113.308 113.153ZM89.4235 111.408L103.496 99.8259L103.991 99.3735L103.662 98.9471C102.154 97.2961 100.742 95.6179 99.3303 93.9396L94.8477 88.767C91.9004 85.3415 89.0493 81.8888 86.1437 78.2437L97.2702 70.2C100.901 67.6103 104.436 65.0478 108.039 62.3618C114.347 68.4717 120.615 74.0732 126.732 79.5097L144.726 95.2964L131.123 105.602C126.831 108.795 122.636 111.961 118.469 115.223L114.48 110.326L113.726 109.5L112.694 110.625C109.253 114.616 105.935 118.676 102.591 122.64C99.5759 126.302 96.5613 129.964 93.5467 133.627L76.4381 122.059C80.8398 118.522 85.1453 115.013 89.4235 111.408Z" fill="#B07320"/>
<path d="M172.838 121.829L166.681 115.884L160.291 109.486L159.99 109.155L159.591 109.58C153.976 115.436 148.265 121.319 142.678 127.27L137.269 125.791L154.406 105.231L155.246 104.161L154.519 103.432L148.938 98.051L148.362 97.4868L147.509 98.1446L135.445 108.014C131.401 111.344 127.261 114.702 123.244 118.129C115.018 125.038 106.819 132.043 98.4273 139.102L97.932 139.555L98.3298 139.858C101.129 141.662 103.804 143.397 106.507 145.229C109.183 146.964 111.666 148.754 114.218 150.421L115.26 151.164L115.384 151.233L115.453 151.11C118.027 148.092 120.477 145.006 123.051 141.989C125.46 139.122 127.965 136.228 130.374 133.361L133.704 137.406L126.301 145.016C123.742 147.718 121.086 150.447 118.526 153.148L117.632 154.026L118.4 154.535C120.458 155.926 122.42 157.344 124.382 158.763L124.876 159.038L125.467 158.559C133.596 152.405 141.628 146.279 149.537 140.084C153.471 137.097 157.378 134.013 161.215 131.053C165.053 128.092 168.918 125.228 172.782 122.364L173.209 122.035L172.838 121.829ZM160.955 130.503C156.994 133.394 153.033 136.286 149.072 139.177C141.246 144.933 133.297 150.619 125.333 156.622C123.769 155.506 122.109 154.418 120.545 153.303C122.774 150.903 125.073 148.379 127.302 145.98L134.83 137.71L135.298 137.161L134.997 136.831L130.856 132.497L130.554 132.167L130.251 132.565C127.801 135.651 125.351 138.737 122.804 141.851C120.354 144.937 117.876 147.927 115.398 150.917L114.479 150.243C111.996 148.453 109.417 146.69 106.933 144.9C104.45 143.11 102.063 141.293 99.5531 139.406C107.861 132.786 116.224 126.359 124.367 119.89C128.535 116.628 132.579 113.297 136.623 109.966L147.862 100.851L152.236 104.911L135.043 126.007L133.969 127.351L135.191 127.628L142.427 129.317L142.99 129.469L143.458 128.92C149.018 122.872 154.482 116.852 160.042 110.804L166.364 116.598L172.316 122.185C168.424 124.953 164.724 127.666 160.955 130.503Z" fill="#B07320"/>
<path d="M168.484 153.001C175.119 144.881 180.657 135.825 184.767 126.134C186.726 121.316 188.534 116.333 189.807 111.294C190.553 108.796 190.956 106.187 191.482 103.646C191.732 102.328 191.885 101.037 192.039 99.7462L192.317 97.7962C192.345 97.1644 192.47 96.5053 192.499 95.8735C193.112 90.7098 192.97 85.4486 192.54 80.2694L192.079 76.4499L191.399 72.5889C191.237 71.2837 190.785 70.0604 190.527 68.7825C190.172 67.5319 189.913 66.254 189.462 65.0307C187.85 60.0829 185.591 55.4224 182.81 51.1181C179.933 46.8412 176.534 42.9204 172.597 39.6718C164.766 32.9549 154.855 28.8031 144.597 27.4527C139.406 26.7431 134.186 26.6653 129.007 27.0958C123.855 27.6225 118.647 28.6848 113.645 30.1046C103.598 33.1639 94.2216 38.2161 85.7496 44.2589C81.5273 47.3284 77.5104 50.7554 73.7404 54.3202C69.9978 57.9812 66.5295 61.8762 63.212 65.9362C60.018 70.0652 56.9475 74.2631 54.1514 78.6949C51.4514 83.0995 48.9295 87.7654 46.8471 92.5144C44.7646 97.2634 42.9292 102.15 41.5605 107.216C40.1644 112.187 39.1389 117.363 38.6217 122.5C37.5872 132.772 38.4067 143.351 41.5764 153.054C43.1613 157.905 45.4197 162.566 48.2968 166.843C51.1739 171.12 54.5462 174.944 58.4828 178.193C62.4194 181.442 66.8239 184.142 71.5457 186.128C76.2674 188.114 81.3063 189.387 86.4011 190.123C96.6596 191.474 107.129 190.27 117.106 187.334C137.02 181.682 155.118 169.269 168.484 153.001ZM168.662 153.262C161.931 161.41 154.226 168.69 145.685 174.856C137.144 181.023 127.644 186.006 117.583 189.381C107.523 192.757 96.7234 194.262 85.9839 193.049C75.2717 191.931 64.8259 187.723 56.4315 180.854C48.037 173.985 41.9136 164.497 38.6761 154.189C35.3425 143.908 34.6336 132.987 35.8747 122.344C37.0197 111.728 40.3343 101.431 44.7605 91.7553C47.0354 86.9516 49.6808 82.3546 52.5731 77.8955C55.4655 73.4363 58.7284 69.1838 62.0459 65.1238C65.4869 61.1326 69.1476 57.183 73.0137 53.5909C76.8798 49.9988 81.0203 46.6407 85.3388 43.5439C89.6573 40.4471 94.1813 37.7078 98.9107 35.326C103.64 32.9442 108.548 30.8237 113.523 29.3077C123.638 26.1249 134.341 24.6464 144.984 25.8875C155.6 27.0324 165.991 31.0478 174.359 37.8206C182.726 44.5933 188.918 53.9584 192.155 64.2662C195.393 74.5739 195.978 85.4264 194.614 96.0008C194.489 96.6599 194.46 97.2917 194.336 97.9508L193.961 99.9282C193.712 101.246 193.558 102.537 193.213 103.883C192.59 106.45 192.091 109.087 191.249 111.613C189.784 116.706 187.852 121.62 185.673 126.397C184.488 128.812 183.398 131.2 182.062 133.451C181.442 134.562 180.849 135.77 180.133 136.909L178.08 140.298C177.364 141.437 176.648 142.576 175.904 143.619L173.701 146.843C171.925 149.01 170.369 151.219 168.662 153.262Z" fill="#752714"/>
<path d="M85.9266 43.7934L80.1064 35.3633L87.4398 42.5317L85.9266 43.7934Z" fill="#752714"/>
<path d="M101.56 20.8544L107.849 28.0074L100.927 21.5541L101.56 20.8544Z" fill="#752714"/>
<path d="M131.126 17.3485L137.388 24.4054L130.466 17.9521L131.126 17.3485Z" fill="#752714"/>
<path d="M116.239 29.3688L109.457 21.9403L116.872 28.6691L116.239 29.3688Z" fill="#752714"/>
<path d="M31.1514 90.3192L38.7029 97.5287L30.5182 91.0191L31.1514 90.3192Z" fill="#752714"/>
<path d="M32.7084 87.3811L36.6958 91.5494L32.1024 88.1771L32.7084 87.3811Z" fill="#752714"/>
<path d="M36.469 125.918L27.7672 116.852L37.1022 125.218L36.469 125.918Z" fill="#752714"/>
<path d="M25.7089 130.842L37.1195 141.013" stroke="#752714" stroke-width="0.966" stroke-miterlimit="10"/>
<path d="M38.0713 146.564L26.3461 135.651" stroke="#752714" stroke-width="0.966" stroke-miterlimit="10"/>
<defs>
<linearGradient id="paint0_linear_577:10824" x1="80.5632" y1="-26.3362" x2="169.017" y2="316.893" gradientUnits="userSpaceOnUse">
<stop stop-color="#D2A91D" stop-opacity="0.0235507"/>
<stop offset="0.1692" stop-color="#FFEB47"/>
<stop offset="0.2915" stop-color="white"/>
<stop offset="0.4111" stop-color="#FFEB47"/>
<stop offset="0.6027" stop-color="#D2A91D" stop-opacity="0.0235507"/>
<stop offset="0.7538" stop-color="#FFEB47"/>
<stop offset="0.8477" stop-color="white"/>
<stop offset="0.93" stop-color="#FFEB47"/>
<stop offset="1" stop-color="#D2A91D" stop-opacity="0.0235507"/>
</linearGradient>
<linearGradient id="paint1_linear_577:10824" x1="82.5302" y1="59.0185" x2="151.138" y2="190.707" gradientUnits="userSpaceOnUse">
<stop stop-color="#D2A91D" stop-opacity="0.0235507"/>
<stop offset="0.1692" stop-color="#FFEB47"/>
<stop offset="0.2915" stop-color="white"/>
<stop offset="0.4111" stop-color="#FFEB47"/>
<stop offset="0.6027" stop-color="#D2A91D" stop-opacity="0.0235507"/>
<stop offset="0.7538" stop-color="#FFEB47"/>
<stop offset="0.8477" stop-color="white"/>
<stop offset="0.93" stop-color="#FFEB47"/>
<stop offset="1" stop-color="#D2A91D" stop-opacity="0.0235507"/>
</linearGradient>
<linearGradient id="paint2_linear_577:10824" x1="95.6979" y1="55.9253" x2="155.163" y2="170.066" gradientUnits="userSpaceOnUse">
<stop stop-color="#D2A91D" stop-opacity="0.0235507"/>
<stop offset="0.1692" stop-color="#FFEB47"/>
<stop offset="0.2915" stop-color="white"/>
<stop offset="0.4111" stop-color="#FFEB47"/>
<stop offset="0.6027" stop-color="#D2A91D" stop-opacity="0.0235507"/>
<stop offset="0.7538" stop-color="#FFEB47"/>
<stop offset="0.8477" stop-color="white"/>
<stop offset="0.93" stop-color="#FFEB47"/>
<stop offset="1" stop-color="#D2A91D" stop-opacity="0.0235507"/>
</linearGradient>
</defs>
</svg>
