<svg width="834" height="140" viewBox="0 0 834 140" fill="none" xmlns="http://www.w3.org/2000/svg">
<path opacity="0.1" d="M104.439 30.8H51.4391L46.6391 57.8H98.6391L93.2391 88.6H41.2391L32.2391 140H0.239063L24.8391 -9.53674e-06H109.839L104.439 30.8ZM180.091 140L177.291 118H125.291L114.091 140H79.0906L151.291 -9.53674e-06H192.091L215.091 140H180.091ZM140.291 88H173.691L167.091 35L140.291 88ZM244.628 -9.53674e-06H276.628L252.028 140H220.028L244.628 -9.53674e-06ZM389.283 50C387.549 59.3333 383.816 67.4667 378.083 74.4C372.349 81.2 365.216 86.2667 356.683 89.6L377.083 140H344.683L326.483 94H309.083L301.083 140H269.083L293.683 -9.53674e-06H347.683C361.016 -9.53674e-06 371.883 5.06666 380.283 15.2C388.683 25.2 391.683 36.8 389.283 50ZM350.483 61C354.083 57.5333 356.349 53.2 357.283 48C358.216 42.8 357.283 38.5333 354.483 35.2C351.816 31.7333 347.816 30 342.483 30H320.483L314.083 66H338.083C342.883 66 347.016 64.3333 350.483 61ZM460.33 -9.53674e-06C474.73 -9.53674e-06 485.93 4.79999 493.93 14.4C501.93 23.8667 504.93 35.7333 502.93 50C500.93 63.7333 494.796 74.8667 484.53 83.4C474.396 91.8 461.396 96 445.53 96H424.93L417.13 140H385.13L409.73 -9.53674e-06H460.33ZM470.93 48C471.996 42.5333 471.196 38.2 468.53 35C465.996 31.6667 461.53 30 455.13 30H436.53L430.13 66H448.73C454.73 66 459.663 64.4 463.53 61.2C467.396 58 469.863 53.6 470.93 48ZM533.498 109.2H583.498L578.098 140H496.098L501.498 109.2L520.698 -9.53674e-06H552.698L533.498 109.2ZM678.098 140L675.298 118H623.298L612.098 140H577.098L649.298 -9.53674e-06H690.098L713.098 140H678.098ZM638.298 88H671.698L665.098 35L638.298 88ZM833.691 -9.53674e-06L774.891 78.8L764.091 140H732.091L742.891 78.6L711.691 -9.53674e-06H746.291L762.691 47.2L795.491 -9.53674e-06H833.691Z" fill="white"/>
</svg>
