<svg width="96" height="172" viewBox="0 0 96 172" fill="none" xmlns="http://www.w3.org/2000/svg">
<path d="M25.2941 45.1295C25.2867 45.6394 25.3594 46.0327 25.3519 46.5426C23.3092 45.3948 21.6268 45.0957 20.4212 45.7254C14.018 49.0448 21.2428 75.4717 36.5443 104.88C51.8276 134.19 69.3676 155.354 75.6724 152.052C76.5029 151.594 77.0822 150.877 77.4722 149.686C78.9613 151.139 80.2974 152.316 81.5973 153.296C85.2819 156.174 88.3262 157.238 90.3804 156.248L79.0564 162.105C71.8227 165.883 51.9673 142.096 34.7586 108.973C17.55 75.8494 9.47392 45.9188 16.7076 42.1408L28.0316 36.2844C25.7807 37.3108 25.0296 40.3988 25.2941 45.1295Z" fill="#B07320"/>
<path d="M45.8678 103.055C51.5712 114.102 57.5846 124.075 63.3871 132.358C68.3816 139.57 73.1397 145.504 77.3738 149.704C76.9656 150.797 76.4046 151.612 75.5741 152.071C69.1709 155.39 51.6491 134.325 36.4459 104.898C21.1626 75.5883 14.018 49.0449 20.3228 45.7436C21.5285 45.114 23.3092 45.3949 25.2536 46.5608C25.8271 52.9633 28.1698 61.7843 31.8851 71.9788C35.455 81.3866 40.1825 92.1057 45.8678 103.055Z" fill="#CB9E16"/>
<path d="M72.2311 89.4346C55.0224 56.3111 35.167 32.5245 27.9333 36.3025C25.8972 37.3908 25.0478 40.497 25.2941 45.1295C25.3883 46.7391 25.6354 48.6257 25.9007 50.6105C26.875 56.4304 28.945 63.7765 32.0017 72.0588C35.4732 81.4847 40.2007 92.2039 45.886 103.153C51.5895 114.2 57.6028 124.173 63.4054 132.456C69.6302 141.373 75.5097 148.422 80.4322 152.494C80.7999 152.833 81.1494 153.074 81.5171 153.413C85.2018 156.291 88.246 157.355 90.3003 156.365C97.5158 152.489 89.4397 122.558 72.2311 89.4346Z" fill="#FFEB47"/>
<path d="M31.8609 42.6951C25.0023 46.3021 32.6528 74.4808 48.9079 105.747C64.9919 136.637 83.4383 158.854 90.4423 156.034C95.8878 152.484 91.7419 132.81 81.0787 108.138C78.8368 103.162 76.3619 98.0268 73.6721 92.8292C57.4171 61.5634 38.7194 39.0881 31.8609 42.6951ZM53.331 86.2171L53.1526 86.3518L48.9821 88.5465L48.3524 87.3409L39.3477 69.9888L47.3004 73.3999L37.3825 52.759L43.1685 55.4519L43.4999 55.5941L64.6032 96.0313L56.4794 92.2451L56.0026 91.3163L53.331 86.2171ZM66.674 100.632L70.4702 107.964L66.1031 110.195L69.3209 115.498L70.0307 116.587L74.5284 116.162L74.7251 116.126L84.3595 134.684L67.4245 124.493L66.9477 123.564L63.6101 117.062L67.8128 116.692L64.8793 110.726L64.7008 110.861L61.3608 112.597L60.7311 111.391L51.7264 94.0392L66.4228 100.373L66.674 100.632Z" fill="#FFEB47"/>
<path d="M48.9078 105.747C32.6527 74.4807 24.9841 46.2037 31.8608 42.695C38.7194 39.088 57.417 61.5633 73.6903 92.9274C76.3801 98.125 78.855 103.261 81.0969 108.236C78.4583 102.215 75.4702 95.9543 72.1326 89.4527C54.9239 56.3293 35.0686 32.5426 27.8349 36.3207C20.6012 40.0988 28.6772 70.0293 45.8859 103.153C63.0946 136.276 82.9499 160.063 90.1836 156.285C90.282 156.267 90.3621 156.15 90.4605 156.132C83.4383 158.854 64.9919 136.637 48.9078 105.747Z" fill="#CB9E16"/>
<path opacity="0.81" d="M90.4424 156.034C95.8879 152.485 91.742 132.81 81.0788 108.138C78.4403 102.117 75.4522 95.8561 72.1146 89.3546C54.9059 56.2311 35.0505 32.4445 27.8168 36.2226C20.5831 40.0006 28.6591 69.9312 45.8678 103.055C63.0765 136.178 82.9319 159.965 90.1656 156.187C90.2639 156.168 90.3623 156.15 90.4424 156.034Z" fill="url(#paint0_linear_577:10703)"/>
<path d="M51.9405 84.7461L47.9667 86.9045L48.2543 87.3598L48.8839 88.5654L53.0544 86.3706L52.2355 84.6915L51.9405 84.7461Z" fill="#B07320"/>
<path d="M43.0702 55.4706L42.9719 55.4888L63.3108 94.5419L55.635 90.978L55.806 91.3532L56.2828 92.282L64.4065 96.0682L43.4016 55.6127L43.0702 55.4706Z" fill="#B07320"/>
<path d="M63.6051 109.335L60.4617 111.035L60.7493 111.49L61.379 112.696L64.719 110.96L63.9001 109.28L63.6051 109.335Z" fill="#B07320"/>
<path d="M70.4702 107.964L66.674 100.632L66.3426 100.49L66.3245 100.391L69.3563 106.339L65.1057 108.651L68.3053 113.856L69.0151 114.945L69.1316 115.025L66.2014 110.177L70.4702 107.964Z" fill="#B07320"/>
<path d="M74.8236 116.108L74.6269 116.145L74.5286 116.163L83.3622 133.14L66.7768 123.189L67.0643 123.644L67.523 124.475L84.4579 134.666L74.8236 116.108Z" fill="#B07320"/>
<path d="M53.3311 86.2174L55.635 90.9778L63.3108 94.5418L42.9719 55.4886L37.1859 52.7956L47.1038 73.4365L39.2494 70.0073L47.9666 86.9041L51.9404 84.7457L52.2354 84.6911L53.0543 86.3702L53.3311 86.2174Z" fill="#CB9E16"/>
<path d="M74.5285 116.163L70.1291 116.569L69.4193 115.48L69.1317 115.025L69.0152 114.945L68.3054 113.856L65.1057 108.65L69.3564 106.339L66.3245 100.391L51.7446 94.1377L60.4618 111.034L63.6052 109.335L63.9001 109.28L64.7191 110.959L64.9959 110.806L67.8311 116.791L63.7267 117.143L66.7767 123.189L83.3622 133.14L74.5285 116.163Z" fill="#CB9E16"/>
<g opacity="0.66">
<path opacity="0.66" d="M42.9768 55.4925L37.1866 52.7964L47.1264 73.4378L39.2665 70.0042L48.0018 86.9018L51.9749 84.7468L52.2699 84.6925L53.0906 86.3716L53.3673 86.219L55.6763 90.9796L63.3578 94.5477L42.9768 55.4925Z" fill="url(#paint1_linear_577:10703)"/>
<path opacity="0.66" d="M74.5285 116.163L70.1291 116.569L69.4193 115.48L69.1317 115.025L69.0152 114.945L68.3054 113.856L65.1057 108.65L69.3564 106.339L66.3245 100.391L51.7446 94.1377L60.4618 111.034L63.6052 109.335L63.9001 109.28L64.7191 110.959L64.9959 110.806L67.8311 116.791L63.7267 117.143L66.7767 123.189L83.3622 133.14L74.5285 116.163Z" fill="url(#paint2_linear_577:10703)"/>
</g>
<path d="M53.5461 87.2018L56.0259 92.3376L56.3505 92.9895L56.5654 93.0516C57.8917 93.6208 59.3163 94.1718 60.6243 94.6427L64.4683 96.1717L54.2288 76.0944C50.7318 69.3157 47.0999 62.3586 43.6029 55.5799L43.2966 55.0262L43.0816 54.9641C42.0869 54.5373 41.0922 54.1104 40.1158 53.7818L37.1499 52.5995L37.0333 52.5193L37.223 52.9928C38.8823 56.4494 40.5416 59.906 42.1826 63.2643L44.6624 68.4001C45.4646 69.9809 46.1685 71.5798 46.9525 73.0623L43.0355 71.1401C41.691 70.4726 40.3647 69.9035 39.0202 69.236L38.6886 69.0937L39.3012 70.201L48.9534 88.7596L49.4493 89.7867L49.6278 89.6522C50.378 89.3106 51.11 88.8707 51.8419 88.4309C52.2606 87.947 52.9125 87.6236 53.5461 87.2018ZM43.4697 72.382L47.2953 73.8126L47.412 73.8928L47.2406 73.5177C46.42 71.8385 45.5813 70.0611 44.7608 68.3819L42.281 63.2462C40.6582 59.9862 39.1338 56.7081 37.6094 53.4301L40.6483 55.0056C41.6613 55.5308 42.5759 56.0741 43.5706 56.501C46.8962 62.9045 50.2218 69.308 53.664 75.7917L64.4683 96.1717L60.1832 93.9105C58.8386 93.243 57.5742 92.4591 56.2479 91.8899L53.615 86.4774L53.1373 85.5485L52.9588 85.6831C52.2086 86.0246 51.4584 86.3662 50.7081 86.7077C50.0563 87.0312 49.306 87.3727 48.6541 87.6962L39.9573 70.9953C41.1487 71.386 42.3584 71.8749 43.4697 72.382Z" fill="#B07320"/>
<path d="M84.5564 134.647L79.7883 125.359L75.0203 116.071L74.8311 115.598L74.7327 115.616C73.123 115.71 71.5935 115.688 69.9838 115.782L66.9371 110.854L71.0456 108.874L71.224 108.739L70.7291 107.712L66.9328 100.38L66.5907 99.6298L66.3577 99.4694L62.6144 97.9242C61.4054 97.4359 60.1783 96.8492 58.8711 96.379C56.4532 95.4023 54.0717 94.6223 51.6538 93.6456L51.5374 93.5654L51.7266 94.0389C53.2735 96.9055 54.7221 99.7902 56.269 102.657C57.8159 105.523 59.2645 108.408 60.8114 111.274L61.4411 112.48L61.4593 112.578C62.0129 112.273 62.6649 111.949 63.3351 111.723C63.8887 111.417 64.5589 111.192 65.1307 110.984L67.6056 116.12L65.5662 116.09C64.8597 116.119 64.1532 116.148 63.4466 116.177L63.25 116.213L63.7086 117.044C64.968 119.455 66.2455 121.965 67.5048 124.376L67.8106 124.93L68.0436 125.09C70.902 126.799 73.6256 128.329 76.4475 129.841C77.8093 130.606 79.1711 131.372 80.6494 132.217C82.0112 132.982 83.4895 133.827 84.8695 134.691L84.986 134.771L84.5564 134.647ZM80.0668 131.816C78.6869 130.953 77.1904 130.009 75.6939 129.065C72.9157 127.24 70.0392 125.433 67.2975 123.804C66.3257 121.848 65.2556 119.91 64.1673 117.874C64.7573 117.765 65.3472 117.656 65.9554 117.645L67.9221 117.282L68.0204 117.264L67.8312 116.79L64.8977 110.824L64.7266 110.449L64.6283 110.467C64.0928 110.871 63.5574 111.275 62.9054 111.599C62.3517 111.905 61.6998 112.229 61.1643 112.633L60.5528 111.526C59.1042 108.641 57.5573 105.774 56.0905 102.791C54.6601 100.005 53.2479 97.317 51.8175 94.5306C54.37 95.6858 56.8606 97.0558 59.4132 98.211C60.6403 98.7977 61.9657 99.3662 63.1928 99.9529L66.7213 101.436L69.6986 107.089L65.6447 109.364L65.3678 109.517L65.9793 110.624L69.9069 117.017L70.1945 117.472L70.2928 117.454C71.786 117.279 73.261 117.007 74.736 116.734L79.3148 125.548L83.8936 134.363C82.8268 133.543 81.4468 132.68 80.0668 131.816Z" fill="#B07320"/>
<path d="M81.4188 153.431C79.267 151.693 77.1772 149.74 75.2841 147.751C73.3909 145.762 71.5779 143.657 69.7467 141.453C66.2009 137.126 62.9319 132.645 59.743 128.048C53.4636 118.837 47.818 109.202 42.8244 99.2443C37.8308 89.2862 33.5693 78.8876 30.0945 68.3436C28.4062 63.0625 26.8965 57.6468 25.78 52.1583C25.271 49.4049 24.8603 46.6334 24.8429 43.7892C24.785 42.3762 24.9239 40.9268 25.2775 39.5393C25.4453 38.7965 25.7295 38.1338 26.1303 37.5512C26.5129 36.8703 27.0301 36.3679 27.7623 35.9274L28.0862 36.5794C24.9428 38.2792 21.8796 39.8625 18.7181 41.4639L17.5125 42.0936C17.1373 42.2647 16.682 42.5522 16.4052 42.7051C15.7714 43.1274 15.2905 43.8265 15.0244 44.5875C14.394 46.1278 14.3097 47.8722 14.3237 49.5984C14.4502 53.0326 15.0865 56.4743 15.8212 59.8978C16.6541 63.3031 17.5854 66.6903 18.6952 69.9427C23.0906 83.2656 28.9065 96.0209 35.3743 108.452C41.8421 120.883 49.0602 132.973 57.3311 144.155C59.3697 146.931 61.605 149.67 63.822 152.311C66.1374 154.934 68.533 157.44 71.3657 159.561C72.7639 160.522 74.2604 161.466 75.8626 161.882C76.6237 162.148 77.5269 162.082 78.197 161.857C78.5903 161.784 78.9473 161.515 79.3225 161.344L80.5281 160.714C83.7078 159.211 86.8512 157.511 89.9326 156.026L90.0854 156.303C89.3351 156.645 88.4501 156.809 87.6089 156.659C86.7677 156.51 86.0066 156.244 85.2456 155.977C84.0003 155.292 82.7187 154.411 81.4188 153.431ZM81.5791 153.198C82.8789 154.178 84.1606 155.059 85.6026 155.708C86.3636 155.974 87.1247 156.24 87.8675 156.408C88.5922 156.477 89.4954 156.412 90.1474 156.088L90.3003 156.365C87.2552 158.047 84.0937 159.648 81.0487 161.33L79.8431 161.959C79.4679 162.13 79.1109 162.4 78.6374 162.589C77.7888 162.949 76.7691 162.934 75.8114 162.705C74.0125 162.325 72.4176 161.4 70.903 160.358C67.9901 158.354 65.3979 155.884 62.8858 153.298C60.4721 150.693 58.1567 148.071 56.0016 145.215C51.6112 139.62 47.6943 133.835 43.9377 127.818C40.1812 121.801 36.7998 115.612 33.5167 109.406C30.3138 103.083 27.3075 96.7233 24.4797 90.2291C21.652 83.735 19.2175 77.1681 17.1401 70.3319C16.1104 66.963 15.1791 63.5758 14.4263 60.054C13.6916 56.6305 13.1355 53.0723 13.1875 49.5034C13.2718 47.759 13.3379 45.9163 14.0303 44.1611C14.3765 43.2836 14.9376 42.468 15.7499 41.911C16.2052 41.6234 16.5804 41.4524 16.9555 41.2813L18.1611 40.6517C21.3227 39.0502 24.3859 37.4669 27.5474 35.8654L27.8713 36.5174C26.7641 37.1289 26.0791 38.3742 25.8056 39.6451C25.4337 40.9342 25.3932 42.3654 25.3346 43.6983C25.3338 46.4442 25.7445 49.2157 26.3519 51.9509C27.4501 57.341 29.1565 62.7204 31.0233 67.8668C34.7749 78.2579 39.4917 88.3689 44.387 98.3452C45.6645 100.855 46.9239 103.266 48.2014 105.776C49.4608 108.187 50.8366 110.678 52.1943 113.071C54.9279 117.956 57.6433 122.742 60.6355 127.375C63.6458 132.107 66.7182 136.623 70.0855 141.085C73.5512 145.529 77.1772 149.74 81.5791 153.198Z" fill="#752714"/>
<path d="M72.231 89.4348C66.7168 78.8611 60.649 68.5931 53.6705 58.9003C50.2304 54.0448 46.5135 49.3422 42.3595 45.0255C40.3317 42.858 38.1254 40.8252 35.7769 39.1238C34.5936 38.224 33.3301 37.4406 32.0228 36.9704C30.6974 36.4019 29.248 36.2631 28.1226 36.7763C27.0153 37.3878 26.4468 38.7132 26.0931 40.1006C25.8378 41.4699 25.7973 42.9011 25.775 44.4306C25.9089 47.355 26.4543 50.305 27.0799 53.1385C28.3492 58.9038 30.2085 64.5601 32.2644 70.18C34.3204 75.7998 36.5549 81.285 39.0661 86.6173C41.4973 92.0661 44.1069 97.3803 46.8148 102.676C49.5227 107.972 52.4092 113.133 55.4923 118.258C58.5754 123.383 61.7386 128.392 65.0803 133.265C68.5204 138.121 72.0407 142.86 76.0162 147.311C78.044 149.479 80.152 151.53 82.4203 153.347C83.6036 154.247 84.7688 155.049 86.0942 155.617C87.4197 156.186 88.7889 156.441 90.0127 155.91C91.12 155.298 91.7868 153.955 92.1405 152.567C92.4941 151.18 92.5164 149.65 92.4586 148.237C92.423 145.295 91.9759 142.327 91.3504 139.493C90.1794 133.71 88.4986 127.919 86.541 122.281C82.6075 110.906 77.6469 100.027 72.231 89.4348ZM72.231 89.4348C74.939 94.7308 77.6469 100.027 80.0781 105.476C82.5092 110.924 84.842 116.391 86.8979 122.011C88.9539 127.631 90.8132 133.287 92.1007 139.151C92.7444 142.083 93.2898 145.033 93.3436 148.074C93.4196 149.585 93.3973 151.115 93.0618 152.6C92.9379 153.03 92.8941 153.343 92.7701 153.773C92.628 154.104 92.5041 154.534 92.2636 154.884C91.881 155.564 91.2836 156.183 90.5515 156.624C89.8193 157.064 88.9162 157.13 88.0931 157.078C87.2701 157.027 86.509 156.761 85.748 156.495C84.3242 155.945 83.0426 155.063 81.7609 154.181C79.2959 152.4 77.0714 150.269 75.0436 148.101C70.8896 143.784 67.1545 138.983 63.7144 134.128C56.7359 124.435 50.6499 114.069 45.1357 103.495C39.6033 92.8231 34.7411 81.9254 30.7275 70.6675C28.7698 65.0295 26.9907 59.2567 25.8015 53.3749C25.2561 50.4249 24.809 47.4567 24.7553 44.4158C24.7776 42.8862 24.7999 41.3567 25.1354 39.8709C25.3031 39.1281 25.5692 38.367 25.9518 37.6861C26.3344 37.0052 26.9136 36.2879 27.7622 35.9277C28.5126 35.5855 29.3976 35.4219 30.2388 35.5715C30.6503 35.5971 30.9816 35.7392 31.3932 35.7648C31.7245 35.907 32.1542 36.0309 32.4856 36.173C33.9275 36.8217 35.191 37.605 36.3925 38.6032C38.7591 40.403 40.8853 42.5522 42.9314 44.818C47.0052 49.2513 50.5254 53.9903 53.9837 58.9441C57.4237 63.7996 60.6052 68.9063 63.59 74.0494C66.5202 78.8975 69.4248 84.1571 72.231 89.4348Z" fill="#752714"/>
<path d="M25.5171 41.9358L14.2989 47.2641L25.0585 41.1053L25.5171 41.9358Z" fill="#752714"/>
<path d="M25.2653 44.4234L14.1272 49.6352L24.7885 43.4946L25.2653 44.4234Z" fill="#752714"/>
<path d="M17.4466 68.1401L28.7814 62.892L17.9235 69.0689L17.4466 68.1401Z" fill="#752714"/>
<path d="M32.271 72.4159L23.3475 76.4047L31.7942 71.4871L32.271 72.4159Z" fill="#752714"/>
<path d="M21.3728 80.0241L32.7877 74.6595L21.8496 80.9529L21.3728 80.0241Z" fill="#752714"/>
<path d="M51.4259 113.315L39.8144 118.716L50.9491 112.387L51.4259 113.315Z" fill="#752714"/>
<path d="M41.1357 120.913L48.1033 117.896L41.6125 121.842L41.1357 120.913Z" fill="#752714"/>
<path d="M49.879 110.449L41.8041 114.077L49.4022 109.52L49.879 110.449Z" fill="#752714"/>
<path d="M78.2623 150.659L68.2315 155.259L77.7855 149.73L78.2623 150.659Z" fill="#752714"/>
<path d="M79.6349 152.032L67.9249 157.451L79.158 151.103L79.6349 152.032Z" fill="#752714"/>
<path d="M69.6545 158.555L77.1758 155.233L70.1313 159.484L69.6545 158.555Z" fill="#752714"/>
<path d="M26.0923 18.6433L23.4041 7.95387L24.7156 18.8978C25.7436 27.7586 26.1238 35.3154 25.8272 40.8617C25.5381 45.8983 24.0366 49.3284 21.8039 50.453L8.27273 57.0225L22.9997 58.5709C25.4869 58.8229 28.1519 61.6862 30.2409 66.3847C32.8249 72.1103 35.4081 80.5819 37.7542 90.521L42.057 108.844L39.5241 90.1937C38.3722 81.7627 37.8135 74.3405 37.8407 68.4372C37.8464 61.3175 39.942 56.1504 43.0597 54.8622L53.1451 50.5569L40.6145 47.6871C37.5265 46.936 34.2864 43.1622 31.8991 37.4002C29.9704 32.4686 27.9656 26.0257 26.0923 18.6433Z" fill="white"/>
<defs>
<linearGradient id="paint0_linear_577:10703" x1="73.9286" y1="-2.65008" x2="35.9802" y2="247.983" gradientUnits="userSpaceOnUse">
<stop stop-color="#D2A91D" stop-opacity="0.0235507"/>
<stop offset="0.1692" stop-color="#FFEB47"/>
<stop offset="0.2915" stop-color="white"/>
<stop offset="0.4111" stop-color="#FFEB47"/>
<stop offset="0.6027" stop-color="#D2A91D" stop-opacity="0.0235507"/>
<stop offset="0.7538" stop-color="#FFEB47"/>
<stop offset="0.8477" stop-color="white"/>
<stop offset="0.93" stop-color="#FFEB47"/>
<stop offset="1" stop-color="#D2A91D" stop-opacity="0.0235507"/>
</linearGradient>
<linearGradient id="paint1_linear_577:10703" x1="47.6516" y1="41.4899" x2="56.4041" y2="154.075" gradientUnits="userSpaceOnUse">
<stop stop-color="#D2A91D" stop-opacity="0.0235507"/>
<stop offset="0.1692" stop-color="#FFEB47"/>
<stop offset="0.2915" stop-color="white"/>
<stop offset="0.4111" stop-color="#FFEB47"/>
<stop offset="0.6027" stop-color="#D2A91D" stop-opacity="0.0235507"/>
<stop offset="0.7538" stop-color="#FFEB47"/>
<stop offset="0.8477" stop-color="white"/>
<stop offset="0.93" stop-color="#FFEB47"/>
<stop offset="1" stop-color="#D2A91D" stop-opacity="0.0235507"/>
</linearGradient>
<linearGradient id="paint2_linear_577:10703" x1="60.7727" y1="28.3011" x2="71.1869" y2="161.018" gradientUnits="userSpaceOnUse">
<stop stop-color="#D2A91D" stop-opacity="0.0235507"/>
<stop offset="0.1692" stop-color="#FFEB47"/>
<stop offset="0.2915" stop-color="white"/>
<stop offset="0.4111" stop-color="#FFEB47"/>
<stop offset="0.6027" stop-color="#D2A91D" stop-opacity="0.0235507"/>
<stop offset="0.7538" stop-color="#FFEB47"/>
<stop offset="0.8477" stop-color="white"/>
<stop offset="0.93" stop-color="#FFEB47"/>
<stop offset="1" stop-color="#D2A91D" stop-opacity="0.0235507"/>
</linearGradient>
</defs>
</svg>
