<svg width="1263" height="1132" viewBox="0 0 1263 1132" fill="none" xmlns="http://www.w3.org/2000/svg">
<path d="M349.833 679.883C347.433 725.383 385.333 762.583 430.633 758.683L442.933 757.583C443.433 757.583 443.933 757.383 444.533 757.383C481.433 753.383 509.733 722.783 511.033 685.483C523.033 343.483 421.633 123.083 372.333 37.0832C357.933 11.9832 330.133 -2.21683 301.333 0.28317C282.333 1.98317 265.933 10.4832 254.033 22.9832C234.933 42.9832 227.233 73.0832 238.433 101.483C345.033 373.683 355.433 573.583 349.833 679.883Z" fill="#788BFF"/>
<path d="M792.633 679.883C790.233 725.383 828.133 762.583 873.433 758.683L885.733 757.583C886.233 757.583 886.733 757.383 887.333 757.383C924.233 753.383 952.533 722.783 953.833 685.483C965.833 343.483 864.433 123.083 815.133 37.0832C800.733 11.9832 772.933 -2.21683 744.133 0.28317C725.133 1.98317 708.733 10.4832 696.833 22.9832C677.733 42.9832 670.033 73.0832 681.233 101.483C787.933 373.683 798.333 573.583 792.633 679.883Z" fill="#788BFF"/>
<path d="M1262.13 528.283C1258.93 491.283 1229.93 461.983 1194.53 457.083C1189.53 456.383 1184.43 456.183 1179.23 456.483C1177.23 456.583 1175.23 456.783 1173.33 457.083C1168.23 457.783 1163.23 459.083 1158.53 460.783C1127.43 471.883 1106.63 502.683 1109.73 537.683C1112.53 569.983 1134.93 596.283 1164.13 605.783C1160.03 650.783 1150.43 695.083 1135.43 737.283C1112.83 800.783 1077.83 859.483 1033.13 909.283C988.433 959.083 934.633 1000.48 874.433 1029.78C814.333 1059.08 748.333 1076.98 680.833 1080.98C660.033 1082.38 639.133 1082.58 618.333 1081.48C571.633 1079.18 525.133 1070.78 480.333 1056.28C415.433 1035.48 354.533 1001.88 301.233 958.783C247.833 915.683 202.333 862.483 168.133 802.883C135.133 745.283 112.533 681.883 101.533 616.583C140.733 608.283 168.233 572.283 164.633 530.883C161.333 493.183 133.333 463.083 98.0333 455.383C90.7333 453.783 83.0333 453.083 75.2333 453.583C73.4333 453.683 71.6333 453.883 69.8333 454.183C67.6333 454.483 65.5333 454.883 63.3333 455.283C24.1333 463.583 -3.36673 499.583 0.333269 540.983C3.43327 576.983 29.1333 605.983 62.2333 615.283C79.9333 760.883 157.533 899.683 272.033 994.683C329.333 1042.48 395.933 1079.08 466.533 1102.28C516.733 1118.78 569.033 1128.28 621.533 1130.78C642.933 1131.78 664.333 1131.68 685.633 1130.28C833.033 1120.78 973.533 1050.78 1068.73 940.583C1148.93 848.783 1197.33 729.783 1204.93 607.483C1240.43 599.483 1265.43 566.283 1262.13 528.283Z" fill="#788BFF"/>
</svg>
