<svg width="97" height="104" viewBox="0 0 97 104" fill="none" xmlns="http://www.w3.org/2000/svg">
<path d="M6.49773 52.3118C-0.602267 83.2118 32.2977 102.212 48.6977 102.012C65.0977 101.912 56.5977 99.0118 56.5977 99.0118L53.5977 96.6118L84.3977 56.0118C80.6977 45.9118 72.9977 36.9118 63.3977 31.3118C61.6977 30.3118 59.7977 29.4118 57.9977 28.6118L48.5977 35.0118C48.5977 34.9118 13.5977 21.4118 6.49773 52.3118Z" fill="#CB9E16"/>
<path d="M74.9978 95.0118C76.3978 93.8118 77.6978 92.5118 78.8978 91.2118L78.9978 91.1118L83.0978 86.6118L82.5978 86.1118C84.3978 83.1118 85.5978 79.7118 86.3978 76.1118C87.7978 69.4118 86.9978 62.4118 84.5978 55.9118L53.7978 96.5118L56.7978 98.9118C56.7978 98.9118 65.2978 101.812 48.8978 101.912C32.4978 102.012 -0.402218 83.1118 6.69778 52.2118C13.7978 21.3118 48.7978 34.8118 48.7978 34.8118L58.1978 28.4118C45.2978 22.8118 29.9978 22.8118 18.3978 29.4118L17.3978 28.5118L11.6978 34.4118C11.0978 35.0118 10.4978 35.7118 9.89776 36.3118L9.79776 36.5118C-4.60224 52.9118 -0.902243 80.9118 25.2978 96.3118C25.6978 96.5118 25.9978 96.7118 26.3978 96.9118C44.3978 107.212 63.1978 104.812 74.9978 95.0118Z" fill="#B07320"/>
<path d="M74.9978 95.0116C76.3978 93.8116 77.6978 92.5116 78.7978 91.1116L82.8978 86.5115V86.7116L82.3978 86.2116L82.2978 86.1116L82.3978 86.0115C84.6978 82.0115 86.0978 77.5115 86.4978 72.9115C86.8978 68.3115 86.3978 63.7115 85.0978 59.3115C82.4978 50.5115 76.9978 42.6116 69.9978 36.7116C66.4978 33.8116 62.5978 31.3115 58.3978 29.4115C54.1978 27.5115 49.7978 26.3116 45.1978 25.6116C40.6978 25.0116 35.9978 24.9116 31.4978 25.7116C26.9978 26.4116 22.5978 27.9116 18.6978 30.2116L18.1978 30.5115L17.7978 30.2116L16.7978 29.3115H17.7978L10.1978 37.3115V36.2116L10.6978 36.7116L10.1978 37.2116C6.89781 41.0116 4.3978 45.6115 3.1978 50.5115C1.8978 55.4115 1.69781 60.6116 2.59781 65.6116C2.99781 68.1116 3.69781 70.6115 4.69781 72.9115C5.59781 75.3115 6.79781 77.5116 8.19781 79.7116C10.8978 84.0116 14.3978 87.8116 18.2978 91.1116C20.2978 92.7116 22.2978 94.2116 24.4978 95.6116C25.5978 96.3116 26.6978 96.9116 27.7978 97.5116L29.4978 98.4115C30.0978 98.7115 30.6978 98.9116 31.2978 99.2116C35.9978 101.312 40.9978 102.712 46.0978 103.212C51.1978 103.812 56.3978 103.412 61.3978 102.012C61.9978 101.912 62.5978 101.712 63.1978 101.412L64.9978 100.812L66.7978 100.012L67.6978 99.6116L68.5978 99.2116L70.2978 98.3115L71.8978 97.3115L72.6978 96.8115L73.4978 96.2116L74.9978 95.0116ZM74.9978 95.0116C70.9978 98.3116 66.3978 100.912 61.3978 102.312C56.3978 103.712 51.0978 104.312 45.9978 103.812C40.7978 103.312 35.6978 102.012 30.8978 99.9115C30.2978 99.6115 29.6978 99.4116 29.0978 99.1116L27.3978 98.2116C26.1978 97.6116 25.0978 97.0115 23.9978 96.3115C21.7978 95.0115 19.5978 93.5115 17.5978 91.8115C13.5978 88.5115 9.89781 84.7116 7.09781 80.2116C5.69781 78.0116 4.4978 75.6116 3.4978 73.2116C2.4978 70.8116 1.7978 68.2116 1.2978 65.6116C0.397802 60.4116 0.497802 55.0115 1.7978 49.9115C3.0978 44.8115 5.59781 40.0115 9.09781 36.0115L9.19781 37.0115L8.59781 36.5115L9.09781 36.0115L16.6978 28.0115L17.1978 27.5115L17.6978 28.0115L18.6978 28.9115L17.8978 28.8115C21.9978 26.5115 26.5978 25.0116 31.2978 24.2116C35.9978 23.4116 40.6978 23.5116 45.3978 24.2116C54.6978 25.5116 63.6978 29.5116 70.7978 35.7116C77.8978 41.8116 83.3978 49.9115 85.8978 59.0115C87.1978 63.5115 87.5978 68.3115 87.0978 72.9115C86.5978 77.6115 85.0978 82.1116 82.6978 86.1116V85.9115L83.1978 86.4115L83.2978 86.5115L83.1978 86.6116L78.9978 91.1116C77.6978 92.6116 76.3978 93.8116 74.9978 95.0116Z" fill="#752714"/>
<path d="M67.4977 29.5117C52.2977 20.5117 31.8978 20.6117 19.1978 32.1117C2.39776 47.4117 4.59776 76.6117 30.1978 92.5117C52.5978 105.012 75.7977 98.5117 85.8977 82.6117C87.4977 79.8117 88.6977 76.7117 89.3977 73.3117C92.8977 56.5117 82.7977 38.5117 67.4977 29.5117Z" fill="#FFEB47"/>
<path d="M19.2978 32.1118C31.8978 20.6118 52.2978 20.6118 67.5978 29.5118C82.7978 38.5118 92.9978 56.5118 89.4978 73.3118C88.7978 76.6118 87.5978 79.7118 85.9978 82.6118C88.0978 79.3118 89.5978 75.6118 90.3978 71.6118C93.8978 54.4118 83.2978 36.0118 67.5978 26.7118C51.8978 17.4118 30.6978 17.2118 17.2978 28.6118C-1.00224 44.3118 1.09775 75.4118 29.2978 91.9118C29.6978 92.1118 29.9978 92.3118 30.3978 92.5118C4.69776 76.6118 2.39775 47.4118 19.2978 32.1118Z" fill="#CB9E16"/>
<path opacity="0.81" d="M30.2978 92.4117C50.3978 103.612 71.1978 99.5117 82.4978 87.1117C83.7978 85.7117 84.9978 84.2117 85.9978 82.5117C88.0978 79.2117 89.5978 75.5117 90.3978 71.5117C93.8978 54.3117 83.2978 35.9117 67.5978 26.6117C51.8978 17.3117 30.6978 17.1117 17.2978 28.5117C-1.00224 44.2117 1.09775 75.3117 29.2978 91.8117C29.4978 92.1117 29.8978 92.2117 30.2978 92.4117Z" fill="url(#paint0_linear_577:10780)"/>
<path d="M52.4977 45.4115L41.9977 39.3115L41.7977 39.5115L41.3977 40.0115L52.4977 46.5115L53.0977 45.8115L52.4977 45.4115Z" fill="#B07320"/>
<path d="M70.6978 41.7114H70.5978L62.6978 59.3114L51.5978 48.8114L51.3978 49.0114L51.0978 49.4114L62.8978 60.6114L71.0978 42.1114L70.6978 41.7114Z" fill="#B07320"/>
<path d="M42.3977 55.9116L33.1977 50.4116L32.9977 50.7116L32.4977 51.3116L42.3977 57.1116L43.0977 56.2116L42.3977 55.9116Z" fill="#B07320"/>
<path d="M59.6977 67.3116L61.6977 63.0116L61.1977 62.5116L61.0977 62.4116L59.4977 65.9116L46.6977 58.4116L45.9977 62.2116L45.8977 63.1116L46.1977 63.3116L46.7977 59.7116L59.6977 67.3116Z" fill="#B07320"/>
<path d="M57.4977 72.6113L56.9977 72.2113H56.8977L51.2977 84.5113L27.8977 57.1113L27.6978 57.4113L27.2977 57.9113L51.4977 86.3113L57.4977 72.6113Z" fill="#B07320"/>
<path d="M53.1978 46.9115L51.5978 48.8115L62.6978 59.3115L70.5978 41.7115L63.3978 35.3115L57.4978 42.1115L46.9978 32.8115L41.9978 39.3115L52.4978 45.4115L53.0978 45.8115L52.4978 46.5115L52.5978 46.6115L53.1978 46.9115Z" fill="#CB9E16"/>
<path d="M56.8977 72.2115L45.9977 64.5115L46.1977 63.7115V63.3115L45.8977 63.1115L45.9977 62.2115L46.6977 58.4115L59.4977 65.9115L61.0977 62.4115L39.3977 42.3115L33.1977 50.4115L42.3977 55.9115L43.0977 56.2115L42.3977 57.1115L42.4977 57.2115L43.1977 57.6115L40.4977 60.7115L30.5977 53.7115L27.8977 57.1115L51.2977 84.5115L56.8977 72.2115Z" fill="#CB9E16"/>
<g opacity="0.66">
<path opacity="0.66" d="M70.5977 41.7115L63.3977 35.3115L57.4977 42.1115L46.9977 32.8115L41.9977 39.3115L52.4977 45.4115L53.0977 45.8115L52.4977 46.5115L52.5977 46.6115L53.1977 46.9115L51.5977 48.8115L62.6977 59.3115L70.5977 41.7115Z" fill="url(#paint1_linear_577:10780)"/>
<path opacity="0.66" d="M56.8977 72.2115L45.9977 64.5115L46.1977 63.7115V63.3115L45.8977 63.1115L45.9977 62.2115L46.6977 58.4115L59.4977 65.9115L61.0977 62.4115L39.3977 42.3115L33.1977 50.4115L42.3977 55.9115L43.0977 56.2115L42.3977 57.1115L42.4977 57.2115L43.1977 57.6115L40.4977 60.7115L30.5977 53.7115L27.8977 57.1115L51.2977 84.5115L56.8977 72.2115Z" fill="url(#paint2_linear_577:10780)"/>
</g>
<path d="M52.3977 47.0119L50.5977 49.1119L50.3977 49.4119L50.6977 49.7119C52.6977 51.6119 54.7977 53.4119 56.7977 55.2119L62.8977 60.7119L67.5977 50.9119C68.9977 47.9119 70.2977 45.1119 71.3977 42.4119L71.4977 42.2119L71.1977 42.0119C69.8977 40.9119 68.5977 39.8119 67.2977 38.6119L63.3977 35.3119L63.1977 35.1119L63.0977 35.2119C62.1977 36.3119 61.2977 37.4119 60.2977 38.5119L58.7977 40.2119C58.2977 40.7119 57.7977 41.3119 57.2977 41.8119L52.2977 37.2119C50.5977 35.6119 48.8977 34.1119 47.1977 32.6119L46.6977 32.2119L46.3977 32.6119L40.6977 39.7119L40.3977 40.1119L40.9977 40.4119C42.9977 41.6119 44.8977 42.7119 46.8977 43.9119C48.7977 44.9119 50.5977 45.9119 52.3977 47.0119ZM51.8977 37.5119L57.2977 42.2119L57.4977 42.4119L57.5977 42.2119C58.0977 41.6119 58.5977 41.0119 59.0977 40.4119L60.5977 38.7119C61.4977 37.6119 62.3977 36.6119 63.3977 35.6119L66.9977 38.8119C68.1977 39.9119 69.3977 41.0119 70.5977 42.0119C69.3977 44.5119 68.2977 47.2119 67.0977 50.1119L62.8977 60.4119L56.9977 54.5119C55.1977 52.7119 53.4977 51.0119 51.6977 49.3119L53.6977 47.1119L53.9977 46.7119L53.3977 46.4119C51.4977 45.2119 49.4977 44.1119 47.5977 42.9119C45.7977 41.8119 44.0977 40.8119 42.2977 39.8119L47.0977 33.3119C48.6977 34.8119 50.2977 36.2119 51.8977 37.5119Z" fill="#B07320"/>
<path d="M51.6978 86.4118L54.8977 79.2118L57.8977 72.8118L57.9977 72.5118L57.6978 72.3118C53.9978 69.6118 50.2977 66.9118 46.5977 64.3118L47.2977 60.6118L59.4977 67.9118L60.0977 68.3118L60.3977 67.7118L62.2977 63.4118L62.4977 63.0118L62.0977 62.6118L56.2977 57.3118C54.3977 55.6118 52.4978 53.8118 50.6978 52.1118C46.9978 48.7118 43.2978 45.5118 39.6978 42.3118L39.4977 42.1118L39.3977 42.3118C38.3977 43.6118 37.3977 45.0118 36.3977 46.4118C35.2977 47.8118 34.1977 49.3118 33.0977 50.8118L32.5977 51.4118V51.5118H32.6978C34.4978 52.6118 36.2977 53.6118 37.9977 54.7118C39.6977 55.7118 41.3977 56.8118 43.0977 57.8118L40.6978 60.4118L36.0977 57.0118C34.4977 55.8118 32.8978 54.6118 31.1978 53.5118L30.6978 53.1118L30.2977 53.6118C29.1977 55.0118 28.0977 56.4118 26.9977 57.8118L26.6978 58.1118L26.9977 58.4118C30.6977 62.8118 34.6977 67.3118 38.7977 71.9118C40.8977 74.3118 42.9977 76.6118 45.0977 79.0118C47.1977 81.5118 49.3977 84.0118 51.4977 86.5118L51.6978 86.8118V86.4118ZM45.1978 78.6118C43.0978 76.1118 41.1978 73.7118 39.1978 71.3118C35.3978 66.7118 31.7977 62.2118 28.0977 58.0118C28.9977 56.8118 29.8978 55.7118 30.6978 54.6118C32.1978 55.6118 33.6978 56.6118 35.1978 57.7118L40.2977 61.1118L40.5977 61.3118L40.7977 61.1118L43.3977 57.9118L43.5977 57.7118L43.3977 57.6118C41.5977 56.6118 39.7977 55.6118 37.9977 54.5118C36.1977 53.5118 34.4978 52.5118 32.6978 51.4118L33.0977 50.8118C34.2977 49.3118 35.3977 47.9118 36.4977 46.5118C37.4977 45.2118 38.4977 44.0118 39.4977 42.8118C42.8977 46.1118 46.2977 49.5118 49.8977 52.9118C51.6977 54.7118 53.5977 56.4118 55.4977 58.2118L60.8977 63.2118L59.3977 66.5118L47.1978 59.4118L46.3977 59.0118L46.2977 59.8118L45.4977 64.6118L45.3977 65.0118L45.6978 65.2118C49.4978 67.8118 53.2977 70.4118 57.0977 73.0118L54.3977 79.2118L51.3977 86.1118C49.2977 83.4118 47.1978 81.0118 45.1978 78.6118Z" fill="#B07320"/>
<path d="M32.8978 93.9117C37.6978 96.3117 42.8978 97.9117 48.2978 98.5117C53.5978 99.1117 59.0978 98.8117 64.1978 97.4117C69.2978 96.0117 74.1978 93.6117 78.2978 90.2117C82.3978 86.8117 85.6978 82.6117 87.7978 77.7117C88.7978 75.3117 89.6978 72.7117 89.9978 70.1117C90.0978 69.4117 90.1978 68.8117 90.2978 68.1117L90.3978 66.1117L90.4978 65.1117C90.4978 64.8117 90.4978 64.4117 90.4978 64.1117L90.3978 62.1117C90.0978 56.8117 88.4978 51.6117 86.0978 46.8117C83.7978 42.0117 80.3978 37.7117 76.5978 34.0117C72.7978 30.3117 68.2978 27.2117 63.3978 25.0117C58.4978 22.8117 53.2978 21.4117 48.0978 20.8117C42.7978 20.2117 37.3978 20.5117 32.2978 21.8117C27.1978 23.0117 22.2978 25.4117 18.1978 28.8117C14.0978 32.1117 10.7978 36.4117 8.79775 41.3117C6.69775 46.1117 5.89777 51.5117 6.09777 56.7117C6.39777 62.0117 7.79778 67.2117 10.1978 72.0117C12.4978 76.8117 15.7978 81.1117 19.6978 84.8117C23.5978 88.4117 28.0978 91.5117 32.8978 93.9117ZM32.8978 94.0117C31.6978 93.4117 30.4978 92.8117 29.2978 92.1117C28.6978 91.8117 28.0978 91.4117 27.5978 91.0117C26.9978 90.6117 26.3978 90.3117 25.8978 89.9117C23.5978 88.4117 21.4978 86.7117 19.4978 85.0117C15.4978 81.4117 11.9978 77.2117 9.39776 72.4117C6.79776 67.6117 5.19775 62.3117 4.79775 56.8117C4.39775 51.3117 5.29776 45.7117 7.49776 40.7117C9.69776 35.6117 13.0978 31.1117 17.3978 27.6117C21.6978 24.2117 26.7978 21.7117 32.0978 20.5117C37.3978 19.2117 42.9978 19.0117 48.3978 19.7117C53.7978 20.4117 59.0978 22.0117 63.9978 24.4117L64.8978 24.8117L65.7978 25.3117L67.5978 26.3117C68.7978 27.0117 69.8978 27.8117 70.9978 28.5117C73.1978 30.1117 75.2978 31.8117 77.1978 33.7117L78.5978 35.1117L79.8978 36.6117C80.7978 37.6117 81.5978 38.7117 82.3978 39.8117C82.7978 40.3117 83.1978 40.9117 83.5978 41.5117L84.6978 43.2117L85.6978 45.0117C85.9978 45.6117 86.3978 46.2117 86.6978 46.8117C87.2978 48.0117 87.8978 49.2117 88.3978 50.5117L89.0978 52.4117L89.6978 54.3117C90.1978 55.6117 90.3978 56.9117 90.6978 58.2117C90.8978 58.9117 90.8978 59.5117 90.9978 60.2117C91.0978 60.9117 91.1978 61.5117 91.2978 62.2117L91.3978 64.2117C91.3978 64.5117 91.3978 64.9117 91.3978 65.2117V66.2117L91.2978 68.2117C91.1978 68.9117 91.0978 69.6117 90.9978 70.2117C90.7978 71.6117 90.5978 72.9117 90.1978 74.2117C89.7978 75.5117 89.3978 76.8117 88.8978 78.1117C87.7978 80.6117 86.3978 83.0117 84.7978 85.2117C83.1978 87.4117 81.1978 89.4117 79.0978 91.1117C74.7978 94.6117 69.6978 96.9117 64.3978 98.1117C59.0978 99.3117 53.5978 99.5117 48.1978 98.6117C42.8978 98.1117 37.6978 96.4117 32.8978 94.0117Z" fill="#752714"/>
<path d="M5.19788 75.3116L8.49786 73.9116L5.59787 76.0116L5.19788 75.3116Z" fill="#752714"/>
<path d="M5.79779 57.4115L1.9978 59.4115L5.3978 56.8115L5.79779 57.4115Z" fill="#752714"/>
<path d="M1.29785 63.1114L3.99785 61.7114L1.69785 63.7114L1.29785 63.1114Z" fill="#752714"/>
<path d="M44.4978 103.311L49.2978 100.611L44.8978 103.911L44.4978 103.311Z" fill="#752714"/>
<path d="M24.7979 96.2117L30.2979 92.5117L25.2979 96.8117L24.7979 96.2117Z" fill="#752714"/>
<path d="M23.1979 95.0113L26.2979 93.1113L23.6979 95.6113L23.1979 95.0113Z" fill="#752714"/>
<path d="M88.6978 69.7113L88.3978 65.6113L88.0978 69.7113C87.8978 73.0113 87.4978 75.8113 86.9978 77.9113C86.5978 79.7113 85.7978 80.9113 84.8978 81.1113L79.4978 82.6113L84.7978 84.2113C85.6978 84.5113 86.4978 85.7113 86.8978 87.5113C87.3978 89.8113 87.8978 93.1113 87.9978 96.9113L88.2978 103.911L88.5978 96.9113C88.6978 93.7113 89.0978 91.0113 89.4978 88.8113C89.9978 86.2113 91.0978 84.4113 92.2978 84.2113L96.2978 83.3113L91.8978 81.4113C90.7978 80.9113 89.8978 79.3113 89.3978 77.0113C89.1978 75.0113 88.8978 72.6113 88.6978 69.7113Z" fill="white"/>
<path d="M40.9978 6.01154L40.6978 0.811523L40.3978 6.01154C40.0978 10.2115 39.6978 13.8115 38.9978 16.4115C38.3978 18.7115 37.3978 20.2115 36.2978 20.5115L29.3978 22.4115L36.0978 24.4115C37.1978 24.7115 38.2978 26.3115 38.7978 28.6115C39.4978 31.5115 39.9978 35.6115 40.1978 40.5115L40.5978 49.4115L40.9978 40.5115C41.1978 36.5115 41.5978 33.0115 42.0978 30.2115C42.6978 26.9115 44.0978 24.7115 45.6978 24.3115L50.7978 23.2115L45.1978 20.8115C43.7978 20.2115 42.5978 18.2115 41.9978 15.2115C41.5978 12.7115 41.1978 9.61154 40.9978 6.01154Z" fill="white"/>
<defs>
<linearGradient id="paint0_linear_577:10780" x1="114.992" y1="30.4697" x2="-54.4522" y2="103.967" gradientUnits="userSpaceOnUse">
<stop stop-color="#D2A91D" stop-opacity="0.0235507"/>
<stop offset="0.1692" stop-color="#FFEB47"/>
<stop offset="0.2915" stop-color="white"/>
<stop offset="0.4111" stop-color="#FFEB47"/>
<stop offset="0.6027" stop-color="#D2A91D" stop-opacity="0.0235507"/>
<stop offset="0.7538" stop-color="#FFEB47"/>
<stop offset="0.8477" stop-color="white"/>
<stop offset="0.93" stop-color="#FFEB47"/>
<stop offset="1" stop-color="#D2A91D" stop-opacity="0.0235507"/>
</linearGradient>
<linearGradient id="paint1_linear_577:10780" x1="71.2339" y1="33.8995" x2="26.37" y2="67.152" gradientUnits="userSpaceOnUse">
<stop stop-color="#D2A91D" stop-opacity="0.0235507"/>
<stop offset="0.1692" stop-color="#FFEB47"/>
<stop offset="0.2915" stop-color="white"/>
<stop offset="0.4111" stop-color="#FFEB47"/>
<stop offset="0.6027" stop-color="#D2A91D" stop-opacity="0.0235507"/>
<stop offset="0.7538" stop-color="#FFEB47"/>
<stop offset="0.8477" stop-color="white"/>
<stop offset="0.93" stop-color="#FFEB47"/>
<stop offset="1" stop-color="#D2A91D" stop-opacity="0.0235507"/>
</linearGradient>
<linearGradient id="paint2_linear_577:10780" x1="85.5512" y1="33.6283" x2="24.8253" y2="78.6373" gradientUnits="userSpaceOnUse">
<stop stop-color="#D2A91D" stop-opacity="0.0235507"/>
<stop offset="0.1692" stop-color="#FFEB47"/>
<stop offset="0.2915" stop-color="white"/>
<stop offset="0.4111" stop-color="#FFEB47"/>
<stop offset="0.6027" stop-color="#D2A91D" stop-opacity="0.0235507"/>
<stop offset="0.7538" stop-color="#FFEB47"/>
<stop offset="0.8477" stop-color="white"/>
<stop offset="0.93" stop-color="#FFEB47"/>
<stop offset="1" stop-color="#D2A91D" stop-opacity="0.0235507"/>
</linearGradient>
</defs>
</svg>
