<svg
                class="reward__smiley-item"
                width="488"
                height="729"
                viewBox="85 35 488 729"
                fill="none"
                xmlns="http://www.w3.org/2000/svg"
              >
                <mask
                  id="mask0_230:14587"
                  style="mask-type: alpha"
                  maskUnits="userSpaceOnUse"
                  x="0"
                  y="0"
                  width="488"
                  height="729"
                >
                  <rect
                    y="47.6394"
                    width="412"
                    height="685"
                    transform="rotate(-6.54293 0 47.6394)"
                    fill="#C4C4C4"
                  />
                </mask>
                <g mask="url(#mask0_230:14587)">
                  <path
                    d="M297.523 298.069C297.165 296.701 296.123 295.512 294.751 294.964C294.121 294.735 293.392 294.516 292.761 294.287L290.771 293.609L290.794 293.808L292.369 292.62C292.931 292.254 293.382 291.8 293.81 291.147C294.579 289.951 294.718 288.526 294.47 287.246L294.482 287.345C294.876 286.394 294.85 285.29 294.636 284.308C294.423 283.326 293.813 282.389 292.938 281.785L293.06 281.972L292.702 280.604C292.546 280.119 292.389 279.634 292.145 279.259C291.645 278.41 290.759 277.707 289.907 277.301L290.075 277.886C290.679 277.011 290.963 275.972 290.937 274.868C290.979 274.36 290.811 273.775 290.655 273.29L290.197 271.933L290.232 272.231C290.515 271.192 290.489 270.088 290.077 269.129C289.765 268.158 288.955 267.244 288.081 266.64L288.313 266.915C288.157 266.43 287.901 265.956 287.657 265.581C287.302 265.119 286.959 264.755 286.626 264.492C285.752 263.887 284.801 263.493 283.784 263.408L284.208 264.467C285.385 263.325 285.887 261.557 285.693 259.868C285.648 259.47 285.503 259.084 285.358 258.698C285.213 258.312 285.079 258.026 284.935 257.64L284 255.633L283.065 253.627L282.653 252.667C282.52 252.381 282.375 251.995 282.13 251.62C281.253 250.11 279.637 249.188 278.013 249.073L278.613 249.91C278.731 249.192 278.839 248.374 278.649 247.591C278.603 247.193 278.458 246.807 278.325 246.521C278.202 246.333 278.18 246.135 278.069 246.047L277.813 245.573L275.703 242.09L274.703 240.393C274.336 239.831 273.848 239.082 273.294 238.642C272.076 237.675 270.429 237.361 268.95 237.631L269.649 238.457C270.273 236.875 270.156 234.976 269.19 233.577L269.236 233.974C269.397 232.748 269.138 231.369 268.405 230.245C267.673 229.121 266.488 228.452 265.339 228.08L265.56 228.256L265.205 227.793C265.083 227.606 264.961 227.419 264.739 227.243C264.396 226.88 264.063 226.616 263.731 226.352C262.967 225.836 262.138 225.629 261.222 225.533L261.588 226.095C262.047 224.834 261.976 223.332 261.43 222.086C261.163 221.513 260.697 220.963 260.342 220.5L259.167 219.024L256.716 216.085C256.361 215.622 255.895 215.071 255.253 214.742C254.711 214.402 254.081 214.172 253.362 214.053L253.507 214.439C253.748 213.908 254.089 213.366 254.23 212.847C254.361 212.228 254.491 211.609 254.423 211.013C254.286 209.821 253.752 208.674 252.843 207.772C251.946 206.969 250.773 206.399 249.558 206.337C248.343 206.275 247.075 206.621 246.161 207.431C245.886 207.664 245.698 207.786 245.522 208.007L244.995 208.672L243.84 210.012L241.519 212.593L236.976 217.745L227.792 228.058L226.625 229.299C226.45 229.521 226.174 229.754 226.01 230.075C225.845 230.395 225.669 230.617 225.604 230.926C225.374 231.557 225.244 232.175 225.213 232.783C225.182 233.39 225.262 234.086 225.529 234.659C225.975 235.917 226.796 236.93 227.98 237.599C228.522 237.939 229.153 238.169 229.859 238.189C230.478 238.319 230.986 238.361 231.594 238.392L231.063 238.151L231.185 238.339C231.307 238.526 231.319 238.625 231.418 238.614L231.773 239.076L232.483 240.002L233.903 241.852L235.423 243.691C235.911 244.44 236.774 244.945 237.527 245.362L237.137 244.601C237.019 245.319 237.098 246.015 237.277 246.699C237.457 247.383 237.735 248.056 238.101 248.617L240.155 251.603L241.132 253.101C241.487 253.564 241.754 254.137 242.22 254.688C243.151 255.789 244.534 256.435 245.959 256.574L245.249 255.649L245.153 256.566L245.13 256.367C244.946 257.395 245.083 258.587 245.495 259.546C245.751 260.02 246.006 260.494 246.361 260.957C246.716 261.419 247.159 261.771 247.591 262.024L247.358 261.748L249.125 264.867L249.369 265.242C249.491 265.429 249.602 265.517 249.625 265.716C249.858 265.991 250.091 266.266 250.323 266.542C250.877 266.981 251.431 267.421 252.061 267.651L251.473 266.913C251.53 267.41 251.599 268.006 251.866 268.579C251.877 268.678 251.999 268.866 252.011 268.965L252.144 269.252L252.423 269.924L252.388 269.626C252.457 270.222 252.636 270.907 252.903 271.48C253.17 272.053 253.536 272.615 253.991 273.066L253.857 272.78L254.514 274.113C254.769 274.587 254.914 274.973 255.181 275.547C255.803 276.583 256.701 277.386 257.763 277.868L257.328 276.71C256.758 277.882 256.508 279.219 256.855 280.488C256.889 280.786 257.023 281.073 257.156 281.359L257.446 282.131L258.026 283.676L259.185 286.763L259.475 287.536C259.597 287.723 259.742 288.109 259.876 288.395C260.143 288.969 260.597 289.42 261.052 289.871L260.85 288.988C260.62 289.619 260.501 290.337 260.581 291.032C260.561 291.739 260.84 292.412 261.008 292.996L262.002 296.405L262.494 298.06L262.795 298.931C262.929 299.218 263.074 299.604 263.207 299.891C263.852 301.125 264.96 302.005 266.22 302.464L265.896 301.394C265.292 302.269 264.898 303.22 264.824 304.335C264.74 305.352 265.064 306.422 265.564 307.27C266.575 309.067 268.71 310.13 270.697 309.903C271.691 309.789 272.65 309.377 273.487 308.777C274.225 308.189 274.863 307.613 275.601 307.025L279.829 303.52L279.631 303.543L285.22 304.009C287.054 304.202 288.987 304.382 290.821 304.575C291.738 304.671 292.666 304.866 293.66 304.752C294.653 304.638 295.513 304.238 296.251 303.65C297.482 302.1 298.038 299.922 297.523 298.069ZM297.325 298.091C297.828 299.846 297.161 301.935 295.785 303.099C295.047 303.687 294.176 303.989 293.282 304.091C292.388 304.194 291.459 303.998 290.543 303.902C288.709 303.71 286.776 303.529 284.93 303.237L279.318 302.572L279.219 302.584L279.131 302.695L274.78 306.012C274.042 306.6 273.305 307.188 272.655 307.665C272.005 308.142 271.134 308.443 270.327 308.435C268.726 308.518 267.011 307.608 266.344 306.174C265.577 304.752 265.769 302.918 266.737 301.7L267.264 301.036L266.424 300.73C265.473 300.335 264.686 299.62 264.286 298.76C264.164 298.573 264.129 298.275 264.007 298.088L263.805 297.205L263.302 295.451L262.307 292.042C262.139 291.457 261.983 290.972 262.026 290.464C261.969 289.967 262.11 289.448 262.263 289.028L262.405 288.508L261.962 288.156C261.63 287.892 261.286 287.529 261.141 287.143C260.897 286.768 260.741 286.283 260.573 285.698L259.414 282.61L258.834 281.066L258.544 280.294C258.422 280.107 258.388 279.809 258.365 279.61C258.163 278.728 258.259 277.811 258.665 276.959L259.082 276.207L258.23 275.801C257.489 275.483 256.813 274.856 256.435 274.195C256.302 273.908 256.035 273.335 255.79 272.96L255.134 271.626L255.123 271.527L255.012 271.439C254.336 270.812 253.936 269.952 253.833 269.058L253.822 268.959L253.81 268.859L253.532 268.187L253.398 267.9C253.387 267.801 253.276 267.713 253.265 267.613C253.12 267.227 253.074 266.83 253.029 266.433L252.972 265.936L252.441 265.695C252.021 265.542 251.589 265.289 251.146 264.937C250.924 264.761 250.802 264.574 250.68 264.387C250.57 264.299 250.558 264.2 250.447 264.112L250.203 263.737L248.337 260.629L248.215 260.442L248.104 260.354C247.451 259.926 246.886 259.387 246.596 258.615C246.317 257.942 246.226 257.147 246.334 256.33L246.322 256.23L246.353 255.623L246.45 254.706L245.632 254.598C244.616 254.514 243.653 254.02 242.966 253.294C242.622 252.93 242.355 252.357 242 251.895L241.023 250.396L238.97 247.411C238.37 246.574 238.046 245.504 238.23 244.476L238.273 243.968L237.742 243.727C237.1 243.398 236.558 243.057 236.191 242.495L234.672 240.656L233.153 238.818L232.442 237.892L232.087 237.43L231.965 237.243C231.965 237.243 231.954 237.143 231.832 236.956L231.698 236.669L231.389 236.604C230.881 236.562 230.174 236.542 229.754 236.389C229.245 236.347 228.825 236.194 228.394 235.941C227.531 235.436 226.843 234.71 226.531 233.739C226.218 232.768 226.203 231.763 226.498 230.824C226.64 230.304 226.904 229.972 227.256 229.529L228.411 228.189L237.374 217.699L241.806 212.46L244.027 209.89L245.182 208.55C245.534 208.107 245.886 207.664 246.348 207.309C247.174 206.61 248.244 206.286 249.36 206.359C250.475 206.433 251.526 206.816 252.324 207.63C253.11 208.345 253.633 209.392 253.758 210.485C253.815 210.982 253.784 211.589 253.643 212.109C253.501 212.628 253.248 213.06 252.908 213.602L252.743 213.923L253.053 213.988C254.291 214.249 255.276 214.941 255.997 215.966L258.349 218.917L259.525 220.393C259.979 220.844 260.334 221.306 260.502 221.891C260.925 222.95 260.974 224.253 260.591 225.303L260.438 225.723L260.946 225.766C261.665 225.884 262.494 226.091 263.047 226.531C263.368 226.696 263.601 226.971 263.834 227.246C263.956 227.433 264.067 227.521 264.189 227.709L264.555 228.271L264.666 228.359L264.876 228.435C265.915 228.719 266.79 229.323 267.4 230.259C268 231.097 268.125 232.189 268.04 233.206L267.964 233.416L268.086 233.603C268.819 234.727 268.89 236.229 268.332 237.5L267.838 238.463L268.931 238.338C270.123 238.201 271.361 238.462 272.247 239.165C272.69 239.517 273.045 239.98 273.312 240.553L274.323 242.349L276.334 245.843L276.59 246.317C276.701 246.405 276.723 246.603 276.735 246.703C276.868 246.989 276.903 247.288 277.025 247.475C277.093 248.071 277.062 248.678 277.02 249.187L276.813 250.016L277.63 250.123C278.857 250.284 280.041 250.954 280.663 251.99C280.796 252.276 280.93 252.563 281.174 252.938L281.686 253.885L282.62 255.892L283.555 257.899C283.933 258.56 284.2 259.133 284.268 259.729C284.516 261.009 284.056 262.27 283.154 263.179L282.263 264.187L283.577 264.237C284.384 264.246 285.125 264.563 285.778 264.992C286.11 265.255 286.343 265.531 286.675 265.795C286.908 266.07 287.152 266.444 287.297 266.83L287.419 267.018L287.53 267.106C288.282 267.523 288.87 268.26 289.16 269.032C289.45 269.804 289.553 270.699 289.346 271.528L289.258 271.638L289.269 271.738L289.826 273.083C289.971 273.469 290.127 273.954 290.074 274.363C290.176 275.257 289.87 276.098 289.464 276.949L289.212 277.381L289.632 277.534C290.472 277.84 291.148 278.467 291.625 279.117C291.87 279.492 292.015 279.878 292.171 280.363L292.629 281.72L292.64 281.819L292.751 281.907C293.514 282.423 294.014 283.272 294.316 284.143C294.617 285.015 294.532 286.031 294.325 286.86L294.337 286.959L294.348 287.059C294.695 288.327 294.545 289.653 293.864 290.738C293.524 291.28 293.073 291.735 292.511 292.101L290.947 293.387L290.76 293.51L290.97 293.586L292.96 294.264C293.59 294.494 294.32 294.712 294.95 294.941C295.936 295.634 296.978 296.823 297.325 298.091Z"
                    fill="#67461C"
                  />
                  <path
                    d="M273.465 240.133L276.964 246.073C277.964 247.77 277.806 249.902 276.674 251.441L261.461 271.505C259.362 274.262 255.209 274.034 253.453 271.014C252.698 269.692 252.603 267.991 253.25 266.609L264.975 240.704C266.574 237.098 271.576 236.826 273.465 240.133Z"
                    fill="#C2BFA1"
                  />
                  <path
                    d="M292.282 280.451L294.237 286.971C294.752 288.824 294.174 290.803 292.61 292.089L272.976 307.829C270.3 309.948 266.331 308.692 265.358 305.482C264.889 304.026 265.204 302.379 266.171 301.161L283.85 278.902C286.313 275.801 291.153 276.756 292.282 280.451Z"
                    fill="#C2BFA1"
                  />
                  <path
                    d="M281.293 252.219L284.22 258.426C285.021 260.146 284.763 262.289 283.421 263.752L266.536 282.397C264.215 284.979 260.116 284.342 258.658 281.288C257.99 279.854 258.007 278.242 258.753 276.848L272.612 252.007C274.632 248.554 279.58 248.691 281.293 252.219Z"
                    fill="#C2BFA1"
                  />
                  <path
                    d="M287.496 266.808L289.937 273.171C290.65 275.001 290.183 277.068 288.73 278.443L270.493 295.834C268.049 298.228 263.916 297.293 262.745 294.106C262.177 292.661 262.392 291.026 263.249 289.72L278.945 265.976C281.175 262.6 286.069 263.146 287.496 266.808Z"
                    fill="#C2BFA1"
                  />
                  <path
                    d="M252.416 268.113L255.343 274.32C256.144 276.04 257.981 277.138 259.979 277.009L285.086 275.64C288.487 275.451 290.595 271.887 289.126 268.734C288.458 267.301 287.141 266.345 285.594 266.019L257.571 261.281C253.77 260.61 250.802 264.574 252.416 268.113Z"
                    fill="#FFFACE"
                  />
                  <path
                    d="M252.317 268.125C253.118 269.845 253.919 271.565 254.621 273.296C254.777 273.781 254.922 274.167 255.178 274.641C255.434 275.115 255.678 275.49 256.022 275.853C256.709 276.579 257.583 277.184 258.611 277.368C259.13 277.509 259.639 277.552 260.135 277.495L261.538 277.435C262.443 277.431 263.448 277.417 264.342 277.314C266.241 277.197 268.14 277.08 270.039 276.963C273.826 276.629 277.601 276.196 281.3 275.973L284.104 275.853C284.601 275.796 285.01 275.85 285.507 275.793C286.003 275.736 286.489 275.58 286.963 275.324C287.823 274.923 288.648 274.225 289.153 273.361C289.658 272.498 289.942 271.459 289.927 270.454C289.913 269.449 289.489 268.391 288.89 267.554C288.291 266.716 287.405 266.013 286.366 265.729C286.155 265.653 285.846 265.588 285.636 265.511L284.918 265.392L283.581 265.143L280.807 264.656C277.105 263.973 273.403 263.29 269.602 262.619C265.912 262.036 262.122 261.464 258.355 261.091C257.847 261.049 257.438 260.995 256.93 260.952C256.421 260.91 255.936 261.066 255.439 261.123C254.469 261.436 253.631 262.035 253.016 262.81C251.773 264.262 251.516 266.405 252.317 268.125ZM252.515 268.102C252.115 267.242 252.012 266.348 252.108 265.431C252.304 264.503 252.71 263.651 253.348 263.074C253.975 262.399 254.835 261.998 255.618 261.807C256.016 261.762 256.513 261.705 256.921 261.759C257.33 261.812 257.75 261.966 258.258 262.008C261.983 262.889 265.685 263.572 269.387 264.254C273.089 264.937 276.879 265.509 280.569 266.092L283.331 266.48L284.768 266.718L285.486 266.837C285.696 266.913 285.895 266.891 286.105 266.967C286.934 267.174 287.598 267.702 288.163 268.241C288.74 268.879 289.03 269.651 289.132 270.545C289.326 272.234 288.438 274.148 286.818 274.938C286.443 275.182 285.958 275.338 285.56 275.384C285.163 275.43 284.666 275.487 284.17 275.543L281.365 275.664C277.556 275.799 273.834 275.823 270.013 275.859C268.103 275.876 266.204 275.994 264.305 276.111C263.411 276.213 262.406 276.228 261.512 276.33L260.121 276.49C259.624 276.547 259.227 276.593 258.818 276.539C258 276.431 257.149 276.026 256.484 275.498C256.152 275.234 255.908 274.859 255.663 274.485C255.419 274.11 255.163 273.636 255.018 273.25C254.206 271.431 253.317 269.822 252.515 268.102Z"
                    fill="#67461C"
                  />
                  <path
                    d="M255.654 215.603L259.99 220.943C261.166 222.419 261.417 224.604 260.495 226.22L248.437 248.338C246.769 251.348 242.684 251.716 240.466 249.051C239.523 247.851 239.131 246.184 239.567 244.725L247.3 217.366C248.369 213.519 253.191 212.563 255.654 215.603Z"
                    fill="#C2BFA1"
                  />
                  <path
                    d="M255.654 215.603C256.83 217.078 258.005 218.554 259.082 220.041C259.326 220.415 259.67 220.779 259.914 221.153C260.158 221.528 260.303 221.914 260.46 222.399C260.661 223.282 260.665 224.187 260.446 224.917C260.293 225.337 260.129 225.658 259.876 226.09L259.107 227.285C258.603 228.148 258.186 228.901 257.681 229.764C256.759 231.379 255.848 233.094 255.037 234.798C253.315 238.216 251.693 241.623 249.96 244.942L248.632 247.41C248.38 247.841 248.227 248.262 247.963 248.594C247.699 248.926 247.336 249.27 247.061 249.503C245.673 250.568 243.564 250.608 242.147 249.663C241.395 249.246 240.807 248.509 240.517 247.737C240.227 246.965 240.025 246.082 240.243 245.352C240.32 245.142 240.297 244.944 240.374 244.733L240.603 244.103L241.051 242.743L241.848 240.035C242.939 236.387 244.042 232.838 245.034 229.201C246.026 225.564 247.018 221.928 247.8 218.214C247.942 217.695 247.996 217.286 248.149 216.866C248.302 216.446 248.467 216.125 248.719 215.693C249.247 215.029 249.984 214.441 250.856 214.14C251.727 213.838 252.633 213.835 253.561 214.031C254.203 214.36 254.967 214.876 255.654 215.603ZM255.742 215.492C254.555 213.917 252.465 213.251 250.512 213.776C249.53 213.99 248.582 214.501 247.966 215.276C247.603 215.62 247.351 216.052 247.11 216.582C246.869 217.113 246.716 217.534 246.562 217.954C245.261 221.525 244.269 225.162 243.178 228.81C242.086 232.458 241.193 236.084 240.201 239.72L239.504 242.417L239.155 243.766L238.937 244.496C238.861 244.706 238.795 245.015 238.83 245.313C238.745 246.329 238.882 247.522 239.382 248.37C239.893 249.318 240.68 250.033 241.543 250.538C242.406 251.043 243.533 251.216 244.526 251.102C245.52 250.988 246.479 250.576 247.316 249.976C247.679 249.633 248.043 249.289 248.295 248.858C248.548 248.426 248.8 247.994 249.053 247.563L250.38 245.096C252.212 241.765 254.266 238.61 256.21 235.368C257.132 233.752 258.053 232.137 258.964 230.422C259.37 229.57 259.874 228.707 260.28 227.855L260.938 226.572C261.191 226.14 261.332 225.621 261.474 225.101C261.658 224.074 261.533 222.981 261.232 222.109C261.075 221.624 260.82 221.15 260.476 220.787C260.132 220.424 259.888 220.049 259.544 219.686C258.193 218.432 256.918 216.967 255.742 215.492Z"
                    fill="#67461C"
                  />
                  <path
                    d="M264.387 227.686L268.162 233.393C269.25 234.979 269.291 237.088 268.17 238.727L254.264 259.648C252.374 262.481 248.144 262.463 246.312 259.654C245.457 258.343 245.275 256.753 245.811 255.282L255.943 228.654C257.244 225.083 262.212 224.513 264.387 227.686Z"
                    fill="#C2BFA1"
                  />
                  <path
                    d="M238.186 247.601L241.961 253.308C243.049 254.895 244.951 255.683 246.927 255.356L271.613 250.31C274.956 249.624 276.522 245.721 274.69 242.911C273.835 241.6 272.341 240.865 270.817 240.738L242.356 240.077C238.325 240.036 236.011 244.428 238.186 247.601Z"
                    fill="#FFFACE"
                  />
                  <path
                    d="M238.098 247.712C239.186 249.298 240.175 250.896 241.163 252.494C241.407 252.868 241.663 253.342 241.907 253.717C242.152 254.091 242.507 254.554 242.938 254.807C243.713 255.422 244.676 255.916 245.792 255.989C246.3 256.031 246.896 255.963 247.293 255.917L248.673 255.659C249.567 255.556 250.549 255.343 251.432 255.141C253.308 254.825 255.173 254.41 256.938 254.006C260.668 253.176 264.275 252.158 268.005 251.328L270.753 250.71C271.249 250.653 271.635 250.509 272.121 250.352C272.606 250.196 273.08 249.94 273.455 249.696C274.292 249.097 274.907 248.321 275.302 247.37C275.696 246.419 275.781 245.403 275.556 244.322C275.343 243.339 274.831 242.392 274.133 241.566C273.445 240.839 272.372 240.258 271.344 240.074C271.035 240.009 270.836 240.031 270.527 239.966L269.82 239.947L268.406 239.907L265.579 239.829C261.835 239.655 257.991 239.492 254.27 239.516C250.537 239.441 246.716 239.476 242.907 239.611C242.41 239.668 242.001 239.614 241.405 239.683C240.908 239.74 240.423 239.896 239.949 240.152C238.99 240.564 238.274 241.35 237.758 242.114C236.958 243.917 237.01 246.125 238.098 247.712ZM238.186 247.601C237.698 246.852 237.385 245.881 237.382 244.976C237.379 244.07 237.673 243.13 238.3 242.455C238.817 241.691 239.566 241.202 240.437 240.901C240.823 240.756 241.32 240.699 241.717 240.653C242.115 240.608 242.623 240.65 243.032 240.704C246.799 241.077 250.532 241.152 254.375 241.315C258.108 241.391 261.941 241.454 265.662 241.43L268.478 241.409L269.892 241.448L270.598 241.468C270.797 241.445 271.007 241.522 271.206 241.499C272.024 241.606 272.765 241.924 273.44 242.551C274.105 243.079 274.494 243.839 274.795 244.711C275.287 246.365 274.609 248.356 273.21 249.321C272.836 249.566 272.461 249.81 272.075 249.955C271.689 250.1 271.192 250.157 270.707 250.313L267.948 250.831C264.207 251.562 260.443 252.094 256.79 252.715C254.914 253.03 253.049 253.446 251.283 253.849C250.401 254.051 249.419 254.265 248.536 254.466L247.168 254.825C246.682 254.981 246.384 255.015 245.888 255.072C245.081 255.064 244.153 254.868 243.489 254.341C243.156 254.077 242.824 253.813 242.481 253.45C242.236 253.075 241.893 252.712 241.648 252.337C240.35 250.675 239.274 249.187 238.186 247.601Z"
                    fill="#67461C"
                  />
                  <path
                    d="M246.187 258.561L249.687 264.501C250.687 266.198 252.6 267.086 254.488 266.869L279.345 263.313C282.711 262.827 284.597 259.087 282.842 256.068C282.086 254.745 280.669 253.801 279.046 253.685L250.689 251.301C246.823 250.939 244.187 255.167 246.187 258.561Z"
                    fill="#FFFACE"
                  />
                  <path
                    d="M246.187 258.561L249.065 263.465C249.309 263.84 249.565 264.314 249.809 264.688C250.053 265.063 250.397 265.426 250.74 265.789C251.416 266.416 252.367 266.81 253.384 266.895C253.892 266.938 254.388 266.881 254.786 266.835L256.177 266.675L258.959 266.356L264.621 265.707L275.848 264.419L278.63 264.1L279.325 264.02C279.524 263.998 279.822 263.964 280.108 263.83C280.594 263.674 281.178 263.506 281.641 263.151C283.525 262.029 284.566 259.695 284.216 257.521C283.992 256.439 283.469 255.392 282.77 254.566C281.972 253.752 280.998 253.159 279.971 252.975C279.661 252.91 279.451 252.833 279.153 252.867L278.446 252.848L277.021 252.709L274.182 252.532L262.839 251.92L251.495 251.309C250.578 251.213 249.574 251.227 248.702 251.529C247.831 251.83 246.994 252.429 246.477 253.193C245.334 254.633 245.187 256.864 246.187 258.561ZM246.187 258.561C245.199 256.963 245.345 254.732 246.489 253.292C247.005 252.528 247.842 251.929 248.725 251.727C249.596 251.426 250.513 251.522 251.529 251.607L262.842 252.826L274.155 254.045L277.005 254.322L278.43 254.46L279.137 254.48C279.335 254.457 279.545 254.534 279.756 254.61C280.485 254.828 281.237 255.245 281.803 255.785C282.368 256.324 282.658 257.096 282.848 257.879C283.13 259.457 282.418 261.149 280.996 261.916C280.621 262.161 280.335 262.294 279.949 262.439C279.75 262.462 279.551 262.485 279.364 262.607L278.669 262.687L275.898 263.105L264.74 264.989L259.112 265.936L256.353 266.454C255.458 266.557 254.488 266.869 253.571 266.773C252.654 266.677 251.714 266.382 251.038 265.755C250.263 265.139 249.874 264.379 249.374 263.53L246.187 258.561Z"
                    fill="#67461C"
                  />
                  <path
                    d="M231.327 237.819L235.664 243.16C236.839 244.635 238.929 245.302 240.771 244.688L264.908 237.491C268.218 236.507 269.374 232.55 267.255 229.874C266.312 228.673 264.731 228.049 263.229 228.121L234.866 230.065C230.858 230.223 228.964 234.769 231.327 237.819Z"
                    fill="#FFFACE"
                  />
                  <path
                    d="M231.327 237.819L234.854 242.246C235.198 242.609 235.442 242.984 235.786 243.347C236.129 243.71 236.462 243.974 236.893 244.226C237.657 244.743 238.696 245.026 239.602 245.023C240.098 244.966 240.595 244.909 240.981 244.764L242.349 244.406L245.085 243.689L250.558 242.257L261.491 239.291L264.216 238.476L264.9 238.296C265.099 238.274 265.385 238.14 265.672 238.007C266.146 237.751 266.62 237.495 267.082 237.14C268.833 235.732 269.454 233.245 268.806 231.105C268.482 230.035 267.772 229.109 266.886 228.406C266 227.702 264.949 227.319 263.834 227.246C263.524 227.181 263.326 227.204 263.028 227.238L262.332 227.318L260.941 227.477L258.148 227.697L246.899 228.786L235.65 229.875C234.744 229.878 233.751 229.992 232.902 230.492C232.042 230.892 231.427 231.667 230.922 232.531C229.9 234.158 230.151 236.343 231.327 237.819ZM231.327 237.819C230.052 236.355 229.9 234.158 230.822 232.542C231.228 231.69 231.954 231.003 232.814 230.602C233.674 230.202 234.568 230.099 235.573 230.085L246.891 229.592L258.208 229.099L261.013 228.979L262.415 228.919L263.11 228.839C263.309 228.816 263.508 228.793 263.718 228.87C264.536 228.977 265.265 229.196 265.93 229.723C266.594 230.251 266.972 230.912 267.25 231.585C267.719 233.041 267.328 234.898 266.029 235.852C265.753 236.085 265.379 236.329 264.993 236.474C264.794 236.497 264.607 236.619 264.419 236.741L263.735 236.92L261.011 237.736L250.245 241.286L244.807 243.017L242.093 243.932C241.222 244.233 240.362 244.634 239.357 244.648C238.463 244.751 237.523 244.456 236.672 244.05C235.82 243.645 235.221 242.808 234.633 242.07L231.327 237.819Z"
                    fill="#67461C"
                  />
                  <path
                    d="M229.657 237.306L236.485 238.033C238.418 238.214 240.325 237.29 241.236 235.575L253.194 213.469C254.862 210.459 252.828 206.767 249.47 206.447C247.946 206.32 246.402 206.9 245.324 208.03L226.549 229.509C224.052 232.312 225.78 236.845 229.657 237.306Z"
                    fill="#FFFACE"
                  />
                  <path
                    d="M229.669 237.405C231.503 237.597 233.436 237.778 235.293 238.169C235.801 238.212 236.221 238.365 236.729 238.407C237.237 238.449 237.734 238.392 238.231 238.335C239.213 238.122 240.161 237.611 240.887 236.924C241.25 236.58 241.602 236.137 241.855 235.705L242.623 234.51C243.128 233.647 243.545 232.894 244.05 232.031C244.972 230.416 245.883 228.701 246.694 226.997C248.416 223.579 249.939 220.183 251.672 216.864L252.999 214.397C253.252 213.965 253.405 213.545 253.657 213.113C253.81 212.693 253.952 212.174 253.994 211.666C254.079 210.649 253.866 209.667 253.454 208.708C252.954 207.859 252.255 207.034 251.293 206.54C250.43 206.035 249.291 205.763 248.298 205.877C247.205 206.002 246.246 206.414 245.408 207.014C245.221 207.136 245.045 207.357 244.869 207.579L244.43 208.132L243.439 209.152L241.569 211.279C239.073 214.082 236.476 216.896 233.991 219.798C231.505 222.7 229.108 225.491 226.744 228.581C226.481 228.913 226.129 229.356 225.876 229.788C225.624 230.219 225.383 230.75 225.23 231.17C224.946 232.209 225.06 233.203 225.373 234.174C226.063 235.806 227.736 237.224 229.669 237.405ZM229.745 237.195C228.829 237.099 227.977 236.693 227.202 236.078C226.526 235.45 226.026 234.602 225.824 233.719C225.622 232.836 225.619 231.931 225.925 231.091C226.078 230.67 226.342 230.338 226.606 230.006C226.87 229.674 227.233 229.33 227.497 228.998C230.204 226.272 232.701 223.469 235.198 220.666C237.695 217.863 240.18 214.961 242.566 212.07L244.436 209.944L245.316 208.836L245.755 208.282C245.943 208.16 246.019 207.95 246.206 207.828C246.845 207.252 247.605 206.862 248.4 206.771C249.195 206.68 250.112 206.776 250.853 207.094C252.446 207.817 253.545 209.503 253.353 211.337C253.299 211.745 253.257 212.253 253.103 212.674C252.95 213.094 252.698 213.525 252.445 213.957L251.118 216.424C249.285 219.755 247.232 222.909 245.399 226.24C244.477 227.856 243.567 229.57 242.645 231.186C242.239 232.038 241.734 232.901 241.329 233.753L240.671 235.036C240.517 235.456 240.254 235.788 239.99 236.121C239.462 236.785 238.713 237.274 237.842 237.575C237.456 237.72 236.959 237.777 236.55 237.723C236.141 237.669 235.644 237.726 235.136 237.684C233.513 237.568 231.579 237.387 229.745 237.195Z"
                    fill="#67461C"
                  />
                  <path
                    d="M257.562 280.507L260.003 286.871C260.716 288.701 262.465 289.91 264.376 289.892L289.501 290.433C292.936 290.542 295.353 287.044 294.083 283.868C293.514 282.423 292.285 281.356 290.726 280.931L263.061 274.039C259.435 273.146 256.136 276.846 257.562 280.507Z"
                    fill="#FFFACE"
                  />
                  <path
                    d="M257.462 280.519C258.164 282.251 258.778 284.093 259.381 285.835C259.537 286.321 259.682 286.707 259.838 287.192C259.995 287.677 260.25 288.151 260.594 288.515C261.193 289.352 262.068 289.956 263.107 290.239C263.626 290.381 264.146 290.523 264.643 290.466L266.056 290.505C266.973 290.601 267.978 290.587 268.884 290.583C270.806 290.665 272.617 290.659 274.527 290.641C278.348 290.605 282.058 290.482 285.879 290.446L288.706 290.524C289.214 290.567 289.612 290.521 290.12 290.564C290.616 290.507 291.113 290.45 291.587 290.194C292.546 289.782 293.384 289.183 293.889 288.319C294.493 287.445 294.788 286.505 294.872 285.489C294.858 284.484 294.633 283.403 294.023 282.466C293.511 281.518 292.625 280.815 291.674 280.42C291.464 280.344 291.155 280.279 290.933 280.103L290.203 279.884L288.855 279.536L286.158 278.839C282.521 277.846 278.884 276.854 275.16 275.973C271.435 275.092 267.81 274.199 264.108 273.516C263.699 273.463 263.179 273.321 262.671 273.279C262.163 273.236 261.666 273.293 261.17 273.35C260.188 273.563 259.24 274.075 258.624 274.85C257.205 276.523 256.761 278.788 257.462 280.519ZM257.661 280.497C257.36 279.625 257.246 278.632 257.453 277.803C257.648 276.874 258.165 276.111 258.902 275.523C259.541 274.946 260.401 274.546 261.295 274.443C261.692 274.397 262.201 274.44 262.609 274.494C263.018 274.547 263.438 274.7 263.958 274.842C267.617 276.033 271.243 276.926 274.88 277.918C278.505 278.81 282.23 279.692 285.855 280.584L288.64 281.171L289.988 281.52L290.707 281.638C290.917 281.715 291.115 281.692 291.325 281.769C292.066 282.086 292.731 282.614 293.307 283.253C293.785 283.903 294.086 284.774 294.177 285.569C294.271 287.269 293.273 289.095 291.542 289.796C291.156 289.941 290.67 290.098 290.273 290.143C289.875 290.189 289.367 290.147 288.871 290.204L286.043 290.125C282.299 289.951 278.543 289.677 274.7 289.514C272.778 289.432 270.955 289.339 269.045 289.357C268.139 289.36 267.135 289.375 266.229 289.378L264.827 289.438C264.33 289.495 264.021 289.43 263.512 289.388C262.683 289.181 261.931 288.764 261.255 288.137C260.923 287.873 260.679 287.498 260.534 287.112C260.289 286.738 260.133 286.252 259.988 285.866C259.065 283.959 258.363 282.228 257.661 280.497Z"
                    fill="#67461C"
                  />
                  <path
                    d="M261.257 291.659L263.212 298.179C263.727 300.033 265.388 301.352 267.333 301.632L292.399 304.293C295.757 304.613 298.518 301.478 297.535 298.168C297.066 296.712 295.913 295.435 294.453 294.998L267.531 285.806C263.749 284.428 260.117 287.865 261.257 291.659Z"
                    fill="#FFFACE"
                  />
                  <path
                    d="M261.257 291.659L262.789 297.12C262.945 297.606 262.991 298.003 263.147 298.488C263.304 298.974 263.548 299.348 263.792 299.723C264.38 300.461 265.155 301.076 266.007 301.482C266.427 301.635 266.947 301.777 267.455 301.819L268.88 301.958L271.642 302.345L277.266 303.11L288.502 304.539L291.363 304.915L292.082 305.034C292.292 305.11 292.59 305.076 292.888 305.042C293.396 305.084 293.98 304.917 294.466 304.76C296.606 304.112 298.189 302.119 298.336 299.888C298.409 298.772 298.185 297.691 297.673 296.743C297.162 295.795 296.264 294.992 295.302 294.498C295.08 294.322 294.771 294.257 294.561 294.181L293.931 293.951L292.571 293.503L289.851 292.607L278.995 289.222L268.138 285.837C267.298 285.531 266.259 285.248 265.365 285.35C264.371 285.464 263.511 285.865 262.773 286.453C261.309 287.728 260.643 289.817 261.257 291.659ZM261.257 291.659C260.643 289.817 261.408 287.716 262.895 286.64C263.633 286.052 264.493 285.651 265.498 285.637C266.392 285.534 267.332 285.829 268.184 286.235L278.799 290.151L289.414 294.066L292.046 295.073L293.406 295.521L294.036 295.751C294.247 295.827 294.457 295.904 294.567 295.992C295.308 296.309 295.885 296.948 296.263 297.609C296.641 298.27 296.831 299.054 296.723 299.871C296.596 301.396 295.464 302.935 294.008 303.404C293.622 303.549 293.225 303.594 292.827 303.64C292.629 303.663 292.43 303.685 292.22 303.609L291.513 303.589L288.663 303.312L277.385 302.391L271.696 301.937L268.857 301.759C267.94 301.663 266.935 301.677 266.095 301.371C265.255 301.065 264.479 300.449 263.891 299.711C263.304 298.974 263.09 297.992 262.789 297.12L261.257 291.659Z"
                    fill="#67461C"
                  />
                  <g opacity="0.42">
                    <path
                      opacity="0.42"
                      d="M261.2 291.163C261.211 291.262 261.234 291.461 261.345 291.549C261.234 291.461 261.223 291.361 261.2 291.163Z"
                      fill="#67461C"
                    />
                    <path
                      opacity="0.42"
                      d="M225.207 230.972C225.348 230.452 225.502 230.032 225.853 229.589C226.106 229.158 226.458 228.715 226.722 228.382C228.997 225.404 231.482 222.502 233.968 219.6C236.453 216.697 238.95 213.895 241.547 211.08L243.416 208.954L244.407 207.934L244.846 207.38C245.022 207.159 245.21 207.037 245.386 206.815C246.211 206.117 247.27 205.693 248.275 205.679C249.368 205.553 250.407 205.837 251.27 206.342C252.232 206.835 252.931 207.661 253.431 208.51C253.931 209.358 254.056 210.451 253.972 211.467C253.929 211.975 253.787 212.495 253.634 212.915C253.47 213.236 253.305 213.557 253.141 213.878C254.081 214.172 254.944 214.677 255.532 215.415C254.129 215.475 252.849 215.723 251.703 216.257C242.553 220.729 243.032 240.704 252.899 260.912C262.766 281.119 278.116 293.853 287.366 289.369C290.133 288.045 292.022 285.212 293.091 281.365C293.534 281.717 293.889 282.179 294.244 282.642C294.855 283.578 295.068 284.56 295.094 285.665C295.086 286.471 294.868 287.2 294.55 287.941C294.732 289.531 294.12 291.212 292.831 292.265L291.631 293.208L292.781 293.58L294.141 294.028L294.771 294.257C294.981 294.334 295.291 294.399 295.512 294.575C296.475 295.069 297.372 295.872 297.883 296.819C298.395 297.767 298.631 298.948 298.546 299.964C298.399 302.196 296.816 304.189 294.676 304.837C294.191 304.993 293.595 305.062 293.098 305.119C292.8 305.153 292.49 305.088 292.292 305.111L291.573 304.992L288.712 304.615L278.901 303.325L273.098 308.017C270.422 310.135 266.453 308.879 265.481 305.669C265.023 304.313 265.349 302.765 266.118 301.57C265.277 301.264 264.502 300.648 263.914 299.91C263.67 299.536 263.414 299.062 263.269 298.676C263.113 298.19 262.968 297.804 262.911 297.308L261.379 291.847C261.245 291.56 261.211 291.262 261.177 290.964C261.188 291.063 261.211 291.262 261.222 291.361C261.043 290.677 261.063 289.97 261.293 289.34C261.071 289.164 260.85 288.988 260.716 288.702C260.373 288.339 260.117 287.865 259.961 287.379C259.804 286.894 259.659 286.508 259.503 286.023C258.889 284.18 258.287 282.438 257.585 280.706C257.15 279.548 257.101 278.246 257.572 277.084C257.041 276.843 256.598 276.491 256.243 276.029C255.899 275.666 255.644 275.192 255.399 274.817C255.144 274.343 254.999 273.957 254.843 273.472C254.575 272.899 254.308 272.325 254.141 271.74C254.019 271.553 253.797 271.377 253.664 271.091C253.396 270.517 253.141 270.043 253.072 269.447C252.927 269.061 252.683 268.687 252.538 268.301C252.271 267.727 252.115 267.242 252.047 266.646C251.626 266.493 251.183 266.141 250.851 265.877C250.508 265.514 250.175 265.25 249.92 264.776C249.675 264.402 249.42 263.928 249.175 263.553L247.798 261.195C247.255 260.854 246.801 260.403 246.435 259.841C245.713 258.817 245.466 257.537 245.738 256.398C245.726 256.299 245.726 256.299 245.715 256.199L245.704 256.1C244.787 256.004 243.836 255.61 243.16 254.983C242.717 254.631 242.373 254.268 242.129 253.893C241.884 253.518 241.629 253.044 241.385 252.67C240.396 251.072 239.408 249.474 238.32 247.888C237.61 246.963 237.374 245.782 237.436 244.567C237.325 244.479 237.225 244.49 237.115 244.403C236.683 244.15 236.339 243.787 236.007 243.523C235.664 243.16 235.419 242.785 235.076 242.422L231.548 237.995C231.438 237.907 231.426 237.808 231.415 237.708C230.907 237.666 230.398 237.624 229.89 237.581C227.957 237.4 226.185 235.993 225.571 234.151C225.037 233.004 224.912 231.912 225.207 230.972ZM231.327 237.819C231.216 237.731 231.205 237.632 231.193 237.533C231.304 237.62 231.315 237.72 231.327 237.819Z"
                      fill="#67461C"
                    />
                  </g>
                  <path
                    opacity="0.16"
                    d="M348.818 319.664C348.602 317.777 347.48 315.892 345.452 314.011C346.319 315.422 346.776 316.778 346.626 318.104C345.63 326.975 321.484 331.456 292.815 328.101C264.146 324.746 241.77 314.831 242.766 305.96C243.73 297.696 264.851 293.16 290.976 295.397C288.722 295.052 286.48 294.806 284.226 294.46C248.829 290.367 219.016 294.592 215.67 304.035L215.471 304.057L212.031 333.743L345.466 349.239L348.906 319.554L348.818 319.664Z"
                    fill="#67461C"
                  />
                  <path
                    d="M349.017 319.641C348.918 319.653 348.906 319.554 348.807 319.565L348.918 319.653C348.747 318.163 348.079 316.729 347.136 315.529C346.659 314.879 346.193 314.329 345.628 313.79C345.063 313.25 344.509 312.811 343.944 312.271C341.607 310.325 339.018 308.81 336.34 307.406C330.997 304.698 325.324 302.63 319.575 300.773C313.838 299.016 308.035 297.568 302.167 296.429C296.299 295.29 290.354 294.361 284.432 293.631C272.501 292.282 260.473 291.85 248.495 292.72C245.503 292.963 242.511 293.205 239.542 293.647C236.573 294.088 233.604 294.529 230.669 295.268C227.734 296.007 224.81 296.846 222.131 298.059C220.797 298.715 219.463 299.372 218.263 300.315C217.063 301.258 215.984 302.388 215.46 303.958L215.834 303.714L215.636 303.736L215.326 303.671L215.261 303.981C214.616 308.886 214.081 313.88 213.436 318.785L211.512 333.601L211.481 334.208L212.088 334.239C223.225 335.68 234.251 337.032 245.388 338.472L278.764 342.496L312.117 346.32C323.219 347.462 334.344 348.803 345.535 349.835L346.142 349.866L346.173 349.258L347.677 334.29L349.017 319.641ZM348.83 319.764L346.806 334.591L344.859 349.208L345.597 348.62C334.46 347.18 323.335 345.839 312.297 344.387L278.933 340.463L245.591 336.738C234.477 335.496 223.364 334.255 212.162 333.124L212.738 333.762L214.254 318.893C214.788 313.899 215.334 309.005 215.869 304.012L215.494 304.256L215.693 304.233L216.002 304.298L216.079 304.088C216.527 302.728 217.616 301.697 218.717 300.766C219.818 299.834 221.141 299.079 222.486 298.522C225.165 297.309 228.089 296.47 230.936 295.842C236.729 294.573 242.701 293.989 248.609 293.714C254.516 293.439 260.468 293.562 266.444 293.883C272.419 294.204 278.307 294.636 284.229 295.366C296.072 296.826 307.774 298.805 319.227 302.122C324.953 303.78 330.603 305.649 335.935 308.258C338.601 309.563 341.267 310.867 343.592 312.714C344.146 313.154 344.711 313.693 345.265 314.133C345.83 314.672 346.284 315.123 346.761 315.773C347.693 316.874 348.449 318.197 348.719 319.676L348.73 319.775L348.83 319.764Z"
                    fill="#67461C"
                  />
                  <path
                    d="M219.205 306.282L219.404 306.259C222.86 296.904 252.661 292.58 287.959 296.685C290.202 296.931 292.555 297.265 294.71 297.622C320.398 301.318 341.274 308.688 349.174 316.136C351.103 318.029 352.324 319.902 352.54 321.789L352.739 321.766L349.299 351.452L215.864 335.955L219.205 306.282Z"
                    fill="url(#paint0_linear_230:14587)"
                  />
                  <path
                    opacity="0.16"
                    d="M352.54 321.789C352.324 319.901 351.202 318.017 349.174 316.136C350.041 317.546 350.498 318.903 350.348 320.229C349.353 329.1 325.206 333.58 296.537 330.225C267.868 326.87 245.492 316.955 246.488 308.084C247.452 299.82 268.573 295.284 294.698 297.522C292.444 297.176 290.202 296.93 287.948 296.585C252.551 292.492 222.738 296.716 219.392 306.159L219.193 306.182L215.754 335.867L349.188 351.364L352.628 321.678L352.54 321.789Z"
                    fill="#67461C"
                  />
                  <path
                    d="M96.3834 465.816C96.5674 464.788 96.7516 463.761 96.9357 462.733C111.49 393.926 164.771 343.325 229.112 328.598C253.145 323.124 278.653 322.614 304.237 328.034C363.352 340.58 409.139 381.73 430.118 433.88C442.641 464.955 446.365 500.059 438.936 535.336C438.752 536.363 438.469 537.402 438.185 538.441C416.802 631.081 324.998 689.825 231.634 670.034C138.26 650.145 78.3047 559.184 96.3834 465.816Z"
                    fill="url(#paint1_radial_230:14587)"
                  />
                  <path
                    opacity="0.16"
                    d="M231.634 670.034C324.998 689.825 416.802 631.081 438.185 538.441C444.57 504.593 440.619 471.025 428.642 441.195C429.368 452.788 428.515 464.662 425.962 476.631C410.722 548.234 340.373 593.948 268.869 578.696C197.266 563.456 151.552 493.107 166.804 421.603C174.712 384.36 197.531 354.263 227.636 335.914C164.663 350.283 112.293 399.169 96.4826 465.804C78.3045 559.184 138.26 650.144 231.634 670.034Z"
                    fill="#67461C"
                  />
                  <path
                    d="M426.495 431.743C417.829 410.593 405.302 390.892 389.232 374.516C373.436 357.908 354.02 344.835 333.027 335.567C322.443 331.044 311.476 327.571 300.225 325.137C288.975 322.703 277.463 321.507 265.967 321.316C242.973 320.933 219.942 325.487 198.681 334.066C177.432 342.744 157.765 355.568 141.5 371.727C140.51 372.746 139.42 373.777 138.43 374.796C137.44 375.816 136.449 376.835 135.471 377.954C133.601 380.081 131.632 382.219 129.773 384.446C126.045 388.799 122.649 393.416 119.474 398.209C116.189 402.914 113.335 407.871 110.482 412.829C109.166 415.395 107.739 417.874 106.533 420.529C105.875 421.812 105.317 423.084 104.659 424.367L102.895 428.294C98.3711 438.878 95.0968 449.823 92.663 461.073C92.0765 463.858 91.7001 466.72 91.2129 469.493C90.6265 472.278 90.3494 475.129 90.0724 477.979C89.9339 479.404 89.696 480.84 89.6568 482.254L89.3406 486.518C89.3014 487.931 89.0636 489.368 89.1238 490.77L89.0177 495.11C88.6238 518.004 92.9791 541.058 101.458 562.331C109.949 583.702 122.663 603.281 138.645 619.767C154.628 636.254 173.967 649.536 195.136 658.583C216.305 667.63 239.215 672.552 262.197 672.835C285.19 673.217 308.332 668.751 329.593 660.173C350.953 651.583 370.62 638.758 386.984 622.588C403.348 606.418 416.532 587.09 425.368 565.845L427.022 561.83L428.465 557.739L429.908 553.648C430.356 552.288 430.804 550.928 431.153 549.58L432.397 545.511C432.746 544.163 433.083 542.715 433.432 541.367C434.118 538.57 434.803 535.774 435.489 532.977C437.724 521.75 439.031 510.326 439.024 498.852C439.505 475.848 435.062 452.905 426.495 431.743ZM426.296 431.766C430.431 442.364 433.816 453.45 435.811 464.696C436.957 470.302 437.607 475.965 438.157 481.639C438.388 484.532 438.608 487.325 438.64 490.24C438.7 491.642 438.76 493.045 438.732 494.558L438.726 498.887C438.523 510.284 437.117 521.719 434.771 532.859C434.184 535.644 433.388 538.352 432.702 541.148C432.353 542.497 432.016 543.945 431.568 545.305L430.224 549.384C429.776 550.744 429.328 552.104 428.881 553.464L427.426 557.456L425.971 561.447L424.307 565.363C415.226 586.233 402.119 605.351 385.72 621.223C369.422 637.084 350.041 649.775 328.868 658.243C318.282 662.476 307.383 665.74 296.148 667.833C285.013 669.916 273.554 670.928 262.267 670.814C239.495 670.607 216.807 665.861 195.859 656.99C174.912 648.12 155.695 635.024 139.746 618.836C123.786 602.548 110.996 583.18 102.429 562.018C93.8618 540.856 89.5293 518.001 89.7358 495.229L89.8533 490.988C89.8925 489.575 90.0311 488.15 90.0703 486.736L90.3864 482.472C90.4256 481.059 90.6635 479.622 90.802 478.197C91.1784 475.335 91.356 472.497 91.9425 469.712C92.4296 466.938 92.8061 464.077 93.3925 461.292C94.5655 455.722 95.9372 450.129 97.7291 444.689C98.5256 441.981 99.5209 439.25 100.528 436.618C100.975 435.258 101.534 433.986 102.081 432.615C102.629 431.244 103.088 429.983 103.746 428.7C112.606 407.653 125.911 388.512 142.321 372.74C158.719 356.868 178.21 344.265 199.394 335.896C220.567 327.429 243.335 323.207 266.095 323.314C277.481 323.417 288.893 324.625 300.033 326.971C311.184 329.416 322.129 332.69 332.591 337.026C353.549 345.997 372.943 358.871 388.903 375.158C396.982 383.29 404.235 392.121 410.377 401.785C416.671 411.028 421.963 421.191 426.296 431.766Z"
                    fill="#67461C"
                  />
                  <path
                    d="M289.027 374.937C286.475 374.626 284.037 375.309 282.076 376.641C282.175 376.629 282.175 376.629 282.274 376.618C286.252 377.068 289.486 379.817 290.725 383.6C294.923 396.506 302.172 428.992 290.881 474.475C290.272 477.061 288.7 479.154 286.64 480.497C291.732 481.02 296.381 477.669 297.633 472.794C309.024 427.3 301.676 394.826 297.478 381.92C296.338 378.125 293.004 375.387 289.027 374.937Z"
                    fill="#531F5D"
                  />
                  <path
                    d="M290.881 474.474C302.271 428.98 294.923 396.506 290.725 383.6C289.486 379.817 286.152 377.079 282.274 376.618C282.175 376.629 282.175 376.629 282.076 376.64C279.002 378.805 277.017 382.555 277.793 386.694C284.338 426.205 280.105 453.365 276.279 467.392C274.655 473.416 278.674 479.498 284.905 480.293L286.64 480.497C286.739 480.485 286.739 480.485 286.838 480.474C288.7 479.153 290.26 476.961 290.881 474.474Z"
                    fill="#272726"
                  />
                  <path
                    d="M366.85 390.873C365.611 387.09 362.277 384.352 358.399 383.891C355.847 383.58 353.409 384.262 351.448 385.594C351.547 385.582 351.547 385.582 351.646 385.571C355.624 386.021 358.858 388.77 360.097 392.554C364.295 405.459 371.544 437.945 360.253 483.428C359.644 486.014 358.072 488.107 356.012 489.45C361.104 489.973 365.753 486.622 367.006 481.747C378.296 436.265 371.048 403.779 366.85 390.873Z"
                    fill="#531F5D"
                  />
                  <path
                    d="M360.264 483.527C371.655 438.033 364.307 405.559 360.109 392.653C358.869 388.87 355.536 386.132 351.658 385.671C351.559 385.682 351.559 385.682 351.459 385.694C348.386 387.858 346.4 391.609 347.177 395.747C353.722 435.259 349.489 462.418 345.662 476.445C344.038 482.47 348.057 488.551 354.289 489.346L356.023 489.55C356.123 489.539 356.122 489.539 356.222 489.527C358.072 488.107 359.544 486.026 360.264 483.527Z"
                    fill="#272726"
                  />
                  <path
                    d="M290.881 474.474C302.271 428.98 294.923 396.506 290.725 383.6C289.486 379.817 286.152 377.079 282.274 376.618C282.175 376.629 282.175 376.629 282.076 376.64C279.002 378.805 277.017 382.555 277.793 386.694C284.338 426.205 280.105 453.365 276.279 467.392C274.655 473.416 278.674 479.498 284.905 480.293L286.64 480.497C286.739 480.485 286.739 480.485 286.838 480.474C288.7 479.153 290.26 476.961 290.881 474.474Z"
                    fill="url(#paint2_linear_230:14587)"
                  />
                  <path
                    d="M360.264 483.527C371.655 438.033 364.307 405.559 360.109 392.653C358.869 388.87 355.536 386.132 351.658 385.671C351.559 385.682 351.559 385.682 351.459 385.694C348.386 387.858 346.4 391.609 347.177 395.747C353.722 435.259 349.489 462.418 345.662 476.445C344.038 482.47 348.057 488.551 354.289 489.346L356.023 489.55C356.123 489.539 356.122 489.539 356.222 489.527C358.072 488.107 359.544 486.026 360.264 483.527Z"
                    fill="url(#paint3_linear_230:14587)"
                  />
                  <path
                    d="M251.298 445.295C250.634 450.907 245.878 455.076 240.356 455.206C239.98 464.208 241.227 473.325 244.018 481.863C246.942 490.687 251.522 499.019 257.565 506.077C263.521 513.245 270.753 519.26 278.908 523.659C285.557 527.225 292.8 529.816 300.203 531.182C293.992 529.68 287.899 527.459 282.311 524.376C274.157 519.977 266.925 513.961 260.969 506.793C255.025 499.725 250.346 491.404 247.421 482.579C244.63 474.042 243.383 464.925 243.76 455.923C249.281 455.793 254.037 451.624 254.702 446.012C255.325 440.907 252.359 436.114 247.913 434.208C246.962 433.814 245.923 433.531 244.895 433.347C244.685 433.27 244.387 433.304 244.188 433.327C244.299 433.415 244.498 433.392 244.608 433.48C249.055 435.386 251.921 440.191 251.298 445.295Z"
                    fill="#531F5D"
                  />
                  <path
                    d="M402.843 473.007C403.477 468.002 400.424 463.319 395.714 461.746C395.083 461.516 394.365 461.397 393.647 461.278C393.337 461.213 393.139 461.236 392.829 461.171C397.153 462.889 399.985 467.396 399.428 472.191C398.817 477.394 394.523 481.208 389.411 481.392C384.93 497.608 374.944 512.342 361.529 522.638C345.538 535.041 324.566 540.868 304.47 538.543C302.736 538.339 300.89 538.048 299.144 537.745C302.04 538.419 304.913 538.895 307.775 539.271C327.882 541.696 348.843 535.769 364.834 523.366C378.248 513.07 388.135 498.348 392.716 482.12C397.839 482.036 402.133 478.222 402.843 473.007Z"
                    fill="#531F5D"
                  />
                  <path
                    d="M361.552 522.837C374.966 512.541 384.853 497.819 389.434 481.591C394.447 481.419 398.84 477.593 399.451 472.39C399.996 467.495 397.176 463.088 392.852 461.37C392.145 461.35 391.45 461.43 390.754 461.51C386.207 462.232 382.598 465.867 382.029 470.563C381.525 474.949 383.804 479.016 387.455 481.013C385.621 486.96 383.057 492.69 379.829 497.892C374.998 505.793 368.562 512.873 361.139 518.354C353.726 523.935 345.249 528.129 336.268 530.568C327.288 533.007 317.915 533.78 308.723 532.62C305.861 532.244 303.088 531.757 300.303 531.17C292.899 529.805 285.656 527.213 279.007 523.648C270.852 519.248 263.62 513.233 257.664 506.065C251.72 498.996 247.041 490.675 244.117 481.851C241.326 473.314 240.079 464.196 240.456 455.195C245.977 455.065 250.733 450.896 251.398 445.283C252.02 440.179 249.055 435.386 244.608 433.48C244.498 433.392 244.299 433.415 244.188 433.327C243.89 433.361 243.581 433.296 243.283 433.33C237.761 433.46 233.006 437.629 232.341 443.241C231.695 448.147 234.428 452.665 238.588 454.704C236.847 474.632 243.336 495.227 256.091 510.775C262.424 518.604 270.42 525.136 279.239 530.063C285.58 533.563 292.314 536.113 299.343 537.722C301.089 538.025 302.835 538.328 304.669 538.52C324.688 541.056 345.66 535.228 361.552 522.837Z"
                    fill="#272726"
                  />
                  <path
                    d="M361.552 522.837C374.966 512.541 384.853 497.819 389.434 481.591C394.447 481.419 398.84 477.593 399.451 472.39C399.996 467.495 397.176 463.088 392.852 461.37C392.145 461.35 391.45 461.43 390.754 461.51C386.207 462.232 382.598 465.867 382.029 470.563C381.525 474.949 383.804 479.016 387.455 481.013C385.621 486.96 383.057 492.69 379.829 497.892C374.998 505.793 368.562 512.873 361.139 518.354C353.726 523.935 345.249 528.129 336.268 530.568C327.288 533.007 317.915 533.78 308.723 532.62C305.861 532.244 303.088 531.757 300.303 531.17C292.899 529.805 285.656 527.213 279.007 523.648C270.852 519.248 263.62 513.233 257.664 506.065C251.72 498.996 247.041 490.675 244.117 481.851C241.326 473.314 240.079 464.196 240.456 455.195C245.977 455.065 250.733 450.896 251.398 445.283C252.02 440.179 249.055 435.386 244.608 433.48C244.498 433.392 244.299 433.415 244.188 433.327C243.89 433.361 243.581 433.296 243.283 433.33C237.761 433.46 233.006 437.629 232.341 443.241C231.695 448.147 234.428 452.665 238.588 454.704C236.847 474.632 243.336 495.227 256.091 510.775C262.424 518.604 270.42 525.136 279.239 530.063C285.58 533.563 292.314 536.113 299.343 537.722C301.089 538.025 302.835 538.328 304.669 538.52C324.688 541.056 345.66 535.228 361.552 522.837Z"
                    fill="url(#paint4_linear_230:14587)"
                  />
                  <path
                    d="M276.08 467.415C275.448 469.803 275.656 472.497 276.725 474.79C277.793 477.083 279.721 478.976 282.044 479.917C283.205 480.388 284.542 480.637 285.669 480.81C286.895 480.971 288.221 481.121 289.501 480.874C292.073 480.478 294.431 479.1 296.114 477.096C296.905 476.099 297.575 474.915 298.034 473.654C298.493 472.394 298.666 471.267 299.026 470.018C299.559 467.641 300.29 465.242 300.712 462.778C301.134 460.314 301.667 457.938 302.089 455.474C302.411 453.021 302.833 450.557 303.057 448.116C304.137 438.228 304.301 428.245 303.769 418.341C303.336 408.425 302.097 398.502 299.876 388.792C299.293 386.342 298.722 383.992 297.94 381.565C297.147 379.039 295.284 376.837 292.927 375.598C290.559 374.259 287.797 373.871 285.149 374.477C282.501 375.082 280.165 376.659 278.605 378.851C277.044 381.043 276.259 383.851 276.567 386.533L277.609 393.862L278.551 401.202L279.196 408.577C279.556 413.468 279.927 418.458 279.988 423.383C280.149 428.297 280.111 433.233 279.974 438.181C279.677 447.878 278.597 457.766 276.08 467.415ZM276.279 467.392C278.807 457.842 280.495 447.986 281.377 438.121C282.358 428.245 282.112 418.207 281.481 408.315C281.295 405.82 281.011 403.336 280.825 400.841C280.54 398.357 280.255 395.874 279.871 393.401L278.73 386.084C278.38 383.909 279.012 381.522 280.308 379.662C281.605 377.802 283.566 376.47 285.717 375.921C287.869 375.372 290.322 375.695 292.346 376.671C294.382 377.746 296.001 379.573 296.847 381.691C297.618 384.018 298.388 386.345 298.959 388.696C301.467 398.272 302.893 408.074 303.226 418C303.56 427.927 302.877 437.769 301.487 447.591C301.164 450.044 300.742 452.508 300.408 454.861C300.085 457.314 299.553 459.69 299.131 462.154L298.839 464L298.448 465.856L297.655 469.47C297.383 470.609 297.134 471.946 296.861 473.084C296.589 474.223 296.008 475.296 295.304 476.182C293.908 478.053 291.848 479.397 289.487 479.869C288.306 480.105 287.102 480.142 285.876 479.981C284.661 479.919 283.434 479.758 282.273 479.287C279.962 478.445 278.045 476.652 277 474.557C275.844 472.375 275.647 469.78 276.279 467.392Z"
                    fill="#67461C"
                  />
                  <path
                    d="M345.452 476.369C344.82 478.756 345.028 481.45 346.097 483.744C347.165 486.037 349.093 487.929 351.416 488.871C352.577 489.342 353.914 489.591 355.041 489.764C356.267 489.925 357.593 490.075 358.873 489.827C361.445 489.432 363.803 488.054 365.486 486.049C366.277 485.053 366.947 483.868 367.406 482.608C367.865 481.347 368.038 480.22 368.398 478.971C368.931 476.595 369.662 474.196 370.084 471.732C370.506 469.268 371.039 466.892 371.461 464.428C371.784 461.975 372.206 459.511 372.429 457.069C373.509 447.182 373.673 437.198 373.141 427.294C372.708 417.379 371.469 407.456 369.248 397.745C368.665 395.296 368.094 392.946 367.312 390.519C366.519 387.993 364.656 385.791 362.3 384.551C359.932 383.212 357.169 382.824 354.521 383.43C351.873 384.036 349.537 385.612 347.977 387.804C346.417 389.996 345.631 392.804 345.939 395.487L346.981 402.816L347.924 410.156L348.568 417.531C348.928 422.422 349.299 427.412 349.36 432.337C349.521 437.25 349.483 442.187 349.346 447.135C349.061 456.931 347.98 466.819 345.452 476.369ZM345.662 476.445C348.191 466.895 349.878 457.039 350.76 447.174C351.741 437.298 351.496 427.26 350.864 417.368C350.679 414.873 350.394 412.389 350.208 409.894C349.924 407.41 349.639 404.927 349.255 402.454L348.113 395.137C347.763 392.962 348.395 390.575 349.692 388.715C350.988 386.855 352.949 385.523 355.101 384.974C357.252 384.425 359.705 384.748 361.729 385.724C363.765 386.799 365.384 388.626 366.231 390.744C367.001 393.071 367.771 395.398 368.343 397.749C370.85 407.325 372.276 417.127 372.61 427.053C372.943 436.98 372.26 446.822 370.87 456.644C370.548 459.097 370.126 461.561 369.792 463.914C369.469 466.367 368.936 468.743 368.514 471.207L368.223 473.053L367.832 474.909L367.038 478.523C366.766 479.662 366.517 480.999 366.245 482.137C365.973 483.276 365.391 484.349 364.688 485.235C363.292 487.106 361.231 488.45 358.87 488.922C357.689 489.158 356.486 489.195 355.259 489.034C354.044 488.972 352.818 488.811 351.657 488.34C349.346 487.498 347.429 485.704 346.383 483.61C345.227 481.427 345.03 478.833 345.662 476.445Z"
                    fill="#67461C"
                  />
                  <path
                    d="M402.954 473.095C403.526 469.306 401.656 465.292 398.49 463.139C396.951 462.007 395.06 461.318 393.139 461.237C391.205 461.056 389.241 461.482 387.533 462.383C385.824 463.283 384.36 464.559 383.35 466.285C382.329 467.912 381.751 469.891 381.669 471.812C381.517 475.755 383.761 479.524 387.203 481.445L387.058 481.059C384.393 489.417 380.169 497.35 374.727 504.315C369.274 511.181 362.603 517.08 355.176 521.656C347.65 526.243 339.467 529.497 330.804 531.195C326.478 532.094 322.096 532.496 317.778 532.588C313.35 532.593 308.987 532.288 304.677 531.575C296.059 530.147 287.655 527.085 280.009 522.728C272.45 518.26 265.638 512.398 260.125 505.582C254.601 498.666 250.278 490.808 247.609 482.458C244.929 474.008 243.716 465.189 244.115 456.386L243.752 456.729C246.568 456.708 249.358 455.583 251.449 453.632C253.541 451.681 254.945 449.004 255.222 446.154C255.499 443.304 254.759 440.369 253.084 438.044C251.408 435.72 248.895 433.995 246.11 433.409C243.325 432.822 240.245 433.176 237.788 434.565C235.23 435.965 233.284 438.302 232.289 441.033C231.294 443.765 231.349 446.879 232.463 449.569C233.576 452.26 235.65 454.538 238.216 455.855L237.827 455.094C235.942 474.636 242.064 494.669 254.013 510.209C265.873 525.859 283.824 536.684 303.139 540.105C307.968 540.961 312.851 541.407 317.776 541.346C322.701 541.284 327.569 540.726 332.392 539.77C341.926 537.771 351.167 534.094 359.42 528.819C367.672 523.544 374.837 516.683 380.486 508.889C383.354 504.936 385.791 500.731 387.907 496.362C390.023 491.992 391.818 487.458 393.093 482.782L392.906 482.904C395.413 482.818 397.805 481.738 399.732 480.108C401.392 477.905 402.631 475.548 402.954 473.095ZM402.744 473.019C402.421 475.472 401.269 477.717 399.442 479.336C397.615 480.955 395.211 481.935 392.803 482.01L392.704 482.021L392.716 482.121C387.503 500.736 374.982 517.069 358.519 527.11C350.332 532.076 341.278 535.631 331.82 537.42C322.462 539.198 312.711 539.31 303.351 537.565C293.991 535.82 284.847 532.44 276.723 527.433C268.6 522.426 261.322 516.014 255.42 508.437C243.727 493.371 237.761 473.824 239.195 454.736L239.238 454.228L238.806 453.975C236.56 452.824 234.632 450.931 233.652 448.527C232.683 446.222 232.562 443.418 233.393 441.007C234.224 438.597 235.994 436.482 238.265 435.215C240.535 433.948 243.206 433.541 245.781 434.051C248.356 434.561 250.647 436.109 252.19 438.147C253.732 440.185 254.448 442.921 254.248 445.561C254.047 448.201 252.819 450.657 250.915 452.486C249.011 454.314 246.42 455.417 243.803 455.415L243.505 455.449L243.439 455.759C242.663 473.563 248.447 491.521 259.617 505.54C265.141 512.455 271.877 518.527 279.557 523.182C287.138 527.849 295.653 530.999 304.493 532.602C322.086 535.919 341.001 532.341 356.096 522.658C363.71 517.959 370.458 511.851 375.877 504.686C381.296 497.522 385.298 489.414 387.852 480.967L387.918 480.658L387.696 480.482C384.476 478.738 382.255 475.167 382.33 471.435C382.306 467.713 384.513 464.138 387.831 462.349C389.451 461.559 391.404 461.033 393.238 461.225C395.06 461.318 396.951 462.007 398.479 463.04C401.37 465.426 403.216 469.24 402.744 473.019Z"
                    fill="#67461C"
                  />
                  <path
                    d="M142.781 224.925C159.22 205.022 154.808 175.331 133.246 161.095L130.19 159.03L132.067 158.714C158.135 154.315 174.22 127.81 166.202 102.66L151.294 56.0547L178.266 88.4926C196.831 110.823 231.644 108.943 247.792 84.7459L281.021 34.8344L261.554 107.325C255.353 130.482 269.053 154.276 292.111 160.489L313.091 166.135L308.073 168.019C282.685 177.474 272.157 207.67 286 230.944L274.547 227.628C252.792 221.366 229.852 232.855 221.81 254.009L217.653 265.155L216.817 263.137C206.781 238.822 177.46 228.899 154.736 242.275L103.513 272.207L142.781 224.925Z"
                    fill="url(#paint5_radial_230:14587)"
                  />
                  <path
                    opacity="0.35"
                    d="M142.781 224.924C159.22 205.022 154.808 175.331 133.246 161.095L130.19 159.03L132.067 158.714C158.135 154.315 174.22 127.809 166.202 102.659L151.294 56.0545L178.266 88.4923C196.831 110.822 231.644 108.943 247.792 84.7456L281.021 34.8342L261.554 107.324C255.353 130.482 269.053 154.276 292.111 160.489L313.091 166.135L308.073 168.019C282.685 177.474 272.157 207.67 286 230.944L274.547 227.628C252.792 221.366 229.852 232.855 221.81 254.009L217.653 265.155L216.817 263.137C206.781 238.822 177.46 228.899 154.736 242.275L103.513 272.207L142.781 224.924ZM176.172 217.672C191.457 208.773 211.138 215.373 217.844 231.715L218.4 233.061L221.168 225.597C226.584 211.387 241.995 203.58 256.576 207.847L264.281 210.083C254.938 194.446 262.078 174.2 279.161 167.812L282.536 166.519L268.409 162.704C252.835 158.552 243.645 142.494 247.797 126.92L260.932 78.2057L238.611 111.768C227.791 128.006 204.384 129.282 191.896 114.307L173.797 92.5279L183.824 123.789C189.185 140.688 178.447 158.528 160.866 161.45L159.586 161.698L161.656 163.071C176.145 172.682 179.142 192.671 168.091 206.017L141.744 237.827L176.172 217.672Z"
                    fill="#F1D007"
                  />
                </g>
                <defs>
                  <linearGradient
                    id="paint0_linear_230:14587"
                    x1="338.698"
                    y1="326.495"
                    x2="242.416"
                    y2="315.223"
                    gradientUnits="userSpaceOnUse"
                  >
                    <stop offset="0.005618" stop-color="#FCCB00" />
                    <stop offset="0.2528" stop-color="#FFFAD2" />
                    <stop offset="0.3334" stop-color="#FAF1C1" />
                    <stop offset="0.4935" stop-color="#EDD894" />
                    <stop offset="0.7159" stop-color="#D8B14C" />
                    <stop offset="0.8608" stop-color="#C9961A" />
                  </linearGradient>
                  <radialGradient
                    id="paint1_radial_230:14587"
                    cx="0"
                    cy="0"
                    r="1"
                    gradientUnits="userSpaceOnUse"
                    gradientTransform="translate(405.995 351.234) rotate(173.457) scale(294.218 294.218)"
                  >
                    <stop offset="0.1221" stop-color="#FFFAD2" />
                    <stop offset="0.2937" stop-color="#FFFAD2" />
                    <stop offset="0.3988" stop-color="#FCF2C1" />
                    <stop offset="0.6066" stop-color="#F3DF94" />
                    <stop offset="0.6337" stop-color="#F2DC8E" />
                    <stop offset="1" stop-color="#C9961A" />
                  </radialGradient>
                  <linearGradient
                    id="paint2_linear_230:14587"
                    x1="271.421"
                    y1="491.221"
                    x2="290.599"
                    y2="400.889"
                    gradientUnits="userSpaceOnUse"
                  >
                    <stop stop-color="#D23F36" />
                    <stop
                      offset="0.2158"
                      stop-color="#DD4D52"
                      stop-opacity="0.7842"
                    />
                    <stop
                      offset="0.7485"
                      stop-color="#F56E93"
                      stop-opacity="0.2515"
                    />
                    <stop offset="1" stop-color="#FF7BAC" stop-opacity="0" />
                  </linearGradient>
                  <linearGradient
                    id="paint3_linear_230:14587"
                    x1="339.608"
                    y1="505.698"
                    x2="358.785"
                    y2="415.366"
                    gradientUnits="userSpaceOnUse"
                  >
                    <stop stop-color="#D23F36" />
                    <stop
                      offset="0.2158"
                      stop-color="#DD4D52"
                      stop-opacity="0.7842"
                    />
                    <stop
                      offset="0.7485"
                      stop-color="#F56E93"
                      stop-opacity="0.2515"
                    />
                    <stop offset="1" stop-color="#FF7BAC" stop-opacity="0" />
                  </linearGradient>
                  <linearGradient
                    id="paint4_linear_230:14587"
                    x1="273.979"
                    y1="605.976"
                    x2="317.276"
                    y2="453.846"
                    gradientUnits="userSpaceOnUse"
                  >
                    <stop stop-color="#D23F36" />
                    <stop
                      offset="0.2158"
                      stop-color="#DD4D52"
                      stop-opacity="0.7842"
                    />
                    <stop
                      offset="0.7485"
                      stop-color="#F56E93"
                      stop-opacity="0.2515"
                    />
                    <stop offset="1" stop-color="#FF7BAC" stop-opacity="0" />
                  </linearGradient>
                  <radialGradient
                    id="paint5_radial_230:14587"
                    cx="0"
                    cy="0"
                    r="1"
                    gradientUnits="userSpaceOnUse"
                    gradientTransform="translate(226.61 160.443) rotate(173.457) scale(147.359)"
                  >
                    <stop stop-color="white" />
                    <stop offset="0.0844937" stop-color="#FFFDEE" />
                    <stop offset="0.2524" stop-color="#FFF8C1" />
                    <stop offset="0.4857" stop-color="#FFF079" />
                    <stop offset="0.6376" stop-color="#FFEB47" />
                    <stop offset="0.9159" stop-color="#FFC947" />
                  </radialGradient>
                </defs>
              </svg>