<svg width="159" height="242" viewBox="0 0 159 242" fill="none" xmlns="http://www.w3.org/2000/svg">
<path d="M123.684 235.636C154.984 230.49 159.984 193.279 153.584 178.236C147.284 163.292 147.784 172.1 147.784 172.1L146.684 175.762L97.3841 162.896C89.4841 170.121 84.0841 180.512 82.4841 191.398C82.1841 193.378 82.0841 195.357 81.9841 197.435L91.4841 203.67C91.5841 203.769 92.3841 240.881 123.684 235.636Z" fill="#CB9E16"/>
<path d="M136.984 156.958C135.384 156.068 133.684 155.375 131.984 154.88H131.884L126.184 152.802L125.984 153.495C122.484 153 118.884 153.099 115.284 153.791C108.484 155.078 102.384 158.443 97.3842 163.094L146.684 175.96L147.784 172.298C147.784 172.298 147.284 163.49 153.584 178.434C159.884 193.377 154.984 230.588 123.684 235.833C92.3842 240.979 91.5842 203.868 91.5842 203.868L82.0842 197.633C81.8842 211.587 87.5842 225.541 98.1842 233.656L97.7842 234.943L105.484 237.912C106.284 238.307 107.084 238.604 107.984 238.901L108.184 239C128.884 245.928 153.284 232.073 157.584 202.284C157.684 201.888 157.684 201.492 157.684 201.097C159.984 180.314 150.584 164.084 136.984 156.958Z" fill="#B07320"/>
<path d="M136.984 156.958C135.384 156.167 133.684 155.474 131.984 154.88L126.184 152.901L126.384 152.802L126.184 153.495V153.594H126.084C121.484 153 116.784 153.495 112.384 154.781C107.984 156.167 103.884 158.344 100.284 161.214C93.0841 166.954 87.8841 174.871 85.0841 183.58C83.6841 187.934 82.8841 192.388 82.7841 196.94C82.5841 201.493 83.1841 206.045 84.2841 210.399C85.4841 214.754 87.1841 219.009 89.5841 222.869C91.9841 226.729 94.9841 230.192 98.5841 232.963L98.9841 233.26L98.7841 233.755L98.3841 235.042L97.9841 234.151L108.284 238.11L107.284 238.506L107.484 237.813L108.184 238.011C112.984 239.594 118.184 240.089 123.184 239.495C128.184 238.802 133.084 237.021 137.284 234.349C139.384 232.963 141.384 231.479 143.284 229.698C145.084 227.916 146.784 226.036 148.284 223.958C151.284 219.9 153.484 215.249 154.984 210.399C155.684 208.024 156.384 205.55 156.784 202.977C157.084 201.691 157.084 200.503 157.284 199.216L157.484 197.336C157.584 196.742 157.484 196.05 157.584 195.456C157.684 190.409 157.084 185.262 155.684 180.413C154.284 175.564 151.884 170.913 148.784 166.855C148.384 166.36 147.984 165.865 147.584 165.37L146.284 163.886L144.884 162.5L144.184 161.808L143.484 161.214L141.984 160.026L140.384 158.938L139.584 158.344L138.784 157.849L136.984 156.958ZM136.984 156.958C141.584 159.334 145.684 162.599 148.884 166.657C152.084 170.715 154.584 175.267 156.184 180.215C157.684 185.163 158.384 190.31 158.284 195.456C158.284 196.149 158.284 196.742 158.284 197.435L158.084 199.315C157.984 200.602 157.884 201.889 157.684 203.175C157.284 205.748 156.684 208.222 155.984 210.696C154.484 215.645 152.284 220.395 149.284 224.65C147.784 226.729 146.084 228.807 144.184 230.588C142.284 232.37 140.184 234.052 137.984 235.438C133.584 238.209 128.484 240.188 123.284 240.881C118.084 241.573 112.684 241.079 107.684 239.396L108.584 239L108.284 239.693L107.584 239.396L97.2841 235.438L96.5841 235.141L96.7841 234.448L97.2841 233.161L97.4841 233.953C93.7841 231.083 90.5841 227.421 88.1841 223.463C85.6841 219.504 83.9841 215.051 82.7841 210.597C80.4841 201.592 80.7841 191.893 83.7841 183.085C86.7841 174.277 92.1841 166.162 99.5841 160.521C103.284 157.651 107.484 155.474 111.984 154.187C116.484 152.901 121.284 152.604 125.884 153.297L125.684 153.396L125.884 152.703L125.984 152.604L126.084 152.703L131.884 154.88C133.784 155.375 135.384 156.068 136.984 156.958Z" fill="#752714"/>
<path d="M79.3841 188.429C76.8841 205.748 84.6841 224.354 100.084 231.677C120.584 241.277 146.784 228.213 151.784 198.821C154.784 173.585 139.984 154.781 121.384 151.614C118.184 151.219 114.784 151.318 111.484 151.911C94.6841 155.078 81.8841 171.111 79.3841 188.429Z" fill="#FFEB47"/>
<path d="M100.084 231.677C84.6841 224.452 76.8841 205.748 79.3841 188.429C81.8841 171.11 94.6841 155.078 111.584 151.911C114.884 151.317 118.184 151.218 121.484 151.614C117.584 150.922 113.584 151.021 109.684 151.713C92.3841 155.078 79.3841 171.605 76.7841 189.518C74.1841 207.431 81.9841 226.927 97.6841 234.844C119.084 245.73 147.084 232.073 151.684 200.008C151.784 199.612 151.784 199.216 151.784 198.821C146.884 228.213 120.684 241.277 100.084 231.677Z" fill="#CB9E16"/>
<path opacity="0.81" d="M151.684 198.821C154.384 176.158 142.684 158.74 126.884 153.099C125.084 152.505 123.184 152.01 121.284 151.614C117.384 150.922 113.384 151.021 109.484 151.713C92.2841 155.078 79.2841 171.605 76.6841 189.518C74.0841 207.431 81.8841 226.927 97.5841 234.844C118.984 245.73 146.984 232.073 151.584 200.008C151.684 199.612 151.684 199.216 151.684 198.821Z" fill="url(#paint0_linear_577:10487)"/>
<path d="M99.7841 196.247L98.0841 208.222H98.3841L98.9841 208.42L100.784 195.851L99.8841 195.554L99.7841 196.247Z" fill="#B07320"/>
<path d="M89.4842 181.007L89.3842 181.106L108.684 181.699L103.284 195.851H103.484L103.984 196.049L109.784 181.007L89.5842 180.512L89.4842 181.007Z" fill="#B07320"/>
<path d="M113.284 201.492L111.784 212.082H112.084L112.784 212.379L114.484 201.097L113.384 200.701L113.284 201.492Z" fill="#B07320"/>
<path d="M117.284 181.403L112.584 181.205L112.284 181.897V181.996L116.084 182.095L113.984 196.643L117.784 195.752L118.584 195.653L118.684 195.258L115.184 196.049L117.284 181.403Z" fill="#B07320"/>
<path d="M122.984 181.304L122.884 181.996V182.194L136.384 182.59L119.984 214.259L120.284 214.358L120.884 214.556L137.984 181.799L122.984 181.304Z" fill="#B07320"/>
<path d="M100.884 194.961L103.284 195.851L108.684 181.699L89.3842 181.105L86.2842 190.111L94.7842 192.981L90.1842 206.045L98.0842 208.222L99.7842 196.247L99.8842 195.554L100.784 195.851V195.653L100.884 194.961Z" fill="#CB9E16"/>
<path d="M122.884 182.194L119.884 194.961L119.084 195.158L118.684 195.257L118.584 195.653L117.784 195.752L113.984 196.643L116.084 182.095L112.284 181.996L101.884 209.31L111.784 212.081L113.284 201.492L113.384 200.7L114.484 201.096V200.898L114.584 200.107L118.484 201.393L115.784 213.17L119.984 214.259L136.384 182.59L122.884 182.194Z" fill="#CB9E16"/>
<g opacity="0.66">
<path opacity="0.66" d="M89.3842 181.105L86.2842 190.111L94.7842 192.981L90.1842 206.045L98.0842 208.222L99.7842 196.247L99.8842 195.554L100.784 195.851V195.653L100.884 194.961L103.284 195.851L108.684 181.699L89.3842 181.105Z" fill="url(#paint1_linear_577:10487)"/>
<path opacity="0.66" d="M122.884 182.194L119.884 194.961L119.084 195.158L118.684 195.257L118.584 195.653L117.784 195.752L113.984 196.643L116.084 182.095L112.284 181.996L101.884 209.31L111.784 212.081L113.284 201.492L113.384 200.7L114.484 201.096V200.898L114.584 200.107L118.484 201.393L115.784 213.17L119.984 214.259L136.384 182.59L122.884 182.194Z" fill="url(#paint2_linear_577:10487)"/>
</g>
<path d="M101.284 195.654L103.884 196.544L104.284 196.643L104.484 196.247C105.484 193.674 106.384 191.101 107.284 188.627L109.984 181.007L99.1841 180.413C95.8841 180.215 92.7841 180.116 89.7841 180.116H89.4841L89.3841 180.413C88.7841 181.997 88.2841 183.679 87.7841 185.262L86.1841 190.013L86.0841 190.211L86.2841 190.31C87.5841 190.705 88.9841 191.2 90.3841 191.596L92.5841 192.388C93.2841 192.586 93.9841 192.883 94.6841 193.081L92.2841 199.414C91.4841 201.592 90.6841 203.67 89.8841 205.847L89.6841 206.441L90.1841 206.54L98.9841 209.113L99.4841 209.212L99.5841 208.519C99.8841 206.243 100.284 204.066 100.584 201.79C100.684 199.81 100.984 197.732 101.284 195.654ZM92.6841 199.711L94.9841 192.982L95.0841 192.685H94.8841C94.0841 192.487 93.3841 192.19 92.5841 191.992L90.3841 191.299C89.0841 190.804 87.7841 190.409 86.4841 189.914L88.0841 185.46C88.5841 183.976 89.1841 182.491 89.6841 181.007C92.4841 181.106 95.3841 181.106 98.4841 181.205L109.584 181.106L106.384 188.726C105.384 191.002 104.484 193.279 103.584 195.456L100.784 194.466L100.284 194.268L100.184 194.961C99.7841 197.138 99.4841 199.414 99.1841 201.592C98.8841 203.571 98.5841 205.649 98.2841 207.628L90.4841 205.649C91.3841 203.67 92.0841 201.691 92.6841 199.711Z" fill="#B07320"/>
<path d="M137.984 181.501L130.084 181.204L122.984 180.908H122.684L122.584 181.204C121.484 185.658 120.384 190.012 119.384 194.367L115.784 195.159L117.884 181.303L117.984 180.611H117.284L112.584 180.512H112.084L111.884 181.007L109.184 188.33C108.284 190.705 107.384 193.08 106.584 195.455C104.884 200.107 103.284 204.758 101.684 209.212L101.584 209.508L101.784 209.607C103.384 210.003 104.984 210.399 106.684 210.795C108.384 211.191 110.184 211.686 111.984 212.18L112.784 212.378H112.884V212.279C113.184 210.201 113.484 208.222 113.784 206.243C114.084 204.263 114.384 202.383 114.684 200.404L117.984 201.591L116.584 207.133C116.084 209.113 115.584 210.993 115.184 212.873L114.984 213.467L115.584 213.665C117.284 214.16 118.984 214.655 120.684 215.149L121.084 215.248L121.284 214.853C123.984 209.706 126.584 204.461 129.284 199.018C130.684 196.247 132.084 193.377 133.484 190.606C134.984 187.736 136.484 184.767 137.984 181.897L138.184 181.6L137.984 181.501ZM133.184 190.408C131.684 193.179 130.184 195.95 128.684 198.721C125.884 203.867 123.084 208.915 120.584 213.863C119.184 213.467 117.784 213.17 116.384 212.774C116.784 210.993 117.184 209.311 117.484 207.529L118.684 201.591L118.784 201.195L118.484 201.096L114.584 199.909L114.384 199.81V200.107C114.084 202.185 113.884 204.164 113.584 206.243C113.284 208.222 113.084 210.3 112.784 212.279L112.084 212.082C110.284 211.587 108.484 211.092 106.784 210.597C105.184 210.102 103.684 209.706 102.184 209.212C103.984 204.857 105.784 200.404 107.584 195.95C108.484 193.575 109.484 191.2 110.384 188.825L112.984 181.996L116.584 182.095L114.684 195.95L114.584 196.841L115.384 196.643L120.184 195.554L120.584 195.455L120.684 195.06C121.684 190.606 122.584 186.153 123.584 181.699L130.384 181.798L137.884 181.996C136.084 184.866 134.684 187.637 133.184 190.408Z" fill="#B07320"/>
<path d="M151.984 195.852C152.284 190.508 151.884 185.163 150.384 180.017C148.984 174.871 146.584 170.022 143.384 165.865C140.184 161.709 136.084 158.146 131.384 155.672C126.684 153.198 121.484 151.713 116.184 151.713C113.584 151.713 110.884 151.911 108.284 152.505C107.684 152.703 106.984 152.802 106.384 153L104.484 153.594L103.584 153.891C103.284 153.989 102.984 154.187 102.684 154.286L100.884 155.078C96.0841 157.354 91.8841 160.818 88.2841 164.777C84.6841 168.735 81.9841 173.387 80.0841 178.335C78.0841 183.283 76.9841 188.528 76.7841 193.773C76.5841 199.019 77.2841 204.363 78.6841 209.41C80.1841 214.457 82.4841 219.306 85.5841 223.463C88.6841 227.718 92.7841 231.182 97.3841 233.656C101.984 236.13 107.184 237.516 112.484 237.615C117.784 237.714 122.984 236.427 127.784 234.25C132.584 232.073 136.884 228.708 140.384 224.749C143.884 220.791 146.684 216.139 148.584 211.191C150.484 206.441 151.684 201.196 151.984 195.852ZM152.184 195.852C152.084 197.138 151.984 198.524 151.784 199.81C151.684 200.503 151.584 201.097 151.484 201.79C151.384 202.482 151.284 203.076 151.084 203.769C150.584 206.441 149.784 208.915 148.984 211.488C147.184 216.535 144.584 221.385 141.184 225.541C137.784 229.797 133.384 233.26 128.484 235.636C123.584 238.11 118.084 239.297 112.584 239.297C107.084 239.198 101.584 237.813 96.7841 235.24C91.9841 232.568 87.7841 228.906 84.5841 224.452C81.3841 219.999 79.0841 215.051 77.6841 209.806C76.2841 204.561 75.7841 199.117 76.0841 193.773L76.1841 192.784L76.2841 191.794L76.4841 189.815C76.6841 188.528 76.9841 187.143 77.2841 185.856C77.9841 183.283 78.6841 180.71 79.7841 178.236L80.5841 176.356L81.4841 174.574C82.0841 173.387 82.7841 172.199 83.4841 171.011C83.7841 170.418 84.1841 169.923 84.5841 169.329L85.6841 167.647L86.8841 166.063C87.2841 165.568 87.6841 164.975 88.1841 164.48C89.0841 163.49 89.9841 162.402 90.9841 161.511L92.4841 160.125L94.0841 158.839C95.0841 157.948 96.2841 157.255 97.3841 156.464C97.8841 156.068 98.5841 155.771 99.0841 155.375C99.6841 155.078 100.284 154.682 100.884 154.385L102.684 153.495C102.984 153.396 103.284 153.198 103.584 153.099L104.584 152.703L106.484 152.01C107.184 151.812 107.784 151.713 108.484 151.515C109.784 151.12 111.184 150.922 112.484 150.724C113.884 150.526 115.184 150.427 116.584 150.427C119.284 150.427 122.084 150.823 124.684 151.515C127.384 152.208 129.884 153.198 132.284 154.484C137.084 157.057 141.284 160.818 144.384 165.271C147.584 169.626 149.784 174.673 151.084 179.819C152.084 185.163 152.484 190.508 152.184 195.852Z" fill="#752714"/>
<path d="M145.384 228.213L142.884 225.837L145.884 227.718L145.384 228.213Z" fill="#752714"/>
<path d="M128.684 234.448L131.984 237.219L128.284 235.042L128.684 234.448Z" fill="#752714"/>
<path d="M135.584 236.427L133.284 234.448L135.984 235.734L135.584 236.427Z" fill="#752714"/>
<path d="M156.384 181.699L151.984 178.434L156.784 181.106L156.384 181.699Z" fill="#752714"/>
<path d="M157.184 202.383L151.784 198.82L157.584 201.789L157.184 202.383Z" fill="#752714"/>
<path d="M156.784 204.362L153.784 202.284L157.184 203.67L156.784 204.362Z" fill="#752714"/>
<path d="M16.7004 22.9596C16.6004 23.3555 16.5004 23.8503 16.5004 24.2462C14.9004 22.8607 13.5004 22.1679 12.2004 22.4648C5.80043 24.0482 6.50043 49.1853 13.8004 78.5779C21.1004 107.97 32.3004 130.534 38.7004 128.951C39.5004 128.753 40.2004 128.159 40.8004 127.269C41.8004 128.852 42.7004 130.238 43.7004 131.425C46.4004 134.79 48.9004 136.373 50.9004 135.879L39.4004 138.65C32.0004 140.431 19.4004 114.997 11.1004 81.7448C2.80044 48.5915 2.10044 20.1886 9.40044 18.4072L20.9004 15.6362C18.9004 16.1311 17.5004 18.7041 16.7004 22.9596Z" fill="#B07320"/>
<path d="M22.6004 78.9736C25.4004 90.0577 28.6004 100.152 32.0004 108.762C34.9004 116.283 37.9004 122.518 40.8004 127.17C40.2004 128.06 39.5004 128.654 38.7004 128.852C32.3004 130.435 21.1004 107.871 13.8004 78.4788C6.50044 49.0862 5.80045 23.9492 12.2004 22.3657C13.5004 22.0688 14.9004 22.6626 16.5004 24.1471C15.6004 29.8871 15.8005 38.2991 16.9005 48.1956C18.0005 57.4983 19.9004 67.9885 22.6004 78.9736Z" fill="#CB9E16"/>
<path d="M49.3005 72.5413C41.0005 39.2891 28.3005 13.8551 21.0005 15.6365C18.9005 16.1313 17.5005 18.7044 16.7005 22.9599C16.4005 24.4444 16.2005 26.1268 16.1005 27.9081C15.7005 33.3512 16.0005 40.2787 16.9005 48.2949C18.0005 57.4986 19.9005 67.9889 22.6005 78.974C25.4005 90.0581 28.6005 100.152 32.0005 108.762C35.6005 118.065 39.4005 125.586 42.9005 130.238C43.2005 130.634 43.4005 130.931 43.7005 131.326C46.4005 134.691 48.9005 136.275 50.9005 135.78C58.3005 134.097 57.5005 105.695 49.3005 72.5413Z" fill="#FFEB47"/>
<path d="M48.7004 129.249C55.6004 127.566 54.9004 100.747 47.1004 69.4737C39.4004 38.5967 27.7004 14.7461 20.7004 15.7358C15.0004 17.7151 14.5004 36.1225 18.7004 60.3689C19.6004 65.2182 20.7004 70.3644 22.0004 75.6095C29.8004 106.882 41.7004 130.931 48.7004 129.249ZM38.9004 85.9019L39.1004 85.8029L43.4004 84.7143L43.7004 85.9019L48.0004 103.32L41.6004 98.5694L46.0004 119.055L41.4004 115.393L41.1004 115.195L31.1004 74.7188L37.6004 79.865L37.8004 80.7557L38.9004 85.9019ZM30.0004 70.2654L28.2004 62.942L32.6004 61.8534L30.8004 56.4103L30.4004 55.3217L26.3004 54.7279H26.1004L21.5004 36.1225L34.6004 48.889L34.8004 49.7797L36.4004 56.2124L32.6004 55.6186L33.9004 61.5565L34.1004 61.4575L37.5004 60.6658L37.8004 61.8534L42.1004 79.2712L30.3004 70.4634L30.0004 70.2654Z" fill="#FFEB47"/>
<path d="M47.1004 69.4736C54.9004 100.845 55.6004 127.566 48.7004 129.248C41.8004 130.931 29.8004 106.882 22.0004 75.6094C20.7004 70.3642 19.6004 65.2181 18.7004 60.3688C19.7004 66.3067 21.1004 72.5415 22.7004 78.9742C31.0004 112.127 43.6004 137.66 51.0004 135.879C58.3004 134.098 57.6004 105.695 49.3004 72.5415C41.0004 39.3882 28.3004 13.8553 21.0004 15.6367C20.9004 15.6367 20.8004 15.7356 20.7004 15.7356C27.7004 14.746 39.4004 38.4975 47.1004 69.4736Z" fill="#CB9E16"/>
<path opacity="0.81" d="M20.7004 15.7356C15.0004 17.7149 14.5004 36.1224 18.7004 60.3688C19.7004 66.3067 21.1004 72.5415 22.7004 78.9742C31.0004 112.127 43.6004 137.66 51.0004 135.879C58.3004 134.098 57.6004 105.695 49.3004 72.5415C41.0004 39.3882 28.3004 13.8553 21.0004 15.6367C20.9004 15.6367 20.8004 15.7356 20.7004 15.7356Z" fill="url(#paint3_linear_577:10487)"/>
<path d="M39.8004 87.485L43.8004 86.4954L43.7004 86.0006L43.4004 84.813L39.2004 85.8026L39.5004 87.584L39.8004 87.485Z" fill="#B07320"/>
<path d="M41.4003 115.493H41.5003L31.7003 76.4016L37.9003 81.2509L37.8003 80.7561L37.6003 79.8654L31.1003 74.7192L41.2003 115.295L41.4003 115.493Z" fill="#B07320"/>
<path d="M34.7003 63.041L37.8003 62.3483L37.7003 61.8534L37.4003 60.5669L34.1003 61.4576L34.4003 63.14L34.7003 63.041Z" fill="#B07320"/>
<path d="M28.2004 62.8432L30.0004 70.2655L30.2004 70.4635H30.3004L28.8004 64.5256L33.2004 63.437L31.4004 58.0929L31.0004 56.9053H30.9004L32.5004 61.7546L28.2004 62.8432Z" fill="#B07320"/>
<path d="M26.0004 54.6288H26.3004V54.7278L22.1004 37.7058L34.8004 50.0764L34.7004 49.6806L34.5004 48.7899L21.4004 36.0234L26.0004 54.6288Z" fill="#B07320"/>
<path d="M38.9004 85.9015L37.9004 81.2502L31.7004 76.4009L41.5004 115.492L46.1004 119.055L41.6004 98.668L48.0004 103.418L43.8004 86.4953L39.8004 87.485L39.5004 87.5839L39.2004 85.8025H39.1004L38.9004 85.9015Z" fill="#CB9E16"/>
<path d="M26.3003 54.7285L30.4003 55.3223L30.8003 56.4109L30.9003 56.9057H31.0003L31.4003 58.0933L33.2003 63.4374L28.8003 64.526L30.3003 70.4639L42.0003 79.1728L37.8003 62.3488L34.7003 63.0416L34.4003 63.1405L34.1003 61.4581H34.0003H33.8003L32.5003 55.6192L36.3003 56.114L34.8003 50.0772L22.1003 37.7065L26.3003 54.7285Z" fill="#CB9E16"/>
<g opacity="0.66">
<path opacity="0.66" d="M41.5003 115.492L46.1003 119.055L41.6003 98.6685L48.0003 103.419L43.8003 86.4958L39.8003 87.4854L39.5003 87.5844L39.2003 85.803H39.1003L38.9003 85.902L37.9003 81.2506L31.7003 76.4014L41.5003 115.492Z" fill="url(#paint4_linear_577:10487)"/>
<path opacity="0.66" d="M26.3003 54.7285L30.4003 55.3223L30.8003 56.4109L30.9003 56.9057H31.0003L31.4003 58.0933L33.2003 63.4374L28.8003 64.526L30.3003 70.4639L42.0003 79.1728L37.8003 62.3488L34.7003 63.0416L34.4003 63.1405L34.1003 61.4581H34.0003H33.8003L32.5003 55.6192L36.3003 56.114L34.8003 50.0772L22.1003 37.7065L26.3003 54.7285Z" fill="url(#paint5_linear_577:10487)"/>
</g>
<path d="M38.9004 85.0111L37.8004 79.9639L37.6004 79.2711L37.4004 79.1722C36.3004 78.3805 35.2004 77.5887 34.1004 76.896L30.9004 74.7188L35.8004 94.8086C37.5004 101.637 39.2004 108.565 40.9004 115.393L41.1004 115.987L41.3004 116.086C42.1004 116.68 42.9004 117.274 43.7004 117.867L46.1004 119.55L46.2004 119.649L46.1004 119.253C45.3004 115.789 44.6004 112.424 43.9004 109.06L42.8004 103.913C42.5004 102.33 42.1004 100.747 41.8004 99.262L44.9004 101.736C46.0004 102.627 47.0004 103.419 48.1004 104.309L48.4004 104.507L48.1004 103.419L43.6004 84.7142L43.4004 83.7246L43.2004 83.8235C42.4004 84.0214 41.7004 84.2194 41.0004 84.4173C40.2004 84.6152 39.6004 84.8132 38.9004 85.0111ZM44.7004 100.351L41.6004 98.1734L41.5004 98.0745L41.6004 98.4703C42.0004 100.153 42.3004 101.934 42.7004 103.616L43.8004 108.763C44.5004 112.029 45.2004 115.294 45.9004 118.56L43.5004 116.581C42.7004 115.888 42.0004 115.294 41.2004 114.602C39.6004 108.169 38.0004 101.736 36.3004 95.2045L31.1004 74.7188L34.5004 77.6877C35.5004 78.5784 36.6004 79.4691 37.6004 80.3597L38.7004 85.8028L38.9004 86.7925H39.1004C39.9004 86.6935 40.6004 86.4956 41.4004 86.3966C42.1004 86.2976 42.8004 86.0997 43.4004 85.9018L47.6004 102.429C46.6004 101.736 45.7004 101.043 44.7004 100.351Z" fill="#B07320"/>
<path d="M21.4004 36.1223L23.7004 45.425L26.0004 54.7277L26.1004 55.1235H26.2004C27.6004 55.4204 29.1004 55.7173 30.5004 56.0142L32.1004 61.0614L27.9004 61.9521H27.7004L27.9004 62.9417L29.7004 70.2652L29.9004 71.0569L30.1004 71.2548L33.1004 73.432C34.1004 74.1248 35.1004 74.9165 36.1004 75.6093C38.1004 76.9948 40.1004 78.2813 42.0004 79.5679L42.1004 79.6668L42.0004 79.271C41.3004 76.401 40.5004 73.531 39.8004 70.562C39.1004 67.6921 38.3004 64.7231 37.6004 61.8531L37.3004 60.6656V60.5666C36.7004 60.6656 36.1004 60.8635 35.5004 60.9625C34.9004 61.0614 34.3004 61.1604 33.7004 61.2593L32.6004 56.2121L34.4004 56.707C35.1004 56.9049 35.7004 57.0039 36.3004 57.1028H36.5004L36.3004 56.2121C35.7004 53.738 35.1004 51.2639 34.5004 48.8887L34.4004 48.2949L34.2004 48.097C32.0004 45.9198 29.9004 44.0395 27.7004 42.0602C26.6004 41.0705 25.6004 40.0809 24.5004 39.0912C23.4004 38.1016 22.3004 37.0129 21.2004 35.9243L21.3004 35.6274L21.4004 36.1223ZM24.7004 39.586C25.8004 40.6747 26.9004 41.8622 28.0004 42.9508C30.1004 45.1281 32.3004 47.4043 34.4004 49.4825C34.9004 51.4618 35.4004 53.4411 35.9004 55.4204C35.3004 55.3215 34.8004 55.3215 34.2004 55.3215L32.3004 55.2225H32.2004L32.3004 55.6183L33.6004 61.5562L33.7004 61.9521H33.8004C34.4004 61.7542 35.0004 61.5562 35.6004 61.3583C36.2004 61.1604 36.8004 61.0614 37.4004 60.8635L37.7004 61.9521C38.4004 64.8221 39.1004 67.791 39.9004 70.661C40.6004 73.432 41.2004 76.203 41.9004 78.8751C39.9004 77.2917 37.9004 75.5103 35.9004 74.0258C34.9004 73.2341 33.9004 72.4424 32.9004 71.6507L30.1004 69.5724L28.6004 63.7335L32.7004 62.5459L33.0004 62.4469L32.6004 61.4573L30.4004 54.9256L30.2004 54.4308H30.1004C28.7004 54.2328 27.3004 54.2328 25.9004 54.0349L23.7004 45.227L21.5004 36.3202C22.6004 37.5078 23.7004 38.4974 24.7004 39.586Z" fill="#B07320"/>
<path d="M43.6004 131.426C42.0004 129.446 40.6004 127.269 39.3004 124.993C38.0004 122.816 36.8004 120.539 35.7004 118.164C33.4004 113.612 31.5004 108.862 29.6004 104.111C25.9004 94.6106 22.9004 84.813 20.7004 74.8176C18.4004 64.8221 16.8004 54.7277 15.9004 44.5343C15.5004 39.4871 15.3004 34.3409 15.5004 29.1948C15.6004 26.6217 15.9004 24.0486 16.5004 21.5745C16.8004 20.2879 17.2004 19.1004 17.8004 17.9128C18.4004 16.7252 19.3004 15.6366 20.7004 15.2407L20.9004 15.8345L11.6004 18.3086C10.8004 18.5066 10.0004 18.7045 9.30043 18.9024C8.60043 19.1993 8.10044 19.6941 7.70044 20.2879C6.80044 21.4755 6.40044 23.0589 6.00044 24.5434C4.70044 30.7782 5.10044 37.2109 5.50044 43.6436C6.60044 56.4101 9.00044 69.0776 12.1004 81.5472C15.2004 94.0168 19.1004 106.288 24.1004 118.065C26.7004 123.904 29.4004 129.842 33.4004 134.79C34.4004 135.978 35.6004 137.165 36.9004 137.858C37.6004 138.254 38.3004 138.452 39.0004 138.353C39.7004 138.254 40.6004 138.056 41.4004 137.858L50.9004 135.681L51.0004 135.978C50.2004 136.176 49.4004 136.077 48.7004 135.78C48.0004 135.483 47.3004 135.087 46.8004 134.592C45.6004 133.702 44.6004 132.613 43.6004 131.426ZM43.8004 131.327C44.7004 132.514 45.7004 133.603 46.9004 134.493C47.5004 134.889 48.1004 135.285 48.8004 135.582C49.5004 135.879 50.2004 135.978 50.9004 135.78L51.0004 136.077L41.6004 138.551C40.8004 138.749 40.1004 139.046 39.2004 139.145C38.3004 139.244 37.4004 139.046 36.6004 138.65C35.0004 137.957 33.8004 136.77 32.7004 135.582C30.5004 133.108 28.7004 130.337 27.1004 127.566C25.5004 124.795 24.0004 121.826 22.7004 118.857C21.3004 115.888 20.1004 112.919 18.9004 109.95C17.7004 106.882 16.7004 103.913 15.7004 100.845C13.7004 94.7095 11.9004 88.4747 10.3004 82.24C8.80043 76.0052 7.50044 69.6714 6.40044 63.2387C5.30044 56.9049 4.50044 50.4722 4.10044 43.9405C3.90044 40.6747 3.80044 37.5078 3.90044 34.242C4.00044 30.9761 4.30044 27.7103 5.10044 24.5434C5.50044 22.96 6.00044 21.3765 7.10044 19.991C7.60044 19.2983 8.30044 18.7045 9.20044 18.4076C10.1004 18.1107 10.8004 18.0117 11.6004 17.8138L21.1004 15.5376L21.3004 16.1314C20.2004 16.4283 19.3004 17.418 18.7004 18.5066C18.1004 19.5952 17.7004 20.7828 17.4004 22.0693C16.8004 24.5434 16.6004 27.0175 16.5004 29.5906C16.3004 34.6378 16.6004 39.784 17.2004 44.8312C18.3004 54.9256 20.3004 64.9211 22.6004 74.8176C25.0004 84.7141 27.6004 94.5116 30.8004 104.21C32.4004 109.059 34.2004 113.81 36.3004 118.461C38.3004 122.717 40.6004 127.269 43.8004 131.327Z" fill="#752714"/>
<path d="M49.3004 72.5411C46.6004 61.9518 43.4004 51.4615 39.3004 41.3671C37.2004 36.3199 34.9004 31.3717 32.2004 26.6214C30.8004 24.2462 29.3004 21.97 27.6004 19.8917C26.6004 18.8031 25.6004 17.8135 24.6004 17.1207C23.5004 16.329 22.3004 15.8342 21.1004 16.1311C20.0004 16.428 19.1004 17.5166 18.6004 18.7042C18.0004 19.8917 17.7004 21.1783 17.4004 22.4648C16.9004 25.1369 16.7004 27.8089 16.6004 30.481C16.5004 35.9241 16.9004 41.3671 17.5004 46.7112C18.7004 57.4984 20.8004 68.1866 23.5004 78.7759C26.1004 89.3651 29.3004 99.8554 33.2004 109.95C35.2004 114.997 37.4004 120.044 40.0004 124.795C41.3004 127.17 42.8004 129.446 44.5004 131.524C45.4004 132.514 46.3004 133.503 47.3004 134.295C48.3004 135.087 49.6004 135.681 50.7004 135.384C51.8004 135.087 52.7004 134.097 53.3004 132.91C53.9004 131.722 54.3004 130.436 54.6004 129.149C55.2004 126.477 55.4004 123.805 55.6004 121.133C55.8004 115.69 55.5004 110.247 55.0004 104.804C53.9004 93.8185 51.8004 83.1303 49.3004 72.5411ZM49.3004 72.5411C52.0004 83.1303 54.1004 93.9175 55.3004 104.705C55.9004 110.148 56.3004 115.591 56.2004 121.034C56.1004 123.805 56.0004 126.477 55.4004 129.248C55.1004 130.633 54.8004 131.92 54.1004 133.207C53.5004 134.493 52.5004 135.78 50.9004 136.274C50.1004 136.472 49.3004 136.373 48.6004 136.175C47.9004 135.978 47.2004 135.582 46.6004 135.186C45.4004 134.295 44.4004 133.306 43.5004 132.316C41.7004 130.139 40.2004 127.862 38.8004 125.487C36.0004 120.737 33.7004 115.69 31.6004 110.643C27.5004 100.449 24.2004 89.9589 21.5004 79.3696C18.9004 68.6814 16.9004 57.8943 15.7004 47.0081C15.1004 41.5651 14.9004 36.023 15.1004 30.58C15.2004 27.8089 15.5004 25.0379 16.1004 22.3659C16.4004 20.9804 16.8004 19.6938 17.5004 18.4073C17.8004 17.8135 18.2004 17.1207 18.7004 16.6259C19.2004 16.1311 19.9004 15.6363 20.7004 15.4383C22.3004 15.1414 23.8004 15.8342 24.9004 16.6259C26.1004 17.5166 27.0004 18.5062 27.9004 19.5948C29.7004 21.7721 31.1004 24.1472 32.5004 26.5224C35.2004 31.3717 37.3004 36.4189 39.4004 41.4661C43.5004 51.3626 46.6004 61.8529 49.3004 72.5411Z" fill="#752714"/>
<path d="M17.6005 20.1885L6.40051 22.4647L17.4005 19.2979L17.6005 20.1885Z" fill="#752714"/>
<path d="M16.9004 22.3661L5.70044 24.5433L16.7004 21.3765L16.9004 22.3661Z" fill="#752714"/>
<path d="M4.60046 41.763L16.0005 39.4868L4.80046 42.6537L4.60046 41.763Z" fill="#752714"/>
<path d="M17.0004 48.6905L8.20044 50.3729L16.8004 47.7998L17.0004 48.6905Z" fill="#752714"/>
<path d="M5.60046 53.1444L17.0005 50.8682L5.80046 54.134L5.60046 53.1444Z" fill="#752714"/>
<path d="M25.4004 89.2657L13.8004 91.6408L25.2004 88.375L25.4004 89.2657Z" fill="#752714"/>
<path d="M14.5005 93.8189L21.4005 92.6313L14.7005 94.8086L14.5005 93.8189Z" fill="#752714"/>
<path d="M24.6005 86.3961L16.6005 87.8805L24.3005 85.5054L24.6005 86.3961Z" fill="#752714"/>
<path d="M41.3004 128.358L31.3004 130.238L41.1004 127.368L41.3004 128.358Z" fill="#752714"/>
<path d="M42.3005 129.743L30.6005 132.118L42.1005 128.852L42.3005 129.743Z" fill="#752714"/>
<path d="M31.9005 133.405L39.4005 132.118L32.1005 134.394L31.9005 133.405Z" fill="#752714"/>
<path d="M19.3005 8.60994L18.7005 0L18.2005 8.60994C17.8005 15.5375 17.0005 21.3764 15.9005 25.6319C15.0005 29.3926 13.3005 31.8667 11.4005 32.3615L0.000488281 35.4294L11.1005 38.6953C13.0005 39.2891 14.7005 41.8621 15.6005 45.6228C16.7005 50.3731 17.6005 57.2017 18.0005 65.1189L18.7005 79.7657L19.4005 65.1189C19.7005 58.5872 20.4005 52.7483 21.2005 48.1959C22.2005 42.7528 24.5005 39.0911 27.1005 38.4973L35.5005 36.617L26.2005 32.6584C23.9005 31.6688 22.0005 28.304 21.0005 23.5536C20.3005 19.694 19.6005 14.5478 19.3005 8.60994Z" fill="white"/>
<defs>
<linearGradient id="paint0_linear_577:10487" x1="62.2011" y1="144.647" x2="193.36" y2="273.361" gradientUnits="userSpaceOnUse">
<stop stop-color="#D2A91D" stop-opacity="0.0235507"/>
<stop offset="0.1692" stop-color="#FFEB47"/>
<stop offset="0.2915" stop-color="white"/>
<stop offset="0.4111" stop-color="#FFEB47"/>
<stop offset="0.6027" stop-color="#D2A91D" stop-opacity="0.0235507"/>
<stop offset="0.7538" stop-color="#FFEB47"/>
<stop offset="0.8477" stop-color="white"/>
<stop offset="0.93" stop-color="#FFEB47"/>
<stop offset="1" stop-color="#D2A91D" stop-opacity="0.0235507"/>
</linearGradient>
<linearGradient id="paint1_linear_577:10487" x1="82.0399" y1="183.396" x2="129.608" y2="212.353" gradientUnits="userSpaceOnUse">
<stop stop-color="#D2A91D" stop-opacity="0.0235507"/>
<stop offset="0.1692" stop-color="#FFEB47"/>
<stop offset="0.2915" stop-color="white"/>
<stop offset="0.4111" stop-color="#FFEB47"/>
<stop offset="0.6027" stop-color="#D2A91D" stop-opacity="0.0235507"/>
<stop offset="0.7538" stop-color="#FFEB47"/>
<stop offset="0.8477" stop-color="white"/>
<stop offset="0.93" stop-color="#FFEB47"/>
<stop offset="1" stop-color="#D2A91D" stop-opacity="0.0235507"/>
</linearGradient>
<linearGradient id="paint2_linear_577:10487" x1="76.3358" y1="170.397" x2="140.722" y2="209.592" gradientUnits="userSpaceOnUse">
<stop stop-color="#D2A91D" stop-opacity="0.0235507"/>
<stop offset="0.1692" stop-color="#FFEB47"/>
<stop offset="0.2915" stop-color="white"/>
<stop offset="0.4111" stop-color="#FFEB47"/>
<stop offset="0.6027" stop-color="#D2A91D" stop-opacity="0.0235507"/>
<stop offset="0.7538" stop-color="#FFEB47"/>
<stop offset="0.8477" stop-color="white"/>
<stop offset="0.93" stop-color="#FFEB47"/>
<stop offset="1" stop-color="#D2A91D" stop-opacity="0.0235507"/>
</linearGradient>
<linearGradient id="paint3_linear_577:10487" x1="1.19269" y1="160.242" x2="88.358" y2="-55.2698" gradientUnits="userSpaceOnUse">
<stop stop-color="#D2A91D" stop-opacity="0.0235507"/>
<stop offset="0.1692" stop-color="#FFEB47"/>
<stop offset="0.2915" stop-color="white"/>
<stop offset="0.4111" stop-color="#FFEB47"/>
<stop offset="0.6027" stop-color="#D2A91D" stop-opacity="0.0235507"/>
<stop offset="0.7538" stop-color="#FFEB47"/>
<stop offset="0.8477" stop-color="white"/>
<stop offset="0.93" stop-color="#FFEB47"/>
<stop offset="1" stop-color="#D2A91D" stop-opacity="0.0235507"/>
</linearGradient>
<linearGradient id="paint4_linear_577:10487" x1="34.4324" y1="126.633" x2="50.6884" y2="24.4631" gradientUnits="userSpaceOnUse">
<stop stop-color="#D2A91D" stop-opacity="0.0235507"/>
<stop offset="0.1692" stop-color="#FFEB47"/>
<stop offset="0.2915" stop-color="white"/>
<stop offset="0.4111" stop-color="#FFEB47"/>
<stop offset="0.6027" stop-color="#D2A91D" stop-opacity="0.0235507"/>
<stop offset="0.7538" stop-color="#FFEB47"/>
<stop offset="0.8477" stop-color="white"/>
<stop offset="0.93" stop-color="#FFEB47"/>
<stop offset="1" stop-color="#D2A91D" stop-opacity="0.0235507"/>
</linearGradient>
<linearGradient id="paint5_linear_577:10487" x1="19.7685" y1="135.533" x2="38.9265" y2="15.1088" gradientUnits="userSpaceOnUse">
<stop stop-color="#D2A91D" stop-opacity="0.0235507"/>
<stop offset="0.1692" stop-color="#FFEB47"/>
<stop offset="0.2915" stop-color="white"/>
<stop offset="0.4111" stop-color="#FFEB47"/>
<stop offset="0.6027" stop-color="#D2A91D" stop-opacity="0.0235507"/>
<stop offset="0.7538" stop-color="#FFEB47"/>
<stop offset="0.8477" stop-color="white"/>
<stop offset="0.93" stop-color="#FFEB47"/>
<stop offset="1" stop-color="#D2A91D" stop-opacity="0.0235507"/>
</linearGradient>
</defs>
</svg>
