<svg width="196" height="358" viewBox="0 0 196 358" fill="none" xmlns="http://www.w3.org/2000/svg">
<!-- <path d="M86.1401 149.098C88.5167 124.418 61.1306 113.004 48.4093 114.699C35.695 116.454 42.5668 117.871 42.5668 117.871L45.1683 119.433L25.3732 154.037C29.2789 161.483 36.1222 167.733 44.1352 171.128C45.5968 171.739 47.111 172.283 48.6109 172.708L55.2729 166.782C55.2134 /166.79 83.7706 173.838 86.1401 149.098Z" fill="#CB9E16"/> -->
<path d="M28.7849 122.832C27.8265 123.912 26.9276 124.986 26.162 126.164L26.1095 126.23L23.3718 130.119L23.8312 130.427C22.7451 132.972 22.1043 135.705 21.9015 138.567C21.5129 143.928 22.8129 149.268 25.3137 154.043L45.1682 119.433L42.5667 117.87C42.5667 117.87 35.695 116.454 48.4093 114.699C61.1235 112.944 88.5096 124.359 86.1401 149.098C83.7635 173.778 55.2729 166.782 55.2729 166.782L48.6109 172.708C59.1772 175.738 71.0195 174.268 79.3871 167.958L80.3058 168.573L84.0997 163.412C84.5194 162.878 84.932 162.286 85.3516 161.753L85.4565 161.62C94.9414 147.447 89.3177 126.074 67.4905 116.715C67.1715 116.572 66.9191 116.481 66.6002 116.338C51.2689 110.313 36.9214 114.074 28.7849 122.832Z" fill="#B07320"/>
<path d="M28.7849 122.832C28.792 122.891 28.7324 122.899 28.7849 122.832C27.8265 123.912 26.9347 125.045 26.2287 126.216L23.5051 130.224L23.4839 130.045L23.9432 130.353L24.0098 130.405L23.9574 130.472C22.6062 133.833 21.9526 137.474 22.0801 141.082C22.2076 144.69 23.1163 148.266 24.5326 151.54C27.4317 158.139 32.4419 163.702 38.5182 167.569C41.5266 169.505 44.8497 171.042 48.2352 172.089C51.6803 173.128 55.2473 173.669 58.8101 173.668C62.3799 173.726 66.0121 173.294 69.3878 172.228C72.8301 171.214 76.0824 169.619 78.9065 167.472L79.2425 167.25L79.5686 167.453L80.4873 168.069L79.7203 168.22L84.871 161.266L85.0298 162.093L84.5705 161.785L84.8781 161.326C87.0842 158.044 88.5048 154.251 89.0039 150.327C89.5031 146.403 89.1402 142.34 87.9054 138.561C87.3143 136.639 86.4991 134.864 85.5649 133.103C84.5711 131.349 83.4724 129.729 82.2021 128.189C79.6616 125.11 76.5681 122.459 73.2337 120.319C71.5367 119.253 69.7943 118.313 67.9399 117.447C67.0425 117.01 66.0926 116.64 65.1498 116.33L63.7619 115.83C63.3167 115.642 62.8191 115.52 62.3215 115.398C58.4979 114.223 54.4474 113.678 50.4679 113.729C46.4287 113.787 42.4818 114.619 38.7389 116.152C38.2767 116.328 37.8216 116.563 37.3595 116.739L35.9871 117.385L34.6884 118.144L34.0093 118.526L33.3969 118.962L32.1719 119.832L31.0207 120.815L30.4153 121.309L29.8766 121.857L28.7849 122.832ZM28.7849 122.832C31.5098 119.85 34.8416 117.401 38.6369 115.802C42.3726 114.21 46.4245 113.244 50.4565 113.127C54.541 112.942 58.5986 113.546 62.5342 114.648C63.0318 114.77 63.5294 114.892 63.9746 115.08L65.4221 115.572C66.3719 115.942 67.3743 116.246 68.2717 116.683C70.119 117.489 71.928 118.482 73.6845 119.541C77.1381 121.666 80.3506 124.303 82.9648 127.494C84.3017 129.087 85.4671 130.76 86.468 132.573C87.4688 134.386 88.2982 136.28 88.8893 138.203C90.1383 142.1 90.582 146.335 90.0375 150.385C89.5001 154.495 88.0411 158.473 85.7897 161.882L85.638 161.115L86.1045 161.482L85.7373 161.948L80.5865 168.902L80.2789 169.361L79.8195 169.054L78.9008 168.438L79.5629 168.42C76.5672 170.649 73.1958 172.258 69.6415 173.345C66.0873 174.432 62.3884 174.812 58.6995 174.768C51.3216 174.68 43.9934 172.473 37.8291 168.375C31.7316 164.33 26.6406 158.596 23.7797 151.81C22.3493 148.418 21.4931 144.775 21.4776 141.094C21.4025 137.419 22.1157 133.771 23.5859 130.395L23.6072 130.574L23.1479 130.266L23.0812 130.214L23.1337 130.147L25.9309 126.251C26.8681 124.993 27.7669 123.919 28.7849 122.832C28.7324 122.899 28.792 122.891 28.7849 122.832Z" fill="#752714"/>
<path d="M41.0826 172.879C53.8066 178.31 69.6243 176.246 78.2599 166.099C89.7566 152.593 85.1437 130.073 63.6908 120.308C45.0506 112.864 27.6846 120.185 21.4846 133.544C20.556 135.889 19.9534 138.437 19.7223 141.061C18.7211 154.466 28.3586 167.449 41.0826 172.879Z" fill="#FFEB47"/>
<!-- <path d="M78.3194 166.092C69.6838 176.239 53.8066 178.31 41.1421 172.873C28.418 167.442 18.7805 154.459 19.7817 141.054C20.0129 138.43 20.5559 135.889 21.5441 133.537C20.2482 136.348 19.4571 139.341 19.2302 142.509C18.2644 156.211 28.2946 169.45 41.4043 175.076C54.5735 180.694 71.015 178.798 80.246 168.58C92.8981 154.634 88.1152 130.686 64.6335 120.618C64.3145 120.475 64.0621 120.384 63.7432 120.241C85.1436 130.073 89.8089 152.526 78.3194 166.092Z" fill="#CB9E16"/> -->
<path opacity="0.81" d="M63.6979 120.368C46.9575 113.665 31.2177 118.92 23.746 129.713C22.8684 130.965 22.117 132.262 21.4918 133.605C20.1959 136.416 19.4048 139.409 19.1779 142.576C18.2121 156.279 28.2423 169.518 41.352 175.143C54.5212 180.762 70.9627 178.865 80.1937 168.648C92.8458 154.702 88.0628 130.754 64.5811 120.686C64.3288 120.595 64.0098 120.452 63.6979 120.368Z" fill="url(#paint0_linear_577:10281)"/>
<path d="M51.153 159.059L59.9301 162.785L60.035 162.652L60.2831 162.2L51.0538 158.226L50.7008 158.811L51.153 159.059Z" fill="#B07320"/>
<path d="M37.4549 163.71L37.5216 163.762L41.8984 149.291L51.5558 156.355L51.6537 156.162L51.9159 155.829L41.5468 148.367L37.0693 163.514L37.4549 163.71Z" fill="#B07320"/>
<path d="M57.923 149.98L65.6836 153.284L65.7743 153.031L66.1344 152.505L57.8621 148.961L57.3517 149.746L57.923 149.98Z" fill="#B07320"/>
<path d="M43.3572 142.776L42.2725 146.348L42.7319 146.655L42.7985 146.708L43.6704 143.887L54.3615 148.472L54.4764 145.378L54.5175 144.709L54.2581 144.559L54.1148 147.414L43.3572 142.776Z" fill="#B07320"/>
<path d="M44.5355 138.47L44.9878 138.718L45.1139 138.763L48.2005 128.673L69.0422 147.509L69.1996 147.31L69.4477 146.857L47.9113 127.258L44.5355 138.47Z" fill="#B07320"/>
<path d="M50.4228 157.999L51.5556 156.354L41.8982 149.291L37.5214 163.762L43.6998 167.978L47.6539 162.133L56.7287 168.36L59.9301 162.785L51.153 159.059L50.7007 158.811L51.0537 158.226L50.9275 158.18L50.4228 157.999Z" fill="#CB9E16"/>
<path d="M45.1138 138.763L54.2638 143.592L54.2822 144.254L54.2581 144.559L54.5175 144.709L54.4764 145.378L54.3615 148.472L43.6705 143.887L42.7985 146.708L61.6116 160.17L65.6834 153.284L57.9228 149.98L57.3515 149.746L57.8619 148.961L57.7357 148.916L57.1644 148.682L58.8983 145.999L67.3366 150.43L69.0421 147.51L48.2004 128.673L45.1138 138.763Z" fill="#CB9E16"/>
<g opacity="0.66">
<path opacity="0.66" d="M37.5214 163.762L43.6998 167.979L47.6539 162.133L56.7287 168.36L59.9301 162.786L51.153 159.06L50.7007 158.812L51.0537 158.226L50.9275 158.181L50.4228 157.999L51.5556 156.355L41.8982 149.291L37.5214 163.762Z" fill="url(#paint1_linear_577:10281)"/>
<path opacity="0.66" d="M45.1138 138.764L54.2638 143.593L54.2822 144.255L54.2581 144.559L54.5175 144.71L54.4764 145.379L54.3615 148.472L43.6705 143.887L42.7985 146.708L61.6116 160.17L65.6834 153.284L57.9228 149.981L57.3515 149.747L57.8619 148.962L57.7357 148.916L57.1644 148.682L58.8983 146L67.3366 150.431L69.0421 147.51L48.2004 128.674L45.1138 138.764Z" fill="url(#paint2_linear_577:10281)"/>
</g>
<path d="M51.0709 157.862L52.242 156.032L52.3923 155.773L52.1258 155.563C50.4075 154.318 48.5701 153.087 46.859 151.902L41.5993 148.301L38.9338 156.348C38.1384 158.798 37.4479 161.114 36.8099 163.364L36.7716 163.55L36.9715 163.707C38.0901 164.48 39.2611 165.186 40.3726 165.899L43.707 168.039L43.8998 168.136L43.9452 168.01C44.501 167.099 45.1163 166.18 45.7841 165.195L46.819 163.743C47.1267 163.284 47.4344 162.824 47.8016 162.358L52.1497 165.403C53.6014 166.438 55.1127 167.466 56.5644 168.501L56.9642 168.816L57.167 168.49L60.8475 162.375L61.0503 162.049L60.5456 161.868C58.8911 161.159 57.2366 160.45 55.5821 159.741C54.0538 159.077 52.5326 158.473 51.0709 157.862ZM52.4191 165.13L47.7661 162.06L47.5733 161.962L47.4684 162.096C47.1083 162.622 46.8077 163.14 46.4476 163.666L45.4793 165.171C44.8639 166.089 44.2415 166.948 43.6191 167.808L40.5229 165.64C39.4709 164.92 38.4785 164.192 37.4266 163.472C38.0859 161.401 38.6714 159.217 39.3548 156.841L41.5539 148.427L46.737 152.4C48.3291 153.599 49.795 154.753 51.3205 155.9L49.9779 157.811L49.7751 158.137L50.2203 158.326C51.8748 159.035 53.4697 159.751 55.1242 160.46C56.5929 161.13 58.0546 161.741 59.5758 162.345L56.4865 167.846C55.1751 166.976 53.7971 166.053 52.4191 165.13Z" fill="#B07320"/>
<path d="M47.7185 127.161L45.9434 133.049L44.276 138.32L44.1853 138.572L44.4447 138.723C47.6105 140.459 50.7096 142.144 53.8683 143.821L53.7321 146.736L43.5458 142.332L43.034 142.091L42.9121 142.589L41.887 146.153L41.8104 146.524L42.1436 146.787L47.158 150.357C48.8097 151.549 50.4542 152.682 52.0392 153.822C55.2617 156.035 58.4771 158.188 61.5733 160.356L61.7732 160.513L61.8711 160.321C62.4651 159.223 63.1116 158.059 63.8177 156.888C64.5166 155.658 65.2156 154.427 65.9741 153.189L66.1414 152.566L66.1939 152.499L66.1343 152.506C64.6656 151.836 63.1444 151.232 61.6756 150.561C60.2735 149.943 58.8714 149.325 57.4621 148.647L59.0075 146.41L62.9516 148.597C64.3084 149.342 65.7247 150.079 67.0814 150.823L67.5337 151.071L67.7889 150.679C68.4949 149.508 69.201 148.337 69.9595 147.099L70.1027 146.78L69.8362 146.57C66.5145 143.523 62.9475 140.445 59.3664 137.248C57.546 135.653 55.6591 134.006 53.7721 132.359C51.8781 130.652 49.9244 128.952 48.0162 127.126L47.8092 126.909L47.7185 127.161ZM53.5027 132.632C55.3372 134.346 57.1122 136.067 58.8801 137.729C62.2755 140.888 65.5447 144.001 68.7998 146.995C68.1916 147.974 67.6429 148.945 67.0942 149.916C65.8707 149.277 64.5877 148.644 63.3046 148.012L59.0033 145.867L58.7438 145.716L58.5865 145.916L56.9192 148.651L56.8213 148.844L57.0141 148.942C58.5354 149.546 59.997 150.157 61.5182 150.761C62.9799 151.372 64.5011 151.976 65.9699 152.647L65.6693 153.165C64.9108 154.403 64.2189 155.693 63.4533 156.871C62.7997 157.976 62.139 159.021 61.4784 160.065C58.4941 157.824 55.5098 155.582 52.3993 153.296C50.8072 152.096 49.1556 150.904 47.5111 149.771L42.8227 146.404L43.6493 143.709L53.881 147.986L54.5189 148.273L54.5672 147.663L54.7161 143.841L54.7402 143.536L54.4808 143.386C51.3221 141.708 48.0514 140.105 44.8403 138.494L46.2836 133.371L47.968 127.735C49.8408 129.264 51.6753 130.978 53.5027 132.632Z" fill="#B07320"/>
<path d="M61.4863 119.544C57.5223 118.204 53.3244 117.435 49.0996 117.455C44.8747 117.475 40.742 118.269 36.8872 119.875C33.0323 121.481 29.5078 123.833 26.6638 126.829C23.8198 129.824 21.6562 133.463 20.5021 137.466C19.9548 139.463 19.5337 141.506 19.5365 143.559C19.5408 144.102 19.4784 144.593 19.4826 145.136L19.6074 146.691L19.64 147.472C19.6683 147.71 19.7037 148.008 19.7321 148.246L19.9759 149.787C20.7627 153.86 22.4951 157.761 24.847 161.285C27.1394 164.817 30.1492 167.78 33.5262 170.277C36.9032 172.773 40.6403 174.744 44.6496 175.958C48.6589 177.171 52.8356 177.761 57.0008 177.748C61.1591 177.676 65.2918 176.882 69.1608 175.395C73.0298 173.908 76.5543 171.556 79.3984 168.561C82.2424 165.565 84.3464 161.933 85.4409 157.938C86.6021 153.995 86.7015 149.756 85.9742 145.676C85.247 141.595 83.6337 137.681 81.2889 134.216C79.0035 130.744 75.9867 127.721 72.6097 125.225C69.2469 122.847 65.5098 120.876 61.4863 119.544ZM61.5316 119.417C62.5411 119.78 63.4909 120.15 64.5003 120.513C65.0051 120.695 65.4573 120.943 65.9691 121.184C66.4809 121.425 66.9261 121.614 67.3783 121.862C69.2993 122.78 71.063 123.899 72.8337 125.077C76.3156 127.441 79.4445 130.39 81.975 133.893C84.4985 137.337 86.2451 141.356 87.1056 145.541C87.9661 149.726 87.8285 154.151 86.6361 158.339C85.4366 162.467 83.3014 166.345 80.2929 169.481C77.2774 172.557 73.5813 174.99 69.5932 176.491C65.6051 177.992 61.2795 178.688 57.0547 178.708C52.7632 178.676 48.5129 177.974 44.4894 176.641L43.7323 176.369L42.9753 176.096L41.5136 175.485C40.5566 175.056 39.5926 174.567 38.6285 174.078C36.7529 173.033 34.9893 171.914 33.271 170.669L32.0121 169.732L30.7985 168.669C29.9918 167.98 29.2376 167.224 28.4834 166.468C28.0765 166.094 27.7887 165.706 27.4343 165.265L26.3852 164.061L25.3886 162.791C25.0937 162.343 24.7463 161.961 24.4515 161.513C23.8617 160.617 23.279 159.781 22.8013 158.811L22.0286 157.393L21.3751 155.961C20.8973 154.992 20.5982 154.001 20.18 153.024C19.9971 152.502 19.8809 152.033 19.7575 151.504C19.6342 150.975 19.4513 150.454 19.3351 149.984L19.0246 148.391C18.9963 148.153 18.9013 147.862 18.873 147.624L18.7808 146.85L18.649 145.235C18.6448 144.692 18.6405 144.149 18.6363 143.606C18.6278 142.52 18.6859 141.486 18.8561 140.379C19.0333 139.331 19.2106 138.284 19.5069 137.222C20.0471 135.165 20.8992 133.191 22.0036 131.309C23.0485 129.433 24.3529 127.708 25.8571 126.14C28.8061 123.011 32.5163 120.697 36.5044 119.196C40.4925 117.694 44.7656 117.065 49.0046 117.164C53.3627 117.249 57.5677 118.078 61.5316 119.417Z" fill="#752714"/>
<path d="M52.7089 262.439C52.5133 262.824 52.3701 263.143 52.1744 263.529C41.3879 286.553 41.2796 312.533 51.6486 330.14C53.924 334.036 56.7594 337.563 60.074 340.55L59.3055 342.212L70.3651 347.357C94.8959 358.629 128.573 343.75 146.071 307.608C164.195 270.124 153.583 233.221 127.525 222.313L118.127 217.936L117.351 219.538C92.9153 216.166 66.0432 234.945 52.7089 262.439Z" fill="#B07320"/>
<path d="M85.7193 339.37L82.1904 346.251C82.1904 346.251 85.8665 352.275 106.414 345.301C126.961 338.326 154.067 306.294 152.161 269.986C150.255 233.678 145.495 250.006 144.996 266.612C144.556 283.21 101.251 297.363 101.251 297.363L66.9505 309.538L85.7193 339.37Z" fill="#CB9E16"/>
<path d="M52.835 262.484C52.119 264.079 51.4626 265.667 50.7466 267.262C50.3553 268.033 50.0973 268.909 49.8321 269.726L48.9177 272.19C48.3945 273.882 47.8642 275.516 47.4006 277.201L46.798 279.749C46.5995 280.618 46.3939 281.427 46.255 282.289C44.891 289.095 44.396 296.098 44.7943 302.995C45.2521 309.886 46.7292 316.715 49.3023 323.112L50.367 325.461C50.5357 325.863 50.7044 326.266 50.9255 326.602L51.5436 327.736C51.9335 328.475 52.3304 329.273 52.7799 330.005C53.2293 330.736 53.6787 331.468 54.1805 332.133C56.1426 334.919 58.3287 337.557 60.8962 339.848L61.3172 340.342L61.0308 340.98L60.2624 342.641L59.8087 341.367L70.8159 346.578L69.6009 347.025L69.9851 346.194L70.8159 346.578C74.3319 348.213 78.1555 349.388 82.0273 349.954C85.9062 350.579 89.8858 350.529 93.8157 350.061C97.7457 349.593 101.619 348.649 105.323 347.302C109.028 345.955 112.623 344.199 115.991 342.047C122.799 337.855 128.736 332.438 133.741 326.286C138.805 320.128 142.937 313.235 146.185 306.024C146.562 305.134 146.999 304.236 147.369 303.287L148.486 300.496C149.166 298.604 149.854 296.771 150.415 294.892C151.591 291.069 152.528 287.273 153.146 283.335C154.39 275.518 154.586 267.523 153.3 259.765C152.014 252.007 149.306 244.479 144.859 238.064C140.471 231.641 134.292 226.398 127.169 223.381L126.026 222.914L126.561 221.823L127.109 223.388L117.711 219.012L119.217 218.47L118.441 220.072L118.11 220.836L117.314 220.75C114 220.299 110.616 220.279 107.267 220.557C103.925 220.894 100.619 221.529 97.3554 222.522C90.8877 224.499 84.7333 227.587 79.1615 231.511C73.5897 235.435 68.534 240.144 64.0851 245.383C61.8606 248.003 59.836 250.781 57.9447 253.663C56.0392 256.426 54.3407 259.406 52.835 262.484ZM52.6422 262.386C54.1479 259.308 55.8393 256.269 57.664 253.334C59.4887 250.399 61.5133 247.622 63.664 244.89C67.9726 239.486 72.8809 234.553 78.4243 230.391C83.9677 226.229 90.0796 222.784 96.7572 220.54C103.382 218.362 110.58 217.445 117.574 218.364L116.44 218.982L117.215 217.38L117.697 216.356L118.721 216.838L128.171 221.148L129.254 221.623L128.779 222.707L128.171 221.148C135.799 224.347 142.312 229.852 146.868 236.677C151.424 243.502 154.234 251.381 155.489 259.384C156.75 267.446 156.457 275.634 155.049 283.592C154.312 287.544 153.329 291.466 152.035 295.303C151.421 297.249 150.673 299.089 149.933 300.988L148.757 303.786C148.387 304.736 147.89 305.64 147.513 306.53C145.766 310.12 143.834 313.671 141.642 317.072C139.45 320.474 137.058 323.717 134.526 326.797C129.403 332.962 123.346 338.393 116.545 342.645C113.118 344.804 109.53 346.62 105.78 348.093C102.03 349.566 98.1114 350.636 94.1361 351.23C90.1608 351.824 86.0692 351.949 82.0187 351.405C77.9754 350.92 73.9802 349.825 70.2857 348.212L71.5007 347.765L71.1164 348.596L70.2857 348.212L59.2331 343.126L58.3428 342.749L58.7795 341.851L59.5479 340.19L59.8017 341.307C57.1605 338.904 54.7816 336.168 52.7982 333.203C52.2893 332.479 51.8328 331.688 51.3834 330.956C50.9269 330.165 50.5299 329.367 50.1401 328.628C49.2342 327.105 48.6714 325.421 47.9299 323.758C46.6852 320.404 45.6191 317.028 45.0819 313.529C44.366 310.051 44.1265 306.517 43.9536 303.035C43.7793 295.99 44.5124 288.958 46.1146 282.125C47.2333 275.289 49.6521 268.72 52.6422 262.386Z" fill="#752714"/>
<path d="M70.6384 295.874L103.552 314.662L104.234 313.796L117.307 297.807L100.272 285.583L117.292 263.69L101.968 257.723L101.018 257.353L91.2229 277.542L90.6883 278.632L87.0519 275.985L86.3927 275.52L70.6384 295.874Z" fill="#428A7A"/>
<path d="M57.3387 287.13L66.2155 271.399L67.1824 271.405L71.8382 271.455L62.434 290.872L67.5491 293.766L68.1191 292.973L96.4999 255.415L83.1422 250.241L82.2589 249.924L74.9332 264.987L74.4512 266.011L70.7027 263.437L79.0308 248.678L74.5338 246.918L73.9029 246.691L45.4129 281.303L56.895 287.968L57.3387 287.13Z" fill="#428A7A"/>
<path d="M127.655 302.554C145.681 265.262 133.59 228.113 105.74 220.92C82.5616 214.923 55.7647 232.304 42.3978 259.017C31.6113 282.04 31.503 308.02 41.872 325.627C44.2381 329.271 47.0976 332.493 50.5554 335.162C73.1509 353.004 109.57 339.853 127.655 302.554ZM90.6882 278.632L91.2227 277.542L100.959 257.36L101.968 257.723L117.285 263.63L100.272 285.583L117.255 297.874L104.241 313.856L103.5 314.729L70.5859 295.94L86.3401 275.586L86.9993 276.051L90.6882 278.632ZM67.5491 293.766L62.4936 290.865L71.8382 271.455L67.1824 271.405L66.2155 271.399L57.3388 287.13L56.895 287.968L45.42 281.363L73.91 246.751L74.5409 246.978L79.0974 248.73L70.7694 263.49L74.5178 266.063L74.9999 265.04L82.3185 249.917L83.2017 250.234L96.5595 255.408L68.1857 293.026L67.5491 293.766Z" fill="#FFEB47"/>
<path d="M105.673 220.868C133.583 228.053 145.674 265.202 127.589 302.501C109.57 339.852 73.151 353.004 50.4294 335.116C47.0311 332.441 44.105 329.166 41.7459 325.582C44.4778 330.269 47.9866 334.38 52.2511 337.737C76.8526 357.213 116.637 343.42 136.162 302.99C155.686 262.561 141.84 222.843 111.268 215.612C85.7985 209.646 56.8112 228.918 42.7992 257.821C42.6036 258.207 42.4604 258.526 42.2647 258.911C55.7053 232.311 82.5022 214.93 105.673 220.868Z" fill="#CB9E16"/>
<path opacity="0.81" d="M42.3312 258.964C31.5447 281.988 31.4364 307.968 41.8054 325.575C44.5373 330.262 48.0461 334.373 52.3106 337.731C76.9121 357.207 116.697 343.413 136.221 302.984C155.745 262.555 141.899 222.837 111.327 215.606C85.858 209.639 56.8707 228.911 42.8587 257.814C42.663 258.2 42.5269 258.579 42.3312 258.964Z" fill="url(#paint3_linear_577:10281)"/>
<path d="M93.1594 277.07L102.413 257.912L101.968 257.724L101.018 257.354L91.373 277.283L92.6249 278.16L93.1594 277.07Z" fill="#B07320"/>
<path d="M104.234 313.796L104.398 313.656L72.3438 295.49L87.3183 276.195L87.0517 275.985L86.3925 275.52L70.6383 295.874L103.552 314.662L104.234 313.796Z" fill="#B07320"/>
<path d="M76.6841 264.477L83.5207 250.378L83.1422 250.242L82.2589 249.924L75.0906 264.788L76.2021 265.501L76.6841 264.477Z" fill="#B07320"/>
<path d="M62.434 290.872L67.5491 293.765L68.1191 292.973L68.224 292.84L64.1395 290.488L73.5367 271.011L68.8213 270.968L67.8544 270.963L67.6063 271.415L71.8382 271.455L62.434 290.872Z" fill="#B07320"/>
<path d="M56.895 287.968L57.3387 287.13L57.4437 286.997L46.8803 280.947L74.7932 247.068L74.5338 246.918L73.9029 246.691L45.4129 281.303L56.895 287.968Z" fill="#B07320"/>
<path d="M90.6881 278.632L87.3182 276.195L72.3438 295.49L104.398 313.656L117.307 297.808L100.272 285.583L117.292 263.69L102.413 257.912L93.1593 277.07L92.6248 278.16L91.3729 277.283L91.2226 277.542L90.6881 278.632Z" fill="#CB9E16"/>
<path d="M57.4436 286.997L66.2154 271.4L67.1823 271.405L67.6062 271.415L67.8543 270.963L68.8212 270.969L73.5366 271.011L64.1395 290.488L68.2239 292.84L96.4999 255.415L83.5207 250.378L76.6841 264.477L76.2021 265.501L75.0906 264.787L74.9332 264.987L74.4511 266.011L70.7027 263.438L79.0308 248.678L74.7932 247.069L46.8802 280.948L57.4436 286.997Z" fill="#CB9E16"/>
<g opacity="0.66">
<path opacity="0.66" d="M104.398 313.656L117.307 297.807L100.272 285.583L117.292 263.689L102.413 257.912L93.1594 277.069L92.6249 278.16L91.373 277.282L91.2228 277.541L90.6883 278.632L87.3184 276.195L72.3439 295.49L104.398 313.656Z" fill="url(#paint4_linear_577:10281)"/>
<path opacity="0.66" d="M57.4436 286.997L66.2154 271.4L67.1823 271.405L67.6062 271.415L67.8543 270.963L68.8212 270.969L73.5366 271.011L64.1395 290.488L68.2239 292.84L96.4999 255.415L83.5207 250.378L76.6841 264.477L76.2021 265.501L75.0906 264.787L74.9332 264.987L74.4511 266.011L70.7027 263.438L79.0308 248.678L74.7932 247.069L46.8802 280.948L57.4436 286.997Z" fill="url(#paint5_linear_577:10281)"/>
</g>
<path d="M90.4727 277.328L86.7909 274.807L86.3316 274.499L85.919 275.092C83.2054 278.676 80.6109 282.246 78.0093 285.756L70.5192 295.887L85.5187 305.213C91.0548 308.6 96.91 312.131 103.056 315.566L103.634 315.859L104.113 315.319C106.376 312.513 108.572 309.655 110.828 306.79L117.588 298.135L117.955 297.669L117.562 297.413C114.54 295.358 111.577 293.295 108.733 291.218L104.563 288.151C103.304 287.214 102.053 286.336 100.853 285.392L109.17 275.102C112.122 271.49 115.007 267.825 117.892 264.161L118.738 263.154L117.722 262.731L101.5 256.329L100.677 256.004L100.195 257.028C98.5003 260.551 96.7465 264.081 95.0593 267.663C93.5082 270.867 92.0167 274.064 90.4727 277.328ZM108.289 274.301L100.058 285.306L99.7431 285.705L100.069 285.908C101.447 286.831 102.773 287.821 104.158 288.803L108.38 291.803C111.091 293.775 113.868 295.8 116.659 297.944L109.926 305.811C107.754 308.364 105.582 310.917 103.47 313.463C97.755 310.097 92.1423 307.082 86.7223 304.164L70.7503 295.799L78.8642 285.835C81.3963 282.756 83.9285 279.677 86.3939 276.545L90.1778 279.416L90.8441 279.941L91.3857 278.91C93.1395 275.38 94.8933 271.85 96.6401 268.26C98.2507 265.049 99.8017 261.845 101.353 258.641L115.899 264.156C113.349 267.6 110.786 270.924 108.289 274.301Z" fill="#B07320"/>
<path d="M45.2697 281.622L50.8513 284.882L56.6469 288.42L56.9064 288.57L57.1616 288.177C60.2126 282.862 63.3232 277.54 66.4338 272.218L70.6728 272.318L61.7819 290.466L61.3523 291.423L62.0045 291.828L67.0671 294.788L67.586 295.089L68.051 294.43L75.1427 285.011C77.5416 281.826 79.8809 278.649 82.2727 275.406C87.0562 268.918 91.8185 262.252 96.6999 255.572L97.0146 255.172L96.6361 255.036C94.3054 254.226 91.9746 253.417 89.7034 252.6C87.4918 251.776 85.2802 250.953 83.1351 250.181L82.2519 249.864L82.1853 249.811L82.1328 249.878C80.8228 252.57 79.5127 255.262 78.1956 257.895C76.9309 260.461 75.6592 262.968 74.3945 265.534L71.2174 263.194L75.2893 256.309C76.6872 253.847 78.1518 251.439 79.5497 248.978L80.0006 248.199L79.3697 247.972C77.6557 247.271 75.9487 246.628 74.2418 245.986L73.8633 245.85L73.4961 246.316C68.5892 252.275 63.8609 258.212 59.1256 264.09C56.8175 267.022 54.5022 269.894 52.187 272.767C49.8718 275.639 47.6091 278.444 45.2797 281.198L45.0174 281.531L45.2697 281.622ZM52.4677 273.095C54.8496 270.276 57.2314 267.456 59.6133 264.636C64.3245 259.063 69.1477 253.416 73.8902 247.598C75.2257 248.164 76.6136 248.663 78.0016 249.162C76.8134 251.356 75.5658 253.558 74.3777 255.753L70.3696 263.175L70.1215 263.627L70.388 263.837L74.1819 266.284L74.4413 266.434L74.5774 266.055C75.8279 263.37 77.0713 260.626 78.3813 257.933C79.6318 255.248 80.8894 252.623 82.1994 249.93L83.0231 250.255C85.1752 251.086 87.3273 251.917 89.4936 252.867C91.5862 253.705 93.7454 254.595 95.9116 255.545C90.9877 261.868 85.9901 268.079 81.2377 274.321C78.8318 277.446 76.3734 280.637 74.027 283.754L67.4599 292.507L63.5753 290.313L72.4238 271.807L72.9512 270.657L71.9843 270.652L66.3686 270.656L65.9447 270.646L65.6966 271.098C62.7193 276.525 59.7419 281.952 56.7575 287.32L51.1377 284.245L45.7631 281.201C47.9805 278.521 50.2504 275.775 52.4677 273.095Z" fill="#B07320"/>
<path d="M42.9324 257.926C39.4985 265.098 37.0811 272.693 35.7185 280.524C35.1003 284.463 34.6607 288.38 34.6451 292.307C34.5741 294.248 34.6889 296.227 34.7442 298.213C34.798 299.173 34.9185 300.186 35.0319 301.138L35.1496 302.634C35.2063 303.11 35.3225 303.58 35.3863 304.116C35.5592 305.061 35.6797 306.073 35.8527 307.019L36.4977 309.901C36.6706 310.847 37.0222 311.771 37.2547 312.71C37.5467 313.641 37.7792 314.58 38.1308 315.504L39.126 318.284L40.3523 320.977C40.7039 321.901 41.227 322.745 41.6906 323.595C42.1542 324.446 42.6177 325.297 43.1409 326.14C45.2263 329.455 47.6406 332.489 50.4888 335.109C53.337 337.729 56.5665 340.002 60.03 341.703C63.4935 343.404 67.2646 344.646 71.084 345.279C74.9033 345.911 78.8446 346.046 82.7817 345.638C86.6592 345.236 90.5395 344.352 94.2583 343.124C97.9699 341.837 101.572 340.14 104.961 338.167C111.79 334.153 117.735 328.796 122.88 322.809C125.419 319.789 127.758 316.612 129.898 313.277C131.978 309.95 133.858 306.465 135.604 302.876C137.232 299.3 138.726 295.62 139.975 291.908C141.158 288.144 142.155 284.342 142.906 280.508C143.591 276.622 144.031 272.705 144.172 268.823C144.307 264.882 144.144 260.976 143.624 257.113C142.583 249.386 140.114 241.83 135.95 235.26C133.872 232.005 131.458 228.971 128.609 226.35C125.761 223.73 122.539 221.517 119.075 219.816C115.612 218.115 111.907 216.925 108.095 216.352C104.283 215.779 100.408 215.697 96.5305 216.098C92.6601 216.559 88.8393 217.436 85.1872 218.717C81.4756 220.004 77.9326 221.694 74.5371 223.608C60.9026 231.33 49.8668 243.634 42.9324 257.926ZM42.7396 257.828C46.1734 250.656 50.5714 243.973 55.7689 237.919C60.9664 231.866 66.9706 226.501 73.7716 222.249C80.5725 217.998 88.2368 214.911 96.2683 213.895C104.3 212.879 112.713 214.051 120.078 217.583C127.443 221.115 133.634 226.96 137.84 233.887C142.106 240.807 144.558 248.728 145.627 256.693C146.703 264.718 146.098 272.821 144.556 280.674C143.752 284.574 142.644 288.45 141.342 292.228C139.981 296.014 138.42 299.642 136.673 303.231C134.86 306.769 132.92 310.26 130.721 313.602C128.515 316.884 126.124 320.128 123.525 323.155C120.926 326.181 118.061 328.998 115.048 331.591C112.035 334.184 108.816 336.56 105.375 338.6C101.934 340.64 98.3456 342.456 94.5815 343.81C90.8245 345.224 86.8988 346.234 82.9093 346.709C74.9373 347.719 66.5983 346.658 59.2403 343.186C51.8823 339.714 45.6983 333.928 41.492 327.001C37.2858 320.074 34.8928 312.146 34.0097 304.219C33.953 303.743 33.8892 303.207 33.8325 302.73L33.7149 301.235C33.6539 300.215 33.6001 299.255 33.5391 298.236C33.5434 296.243 33.4882 294.257 33.6115 292.249C33.7392 288.248 34.3574 284.31 35.0947 280.357C35.53 278.433 35.8986 276.457 36.453 274.519C36.704 273.583 36.9478 272.588 37.2583 271.645L38.1898 268.817C38.3784 268.372 38.5003 267.874 38.6818 267.369L39.1809 265.981L40.2386 263.198C41.119 261.463 41.9257 259.616 42.7396 257.828Z" fill="#752714"/>
<path d="M122.877 323.293L128.738 328.393L122.045 324.419L122.877 323.293Z" fill="#752714"/>
<path d="M115.54 342.826L109.74 338.746L115.953 342.234L115.54 342.826Z" fill="#752714"/>
<path d="M94.4965 350.706L88.6967 346.625L94.9091 350.113L94.4965 350.706Z" fill="#752714"/>
<path d="M103.34 339.266L109.519 343.483L102.928 339.859L103.34 339.266Z" fill="#752714"/>
<path d="M154.791 279.396L147.979 275.437L155.137 278.751L154.791 279.396Z" fill="#752714"/>
<path d="M154.108 281.773L150.454 279.49L154.454 281.128L154.108 281.773Z" fill="#752714"/>
<path d="M144.549 254.226L152.522 259.316L144.143 254.878L144.549 254.226Z" fill="#752714"/>
<path d="M151.498 248.687L141.318 243.317" stroke="#752714" stroke-width="1.2151" stroke-miterlimit="10"/>
<path d="M139.638 239.35L150.187 245.281" stroke="#752714" stroke-width="1.2151" stroke-miterlimit="10"/>
<path d="M83.9415 60.1057C84.0379 61.4228 84.2534 62.7257 84.4022 63.9761C84.5581 65.2861 84.8331 66.5819 85.0415 67.8253C85.3165 69.1211 85.644 70.3502 85.9786 71.639L86.5626 73.5019C86.7597 74.1427 86.9496 74.724 87.1467 75.3648C88.8805 80.2914 91.1956 85.0281 94.1231 89.3296C97.0506 93.631 100.643 97.4306 104.701 100.571C105.753 101.291 106.752 102.078 107.916 102.725C108.494 103.018 109.02 103.378 109.546 103.738C110.125 104.032 110.703 104.325 111.282 104.619C113.581 105.674 116.038 106.529 118.519 107.079L119.076 107.193L119.14 107.729L119.243 109.106L118.444 108.477L127.523 107.637L126.946 108.37L126.868 107.715L127.523 107.637C133.38 107.121 139.017 104.76 143.717 101.12C146.04 99.3341 148.202 97.2047 150.105 94.925C152 92.5858 153.637 90.0963 155.013 87.4565C157.826 82.1698 159.556 76.4082 160.483 70.5006C161.411 64.5929 161.423 58.6129 160.774 52.6513C160.479 49.667 159.953 46.7706 159.242 43.8358C158.537 40.9607 157.714 38.0997 156.599 35.3336C154.43 29.7945 151.516 24.5857 147.719 20.0858C143.922 15.5858 139.296 11.7281 133.993 9.27955C128.682 6.77148 122.767 5.78462 116.939 6.53874L116.046 6.64506L115.939 5.75188L116.879 6.54583L109.117 7.28857L109.852 6.35572L109.948 7.67279L110.019 8.26824L109.445 8.51775C104.844 10.4543 100.676 13.4867 97.2619 17.2748C93.8409 21.0034 91.0408 25.3827 88.9382 30.0414C86.8356 34.7 85.371 39.645 84.4706 44.7644C84.0467 47.2908 83.8084 49.8555 83.6964 52.4655C83.6893 54.9423 83.7558 57.5311 83.9415 60.1057ZM83.7629 60.1269C83.5176 57.5594 83.4511 54.9706 83.5631 52.3606C83.6156 49.7577 83.8539 47.193 84.2112 44.6141C84.9329 39.516 86.2572 34.4065 88.2265 29.643C90.1887 24.8199 92.8485 20.2761 96.3007 16.3023C99.7601 12.388 104.012 9.04362 108.896 6.95256L108.393 7.79752L108.296 6.48045L108.197 5.64682L109.031 5.54759L116.786 4.74531L117.679 4.639L117.785 5.53217L116.786 4.74531C122.905 3.89621 129.258 5.01208 134.761 7.61798C140.331 10.2763 145.098 14.2985 148.975 18.97C152.86 23.7011 155.796 29.0885 157.919 34.7538C158.981 37.5865 159.812 40.507 160.404 43.4559C161.056 46.3977 161.477 49.4274 161.713 52.4188C161.948 55.4102 162.064 58.4158 161.942 61.4498C161.82 64.4837 161.513 67.4794 161.019 70.4368C160.039 76.4111 158.191 82.1869 155.451 87.5855C154.082 90.2849 152.453 92.8339 150.557 95.1731C148.669 97.5719 146.573 99.7538 144.204 101.666C139.526 105.484 133.738 108.105 127.605 108.835L128.182 108.102L128.26 108.757L127.605 108.835L118.54 109.794L117.826 109.879L117.741 109.164L117.637 107.787L118.199 108.445C115.599 107.909 113.023 107.069 110.59 105.909C110.011 105.615 109.373 105.329 108.788 104.976C108.202 104.623 107.617 104.27 107.091 103.91C105.927 103.263 104.92 102.417 103.802 101.644C99.6039 98.3394 96.1546 94.2208 93.332 89.7861C90.5023 85.2918 88.3588 80.4743 86.7965 75.4669C85.1818 70.526 84.2604 65.3215 83.7629 60.1269Z" fill="#752714"/>
<path d="M83.8224 60.12C83.8579 60.4177 83.8933 60.7155 83.9288 61.0132C85.7658 79.9981 95.5591 96.8282 108.941 104.233C111.914 105.872 115.075 107.066 118.359 107.762L118.462 109.139L127.534 108.24C147.696 106.142 163.745 83.6999 161.259 53.6808C158.645 22.5899 137.75 2.79366 116.773 5.65282L109.011 6.39556L109.107 7.71264C92.1511 14.9243 81.9486 37.2747 83.8224 60.12Z" fill="#B07320"/>
<path d="M134.494 97.206L134.825 103.024C134.825 103.024 139.473 105.551 150.078 93.1771C160.683 80.8033 166.05 49.7891 150.913 27.1335C135.776 4.47783 138.991 16.7767 144.997 27.6565C151.002 38.5363 128.455 64.228 128.455 64.228L110.957 85.152L134.494 97.206Z" fill="#CB9E16"/>
<path d="M120.807 40.5604L92.3478 40.9284L92.2684 41.7833L89.9175 57.0395L105.551 58.5L102.93 79.1025L115.073 77.1136L115.84 76.9619L114.451 60.2185L114.404 59.3182L117.765 59.643L118.374 59.6912L120.807 40.5604Z" fill="#428A7A"/>
<path d="M132.712 41.1361L132.93 54.6372L132.31 55.0129L129.318 56.7581L127.947 40.6767L123.603 40.7106L123.509 41.4464L119.532 76.5225L130.134 74.7774L130.782 74.6399L129.777 62.1384L129.678 61.3047L133.083 61.5033L133.328 74.2161L136.939 73.6051L137.415 73.5484L142.579 40.324L132.686 40.4145L132.712 41.1361Z" fill="#428A7A"/>
<path d="M126.707 102.3C105.979 108.27 83.9878 88.9057 81.3883 57.9339C78.7887 26.9621 97.3218 4.58638 118.8 7.4648C122.055 7.92279 125.129 8.88548 128.021 10.3529C124.47 8.42046 120.625 7.06645 116.627 6.45533C93.2983 3.25364 72.9179 27.3589 75.7031 60.9054C78.4883 94.4518 102.594 114.832 125.068 107.809C143.756 101.961 155.208 78.4357 153.199 54.459C153.164 54.1613 153.128 53.8636 153.093 53.5658C154.665 75.9036 143.992 97.3438 126.707 102.3Z" fill="#CB9E16"/>
<path d="M81.455 57.9865C84.0545 88.9583 105.986 108.329 126.773 102.352C144.051 97.3368 154.724 75.8967 153.16 53.6184C151.323 34.6335 141.529 17.8034 128.147 10.3984C125.262 8.99049 122.122 7.97534 118.927 7.51026C97.3885 4.63894 78.8483 26.9551 81.455 57.9865Z" fill="#FFEB47"/>
<path opacity="0.81" d="M153.154 53.5585C151.317 34.5736 141.524 17.7436 128.142 10.3385C124.59 8.40605 120.746 7.05204 116.748 6.44092C93.4189 3.23923 73.0385 27.3445 75.8237 60.891C78.6089 94.4374 102.714 114.818 125.188 107.795C143.877 101.947 155.328 78.4213 153.32 54.4446C153.165 54.1611 153.13 53.8633 153.154 53.5585Z" fill="url(#paint6_linear_577:10281)"/>
<path d="M102.586 63.0198L104.013 79.5775L104.259 79.6087L104.98 79.5832L103.573 62.1777L102.532 62.06L102.586 63.0198Z" fill="#B07320"/>
<path d="M86.7587 45.2169L86.7729 45.336L108.308 41.0818L106.255 61.3752L106.56 61.3993L107.117 61.5141L109.312 39.8753L86.7857 44.4286L86.7587 45.2169Z" fill="#B07320"/>
<path d="M118.27 65.9238L119.474 80.0927L119.779 80.1168L120.626 80.1366L119.376 65.0675L118.209 64.9045L118.27 65.9238Z" fill="#B07320"/>
<path d="M117.182 38.5159L112.23 39.5281L112.15 40.383L112.112 40.5687L116.126 39.789L117.736 59.4048L121.46 57.2102L122.244 56.6942L122.247 56.2108L118.806 58.2508L117.182 38.5159Z" fill="#B07320"/>
<path d="M123.051 37.0928L123.046 38.0597L123.067 38.2383L136.404 35.6243L128.376 80.3011L128.68 80.3252L129.349 80.3663L137.743 34.1966L123.051 37.0928Z" fill="#B07320"/>
<path d="M103.438 61.0463L106.255 61.3753L108.308 41.0819L86.773 45.3361L85.7052 58.6883L96.1921 60.0368L94.628 79.3661L104.013 79.5775L102.586 63.0198L102.532 62.06L103.573 62.1777L103.552 61.999L103.438 61.0463Z" fill="#CB9E16"/>
<path d="M123.067 38.2381L123.374 55.533L122.583 55.9895L122.247 56.2107L122.244 56.6941L121.46 57.2102L117.736 59.4048L116.126 39.789L112.112 40.5687L108.393 79.8412L119.474 80.0923L118.27 65.9235L118.209 64.9041L119.376 65.0672L119.348 64.829L119.28 63.7501L123.568 64.2663L123.839 80.237L128.376 80.3009L136.404 35.6241L123.067 38.2381Z" fill="#CB9E16"/>
<g opacity="0.66">
<path opacity="0.66" d="M86.7729 45.3361L85.7051 58.6883L96.192 60.0368L94.6279 79.3661L104.013 79.5775L102.586 63.0198L102.532 62.06L103.573 62.1777L103.551 61.999L103.438 61.0463L106.255 61.3753L108.308 41.0819L86.7729 45.3361Z" fill="url(#paint7_linear_577:10281)"/>
<path opacity="0.66" d="M123.067 38.2384L123.374 55.5333L122.583 55.9898L122.247 56.2109L122.244 56.6944L121.46 57.2104L117.736 59.405L116.126 39.7892L112.112 40.5689L108.393 79.8414L119.474 80.0926L118.27 65.9237L118.209 64.9044L119.376 65.0674L119.348 64.8293L119.28 63.7504L123.568 64.2665L123.839 80.2373L128.376 80.3011L136.404 35.6243L123.067 38.2384Z" fill="url(#paint8_linear_577:10281)"/>
</g>
<path d="M104.021 61.8826L107.083 62.2427L107.514 62.3122L107.562 61.7026C107.911 58.0377 108.2 54.38 108.49 50.7223L109.372 39.8681L97.46 41.7691C93.7895 42.3871 90.1856 43.0576 86.7745 43.826L86.4839 43.921L86.4215 44.4115C86.2215 46.7905 86.0882 49.2219 85.9478 51.5937L85.5266 58.7093L85.5096 59.0737L85.6953 59.112C87.3455 59.2779 89.0553 59.4367 90.7793 59.7146L93.4248 60.1244C94.2867 60.2633 95.0821 60.3498 95.9441 60.4888L95.0635 69.833C94.777 73.0073 94.4906 76.1816 94.197 79.2964L94.1176 80.1513L94.6677 80.2066L105.041 80.6023L105.651 80.6505L105.604 79.7503C105.355 76.6397 105.105 73.5292 104.796 70.4258C104.568 67.4939 104.294 64.6883 104.021 61.8826ZM95.7397 69.9337L96.385 60.1343L96.402 59.77L96.1567 59.7388C95.2423 59.6665 94.3208 59.5346 93.4063 59.4623L90.775 59.1716C89.1177 58.9461 87.5199 58.7136 85.9222 58.4811L86.5716 51.761C86.7928 49.5607 87.014 47.3604 87.1686 45.1076C90.3628 44.5463 93.7143 43.785 97.1778 42.95L109.26 39.9418L107.916 50.9718C107.524 54.2793 107.066 57.5344 106.727 60.7754L103.465 60.2578L102.908 60.143L102.955 61.0432C103.204 64.1537 103.387 67.2118 103.636 70.3223C103.851 73.1351 104.057 75.8883 104.331 78.694L95.086 78.6471C95.3483 75.7776 95.544 72.8556 95.7397 69.9337Z" fill="#B07320"/>
<path d="M137.761 33.8321L130.091 35.3489L122.995 36.6163L122.697 36.6517L122.694 37.1351C122.741 43.108 122.788 49.0809 122.827 54.9943L119.327 57.0414L117.897 38.4309L117.843 37.471L117.195 37.6086L112.243 38.6207L111.774 38.737L111.68 39.4728L110.741 49.8505C110.424 53.2701 110.099 56.6301 109.841 60.0426C109.251 66.7556 108.825 73.3281 108.281 79.9149L108.271 80.3388L108.509 80.3105C110.317 80.2765 112.124 80.2425 113.999 80.261C115.932 80.2723 117.866 80.2837 119.867 80.3476L120.714 80.3674L120.774 80.3603L120.76 80.2412C120.553 77.488 120.293 74.8014 120.146 72.0411C119.953 69.4069 119.768 66.8323 119.634 64.1911L123.32 64.7185L123.313 72.268C123.327 74.9234 123.341 77.5788 123.348 80.1747L123.329 81.0225L123.938 81.0707C125.76 81.1558 127.582 81.2409 129.456 81.2593L129.88 81.2693L129.995 80.7121C131.355 73.364 132.574 65.8515 133.832 58.1532C134.516 54.2672 135.135 50.3288 135.812 46.3833C136.483 42.3782 137.213 38.366 137.996 34.2872L138.065 33.8562L137.761 33.8321ZM135.301 46.1422C134.563 50.0949 133.752 53.9355 133.001 57.769C131.582 65.1242 130.089 72.3673 128.82 79.4631C127.303 79.4021 125.852 79.3935 124.402 79.385C124.364 77.0344 124.259 74.6313 124.161 72.2878L123.866 64.2309L123.869 63.7474L123.564 63.7233L119.297 63.3858L119.052 63.3546L119.094 63.7119C119.361 66.458 119.62 69.1446 119.887 71.8908C120.146 74.5774 120.346 77.2711 120.605 79.9577L119.817 79.9307C117.817 79.8669 115.876 79.796 113.935 79.7251C112.173 79.6329 110.41 79.5407 108.648 79.4485C109.34 73.0857 110.144 66.6492 110.822 60.1674C111.206 56.8003 111.524 53.3807 111.841 49.9611L112.799 40.2455L116.574 39.4941L118.19 58.143L118.265 59.2814L118.996 58.832L123.557 56.0548L123.893 55.8336L123.896 55.3502C123.73 49.3915 123.558 43.3732 123.385 37.3549L130.154 35.8848L137.408 34.4176C136.744 38.4823 136.052 42.3087 135.301 46.1422Z" fill="#B07320"/>
<path d="M75.8293 60.9505C76.3523 66.8667 77.7161 72.7432 79.8255 78.2895C80.9398 81.0555 82.1661 83.7478 83.6164 86.2926C84.3153 87.5984 85.1262 88.8304 85.9372 90.0624C86.3724 90.6749 86.8076 91.2874 87.2358 91.8403L87.8851 92.7292C88.0991 93.0057 88.3727 93.275 88.5939 93.6111C90.4398 95.9277 92.555 97.9706 94.7226 99.947L96.3955 101.318L98.1733 102.556C98.773 103.028 99.4181 103.374 100.004 103.727C100.649 104.073 101.241 104.485 101.886 104.831C104.46 106.155 107.242 107.213 110.095 107.84C112.947 108.467 115.869 108.662 118.742 108.441C124.553 108.051 130.204 105.809 134.925 102.348C137.316 100.614 139.425 98.5514 141.394 96.3242C143.297 94.0445 144.94 91.6146 146.384 89.0272C149.27 83.8526 151.067 78.1434 152.12 72.2811C152.621 69.3833 152.928 66.3876 152.998 63.4203C153.067 60.453 152.958 57.5069 152.723 54.5155C152.435 51.5907 151.962 48.6277 151.317 45.7454C150.672 42.8631 149.848 40.0021 148.853 37.2219C147.858 34.4418 146.631 31.7495 145.241 29.1975C143.85 26.6456 142.221 24.122 140.442 21.8578C136.817 17.2771 132.362 13.3385 127.149 10.6376C124.576 9.31342 121.8 8.31528 119.007 7.6815C116.155 7.05481 113.292 6.85202 110.361 7.08022C107.488 7.30133 104.606 7.94634 101.959 9.04645C99.2455 10.0941 96.7007 11.5444 94.3699 13.2711C89.7154 16.7842 85.9172 21.4031 83.0235 26.5182C77.2574 36.9271 74.8357 49.0515 75.8293 60.9505ZM75.6436 60.9122C75.1205 54.996 75.4311 48.9806 76.418 43.0658C77.4715 37.2035 79.3203 31.4277 82.0666 26.0886C84.8128 20.7495 88.6422 15.8853 93.447 12.1128C98.2517 8.34035 104.127 5.95017 110.222 5.40587C116.317 4.86158 122.526 6.29645 127.939 9.1547C133.352 12.013 137.954 16.1755 141.66 20.9278C145.365 25.6801 148.13 31.1484 150.134 36.8278C151.077 39.6747 151.908 42.5952 152.441 45.5512C153.034 48.5001 153.388 51.4773 153.623 54.4687C153.799 57.4672 153.856 60.4799 153.727 63.4543C153.538 66.4358 153.23 69.4315 152.737 72.3889C152.184 75.3533 151.438 78.2199 150.447 81.0554C149.456 83.8908 148.339 86.6809 146.895 89.2683C145.459 91.9151 143.823 94.4046 141.927 96.7439C140.032 99.0831 137.87 101.212 135.494 103.065C130.741 106.771 124.94 109.273 118.845 109.818C112.75 110.362 106.548 108.987 101.194 106.121C95.8412 103.256 91.2917 99.0268 87.705 94.2603C87.4909 93.9839 87.2102 93.655 86.9961 93.3785L86.3397 92.43C85.9045 91.8176 85.4693 91.2051 85.0936 90.5855C84.3351 89.2869 83.5242 88.0549 82.8777 86.6825C81.4799 84.071 80.299 81.2525 79.3038 78.4723C78.836 77.0787 78.3611 75.6255 77.9528 74.2248C77.7486 73.5244 77.5374 72.7645 77.3928 72.0571L76.8924 69.8823C76.7478 69.1748 76.5961 68.4078 76.4515 67.7004L76.0702 65.5114C75.9979 63.8895 75.7612 62.4079 75.6436 60.9122Z" fill="#752714"/>
<path d="M152.341 72.6169L158.092 73.7441L152.231 73.7171L152.341 72.6169Z" fill="#752714"/>
<path d="M155.092 88.1137L149.724 87.6636L155.088 87.5707L155.092 88.1137Z" fill="#752714"/>
<path d="M144.506 101.151L139.145 100.759L144.501 100.608L144.506 101.151Z" fill="#752714"/>
<path d="M145.825 90.4226L151.425 90.7869L145.83 90.9655L145.825 90.4226Z" fill="#752714"/>
<path d="M156.217 32.1184L150.303 32.1582L156.153 31.5825L156.217 32.1184Z" fill="#752714"/>
<path d="M156.675 33.9387L153.462 33.8352L156.671 33.3958L156.675 33.9387Z" fill="#752714"/>
<path d="M140.015 19.7952L147.11 20.0377L140.027 20.3977L140.015 19.7952Z" fill="#752714"/>
<path d="M142.41 13.5314L133.764 13.9565" stroke="#752714" stroke-width="0.9112" stroke-miterlimit="10"/>
<path d="M131.187 12.0894L140.225 11.9194" stroke="#752714" stroke-width="0.9112" stroke-miterlimit="10"/>
<path d="M138.267 19.822L137.353 14.6771L137.671 19.8929C137.929 24.0894 137.871 27.6593 137.521 30.2976C137.254 32.6241 136.419 34.2333 135.323 34.6656L128.755 37.3195L135.598 38.4978C136.772 38.7204 137.969 40.1481 138.774 42.347C139.769 45.1272 140.794 49.172 141.599 53.9072L143.065 62.6702L142.433 53.808C142.144 49.8568 142.142 46.294 142.293 43.4982C142.498 40.1524 143.606 37.7862 145.111 37.2447L149.978 35.518L144.157 33.7953C142.717 33.3629 141.345 31.473 140.409 28.6857C139.656 26.4202 138.871 23.3735 138.267 19.822Z" fill="white"/>
<defs>
<linearGradient id="paint0_linear_577:10281" x1="4.15551" y1="177.002" x2="128.297" y2="103.04" gradientUnits="userSpaceOnUse">
<stop stop-color="#D2A91D" stop-opacity="0.0235507"/>
<stop offset="0.1692" stop-color="#FFEB47"/>
<stop offset="0.2915" stop-color="white"/>
<stop offset="0.4111" stop-color="#FFEB47"/>
<stop offset="0.6027" stop-color="#D2A91D" stop-opacity="0.0235507"/>
<stop offset="0.7538" stop-color="#FFEB47"/>
<stop offset="0.8477" stop-color="white"/>
<stop offset="0.93" stop-color="#FFEB47"/>
<stop offset="1" stop-color="#D2A91D" stop-opacity="0.0235507"/>
</linearGradient>
<linearGradient id="paint1_linear_577:10281" x1="37.7682" y1="169.967" x2="69.2589" y2="139.681" gradientUnits="userSpaceOnUse">
<stop stop-color="#D2A91D" stop-opacity="0.0235507"/>
<stop offset="0.1692" stop-color="#FFEB47"/>
<stop offset="0.2915" stop-color="white"/>
<stop offset="0.4111" stop-color="#FFEB47"/>
<stop offset="0.6027" stop-color="#D2A91D" stop-opacity="0.0235507"/>
<stop offset="0.7538" stop-color="#FFEB47"/>
<stop offset="0.8477" stop-color="white"/>
<stop offset="0.93" stop-color="#FFEB47"/>
<stop offset="1" stop-color="#D2A91D" stop-opacity="0.0235507"/>
</linearGradient>
<linearGradient id="paint2_linear_577:10281" x1="26.6855" y1="171.608" x2="69.3102" y2="130.615" gradientUnits="userSpaceOnUse">
<stop stop-color="#D2A91D" stop-opacity="0.0235507"/>
<stop offset="0.1692" stop-color="#FFEB47"/>
<stop offset="0.2915" stop-color="white"/>
<stop offset="0.4111" stop-color="#FFEB47"/>
<stop offset="0.6027" stop-color="#D2A91D" stop-opacity="0.0235507"/>
<stop offset="0.7538" stop-color="#FFEB47"/>
<stop offset="0.8477" stop-color="white"/>
<stop offset="0.93" stop-color="#FFEB47"/>
<stop offset="1" stop-color="#D2A91D" stop-opacity="0.0235507"/>
</linearGradient>
<linearGradient id="paint3_linear_577:10281" x1="139.433" y1="373.647" x2="13.4677" y2="137.855" gradientUnits="userSpaceOnUse">
<stop stop-color="#D2A91D" stop-opacity="0.0235507"/>
<stop offset="0.1692" stop-color="#FFEB47"/>
<stop offset="0.2915" stop-color="white"/>
<stop offset="0.4111" stop-color="#FFEB47"/>
<stop offset="0.6027" stop-color="#D2A91D" stop-opacity="0.0235507"/>
<stop offset="0.7538" stop-color="#FFEB47"/>
<stop offset="0.8477" stop-color="white"/>
<stop offset="0.93" stop-color="#FFEB47"/>
<stop offset="1" stop-color="#D2A91D" stop-opacity="0.0235507"/>
</linearGradient>
<linearGradient id="paint4_linear_577:10281" x1="122.722" y1="311.433" x2="48.9388" y2="227.176" gradientUnits="userSpaceOnUse">
<stop stop-color="#D2A91D" stop-opacity="0.0235507"/>
<stop offset="0.1692" stop-color="#FFEB47"/>
<stop offset="0.2915" stop-color="white"/>
<stop offset="0.4111" stop-color="#FFEB47"/>
<stop offset="0.6027" stop-color="#D2A91D" stop-opacity="0.0235507"/>
<stop offset="0.7538" stop-color="#FFEB47"/>
<stop offset="0.8477" stop-color="white"/>
<stop offset="0.93" stop-color="#FFEB47"/>
<stop offset="1" stop-color="#D2A91D" stop-opacity="0.0235507"/>
</linearGradient>
<linearGradient id="paint5_linear_577:10281" x1="113.624" y1="316.05" x2="49.6733" y2="243.021" gradientUnits="userSpaceOnUse">
<stop stop-color="#D2A91D" stop-opacity="0.0235507"/>
<stop offset="0.1692" stop-color="#FFEB47"/>
<stop offset="0.2915" stop-color="white"/>
<stop offset="0.4111" stop-color="#FFEB47"/>
<stop offset="0.6027" stop-color="#D2A91D" stop-opacity="0.0235507"/>
<stop offset="0.7538" stop-color="#FFEB47"/>
<stop offset="0.8477" stop-color="white"/>
<stop offset="0.93" stop-color="#FFEB47"/>
<stop offset="1" stop-color="#D2A91D" stop-opacity="0.0235507"/>
</linearGradient>
<linearGradient id="paint6_linear_577:10281" x1="46.7227" y1="16.5497" x2="217.971" y2="120.774" gradientUnits="userSpaceOnUse">
<stop stop-color="#D2A91D" stop-opacity="0.0235507"/>
<stop offset="0.1692" stop-color="#FFEB47"/>
<stop offset="0.2915" stop-color="white"/>
<stop offset="0.4111" stop-color="#FFEB47"/>
<stop offset="0.6027" stop-color="#D2A91D" stop-opacity="0.0235507"/>
<stop offset="0.7538" stop-color="#FFEB47"/>
<stop offset="0.8477" stop-color="white"/>
<stop offset="0.93" stop-color="#FFEB47"/>
<stop offset="1" stop-color="#D2A91D" stop-opacity="0.0235507"/>
</linearGradient>
<linearGradient id="paint7_linear_577:10281" x1="77.5854" y1="52.3425" x2="144.252" y2="74.2988" gradientUnits="userSpaceOnUse">
<stop stop-color="#D2A91D" stop-opacity="0.0235507"/>
<stop offset="0.1692" stop-color="#FFEB47"/>
<stop offset="0.2915" stop-color="white"/>
<stop offset="0.4111" stop-color="#FFEB47"/>
<stop offset="0.6027" stop-color="#D2A91D" stop-opacity="0.0235507"/>
<stop offset="0.7538" stop-color="#FFEB47"/>
<stop offset="0.8477" stop-color="white"/>
<stop offset="0.93" stop-color="#FFEB47"/>
<stop offset="1" stop-color="#D2A91D" stop-opacity="0.0235507"/>
</linearGradient>
<linearGradient id="paint8_linear_577:10281" x1="66.475" y1="39.307" x2="151.696" y2="67.3738" gradientUnits="userSpaceOnUse">
<stop stop-color="#D2A91D" stop-opacity="0.0235507"/>
<stop offset="0.1692" stop-color="#FFEB47"/>
<stop offset="0.2915" stop-color="white"/>
<stop offset="0.4111" stop-color="#FFEB47"/>
<stop offset="0.6027" stop-color="#D2A91D" stop-opacity="0.0235507"/>
<stop offset="0.7538" stop-color="#FFEB47"/>
<stop offset="0.8477" stop-color="white"/>
<stop offset="0.93" stop-color="#FFEB47"/>
<stop offset="1" stop-color="#D2A91D" stop-opacity="0.0235507"/>
</linearGradient>
</defs>
</svg>
