<svg width="126" height="106" viewBox="0 0 126 106" fill="none" xmlns="http://www.w3.org/2000/svg">
<path d="M42.8039 16.3118C41.4039 17.0118 40.1039 17.7118 38.8039 18.4118C37.5039 19.1118 36.2039 19.9118 34.9039 20.7118C33.6039 21.5118 32.4039 22.4118 31.2039 23.3118C30.0039 24.2118 28.8039 25.1118 27.6039 26.1118C23.0039 30.0118 18.9039 34.4118 15.4039 39.3118C12.0039 44.2118 9.30394 49.6118 7.60394 55.3118C7.30394 56.7118 6.80394 58.2118 6.60394 59.6118C6.30394 61.1118 6.10394 62.5118 6.00394 64.0118C5.80394 66.9118 5.90392 69.9118 6.30392 72.8118L6.40393 73.4118L5.90393 73.7118L4.50394 74.4118L4.90393 73.3118L9.60394 82.7118L8.60394 82.4118L9.30392 82.1118L9.60394 82.8118C12.6039 88.9118 17.4039 94.0118 23.2039 97.6118C26.1039 99.4118 29.2039 100.812 32.5039 101.912C35.8039 103.012 39.1039 103.712 42.5039 104.112C49.3039 105.012 56.3039 104.512 63.0039 103.112C69.7039 101.712 76.2039 99.3118 82.4039 96.1118C88.5039 93.0118 94.2039 89.1118 99.3039 84.5118C104.404 79.9118 108.804 74.6118 112.104 68.7118C115.404 62.8118 117.604 56.2118 118.104 49.5118C118.604 42.8118 117.304 35.9118 114.104 30.0118L113.604 29.1118L114.504 28.7118L114.104 30.0118L110.104 22.0118L111.404 22.4118L110.004 23.1118L109.404 23.4118L108.904 22.9118C104.904 18.7118 99.9039 15.5118 94.5039 13.4118C89.1039 11.3118 83.2039 10.0118 77.4039 9.71178C71.5039 9.31178 65.6039 9.81178 59.7039 10.9118C53.8039 11.9118 48.2039 13.8118 42.8039 16.3118ZM42.7039 16.1118C48.1039 13.5118 53.7039 11.5118 59.6039 10.3118C65.4039 9.01178 71.4039 8.31178 77.4039 8.51178C83.4039 8.71178 89.4039 9.61178 95.1039 11.8118C100.804 13.9118 106.104 17.1118 110.404 21.5118L109.304 21.3118L110.704 20.6118L111.604 20.2118L111.904 21.0118L115.904 29.0118L116.304 29.9118L115.404 30.3118L115.804 29.0118C119.204 35.2118 120.704 42.5118 120.104 49.6118C119.504 56.7118 117.104 63.5118 113.704 69.6118C110.204 75.7118 105.604 81.1118 100.304 85.7118C95.0039 90.3118 89.1039 94.1118 82.8039 97.1118C76.5039 100.112 69.9039 102.412 63.1039 103.812C56.3039 105.212 49.3039 105.612 42.4039 104.812C38.9039 104.412 35.5039 103.712 32.2039 102.712C28.9039 101.712 25.6039 100.312 22.6039 98.5118C16.5039 95.0118 11.4039 89.8118 8.10394 83.6118L9.10394 83.9118L8.40393 84.3118L8.00394 83.6118L3.30392 74.2118L2.90393 73.5118L3.60394 73.1118L5.00394 72.4118L4.50394 73.3118C4.00394 70.3118 3.90394 67.1118 4.10394 64.1118C4.20394 62.6118 4.50392 61.0118 4.80392 59.5118C5.00392 58.0118 5.50393 56.5118 5.90393 55.0118C7.80393 49.1118 10.7039 43.7118 14.4039 38.8118C18.1039 33.9118 22.4039 29.6118 27.1039 25.9118C32.1039 22.0118 37.3039 18.8118 42.7039 16.1118Z" fill="#752714"/>
<path d="M42.7039 16.2119C42.4039 16.4119 42.1039 16.5119 41.8039 16.7119C22.1039 26.4119 8.00388 43.9119 5.50388 61.4119C4.90388 65.3119 4.90388 69.1119 5.60388 73.0119L4.20386 73.7119L8.90387 83.1119C19.4039 104.012 50.2039 112.112 81.6039 97.1119C114.104 81.6119 126.904 50.9119 115.204 29.5119L111.204 21.5119L109.804 22.2119C94.9039 6.71186 66.6039 4.81186 42.7039 16.2119Z" fill="#B07320"/>
<path d="M23.5038 86.012L17.4038 88.712C17.4038 88.712 16.6038 94.812 34.3038 101.112C52.0038 107.512 87.6038 100.512 105.904 74.912C124.204 49.312 112.204 57.812 102.904 68.812C93.6038 79.812 56.6038 66.012 56.6038 66.012L26.9038 55.812L23.5038 86.012Z" fill="#CB9E16"/>
<path d="M79.0039 48.0118L66.9039 17.6118L66.0039 17.8118L48.5039 21.5118L53.4039 39.0118L30.1039 44.6118L37.2039 56.9118L37.7039 57.7118L55.2039 49.3118L56.1039 48.8118L57.2039 52.6118L57.4039 53.3118L79.0039 48.0118Z" fill="#428A7A"/>
<path d="M83.2039 61.1118L68.7039 66.9118L68.1039 66.4118L65.0039 63.9118L81.8039 55.8118L79.9039 51.1118L79.1039 51.3118L39.6039 61.4118L45.9039 72.1118L46.3039 72.8118L59.4039 66.6118L60.3039 66.1118L61.4039 69.9118L47.8039 75.4118L49.9039 79.0118L50.2039 79.5118L88.2039 71.5118L84.0039 60.8118L83.2039 61.1118Z" fill="#428A7A"/>
<path d="M14.8038 79.8119C-0.196179 59.9119 11.7038 28.2119 44.1038 12.8119C76.5038 -2.68813 108.104 8.11187 113.904 32.5119C114.804 36.2119 115.004 39.9119 114.604 43.6119C115.304 39.0119 115.204 34.3119 114.104 29.7119C107.904 3.21187 73.6038 -8.88813 38.5038 7.81187C3.40384 24.5119 -8.59616 58.9119 8.10384 80.3119C22.1038 98.1119 52.1038 100.712 77.2038 88.8119C77.5038 88.6119 77.8038 88.5119 78.1038 88.3119C54.7038 99.1119 27.2038 96.3119 14.8038 79.8119Z" fill="#CB9E16"/>
<path d="M44.1039 12.7117C11.7039 28.2117 -0.0961351 59.8117 14.8039 79.7117C27.2039 96.3117 54.7039 99.0117 78.2039 88.2117C97.9039 78.5117 112.004 61.0117 114.504 43.5117C114.904 39.8117 114.704 36.0117 113.804 32.4117C108.104 8.11173 76.4039 -2.68827 44.1039 12.7117Z" fill="#FFEB47"/>
<path opacity="0.81" d="M78.2038 88.3119C97.9038 78.6119 112.004 61.1119 114.504 43.6119C115.204 39.0119 115.104 34.3119 114.004 29.7119C107.904 3.21187 73.6038 -8.88813 38.5038 7.81187C3.40384 24.5119 -8.59616 58.9119 8.10384 80.3119C22.1038 98.1119 52.1038 100.712 77.2038 88.8119C77.5038 88.6119 77.9038 88.4119 78.2038 88.3119Z" fill="url(#paint0_linear_577:10871)"/>
<path d="M47.3038 37.7119L30.0038 45.9119L30.1038 46.2119L30.4038 47.0119L48.6038 38.3119L48.3038 37.2119L47.3038 37.7119Z" fill="#B07320"/>
<path d="M60.0038 13.3117H59.8037L73.3037 34.8117L50.6038 40.9117V41.2117L50.8037 41.9117L75.0038 35.4117L60.8037 13.0117L60.0038 13.3117Z" fill="#B07320"/>
<path d="M50.6039 55.7119L35.8038 62.8119L35.9038 63.2119L36.2038 64.1119L52.0038 56.6119L51.7038 55.2119L50.6039 55.7119Z" fill="#B07320"/>
<path d="M79.7038 43.3116L76.6038 38.4116L75.6038 38.7116H75.4038L77.9038 42.7116L57.4038 52.5116L61.3038 55.6116L62.1038 56.2116L62.7038 56.0116L59.1038 53.2116L79.7038 43.3116Z" fill="#B07320"/>
<path d="M83.6038 49.1118L82.6038 49.5118H82.4037L90.7037 62.9118L39.2037 72.5118L39.3037 72.9118L39.6038 73.6118L92.8037 63.7118L83.6038 49.1118Z" fill="#B07320"/>
<path d="M49.8038 37.7115L50.6038 40.9115L73.3038 34.8115L59.8038 13.3115L45.0038 17.6115L47.8038 29.5115L26.4038 35.7115L30.0038 45.9115L47.3038 37.7115L48.3038 37.2115L48.6038 38.3115L48.8038 38.2115L49.8038 37.7115Z" fill="#CB9E16"/>
<path d="M82.4038 49.5119L63.9038 57.0119L63.0038 56.3119L62.7038 56.0119L62.1038 56.2119L61.3038 55.6119L57.4038 52.5119L77.9038 42.7119L75.4038 38.7119L31.5038 50.8119L35.8038 62.8119L50.6038 55.7119L51.7038 55.2119L52.0038 56.6119L52.2038 56.5119L53.3038 55.9119L54.5038 60.7119L37.4038 67.6119L39.2038 72.5119L90.7038 62.9119L82.4038 49.5119Z" fill="#CB9E16"/>
<g opacity="0.66">
<path opacity="0.66" d="M59.8038 13.3115L45.0038 17.6115L47.8038 29.5115L26.4038 35.7115L30.0038 45.9115L47.3038 37.7115L48.3038 37.2115L48.6038 38.3115L48.8038 38.2115L49.8038 37.7115L50.6038 40.9115L73.3038 34.8115L59.8038 13.3115Z" fill="url(#paint1_linear_577:10871)"/>
<path opacity="0.66" d="M82.4038 49.5114L63.9038 57.0114L63.0038 56.3114L62.7038 56.0114L62.1038 56.2114L61.3038 55.6114L57.4038 52.5114L77.9038 42.7114L75.4038 38.7114L31.5038 50.8114L35.8038 62.8114L50.6038 55.7114L51.7038 55.2114L52.0038 56.6114L52.2038 56.5114L53.3038 55.9114L54.5038 60.7114L37.4038 67.6114L39.2038 72.5114L90.7038 62.9114L82.4038 49.5114Z" fill="url(#paint2_linear_577:10871)"/>
</g>
<path d="M49.1038 38.7121L50.0038 42.2121L50.1038 42.7121L50.8038 42.5121C54.9038 41.4121 59.0038 40.2121 63.0038 39.0121L75.1038 35.5121L68.1038 23.4121C65.9038 19.7121 63.7038 16.1121 61.5038 12.7121L61.3038 12.4121L60.8038 12.6121C58.1038 13.4121 55.5038 14.2121 52.9038 15.0121L45.1038 17.4121L44.7038 17.5121L44.8038 17.7121C45.3038 19.6121 45.8038 21.5121 46.2038 23.4121L46.9038 26.4121C47.1038 27.3121 47.3038 28.3121 47.5038 29.3121L37.1038 32.2121C33.5038 33.2121 30.0038 34.2121 26.5038 35.1121L25.5038 35.4121L25.7038 36.0121L29.5038 47.4121L29.7038 48.0121L30.6038 47.5121C33.8038 45.9121 37.1038 44.4121 40.3038 42.8121C43.3038 41.6121 46.2038 40.1121 49.1038 38.7121ZM37.0038 33.1121L47.8038 29.8121L48.2038 29.7121L48.1038 29.4121C47.8038 28.4121 47.6038 27.3121 47.3038 26.3121L46.5038 23.3121C46.1038 21.4121 45.6038 19.6121 45.3038 17.8121L52.8038 15.7121C55.3038 15.0121 57.7038 14.3121 60.2038 13.6121C62.1038 16.8121 64.3038 20.1121 66.6038 23.5121L74.8038 35.3121L62.4038 38.3121C58.6038 39.2121 55.0038 40.1121 51.3038 41.1121L50.5038 37.4121L50.4038 36.8121L49.5038 37.2121C46.3038 38.7121 43.0038 40.2121 39.8038 41.8121C36.9038 43.2121 34.0038 44.6121 31.0038 46.0121L27.3038 36.0121C30.6038 35.0121 33.8038 34.1121 37.0038 33.1121Z" fill="#B07320"/>
<path d="M93.1038 63.6123L88.4037 56.0123L84.1038 48.9123L83.9037 48.6123L83.4037 48.8123C77.0037 51.3123 70.6037 53.8123 64.2037 56.3123L60.6038 53.4123L80.1038 44.2123L81.1038 43.7123L80.7037 43.0123L77.6038 38.1123L77.3037 37.6123L76.5038 37.8123L64.9037 40.9123C61.1037 42.0123 57.3038 43.0123 53.6038 44.1123C46.2038 46.2123 38.8038 48.4123 31.6038 50.6123L31.1038 50.7123L31.2037 51.0123C32.0037 52.9123 32.7038 54.9123 33.5038 56.9123C34.3038 59.0123 35.0037 61.1123 35.8037 63.3123L36.1038 64.2123V64.3123H36.2037C39.1037 62.9123 41.9037 61.6123 44.8037 60.3123C47.5037 59.0123 50.3038 57.8123 53.0038 56.5123L53.9037 60.7123L45.8037 63.8123C43.0037 64.9123 40.1037 66.0123 37.3037 67.1123L36.4037 67.5123L36.6038 68.2123C37.3038 70.2123 37.9037 72.2123 38.7037 74.2123L38.9037 74.7123L39.5038 74.6123C48.0038 73.1123 56.6037 71.3123 65.4037 69.5123C69.9037 68.6123 74.4037 67.7123 78.9037 66.8123C83.5037 65.9123 88.1037 65.0123 92.8037 64.2123L93.3037 64.1123L93.1038 63.6123ZM78.9037 66.0123C74.4037 66.8123 69.9037 67.6123 65.4037 68.3123C56.9037 69.8123 48.5037 71.2123 40.3037 72.7123C39.7037 71.1123 39.1038 69.5123 38.5038 67.9123C41.0038 66.9123 43.6038 65.8123 46.1038 64.8123L54.6038 61.2123L55.1038 61.0123L55.0038 60.6123L53.6038 55.9123L53.5038 55.6123L53.1038 55.8123C50.3038 57.2123 47.5038 58.6123 44.6038 60.0123C41.8038 61.4123 39.0037 62.7123 36.2037 64.1123L35.9037 63.3123C35.2037 61.1123 34.4037 59.0123 33.7037 56.9123C33.0037 54.9123 32.4037 53.0123 31.8037 51.1123C38.9037 49.3123 46.2038 47.5123 53.5038 45.5123C57.3038 44.5123 61.1037 43.5123 64.9037 42.4123L75.7037 39.5123L78.1038 43.3123L58.6038 52.7123L57.4037 53.3123L58.2037 53.9123L63.0038 57.7123L63.4037 58.0123L63.9037 57.8123C70.3037 55.2123 76.7038 52.5123 83.1038 49.8123L87.5038 56.5123L92.1038 63.7123C87.7038 64.4123 83.3037 65.2123 78.9037 66.0123Z" fill="#B07320"/>
<path d="M38.6039 7.91187C32.4039 10.9119 26.7039 14.7119 21.5039 19.3119C19.0039 21.6119 16.6039 24.0119 14.4039 26.7119C13.3039 28.0119 12.3039 29.4119 11.3039 30.8119C10.8039 31.5119 10.4039 32.2119 9.90388 32.9119C9.40388 33.6119 9.00389 34.3119 8.60389 35.1119C5.20389 41.0119 2.80388 47.4119 2.00388 54.1119C1.60388 57.4119 1.60389 60.8119 2.10389 64.1119C2.60389 67.4119 3.60388 70.7119 5.00388 73.7119C7.80388 79.8119 12.5039 85.0119 18.2039 88.7119C21.0039 90.5119 24.1039 92.0119 27.3039 93.2119C30.5039 94.3119 33.8039 95.1119 37.2039 95.6119C44.0039 96.6119 50.9039 96.2119 57.6039 94.9119C61.0039 94.2119 64.3039 93.3119 67.5039 92.2119C70.7039 91.1119 73.9039 89.7119 77.0039 88.3119C80.0039 86.8119 83.0039 85.1119 85.9039 83.2119C88.7039 81.3119 91.5039 79.3119 94.1039 77.1119C99.2039 72.6119 103.804 67.5119 107.204 61.7119C110.704 55.9119 113.104 49.5119 113.804 42.8119C114.604 36.2119 113.704 29.3119 110.804 23.2119C108.004 17.1119 103.204 12.1119 97.5039 8.51187C91.8039 4.91187 85.3039 2.71187 78.6039 1.71187C71.9039 0.71187 65.0039 0.81187 58.2039 1.81187C51.4039 2.91187 44.8039 5.01187 38.6039 7.91187ZM38.5039 7.71187C44.7039 4.71187 51.3039 2.51187 58.1039 1.31187C64.9039 0.0118698 71.8039 -0.38813 78.7039 0.41187C85.6039 1.21187 92.4039 3.31187 98.4039 6.91187C104.404 10.5119 109.404 15.9119 112.504 22.3119C115.604 28.7119 116.604 36.0119 115.704 42.9119C114.804 49.9119 112.304 56.6119 108.604 62.5119C105.004 68.5119 100.204 73.7119 94.9039 78.2119C92.2039 80.4119 89.4039 82.4119 86.5039 84.3119C83.6039 86.1119 80.5039 87.7119 77.4039 89.2119C74.3039 90.6119 71.0039 91.9119 67.8039 93.0119C64.5039 94.0119 61.2039 94.9119 57.8039 95.6119C54.4039 96.2119 51.0039 96.6119 47.5039 96.7119C44.1039 96.8119 40.6039 96.7119 37.2039 96.2119C33.8039 95.8119 30.4039 95.0119 27.1039 93.9119C23.8039 92.8119 20.6039 91.4119 17.7039 89.6119C11.8039 86.0119 6.70389 80.8119 3.60389 74.4119C0.503888 68.1119 -0.59613 60.8119 0.30387 53.9119C1.20387 46.9119 3.90389 40.3119 7.60389 34.5119C8.00389 33.8119 8.50388 33.0119 9.00388 32.3119C9.50388 31.6119 10.0039 30.9119 10.5039 30.2119C11.6039 28.8119 12.6039 27.5119 13.8039 26.2119C16.1039 23.6119 18.6039 21.2119 21.2039 19.0119C26.5039 14.5119 32.3039 10.7119 38.5039 7.71187Z" fill="#752714"/>
<path d="M57.3039 95.2119L58.5039 101.812L56.1039 95.6119L57.3039 95.2119Z" fill="#752714"/>
<path d="M41.8039 104.512L40.0039 98.6118L42.4039 104.312L41.8039 104.512Z" fill="#752714"/>
<path d="M23.3039 98.4122L21.6039 92.5122L23.9039 98.2122L23.3039 98.4122Z" fill="#752714"/>
<path d="M35.5039 95.5122L37.4039 101.712L34.9039 95.7122L35.5039 95.5122Z" fill="#752714"/>
<path d="M102.504 82.8121L100.104 76.4121L103.104 82.5121L102.504 82.8121Z" fill="#752714"/>
<path d="M100.804 84.1122L99.6039 80.5122L101.404 83.8122L100.804 84.1122Z" fill="#752714"/>
<path d="M109.204 60.312L111.804 68.012L108.604 60.512L109.204 60.312Z" fill="#752714"/>
<path d="M116.904 60.3119L112.904 51.2119" stroke="#752714" stroke-width="0.6302" stroke-miterlimit="10"/>
<path d="M113.904 47.6118L117.804 57.3118" stroke="#752714" stroke-width="0.6302" stroke-miterlimit="10"/>
<path d="M116.304 18.712L116.004 13.812L115.704 18.712C115.504 22.712 115.004 26.012 114.404 28.512C113.904 30.712 112.904 32.112 111.804 32.412L105.304 34.212L111.604 36.112C112.704 36.412 113.604 37.912 114.204 40.112C114.904 42.812 115.304 46.812 115.604 51.312L116.004 59.712L116.404 51.312C116.604 47.512 116.904 44.212 117.404 41.612C118.004 38.512 119.304 36.412 120.804 36.012L125.604 34.912L120.304 32.612C119.004 32.012 117.904 30.112 117.304 27.412C116.904 25.112 116.504 22.112 116.304 18.712Z" fill="white"/>
<defs>
<linearGradient id="paint0_linear_577:10871" x1="74.4364" y1="-41.7275" x2="32.2087" y2="185.61" gradientUnits="userSpaceOnUse">
<stop stop-color="#D2A91D" stop-opacity="0.0235507"/>
<stop offset="0.1692" stop-color="#FFEB47"/>
<stop offset="0.2915" stop-color="white"/>
<stop offset="0.4111" stop-color="#FFEB47"/>
<stop offset="0.6027" stop-color="#D2A91D" stop-opacity="0.0235507"/>
<stop offset="0.7538" stop-color="#FFEB47"/>
<stop offset="0.8477" stop-color="white"/>
<stop offset="0.93" stop-color="#FFEB47"/>
<stop offset="1" stop-color="#D2A91D" stop-opacity="0.0235507"/>
</linearGradient>
<linearGradient id="paint1_linear_577:10871" x1="48.4871" y1="6.21265" x2="52.1226" y2="87.0882" gradientUnits="userSpaceOnUse">
<stop stop-color="#D2A91D" stop-opacity="0.0235507"/>
<stop offset="0.1692" stop-color="#FFEB47"/>
<stop offset="0.2915" stop-color="white"/>
<stop offset="0.4111" stop-color="#FFEB47"/>
<stop offset="0.6027" stop-color="#D2A91D" stop-opacity="0.0235507"/>
<stop offset="0.7538" stop-color="#FFEB47"/>
<stop offset="0.8477" stop-color="white"/>
<stop offset="0.93" stop-color="#FFEB47"/>
<stop offset="1" stop-color="#D2A91D" stop-opacity="0.0235507"/>
</linearGradient>
<linearGradient id="paint2_linear_577:10871" x1="57.9914" y1="-11.1068" x2="62.6386" y2="92.2774" gradientUnits="userSpaceOnUse">
<stop stop-color="#D2A91D" stop-opacity="0.0235507"/>
<stop offset="0.1692" stop-color="#FFEB47"/>
<stop offset="0.2915" stop-color="white"/>
<stop offset="0.4111" stop-color="#FFEB47"/>
<stop offset="0.6027" stop-color="#D2A91D" stop-opacity="0.0235507"/>
<stop offset="0.7538" stop-color="#FFEB47"/>
<stop offset="0.8477" stop-color="white"/>
<stop offset="0.93" stop-color="#FFEB47"/>
<stop offset="1" stop-color="#D2A91D" stop-opacity="0.0235507"/>
</linearGradient>
</defs>
</svg>
