<svg width="199" height="199" viewBox="0 0 199 199" fill="none" xmlns="http://www.w3.org/2000/svg">
<g filter="url(#filter0_d_577:19686)">
<path d="M99.4963 30L107.163 53.7735L123.83 35.1675L121.161 60.0098L143.962 49.7928L131.423 71.399L156.398 71.34L136.155 85.9727L159 96.0792L134.556 101.217L151.311 119.742L126.889 114.486L134.666 138.23L114.49 123.502L111.94 148.351L99.4963 126.686L87.0604 148.351L84.5098 123.502L64.3337 138.23L72.1108 114.486L47.6812 119.742L64.4443 101.217L40 96.0792L62.8446 85.9727L42.5948 71.34L67.5772 71.399L55.0381 49.7928L77.8311 60.0098L75.1626 35.1675L91.8372 53.7735L99.4963 30Z" fill="url(#paint0_radial_577:19686)"/>
<path d="M70.8723 96.0572C70.8723 97.1335 70.8723 98.2171 70.8723 99.2934C70.8723 100.37 70.9903 101.446 71.0419 102.522C71.0935 103.598 71.2777 104.667 71.4326 105.736C71.5874 106.805 71.7643 107.867 72.0223 108.913C72.9492 113.116 74.4083 117.184 76.3642 121.018C78.3411 124.813 80.8978 128.278 83.9422 131.286C84.7383 131.986 85.4902 132.761 86.3527 133.358C87.1769 134.025 88.0437 134.638 88.9475 135.193C90.7445 136.308 92.6608 137.218 94.6605 137.906L95.0807 138.046V138.481V139.623L94.5057 139.019L102.04 139.196L101.472 139.741V139.181H102.017C106.909 139.268 111.725 137.964 115.906 135.422C118.009 134.174 119.963 132.69 121.729 130.999C123.491 129.283 125.079 127.396 126.469 125.367C129.242 121.282 131.313 116.762 132.595 111.995C133.904 107.244 134.576 102.341 134.593 97.4136C134.65 92.5024 134.075 87.6043 132.882 82.8399C131.683 78.0988 129.729 73.5814 127.096 69.4604C124.482 65.3562 120.999 61.8759 116.893 59.2655C112.799 56.6764 108.048 55.3178 103.204 55.3512H102.467V54.614L103.153 55.3512L96.7393 55.2111L97.4396 54.5477V55.6534V56.1473L96.9605 56.2874C92.9619 57.4921 89.2672 59.538 86.1242 62.2879C82.947 65.0575 80.2212 68.3056 78.0449 71.9152C75.8364 75.544 74.1023 79.4409 72.8848 83.5107C71.7292 87.6006 71.0538 91.8111 70.8723 96.0572ZM70.7396 96.0572C70.876 91.789 71.5094 87.5513 72.6268 83.4297C73.6999 79.2813 75.2951 75.2859 77.3741 71.5392C79.4433 67.7521 82.1232 64.3324 85.3059 61.418C88.5141 58.4529 92.3489 56.2484 96.5255 54.9678L96.0316 55.6018V54.4961V53.8179H96.7098L103.123 53.9358H103.823V54.673L103.086 53.9358C108.203 53.868 113.229 55.2922 117.549 58.0344C121.837 60.7836 125.464 64.4461 128.172 68.7601C130.846 73.0134 132.794 77.6819 133.936 82.5745C135.074 87.4398 135.552 92.4357 135.359 97.4283C135.218 102.405 134.447 107.344 133.067 112.127C131.699 116.916 129.598 121.464 126.838 125.61C125.451 127.681 123.864 129.609 122.098 131.367C120.338 133.143 118.385 134.716 116.274 136.056C112.013 138.796 107.061 140.269 101.995 140.302L102.556 139.756V140.309H101.988L94.4541 140.198H93.8644V139.601V138.459L94.2698 139.034C92.167 138.348 90.1604 137.397 88.2988 136.203C87.3683 135.612 86.477 134.962 85.6303 134.257C84.7457 133.601 83.979 132.783 83.1682 132.045C80.1004 128.916 77.581 125.293 75.7155 121.327C73.87 117.389 72.5324 113.233 71.7348 108.958C70.9231 104.706 70.5893 100.376 70.7396 96.0499V96.0572Z" fill="#752714"/>
<path d="M70.8059 96.0572C70.8059 96.3078 70.8059 96.5584 70.8059 96.7943C70.4373 112.54 76.8285 127.283 87.0972 134.655C89.3473 136.287 91.833 137.568 94.4688 138.451V139.594L102.003 139.741C118.707 139.999 134.084 123.17 134.961 98.3203C135.875 72.5712 120.653 54.3043 103.189 54.6361L96.7761 54.5107V55.6165C82.0181 59.833 71.4767 77.1563 70.8059 96.0572Z" fill="#B07320"/>
<path d="M108.681 131.397L108.394 136.174C108.394 136.174 111.976 138.687 121.869 129.605C131.762 120.524 139.141 95.6297 128.983 75.5494C118.824 55.4692 120.21 65.8852 124.095 75.4167C127.98 84.9482 106.993 103.746 106.993 103.746L90.6133 119.175L108.681 131.397Z" fill="#CB9E16"/>
<path d="M102.983 83.6212L79.6519 81.1738L79.4677 81.8446L76.0693 94.1479L88.7559 96.8533L84.5909 113.498L94.7269 113.027L95.3903 112.997L95.8842 99.1385L95.9137 98.3792L98.6486 98.9615L99.1351 99.0647L102.983 83.6212Z" fill="#428A7A"/>
<path d="M112.677 85.2584L111.578 96.3748L111.033 96.6033L108.386 97.7385L108.858 84.418L105.253 84.0347L105.113 84.6244L98.4272 112.99L107.281 112.578L107.856 112.548L108.224 102.176L108.254 101.483L111.018 102.014L109.993 112.445L112.986 112.305L113.392 112.283L120.881 85.568L112.736 84.676L112.677 85.2584Z" fill="#428A7A"/>
<path d="M101.826 134.825C84.2445 137.715 68.1227 119.699 69.0294 94.0603C69.9362 68.4218 87.2889 51.902 104.583 56.3544C107.174 57.033 109.637 58.1312 111.873 59.6053C109.172 57.6332 106.127 56.1809 102.895 55.3224C84.1191 50.4277 65.0488 68.1785 64.0389 95.9327C63.0289 123.687 80.8093 142.742 99.9165 139.204C115.824 136.255 127.457 118.084 128.165 98.2105C128.165 97.9598 128.165 97.7092 128.165 97.4733C127.295 115.902 116.458 132.444 101.826 134.825Z" fill="#CB9E16"/>
<path d="M69.0292 94.0595C68.1225 119.698 84.2442 137.714 101.826 134.825C116.458 132.421 127.294 115.894 128.201 97.4578C128.555 81.7415 122.164 66.9983 111.895 59.5972C109.651 58.1235 107.181 57.0277 104.582 56.3537C87.2887 51.9012 69.9359 68.421 69.0292 94.0595Z" fill="#FFEB47"/>
<path opacity="0.81" d="M128.172 97.4579C128.526 81.7416 122.135 66.9984 111.866 59.5973C109.165 57.6252 106.12 56.1728 102.887 55.3144C84.1191 50.427 65.0488 68.1778 64.0389 95.932C63.0289 123.686 80.8093 142.742 99.9165 139.203C115.824 136.255 127.457 118.084 128.165 98.2098C128.172 97.9592 128.172 97.7085 128.172 97.4579Z" fill="url(#paint1_linear_577:19686)"/>
<path d="M85.8962 100.274L85.4097 113.971L85.6529 114.007L86.2353 114.089L86.7439 99.6918L85.9257 99.478L85.8962 100.274Z" fill="#B07320"/>
<path d="M74.6395 84.1229L74.6174 84.2482L92.7148 82.8403L89.0658 99.2937L89.2796 99.3453L89.7366 99.4633L93.6436 81.9409L74.7649 83.5111L74.6395 84.1229Z" fill="#B07320"/>
<path d="M98.45 104.173L98.0298 115.924L98.3173 115.961L99.0028 116.064L99.4451 103.562L98.4795 103.326L98.45 104.173Z" fill="#B07320"/>
<path d="M100.226 81.6167L96.0688 81.941L95.914 82.6561L95.8845 82.8035L99.2165 82.5603L98.6415 98.7631L101.892 97.333L102.593 97.0234L102.637 96.5958L99.6514 97.9227L100.226 81.6167Z" fill="#B07320"/>
<path d="M105.165 81.0267L105.092 81.786L105.077 81.9334L116.274 81.1152L105.298 116.963L105.563 117L106.124 117.081L117.513 80.061L105.165 81.0267Z" fill="#B07320"/>
<path d="M86.7806 98.7109L89.0658 99.2933L92.7147 82.8398L74.6174 84.2478L72.4575 95.0694L80.9201 97.2219L77.7503 112.887L85.4095 113.97L85.896 100.274L85.9255 99.4776L86.7437 99.6914L86.7511 99.5071L86.7806 98.7109Z" fill="#CB9E16"/>
<path d="M105.077 81.9335L103.654 96.146L102.939 96.4629L102.637 96.5956L102.593 97.0232L101.893 97.3328L98.6416 98.7629L99.2166 82.5601L95.8846 82.8033L88.9922 114.627L98.0298 115.924L98.45 104.174L98.4795 103.326L99.4451 103.562L99.4525 103.37L99.482 102.508L102.932 103.333L101.62 116.433L105.298 116.963L116.275 81.1152L105.077 81.9335Z" fill="#CB9E16"/>
<g opacity="0.66">
<path opacity="0.66" d="M74.6174 84.2473L72.4575 95.0689L80.9201 97.2214L77.7503 112.886L85.4095 113.97L85.896 100.273L85.9255 99.4771L86.7437 99.6909L86.7511 99.5066L86.7806 98.7104L89.0658 99.2928L92.7147 82.8394L74.6174 84.2473Z" fill="url(#paint2_linear_577:19686)"/>
<path opacity="0.66" d="M105.077 81.933L103.654 96.1455L102.939 96.4624L102.637 96.5951L102.593 97.0227L101.893 97.3323L98.6416 98.7624L99.2166 82.5596L95.8846 82.8028L88.9922 114.626L98.0298 115.924L98.45 104.173L98.4795 103.325L99.4451 103.561L99.4525 103.37L99.482 102.507L102.932 103.333L101.62 116.432L105.298 116.963L116.275 81.1147L105.077 81.933Z" fill="url(#paint3_linear_577:19686)"/>
</g>
<path d="M87.1711 99.4558L89.6627 100.038L89.9944 100.119L90.0976 99.6401C90.7316 96.6914 91.3213 93.6838 91.9184 90.7278L93.6802 81.8818L83.7285 82.3168C80.6398 82.4863 77.6396 82.678 74.7794 82.9802H74.5361L74.4624 83.3783C74.0865 85.3318 73.7252 87.2852 73.3788 89.224L72.3099 94.9959L72.2583 95.2908H72.4278C73.7695 95.5783 75.1406 95.91 76.5338 96.2639L78.679 96.8388C79.3498 97.0231 80.0206 97.1927 80.7062 97.3917L79.0697 104.948C78.5021 107.52 77.9713 110.108 77.4258 112.644L77.271 113.381L77.7354 113.454L86.2054 114.818L86.6846 114.892V114.155C86.7804 111.582 86.8762 108.995 86.9499 106.437C87.0384 104.117 87.1121 101.79 87.1711 99.4558ZM79.5857 105.272L81.06 97.3033L81.119 97.001L80.9347 96.9642C80.1975 96.8094 79.4604 96.6177 78.7232 96.4481L76.5707 95.9174C75.2389 95.5832 73.9366 95.2269 72.6637 94.8485L73.8358 89.423C74.2192 87.6317 74.6098 85.833 74.9858 84.027C77.6764 83.8574 80.4629 83.5699 83.4116 83.2382L93.5991 81.985L91.3876 90.8752C90.7242 93.5658 90.0755 96.1901 89.4636 98.8071L86.8246 98.0699L86.3676 97.9446V98.6817C86.2447 101.237 86.1366 103.79 86.0432 106.341C85.9474 108.648 85.8663 110.963 85.7852 113.27L78.2293 112.334C78.679 110.005 79.1434 107.646 79.5857 105.265V105.272Z" fill="#B07320"/>
<path d="M117.52 79.7956L111.122 80.26L105.18 80.6212H104.915L104.87 81.0045C104.325 85.9067 103.765 90.7867 103.241 95.6519L100.16 96.9862L100.794 81.5795V80.776L100.226 80.8203L96.0687 81.152H95.6559L95.5306 81.7417L93.7614 90.1748C93.1717 92.9367 92.5967 95.6863 92.0364 98.4237C90.9233 103.842 89.8913 109.238 88.8298 114.538L88.7634 114.87H88.9846C90.4589 115.032 91.9332 115.187 93.5034 115.386C95.0735 115.585 96.6732 115.806 98.3097 116.02L98.9952 116.123H99.0542V116.042C99.1427 113.786 99.2237 111.523 99.3343 109.267C99.4449 107.012 99.5481 104.962 99.6587 102.81L102.607 103.621L101.87 109.783C101.62 111.951 101.374 114.115 101.133 116.278L101.059 117.015L101.575 117.096C103.05 117.324 104.524 117.575 106.079 117.789L106.448 117.841L106.588 117.391C108.409 111.494 110.156 105.449 111.955 99.2861C112.869 96.1606 113.775 92.9982 114.726 89.8284C115.677 86.6586 116.665 83.3856 117.675 80.1273L117.785 79.7661L117.52 79.7956ZM114.321 89.6441C113.333 92.7918 112.308 95.8878 111.321 98.9618C109.419 104.859 107.532 110.616 105.784 116.329C104.553 116.152 103.344 115.998 102.15 115.843C102.327 113.877 102.499 111.928 102.666 109.997L103.212 103.363V102.972L102.946 102.92L99.4818 102.22L99.2606 102.176V102.478C99.2164 104.734 99.1869 106.997 99.1205 109.253C99.0542 111.508 98.9952 113.72 98.9215 115.946L98.2876 115.858C96.6511 115.607 95.0514 115.386 93.4813 115.12C91.9111 114.855 90.599 114.634 89.1984 114.383C90.3999 109.223 91.6531 104.063 92.8842 98.7701C93.5034 96.0426 94.1177 93.2906 94.7271 90.5139L96.4741 82.6926L99.6587 82.4568L99.1795 97.9371V98.9028L99.8209 98.608L103.816 96.7872L104.111 96.6545L104.148 96.2417C104.612 91.3248 105.025 86.3932 105.468 81.4395L111.144 80.8866L117.255 80.3706C116.272 83.4912 115.294 86.5799 114.321 89.6367V89.6441Z" fill="#B07320"/>
<path d="M64.1346 95.9397C63.9752 100.849 64.5012 105.757 65.6974 110.521C66.3047 112.89 67.0857 115.211 68.0342 117.465C68.4765 118.607 69.0441 119.676 69.5748 120.782C69.8476 121.327 70.1646 121.851 70.4594 122.382C70.7543 122.912 71.0565 123.443 71.3956 123.944C73.9342 128.083 77.2904 131.66 81.2588 134.456C83.251 135.804 85.4059 136.894 87.6721 137.7C89.9408 138.503 92.3154 138.967 94.7194 139.078C99.5698 139.266 104.374 138.077 108.578 135.651C110.703 134.45 112.682 133.008 114.475 131.353C116.258 129.683 117.87 127.841 119.289 125.854C122.116 121.851 124.258 117.407 125.629 112.703C126.318 110.355 126.847 107.964 127.213 105.545C127.558 103.126 127.767 100.689 127.84 98.247C127.886 95.8062 127.795 93.3648 127.567 90.9343C127.313 88.5125 126.917 86.1077 126.381 83.7323C125.282 78.999 123.449 74.467 120.948 70.3012C118.461 66.1419 115.116 62.5607 111.136 59.7966C107.187 57.0503 102.546 55.4692 97.7418 55.2336C95.3489 55.1256 92.9543 55.4044 90.6503 56.0592C89.4907 56.352 88.3547 56.7315 87.252 57.1944L86.8318 57.3492L86.4337 57.5556L85.6228 57.9906C85.0921 58.2633 84.5392 58.5066 84.0232 58.8088C79.8797 61.3152 76.2803 64.6263 73.4376 68.5467C70.5516 72.4971 68.296 76.8713 66.7515 81.5134C65.21 86.1764 64.3292 91.0323 64.1346 95.9397ZM64.0019 95.9397C64.1494 91.0065 64.9551 86.1152 66.3977 81.3955C67.8105 76.6448 69.9409 72.1378 72.7151 68.0307C75.498 63.8677 79.1277 60.3385 83.3671 57.6736C83.8979 57.3419 84.4729 57.0765 85.0257 56.7816L85.8587 56.3467L86.2789 56.1329L86.7212 55.9634C87.881 55.4694 89.0761 55.0629 90.2964 54.7471C92.7287 54.0483 95.2574 53.7447 97.786 53.8477C102.87 54.0513 107.788 55.712 111.954 58.6319C116.058 61.5353 119.496 65.2796 122.039 69.6156C124.574 73.9136 126.396 78.5937 127.435 83.4742C127.95 85.9055 128.304 88.368 128.496 90.8459C128.667 93.3141 128.699 95.7899 128.592 98.2617C128.464 100.732 128.199 103.193 127.796 105.633C127.365 108.064 126.796 110.469 126.093 112.835C125.36 115.193 124.455 117.494 123.388 119.72C122.34 121.953 121.108 124.093 119.702 126.119C118.281 128.146 116.669 130.032 114.888 131.751C113.104 133.489 111.125 135.015 108.991 136.299C104.7 138.933 99.746 140.286 94.712 140.199C89.6389 140.005 84.7327 138.335 80.5954 135.393C76.5261 132.469 73.1406 128.696 70.6732 124.335C70.3415 123.812 70.054 123.259 69.7739 122.706C69.4937 122.153 69.1915 121.615 68.9335 121.047C68.4322 119.912 67.9015 118.799 67.4592 117.627C66.5759 115.321 65.8638 112.953 65.3288 110.543C64.2856 105.746 63.8399 100.839 64.0019 95.9323V95.9397Z" fill="#752714"/>
<path d="M125.71 113.005L130.287 114.45L125.525 113.882L125.71 113.005Z" fill="#752714"/>
<path d="M126.439 125.927L122.105 125.058L126.506 125.478L126.439 125.927Z" fill="#752714"/>
<path d="M116.488 135.621L112.153 134.751L116.547 135.179L116.488 135.621Z" fill="#752714"/>
<path d="M118.618 126.929L123.188 127.769L118.559 127.378L118.618 126.929Z" fill="#752714"/>
<path d="M132.808 80.1939L127.973 79.6484L132.838 79.7443L132.808 80.1939Z" fill="#752714"/>
<path d="M133.052 81.7197L130.398 81.329L133.081 81.27L133.052 81.7197Z" fill="#752714"/>
<path d="M120.749 68.5244L126.528 69.4016L120.697 68.9741L120.749 68.5244Z" fill="#752714"/>
<path d="M116.216 62.8986L116.185 63.3472L123.288 63.8451L123.32 63.3966L116.216 62.8986Z" fill="#752714"/>
<path d="M114.481 60.6978L114.436 61.1475L121.918 61.8957L121.963 61.446L114.481 60.6978Z" fill="#752714"/>
<path d="M119.326 68.3621L119.06 64.0645L118.795 68.3621C118.656 71.2213 118.281 74.0641 117.675 76.8616C117.217 78.7487 116.385 79.9871 115.463 80.2451L109.743 81.8006L115.257 83.4297C116.193 83.7098 117.018 84.9998 117.468 86.9165C118.147 90.1289 118.541 93.3948 118.648 96.6765L118.994 104.004L119.341 96.6765C119.464 93.8376 119.779 91.0102 120.284 88.2139C120.8 85.4864 121.943 83.6656 123.233 83.3781L127.435 82.4566L122.835 80.4663C121.707 79.9798 120.734 78.299 120.247 75.9033C119.773 73.4128 119.465 70.8935 119.326 68.3621Z" fill="white"/>
</g>
<defs>
<filter id="filter0_d_577:19686" x="0" y="0" width="199" height="198.352" filterUnits="userSpaceOnUse" color-interpolation-filters="sRGB">
<feFlood flood-opacity="0" result="BackgroundImageFix"/>
<feColorMatrix in="SourceAlpha" type="matrix" values="0 0 0 0 0 0 0 0 0 0 0 0 0 0 0 0 0 0 127 0" result="hardAlpha"/>
<feOffset dy="10"/>
<feGaussianBlur stdDeviation="20"/>
<feComposite in2="hardAlpha" operator="out"/>
<feColorMatrix type="matrix" values="0 0 0 0 0 0 0 0 0 0 0 0 0 0 0 0 0 0 0.15 0"/>
<feBlend mode="normal" in2="BackgroundImageFix" result="effect1_dropShadow_577:19686"/>
<feBlend mode="normal" in="SourceGraphic" in2="effect1_dropShadow_577:19686" result="shape"/>
</filter>
<radialGradient id="paint0_radial_577:19686" cx="0" cy="0" r="1" gradientUnits="userSpaceOnUse" gradientTransform="translate(102.068 90.7875) rotate(0.388439) scale(126.28)">
<stop stop-color="white"/>
<stop offset="0.192708" stop-color="#FFEB47"/>
<stop offset="0.625" stop-color="#DAB525" stop-opacity="0"/>
</radialGradient>
<linearGradient id="paint1_linear_577:19686" x1="44.6206" y1="56.6938" x2="174.777" y2="158.792" gradientUnits="userSpaceOnUse">
<stop stop-color="#D2A91D" stop-opacity="0.02"/>
<stop offset="0.17" stop-color="#FFEB47"/>
<stop offset="0.29" stop-color="white"/>
<stop offset="0.41" stop-color="#FFEB47"/>
<stop offset="0.6" stop-color="#D2A91D" stop-opacity="0.02"/>
<stop offset="0.75" stop-color="#FFEB47"/>
<stop offset="0.85" stop-color="white"/>
<stop offset="0.93" stop-color="#FFEB47"/>
<stop offset="1" stop-color="#D2A91D" stop-opacity="0.02"/>
</linearGradient>
<linearGradient id="paint2_linear_577:19686" x1="27131.4" y1="5548.08" x2="28737.9" y2="5991.48" gradientUnits="userSpaceOnUse">
<stop stop-color="#D2A91D" stop-opacity="0.02"/>
<stop offset="0.17" stop-color="#FFEB47"/>
<stop offset="0.29" stop-color="white"/>
<stop offset="0.41" stop-color="#FFEB47"/>
<stop offset="0.6" stop-color="#D2A91D" stop-opacity="0.02"/>
<stop offset="0.75" stop-color="#FFEB47"/>
<stop offset="0.85" stop-color="white"/>
<stop offset="0.93" stop-color="#FFEB47"/>
<stop offset="1" stop-color="#D2A91D" stop-opacity="0.02"/>
</linearGradient>
<linearGradient id="paint3_linear_577:19686" x1="36226.6" y1="5816.46" x2="38922.1" y2="6686.64" gradientUnits="userSpaceOnUse">
<stop stop-color="#D2A91D" stop-opacity="0.02"/>
<stop offset="0.17" stop-color="#FFEB47"/>
<stop offset="0.29" stop-color="white"/>
<stop offset="0.41" stop-color="#FFEB47"/>
<stop offset="0.6" stop-color="#D2A91D" stop-opacity="0.02"/>
<stop offset="0.75" stop-color="#FFEB47"/>
<stop offset="0.85" stop-color="white"/>
<stop offset="0.93" stop-color="#FFEB47"/>
<stop offset="1" stop-color="#D2A91D" stop-opacity="0.02"/>
</linearGradient>
</defs>
</svg>
