<svg width="241" height="176" viewBox="0 0 241 176" fill="none" xmlns="http://www.w3.org/2000/svg">
<g filter="url(#filter0_d_577:18211)">
<path d="M179.852 62.7317L123.076 59.1242L66.4214 62.7317L121.617 30.4127C122.078 30.1425 122.603 30 123.137 30C123.671 30 124.196 30.1425 124.657 30.4127L179.852 62.7317ZM123.076 58.2507L176.201 61.6311L124.211 31.2163C123.884 31.0235 123.512 30.9218 123.132 30.9218C122.753 30.9218 122.38 31.0235 122.054 31.2163L70.0376 61.6573L123.076 58.2507Z" fill="#293A77"/>
<path d="M194.518 49.3589H46.2527V118.749H194.518V49.3589Z" fill="#9958FF"/>
<path d="M170.318 79.9043L155.914 79.948L155.827 80.2624L154.228 85.9226L161.443 86.9359L159.338 94.7972H165.514H165.942V87.9404V87.5648L167.741 87.8181L168.073 87.8617L170.318 79.9043Z" fill="#428A7A"/>
<path d="M177.428 80.2275L176.887 86.2458L176.476 86.3856L174.528 87.0319V79.9916H171.917L171.829 80.3061L167.925 94.8671H174.1H174.528V89.3816V89.0147L176.616 89.2768L176.118 94.8671H178.415H178.73L184.058 79.9043H177.455L177.428 80.2275Z" fill="#428A7A"/>
<path d="M150.612 86.0272C150.553 91.374 152.621 96.5252 156.359 100.348C160.098 104.17 165.203 106.351 170.55 106.41C175.896 106.469 181.048 104.402 184.87 100.663C188.693 96.9238 190.873 91.8195 190.932 86.4727C190.84 82.0327 189.367 77.7319 186.716 74.1686C184.066 70.6054 180.37 67.9571 176.144 66.5921C173.15 65.7629 170.004 65.6369 166.953 66.2242C163.902 66.8115 161.028 68.096 158.555 69.9775C156.083 71.859 154.079 74.2866 152.699 77.0707C151.32 79.8549 150.603 82.9201 150.604 86.0272H150.612ZM165.942 87.5645V94.797H159.338L161.452 86.9356L154.237 85.9224L155.792 80.2622L155.879 79.9478H170.283L168.038 87.9052L167.715 87.8615L165.942 87.5645ZM171.917 79.9914H174.537V87.0317L176.485 86.3766L176.895 86.2369L177.437 80.2185V79.9041H184.041L178.712 94.8582H176.092L176.59 89.2766L174.502 89.0145V94.8669H167.899L171.803 80.3146L171.917 79.9914Z" fill="#FFEB47"/>
<path d="M170.772 106.188C167.893 106.19 165.047 105.576 162.425 104.387C159.802 103.198 157.465 101.462 155.57 99.2942C153.675 97.1267 152.266 94.5786 151.437 91.8211C150.609 89.0637 150.381 86.1609 150.768 83.3078C151.155 80.4548 152.148 77.7177 153.681 75.2805C155.214 72.8434 157.251 70.7627 159.655 69.1783C162.059 67.5939 164.774 66.5426 167.619 66.0951C170.463 65.6476 173.37 65.8142 176.144 66.5837C171.854 65.1989 167.235 65.2074 162.95 66.6078C158.665 68.0082 154.933 70.7288 152.288 74.3798C149.644 78.0309 148.222 82.4252 148.228 86.9334C148.233 91.4417 149.665 95.8326 152.318 99.4774C154.971 103.122 158.71 105.834 162.999 107.224C167.287 108.614 171.906 108.612 176.193 107.217C180.48 105.822 184.215 103.106 186.864 99.4582C189.514 95.8104 190.941 91.4179 190.941 86.9097C190.941 86.7612 190.941 86.6127 190.941 86.4642C190.827 91.7365 188.651 96.754 184.881 100.441C181.111 104.128 176.046 106.191 170.772 106.188Z" fill="#CB9E16"/>
<path opacity="0.81" d="M190.924 86.4728C190.865 80.9093 188.606 75.5954 184.64 71.6926C180.675 67.7897 175.326 65.6154 169.762 65.6448C164.199 65.6743 158.873 67.9051 154.949 71.8497C151.025 75.7942 148.823 81.1318 148.823 86.6955C148.823 92.2593 151.025 97.5968 154.949 101.541C158.873 105.486 164.199 107.717 169.762 107.746C175.326 107.776 180.675 105.601 184.64 101.699C188.606 97.7957 190.865 92.4818 190.924 86.9183C190.941 86.7611 190.932 86.6213 190.924 86.4728Z" fill="url(#paint0_linear_577:18211)"/>
<path d="M165.33 88.316V94.7973H165.514H165.942V88.0278L165.33 87.9404V88.316Z" fill="#B07320"/>
<path d="M155.827 80.2624L155.809 80.3236L169.715 80.2886L167.593 87.8006L167.741 87.8181L168.073 87.8617L170.318 79.9043L155.914 79.948L155.827 80.2624Z" fill="#B07320"/>
<path d="M173.926 89.757V94.8669H174.1H174.528V89.4688L173.926 89.3901V89.757Z" fill="#B07320"/>
<path d="M174.528 79.9917H171.917L171.829 80.3062L171.812 80.3673H173.926V87.4076L175.873 86.7612L176.284 86.6215L176.301 86.438L174.528 87.032V79.9917Z" fill="#B07320"/>
<path d="M177.454 79.9043L177.428 80.2275L177.419 80.2886H183.455L178.258 94.8671H178.415H178.73L184.058 79.9043H177.454Z" fill="#B07320"/>
<path d="M165.942 87.5647L167.593 87.8006L169.715 80.2886L155.809 80.3235L154.228 85.9226L161.443 86.9358L159.338 94.7972H165.33V88.3159V87.9403L165.942 88.0277V87.9403V87.5647Z" fill="#CB9E16"/>
<path d="M177.419 80.2886L176.887 86.2457L176.476 86.3855L176.301 86.4379L176.284 86.6213L175.873 86.7611L173.925 87.4075V80.3672H171.812L167.925 94.8671H173.925V89.7572V89.3903L174.528 89.4689V89.3816V89.0147L176.616 89.2767L176.118 94.8671H178.258L183.455 80.2886H177.419Z" fill="#CB9E16"/>
<g opacity="0.66">
<path opacity="0.66" d="M155.809 80.3235L154.228 85.9226L161.443 86.9358L159.338 94.7972H165.33V88.3159V87.9403L165.942 88.0277V87.9403V87.5647L167.593 87.8006L169.715 80.2886L155.809 80.3235Z" fill="url(#paint1_linear_577:18211)"/>
<path opacity="0.66" d="M177.419 80.2886L176.887 86.2457L176.476 86.3855L176.301 86.4379L176.284 86.6213L175.873 86.7611L173.925 87.4075V80.3672H171.812L167.925 94.8671H173.925V89.7572V89.3903L174.528 89.4689V89.3816V89.0147L176.616 89.2767L176.118 94.8671H178.258L183.455 80.2886H177.419Z" fill="url(#paint2_linear_577:18211)"/>
</g>
<path d="M166.274 87.9043L168.064 88.1227H168.3L168.361 87.9043C168.728 86.5417 169.06 85.1703 169.401 83.8251L170.379 79.8595L163.26 79.6761C160.841 79.6761 158.386 79.6062 155.949 79.6761H155.731L155.678 79.877C155.408 80.8727 155.154 81.8773 154.901 82.8818L154.132 85.8866V86.0438H154.29C155.495 86.1835 156.7 86.3408 157.906 86.5155L159.705 86.7863L161.356 87.0396L160.159 90.8043C159.775 92.1058 159.408 93.4247 159.033 94.7175L158.928 95.0844H159.312L165.916 95.1368H166.265V94.7874C166.265 93.582 166.265 92.3766 166.265 91.1711C166.265 89.9657 166.274 88.9962 166.274 87.9043ZM160.64 90.9178L161.609 86.9609V86.8125H161.461C160.858 86.7426 160.255 86.6552 159.653 86.5766L157.853 86.3146C156.689 86.1515 155.542 85.9797 154.412 85.7992L155.285 82.9866C155.565 82.0694 155.853 81.1523 156.159 80.2264C158.447 80.2264 160.727 80.2264 163.042 80.1478L170.327 79.9207L169.06 83.9125C168.667 85.1441 168.283 86.3495 167.925 87.5549L166.02 87.2579L165.68 87.2055V87.5549C165.68 88.7603 165.68 89.9657 165.68 91.1711C165.68 92.3766 165.68 93.3549 165.68 94.4467L159.801 94.4991C160.011 93.3025 160.317 92.1145 160.605 90.9266L160.64 90.9178Z" fill="#B07320"/>
<path d="M184.058 79.8081H180.756L177.454 79.7556H177.297V79.9129C177.079 81.9656 176.852 84.0095 176.651 86.0273L174.843 86.6125L174.886 79.9827V79.6421H171.654L171.585 79.9041L170.598 83.6252C170.271 84.8655 169.951 86.1088 169.637 87.355C169.008 89.8444 168.431 92.3426 167.82 94.8407V94.998H167.977C169.008 94.998 170.038 94.9456 171.069 94.9368C172.1 94.9281 173.131 94.9368 174.161 94.9368H174.624C174.624 93.9585 174.624 92.989 174.624 92.0106C174.624 91.0323 174.624 90.1501 174.685 89.2242L176.432 89.495L176.127 92.1155C176.022 93.0472 175.923 93.976 175.83 94.9019V95.2076H176.144C177.018 95.2076 177.891 95.2076 178.765 95.2076H178.974L179.044 95.0154C179.918 92.526 180.791 90.0104 181.603 87.5035C182.023 86.2456 182.477 84.9878 182.87 83.7387C183.263 82.4897 183.743 81.2406 184.189 79.9915L184.241 79.8517L184.058 79.8081ZM182.617 83.6077C182.162 84.8481 181.682 86.0884 181.219 87.32C180.346 89.7309 179.385 92.1417 178.52 94.57H176.415C176.479 93.7431 176.54 92.9133 176.598 92.0805L176.782 89.2854V89.1194H176.625L174.528 88.901H174.397V89.0321C174.397 90.0104 174.45 90.9799 174.458 91.9582C174.467 92.9365 174.458 93.8886 174.458 94.8495H174.135C173.104 94.8495 172.074 94.8495 171.043 94.8495C170.012 94.8495 169.086 94.8495 168.117 94.7883C168.824 92.3775 169.558 89.9667 170.248 87.5471C170.598 86.3126 170.941 85.0752 171.279 83.8348L172.213 80.3409H174.214L174.257 87.0318V87.4511L174.65 87.32L177 86.499L177.166 86.4378V86.2631C177.332 84.2017 177.472 82.1403 177.62 80.0701L180.765 80.0264H183.918C183.493 81.2202 183.059 82.414 182.617 83.6077Z" fill="#B07320"/>
<path d="M190.88 86.4732C190.675 80.8831 188.28 75.5978 184.213 71.7576C180.145 67.9174 174.731 65.8301 169.139 65.9462C165.669 65.9708 162.261 66.8622 159.224 68.5394C156.187 70.2166 153.617 72.6264 151.748 75.5497C149.879 78.473 148.771 81.817 148.524 85.2777C148.277 88.7384 148.898 92.206 150.333 95.3652C151.477 97.8744 153.093 100.14 155.093 102.039C159.123 105.842 164.481 107.918 170.021 107.821C175.574 107.706 180.865 105.442 184.783 101.506C186.747 99.5421 188.303 97.2086 189.36 94.6402C190.398 92.0441 190.914 89.2689 190.88 86.4732ZM190.967 86.4732C191.097 92.165 189.025 97.6874 185.185 101.89C183.253 103.995 180.914 105.685 178.308 106.856C175.703 108.027 172.886 108.656 170.03 108.703C167.167 108.774 164.319 108.272 161.653 107.227C158.995 106.172 156.57 104.605 154.517 102.615C152.472 100.633 150.843 98.2639 149.724 95.6454C148.605 93.0268 148.019 90.2116 148 87.3641C147.983 84.5362 148.508 81.7312 149.546 79.1009C151.654 73.8017 155.72 69.5168 160.902 67.1342C163.489 65.9505 166.286 65.297 169.13 65.2125C171.981 65.1295 174.818 65.6289 177.469 66.6802C180.12 67.7316 182.528 69.3127 184.547 71.3269C186.542 73.3356 188.134 75.7076 189.238 78.3148C190.314 80.9037 190.901 83.6701 190.967 86.4732Z" fill="#752714"/>
<path d="M117.94 86.0272C117.881 91.374 119.948 96.5252 123.687 100.348C127.426 104.17 132.53 106.351 137.877 106.41C143.224 106.469 148.375 104.402 152.198 100.663C156.02 96.9238 158.201 91.8195 158.26 86.4727C158.168 82.0327 156.694 77.7319 154.043 74.1686C151.393 70.6054 147.698 67.9571 143.472 66.5921C140.477 65.7629 137.332 65.6369 134.281 66.2242C131.23 66.8115 128.355 68.096 125.883 69.9775C123.41 71.859 121.406 74.2866 120.027 77.0707C118.647 79.8549 117.93 82.9201 117.931 86.0272H117.94ZM133.269 87.5645V94.797H126.666L128.78 86.9356L121.565 85.9224L123.119 80.2622L123.207 79.9478H137.611L135.366 87.9052L135.042 87.8615L133.269 87.5645ZM139.244 79.9914H141.864V87.0317L143.812 86.3766L144.223 86.2369L144.764 80.2185V79.9041H151.368L146.04 94.8582H143.419L143.917 89.2766L141.829 89.0145V94.8669H135.226L139.13 80.3146L139.244 79.9914Z" fill="#FCEB5E"/>
<path d="M138.1 106.188C135.22 106.19 132.374 105.576 129.752 104.387C127.13 103.198 124.792 101.462 122.897 99.2942C121.002 97.1267 119.593 94.5786 118.765 91.8211C117.937 89.0637 117.708 86.1609 118.095 83.3078C118.482 80.4548 119.476 77.7177 121.008 75.2805C122.541 72.8434 124.578 70.7627 126.982 69.1783C129.386 67.5939 132.102 66.5426 134.946 66.0951C137.79 65.6476 140.697 65.8142 143.472 66.5837C139.181 65.1989 134.563 65.2074 130.278 66.6078C125.992 68.0082 122.26 70.7288 119.616 74.3798C116.971 78.0309 115.55 82.4252 115.555 86.9334C115.56 91.4417 116.992 95.8326 119.645 99.4774C122.299 103.122 126.037 105.834 130.326 107.224C134.614 108.614 139.233 108.612 143.52 107.217C147.807 105.822 151.543 103.106 154.192 99.4582C156.841 95.8104 158.268 91.4179 158.268 86.9097C158.268 86.7612 158.268 86.6127 158.268 86.4642C158.154 91.7365 155.979 96.754 152.208 100.441C148.438 104.128 143.373 106.191 138.1 106.188Z" fill="#E0CE96"/>
<path opacity="0.81" d="M158.251 86.4728C158.192 80.9093 155.933 75.5954 151.968 71.6926C148.003 67.7897 142.653 65.6154 137.09 65.6448C131.526 65.6743 126.2 67.9051 122.277 71.8497C118.353 75.7942 116.15 81.1318 116.15 86.6955C116.15 92.2593 118.353 97.5968 122.277 101.541C126.2 105.486 131.526 107.717 137.09 107.746C142.653 107.776 148.003 105.601 151.968 101.699C155.933 97.7957 158.192 92.4818 158.251 86.9183C158.268 86.7611 158.26 86.6213 158.251 86.4728Z" fill="url(#paint3_linear_577:18211)"/>
<g opacity="0.66">
<path d="M123.137 80.3236L121.556 85.9227L128.771 86.9359L126.666 94.7973H132.658V87.9404L133.269 88.0277V87.5648L134.92 87.8006L137.043 80.2887L123.137 80.3236Z" fill="#DBC685"/>
<path d="M144.747 80.2886L144.214 86.2457L143.803 86.3855L143.629 86.4379L143.611 86.6213L143.201 86.7611L141.253 87.4075V80.3672H139.139L135.252 94.8671H141.253V89.3903L141.855 89.4689V89.0147L143.943 89.2767L143.445 94.8671H145.585L150.782 80.2886H144.747Z" fill="#DBC685"/>
<path d="M133.269 87.5648L134.92 87.8006L137.043 80.2887L123.137 80.3236L121.556 85.9227L128.771 86.9359L126.666 94.7973H132.658V87.9404L133.269 88.0277V87.5648Z" fill="#DBC685"/>
<path d="M144.747 80.2886L144.214 86.2457L143.803 86.3855L143.629 86.4379L143.611 86.6213L143.201 86.7611L141.253 87.4075V80.3672H139.139L135.252 94.8671H141.253V89.3903L141.855 89.4689V89.0147L143.943 89.2767L143.445 94.8671H145.585L150.782 80.2886H144.747Z" fill="#DBC685"/>
</g>
<path d="M133.601 87.9044L135.392 88.1227H135.628L135.689 87.9044C136.056 86.5417 136.388 85.1704 136.728 83.8252L137.707 79.8596L130.588 79.6761C128.168 79.6761 125.714 79.6063 123.277 79.6761H123.058L123.006 79.877C122.735 80.8728 122.482 81.8773 122.228 82.8818L121.46 85.8866V86.0439H121.617C122.822 86.1836 124.028 86.3408 125.233 86.5155L127.033 86.7863L128.683 87.0396L127.487 90.8043C127.102 92.1058 126.736 93.4248 126.36 94.7176L126.255 95.0844H126.639L133.243 95.1368H133.592V94.7874C133.592 93.582 133.592 92.3766 133.592 91.1712C133.592 89.9658 133.601 88.9962 133.601 87.9044ZM127.967 90.9179L128.937 86.961V86.8125H128.788C128.186 86.7426 127.583 86.6553 126.98 86.5767L125.181 86.3146C124.016 86.1516 122.869 85.9798 121.739 85.7993L122.613 82.9867C122.892 82.0695 123.18 81.1523 123.486 80.2264C125.775 80.2264 128.055 80.2264 130.369 80.1478L137.654 79.9207L136.388 83.9125C135.995 85.1442 135.61 86.3496 135.252 87.555L133.348 87.258L133.007 87.2056V87.555C133.007 88.7604 133.007 89.9658 133.007 91.1712C133.007 92.3766 133.007 93.3549 133.007 94.4468L127.129 94.4992C127.338 93.3025 127.644 92.1146 127.932 90.9266L127.967 90.9179Z" fill="#BEA584"/>
<path d="M151.385 79.8081H148.084L144.782 79.7556H144.625V79.9129C144.406 81.9656 144.179 84.0095 143.978 86.0273L142.17 86.6125L142.214 79.9827V79.6421H138.982L138.912 79.9041L137.925 83.6252C137.599 84.8655 137.279 86.1088 136.964 87.355C136.335 89.8444 135.759 92.3426 135.147 94.8407V94.998H135.305C136.335 94.998 137.366 94.9456 138.397 94.9368C139.427 94.9281 140.458 94.9368 141.489 94.9368H141.952C141.952 93.9585 141.952 92.989 141.952 92.0106C141.952 91.0323 141.952 90.1501 142.013 89.2242L143.76 89.495L143.454 92.1155C143.349 93.0472 143.25 93.976 143.157 94.9019V95.2076H143.472C144.345 95.2076 145.219 95.2076 146.092 95.2076H146.302L146.372 95.0154C147.245 92.526 148.119 90.0104 148.931 87.5035C149.35 86.2456 149.804 84.9878 150.197 83.7387C150.591 82.4897 151.071 81.2406 151.516 79.9915L151.569 79.8517L151.385 79.8081ZM149.944 83.6077C149.49 84.8481 149.01 86.0884 148.547 87.32C147.673 89.7309 146.712 92.1417 145.847 94.57H143.742C143.806 93.7431 143.868 92.9133 143.926 92.0805L144.109 89.2854V89.1194H143.952L141.856 88.901H141.725V89.0321C141.725 90.0104 141.777 90.9799 141.786 91.9582C141.795 92.9365 141.786 93.8886 141.786 94.8495H141.463C140.432 94.8495 139.401 94.8495 138.37 94.8495C137.34 94.8495 136.414 94.8495 135.444 94.7883C136.152 92.3775 136.886 89.9667 137.576 87.5471C137.925 86.3126 138.269 85.0752 138.606 83.8348L139.541 80.3409H141.541L141.585 87.0318V87.4511L141.978 87.32L144.328 86.499L144.494 86.4378V86.2631C144.66 84.2017 144.799 82.1403 144.948 80.0701L148.092 80.0264H151.246C150.821 81.2202 150.387 82.414 149.944 83.6077Z" fill="#BEA584"/>
<path d="M132.658 94.7969H133.269V88.0274L132.658 87.94V94.7969Z" fill="#BEA584"/>
<path d="M123.154 80.262L123.137 80.3232L137.043 80.2882L134.92 87.8002L135.069 87.8177L135.4 87.8613L137.645 79.9039L123.242 79.9476L123.154 80.262Z" fill="#BEA584"/>
<path d="M141.253 94.8665H141.856V89.4683L141.253 89.3897V94.8665Z" fill="#BEA584"/>
<path d="M141.856 79.9913H139.244L139.157 80.3057L139.139 80.3669H141.253V87.4072L143.201 86.7608L143.611 86.621L143.629 86.4376L141.856 87.0316V79.9913Z" fill="#BEA584"/>
<path d="M144.782 79.9038L144.756 80.227L144.747 80.2881H150.783L145.585 94.8666H146.057L151.385 79.9038H144.782Z" fill="#BEA584"/>
<path d="M158.207 86.4732C158.002 80.8831 155.608 75.5978 151.54 71.7576C147.473 67.9174 142.059 65.8301 136.466 65.9462C132.997 65.9708 129.588 66.8622 126.551 68.5394C123.514 70.2166 120.944 72.6264 119.076 75.5497C117.207 78.473 116.099 81.817 115.851 85.2777C115.604 88.7384 116.226 92.206 117.66 95.3652C118.804 97.8744 120.42 100.14 122.421 102.039C126.45 105.842 131.808 107.918 137.348 107.821C142.901 107.706 148.193 105.442 152.11 101.506C154.075 99.5421 155.63 97.2086 156.687 94.6402C157.725 92.0441 158.242 89.2689 158.207 86.4732ZM158.295 86.4732C158.424 92.165 156.353 97.6874 152.512 101.89C150.581 103.995 148.241 105.685 145.636 106.856C143.03 108.027 140.213 108.656 137.357 108.703C134.494 108.774 131.647 108.272 128.98 107.227C126.323 106.172 123.898 104.605 121.844 102.615C119.799 100.633 118.17 98.2639 117.051 95.6454C115.932 93.0268 115.347 90.2116 115.328 87.3641C115.31 84.5362 115.835 81.7312 116.874 79.1009C118.982 73.8017 123.048 69.5168 128.229 67.1342C130.816 65.9505 133.614 65.297 136.457 65.2125C139.308 65.1295 142.145 65.6289 144.796 66.6802C147.447 67.7316 149.856 69.3127 151.874 71.3269C153.87 73.3356 155.462 75.7076 156.565 78.3148C157.642 80.9037 158.228 83.6701 158.295 86.4732Z" fill="#776C5C"/>
<path d="M85.4197 86.0272C85.3606 91.374 87.428 96.5252 91.1669 100.348C94.9059 104.17 100.01 106.351 105.357 106.41C110.704 106.469 115.855 104.402 119.678 100.663C123.5 96.9238 125.681 91.8195 125.74 86.4727C125.648 82.0338 124.176 77.7338 121.527 74.1707C118.878 70.6076 115.185 67.9586 110.96 66.5921C107.966 65.7629 104.821 65.6369 101.769 66.2242C98.7183 66.8115 95.8443 68.096 93.3716 69.9775C90.899 71.859 88.8948 74.2866 87.5153 77.0707C86.1359 79.8549 85.4187 82.9201 85.4197 86.0272ZM100.749 87.5645V94.797H94.1458L96.2597 86.9356L89.0534 85.9224L90.6519 80.2622L90.7392 79.9478H105.143L102.898 87.9052L102.575 87.8615L100.749 87.5645ZM106.724 79.9914H109.344V87.0317L111.292 86.3766L111.703 86.2369L112.244 80.2185V79.9041H118.848L113.511 94.8669H110.891L111.388 89.2853L109.301 89.0233V94.8756H102.697L106.602 80.3233L106.724 79.9914Z" fill="#D99819"/>
<path d="M105.58 106.187C102.701 106.19 99.8542 105.576 97.2321 104.387C94.6099 103.198 92.2727 101.462 90.3775 99.2941C88.4824 97.1266 87.0733 94.5785 86.245 91.821C85.4167 89.0636 85.1884 86.1608 85.5754 83.3077C85.9624 80.4547 86.9557 77.7176 88.4886 75.2804C90.0215 72.8433 92.0585 70.7626 94.4625 69.1782C96.8665 67.5938 99.5819 66.5425 102.426 66.095C105.27 65.6475 108.177 65.8141 110.952 66.5836C106.662 65.197 102.044 65.2034 97.758 66.6019C93.4722 68.0004 89.7389 70.7192 87.0927 74.369C84.4465 78.0188 83.0231 82.4123 83.0264 86.9205C83.0296 91.4286 84.4593 95.8201 87.1108 99.4661C89.7623 103.112 93.4995 105.825 97.7872 107.218C102.075 108.61 106.693 108.61 110.981 107.217C115.269 105.824 119.006 103.111 121.657 99.4643C124.308 95.8181 125.737 91.4265 125.74 86.9183C125.74 86.7698 125.74 86.6213 125.74 86.4728C125.623 91.742 123.448 96.7561 119.68 100.441C115.912 104.126 110.85 106.189 105.58 106.187Z" fill="#CB6D16"/>
<path d="M100.749 87.5647L102.4 87.8006L104.523 80.2886L90.6169 80.3235L89.0359 85.9226L96.2596 86.9358L94.1458 94.7972H100.147V87.9403L100.749 88.0277V87.5647Z" fill="#CB7816"/>
<path d="M112.227 80.2886L111.694 86.2457L111.283 86.3855L111.109 86.4379L111.091 86.6213L110.681 86.7611L108.733 87.4075V80.3672H106.619L102.732 94.8671H108.733V89.3903L109.335 89.4689V89.0147L111.423 89.2767L110.925 94.8671H113.074L118.263 80.2886H112.227Z" fill="#CB7816"/>
<g opacity="0.66">
<path opacity="0.66" d="M90.6169 80.3235L89.0359 85.9226L96.2596 86.9358L94.1458 94.7972H100.147V88.3159V87.9403L100.749 88.0277V87.9403V87.5647L102.4 87.8006L104.523 80.2886L90.6169 80.3235Z" fill="url(#paint4_linear_577:18211)"/>
<path opacity="0.66" d="M112.227 80.2886L111.694 86.2457L111.283 86.3855L111.109 86.4379L111.091 86.6213L110.681 86.7611L108.733 87.4075V80.3672H106.619L102.732 94.8671H108.733V89.7572V89.3903L109.335 89.4689V89.3816V89.0147L111.423 89.2767L110.925 94.8671H113.074L118.263 80.2886H112.227Z" fill="url(#paint5_linear_577:18211)"/>
</g>
<path d="M100.146 94.7969H100.749V88.0273L100.146 87.94V94.7969Z" fill="#B06520"/>
<path d="M90.6342 80.2623L90.6167 80.3235L104.523 80.2885L102.4 87.8005L102.557 87.818L102.88 87.8617L105.125 79.9042L90.7215 79.9479L90.6342 80.2623Z" fill="#B06520"/>
<path d="M108.733 94.8669H109.335V89.4688L108.733 89.3902V94.8669Z" fill="#B06520"/>
<path d="M109.335 79.9913H106.724L106.636 80.3057L106.619 80.3669H108.733V87.4072L110.681 86.7608L111.091 86.621L111.109 86.4376L109.335 87.0316V79.9913Z" fill="#B06520"/>
<path d="M112.262 79.9038L112.235 80.227L112.227 80.2881H118.262L113.074 94.8666H113.537L118.865 79.9038H112.262Z" fill="#B06520"/>
<path d="M101.055 87.9044L102.845 88.1227H103.081L103.142 87.9044C103.509 86.5417 103.841 85.1704 104.182 83.8252L105.16 79.8596L98.0413 79.6761C95.6217 79.6761 93.1672 79.6063 90.7302 79.6761H90.5118L90.4594 79.877C90.1886 80.8728 89.9353 81.8773 89.682 82.8818L88.9133 85.8866V86.0439H89.0706C90.276 86.1836 91.4814 86.3408 92.6868 86.5155L94.4862 86.7863L96.1371 87.0396L95.0365 90.8043C94.6521 92.1058 94.2853 93.4248 93.9097 94.7176L93.8049 95.0844H94.1892L100.793 95.1368H101.142V94.7874C101.142 93.582 101.142 92.3766 101.142 91.1712C101.142 89.9658 101.072 88.9962 101.055 87.9044ZM95.4208 90.9179L96.3904 86.961V86.8125H96.2419C95.6392 86.7426 95.0365 86.6553 94.4338 86.5767L92.6606 86.3146C91.4959 86.1516 90.3488 85.9798 89.2191 85.7993L90.0925 82.9867C90.3721 82.0695 90.6603 81.1523 90.966 80.2264C93.2546 80.2264 95.5344 80.2264 97.8491 80.1478L105.134 79.9207L103.867 83.9125C103.474 85.1442 103.09 86.3496 102.732 87.555L100.828 87.258L100.408 87.1881V87.5375C100.408 88.7429 100.408 89.9483 100.408 91.1537C100.408 92.3592 100.408 93.3375 100.408 94.4293L94.5298 94.4817C94.8181 93.3025 95.1675 92.1146 95.4121 90.9266L95.4208 90.9179Z" fill="#B06520"/>
<path d="M118.865 79.8081H115.563L112.262 79.7556H112.104V79.9129C111.886 81.9656 111.659 84.0095 111.458 86.0273L109.65 86.6125L109.694 79.9827V79.6421H106.462L106.392 79.9041L105.405 83.6252C105.079 84.8655 104.758 86.1088 104.444 87.355C103.815 89.8444 103.238 92.3426 102.627 94.8407V94.998H102.784C103.815 94.998 104.846 94.9456 105.876 94.9368C106.907 94.9281 107.938 94.9368 108.969 94.9368H109.431C109.431 93.9585 109.431 92.989 109.431 92.0106C109.431 91.0323 109.431 90.1501 109.493 89.2242L111.24 89.495L110.934 92.1155C110.829 93.0472 110.73 93.976 110.637 94.9019V95.2076H110.89C111.764 95.2076 112.637 95.2076 113.511 95.2076H113.72L113.79 95.0154C114.664 92.526 115.537 90.0104 116.35 87.5035C116.769 86.2456 117.223 84.9878 117.616 83.7387C118.009 82.4897 118.49 81.2406 118.935 79.9915L118.987 79.8517L118.865 79.8081ZM117.424 83.6077C116.97 84.8481 116.489 86.0884 116.026 87.32C115.153 89.7309 114.192 92.1417 113.327 94.57H111.222C111.286 93.7431 111.347 92.9133 111.406 92.0805L111.589 89.2854V89.1194H111.432L109.335 88.901H109.204V89.0321C109.204 90.0104 109.257 90.9799 109.266 91.9582C109.274 92.9365 109.266 93.8886 109.266 94.8495H108.872C107.842 94.8495 106.811 94.8495 105.78 94.8495C104.75 94.8495 103.824 94.8495 102.854 94.7883C103.562 92.3775 104.295 89.9667 104.985 87.5471C105.335 86.3126 105.678 85.0752 106.016 83.8348L106.951 80.3409H108.951L108.995 87.0318V87.4511L109.388 87.32L111.737 86.499L111.903 86.4378V86.2631C112.069 84.2017 112.209 82.1403 112.358 80.0701L115.502 80.0264H118.656C118.277 81.2202 117.866 82.414 117.424 83.6077Z" fill="#B06520"/>
<path opacity="0.6" d="M125.74 86.4728C125.681 80.9093 123.422 75.5954 119.457 71.6926C115.491 67.7897 110.142 65.6154 104.579 65.6448C99.0149 65.6743 93.6891 67.9051 89.7653 71.8497C85.8415 75.7942 83.6389 81.1318 83.6389 86.6955C83.6389 92.2593 85.8415 97.5969 89.7653 101.541C93.6891 105.486 99.0149 107.717 104.579 107.746C110.142 107.776 115.491 105.601 119.457 101.699C123.422 97.7957 125.681 92.4818 125.74 86.9183C125.74 86.7611 125.74 86.6213 125.74 86.4728Z" fill="url(#paint6_linear_577:18211)"/>
<path d="M125.696 86.4732C125.491 80.8831 123.097 75.5978 119.029 71.7576C114.962 67.9174 109.548 65.8301 103.955 65.9462C100.486 65.9708 97.0775 66.8622 94.0403 68.5394C91.0031 70.2166 88.4333 72.6264 86.5646 75.5497C84.6959 78.473 83.5875 81.817 83.3403 85.2777C83.0931 88.7384 83.7148 92.206 85.149 95.3652C86.2985 97.8758 87.9207 100.142 89.927 102.039C93.9565 105.842 99.3146 107.918 104.855 107.821C110.407 107.706 115.699 105.442 119.617 101.506C121.581 99.5421 123.137 97.2086 124.194 94.6402C125.226 92.0429 125.736 89.2677 125.696 86.4732ZM125.784 86.4732C125.913 92.165 123.842 97.6874 120.001 101.89C118.07 103.995 115.73 105.685 113.125 106.856C110.519 108.027 107.702 108.656 104.846 108.703C101.983 108.774 99.1356 108.272 96.4694 107.227C93.8116 106.172 91.3869 104.605 89.333 102.615C87.2883 100.633 85.659 98.2639 84.5402 95.6454C83.4214 93.0268 82.8355 90.2116 82.8168 87.3641C82.7994 84.5362 83.3242 81.7312 84.3629 79.1009C86.4707 73.8017 90.5368 69.5168 95.7182 67.1342C98.3051 65.9505 101.103 65.297 103.946 65.2125C106.797 65.1295 109.634 65.6289 112.285 66.6802C114.936 67.7316 117.345 69.3127 119.363 71.3269C121.359 73.3356 122.951 75.7076 124.054 78.3148C125.116 80.9066 125.687 83.6728 125.74 86.4732H125.784Z" fill="#B46508"/>
<path d="M72.6057 79.9043L58.2019 79.948L58.1146 80.2624L56.5161 85.9226L63.7398 86.9359L61.626 94.7972H67.8015H68.2296V87.9404V87.5648L70.0377 87.8181L70.3609 87.8617L72.6057 79.9043Z" fill="#428A7A"/>
<path d="M79.7162 80.2275L79.1834 86.2458L78.7641 86.3856L76.825 87.0319V79.9916H74.2045L74.1259 80.3061L70.2214 94.8671H76.397H76.825V89.3816V89.0147L78.9126 89.2768L78.406 94.8671H80.7033H81.0265L86.3547 79.9043H79.7512L79.7162 80.2275Z" fill="#428A7A"/>
<path d="M52.9002 86.0272C52.8411 91.374 54.9084 96.5253 58.6474 100.348C62.3864 104.17 67.4907 106.351 72.8375 106.41C78.1843 106.469 83.3355 104.402 87.158 100.663C90.9805 96.9238 93.1612 91.8195 93.2203 86.4727C93.1283 82.0327 91.6545 77.7319 89.004 74.1687C86.3535 70.6054 82.6581 67.9571 78.4321 66.5922C75.4383 65.7645 72.2938 65.6398 69.2438 66.2278C66.1938 66.8158 63.321 68.1006 60.8495 69.982C58.3779 71.8633 56.3745 74.2903 54.9956 77.0736C53.6167 79.8569 52.8996 82.9211 52.9002 86.0272ZM68.2298 87.5646V94.797H61.6263L63.7401 86.9357L56.5251 85.9224L58.1236 80.2622L58.211 79.9478H72.6147L70.3611 87.8616L70.038 87.8179L68.2298 87.5646ZM74.2045 79.9914H76.8249V87.0317L78.7728 86.3766L79.1833 86.2369L79.7162 80.2011V79.8866H86.3197L80.9915 94.8407H78.371L78.8689 89.2591L76.7813 88.9971V94.8494H70.2127L74.1171 80.2972L74.2045 79.9914Z" fill="#D0D0D0"/>
<path d="M73.0601 106.188C70.1809 106.19 67.3345 105.576 64.7123 104.387C62.0902 103.198 59.7529 101.462 57.8578 99.2942C55.9627 97.1267 54.5536 94.5786 53.7253 91.8211C52.897 89.0637 52.6687 86.1609 53.0557 83.3078C53.4426 80.4548 54.436 77.7177 55.9689 75.2805C57.5018 72.8434 59.5388 70.7627 61.9428 69.1783C64.3468 67.5939 67.0622 66.5426 69.9064 66.0951C72.7505 65.6476 75.6576 65.8142 78.432 66.5837C74.142 65.1991 69.524 65.2074 65.239 66.6075C60.9541 68.0075 57.2221 70.7276 54.5773 74.3781C51.9325 78.0286 50.5107 82.4223 50.5154 86.9302C50.5201 91.438 51.951 95.8288 54.6034 99.4738C57.2557 103.119 60.9934 105.831 65.2812 107.222C69.569 108.613 74.1871 108.612 78.4742 107.219C82.7613 105.825 86.4974 103.111 89.1478 99.4643C91.7981 95.8179 93.2266 91.4263 93.2288 86.9184C93.2288 86.7699 93.2288 86.6214 93.2288 86.473C93.1123 91.7437 90.9358 96.759 87.1658 100.444C83.3957 104.129 78.332 106.191 73.0601 106.188Z" fill="#93908A"/>
<path d="M68.2298 87.5647L69.8807 87.8006L72.0033 80.2886L58.0974 80.3235L56.5164 85.9226L63.7401 86.9358L61.6262 94.7972H67.6271V88.3159V87.9403L68.2298 88.0277V87.9403V87.5647Z" fill="#ADADAD"/>
<path d="M79.716 80.2886L79.1832 86.2457L78.7639 86.3855L78.5892 86.4379L78.5805 86.6213L78.1612 86.7611L76.2133 87.4075V80.3672H74.1082L70.2212 94.8671H76.2133V89.7572V89.3903L76.8247 89.4689V89.3816V89.0147L78.9124 89.2767L78.4057 94.8671H80.5545L85.7518 80.2886H79.716Z" fill="#ADADAD"/>
<g opacity="0.66">
<path opacity="0.66" d="M58.0974 80.3235L56.5164 85.9226L63.7401 86.9358L61.6262 94.7972H67.6271V88.3159V87.9403L68.2298 88.0277V87.9403V87.5647L69.8807 87.8006L72.0033 80.2886L58.0974 80.3235Z" fill="url(#paint7_linear_577:18211)"/>
<path opacity="0.66" d="M79.7162 80.2886L79.1834 86.2457L78.7641 86.3855L78.5894 86.4379L78.5807 86.6213L78.1614 86.7611L76.2135 87.4075V80.3672H74.1084L70.2214 94.8671H76.2135V89.7572V89.3903L76.825 89.4689V89.3816V89.0147L78.9126 89.2767L78.406 94.8671H80.5548L85.752 80.2886H79.7162Z" fill="url(#paint8_linear_577:18211)"/>
</g>
<path d="M68.5355 87.9044L70.3261 88.1227H70.562L70.6231 87.9044C70.99 86.5417 71.3219 85.1704 71.6626 83.8252L72.6409 79.8596L65.522 79.6761C63.1024 79.6761 60.6479 79.6063 58.2109 79.6761H57.9925L57.9401 79.877C57.6693 80.8728 57.416 81.8773 57.1627 82.8818L56.394 85.8866V86.0439H56.5513C57.7567 86.1836 58.9621 86.3408 60.1675 86.5155L61.9669 86.7863L63.6178 87.0396L62.5172 90.8043C62.1328 92.1058 61.766 93.4248 61.3904 94.7176L61.2856 95.0844H61.6699L68.2734 95.1368H68.6228V94.7874C68.6228 93.582 68.6228 92.3766 68.6228 91.1712C68.6228 89.9658 68.553 88.9962 68.5355 87.9044ZM62.9015 90.9179L63.8711 86.961V86.8125H63.7226C63.1199 86.7426 62.5172 86.6553 61.9145 86.5767L60.1413 86.3146C58.9767 86.1516 57.8295 85.9798 56.6998 85.7993L57.5732 82.9867C57.8528 82.0695 58.141 81.1523 58.4467 80.2264C60.7353 80.2264 63.0151 80.2264 65.3298 80.1478L72.6147 79.9207L71.3481 83.9125C70.9551 85.1442 70.5707 86.3496 70.2126 87.555L68.3084 87.258L67.9328 87.1881V87.5375C67.9328 88.7429 67.9328 89.9483 67.9328 91.1537C67.9328 92.3592 67.9328 93.3375 67.9328 94.4293L62.0542 94.4817C62.2988 93.3025 62.6133 92.1146 62.8928 90.9266L62.9015 90.9179Z" fill="#808080"/>
<path d="M86.3545 79.8081H83.0527L79.751 79.7556H79.5937V79.9129C79.3754 81.9656 79.1483 84.0095 78.9474 86.0273L77.1392 86.6125L77.1829 79.9827V79.6421H73.9423L73.8724 79.9041L72.8854 83.6252C72.5593 84.8655 72.239 86.1088 71.9245 87.355C71.2956 89.8444 70.7191 92.3426 70.1077 94.8407V94.998H70.2649C71.2956 94.998 72.3263 94.9456 73.357 94.9368C74.3878 94.9281 75.4185 94.9368 76.4492 94.9368H76.8248C76.8248 93.9585 76.8248 92.989 76.8248 92.0106C76.8248 91.0323 76.8248 90.1501 76.8859 89.2242L78.6329 89.495L78.3272 92.1155C78.2224 93.0472 78.1234 93.976 78.0302 94.9019V95.2076H78.3446C79.2181 95.2076 80.0916 95.2076 80.9651 95.2076H81.1922L81.2621 95.0154C82.1356 92.526 83.0091 90.0104 83.8214 87.5035C84.2407 86.2456 84.6949 84.9878 85.088 83.7387C85.481 82.4897 85.9614 81.2406 86.4069 79.9915L86.4593 79.8517L86.3545 79.8081ZM84.9045 83.6077C84.4503 84.8481 83.9699 86.0884 83.507 87.32C82.6335 89.7309 81.6726 92.1417 80.8079 94.57H78.7115C78.7756 93.7431 78.8367 92.9133 78.8949 92.0805L79.0784 89.2854V89.1194H78.9212L76.8248 88.936H76.6938V89.067C76.6938 90.0453 76.7462 91.0149 76.7549 91.9932C76.7636 92.9715 76.7549 93.9236 76.7549 94.8844H76.3618C75.3311 94.8844 74.3004 94.8844 73.2697 94.8844C72.239 94.8844 71.3131 94.8844 70.3435 94.8233C71.051 92.4125 71.7848 90.0016 72.4748 87.5821C72.8242 86.3475 73.1678 85.1101 73.5055 83.8698L74.4402 80.3758H76.4754L76.5191 87.0667V87.486L76.9121 87.355L79.2618 86.5339L79.4278 86.4727V86.2981C79.5937 84.2366 79.7335 82.1752 79.882 80.105L83.0265 80.0614H86.1798C85.7664 81.2318 85.3413 82.414 84.9045 83.6077Z" fill="#808080"/>
<path d="M67.6272 94.7973H68.2299V88.0278L67.6272 87.9405V94.7973Z" fill="#808080"/>
<path d="M58.1148 80.2625L58.0974 80.3236L72.0033 80.2887L69.8807 87.8007L70.0379 87.8181L70.3611 87.8618L72.606 79.9043L58.2022 79.948L58.1148 80.2625Z" fill="#808080"/>
<path d="M76.2136 94.8669H76.825V89.4688L76.2136 89.3902V94.8669Z" fill="#808080"/>
<path d="M76.8251 79.9917H74.2047L74.1261 80.3062L74.1086 80.3673H76.2137V87.4076L78.1616 86.7613L78.5809 86.6215L78.5896 86.4381L76.8251 87.032V79.9917Z" fill="#808080"/>
<path d="M79.7512 79.9043L79.7163 80.2274V80.2886H85.7521L80.5548 94.8671H81.0265L86.3548 79.9043H79.7512Z" fill="#808080"/>
<path opacity="0.81" d="M93 86.4728C92.9411 80.9093 90.6822 75.5954 86.7169 71.6926C82.7516 67.7897 77.4025 65.6154 71.8388 65.6448C66.2751 65.6743 60.9493 67.9051 57.0255 71.8497C53.1018 75.7942 50.8992 81.1318 50.8992 86.6955C50.8992 92.2593 53.1018 97.5969 57.0255 101.541C60.9493 105.486 66.2751 107.717 71.8388 107.746C77.4025 107.776 82.7516 105.601 86.7169 101.699C90.6822 97.7957 92.9411 92.4818 93 86.9183C93.0175 86.7611 93.0087 86.6213 93 86.4728Z" fill="url(#paint9_linear_577:18211)"/>
<path d="M93.1765 86.4729C92.9713 80.8829 90.5768 75.5976 86.5094 71.7574C82.4421 67.9171 77.028 65.8299 71.4354 65.946C67.9671 65.9712 64.5601 66.8627 61.524 68.5394C58.4878 70.2162 55.9188 72.625 54.0503 75.5471C52.1818 78.4691 51.0731 81.8118 50.8249 85.2713C50.5768 88.7308 51.197 92.1974 52.6293 95.3563C53.77 97.8678 55.3832 100.136 57.381 102.038C61.41 105.843 66.7684 107.919 72.3089 107.821C77.8615 107.706 83.1531 105.442 87.0708 101.506C89.0463 99.5391 90.6111 97.1994 91.6741 94.6226C92.7039 92.0307 93.2144 89.2617 93.1765 86.4729ZM93.2638 86.4729C93.3934 92.1648 91.3221 97.6872 87.4813 101.89C85.55 103.995 83.2103 105.684 80.6048 106.856C77.9993 108.027 75.1826 108.656 72.3264 108.703C69.4637 108.773 66.6158 108.272 63.9496 107.227C61.2918 106.172 58.8671 104.605 56.8133 102.615C54.7686 100.633 53.1392 98.2637 52.0204 95.6451C50.9016 93.0266 50.3157 90.2114 50.2971 87.3639C50.2796 84.536 50.8044 81.731 51.8431 79.1007C53.9435 73.7884 58.0104 69.4899 63.1984 67.099C65.7853 65.9153 68.5831 65.2619 71.4267 65.1773C74.2772 65.0943 77.1147 65.5938 79.7656 66.6451C82.4164 67.6964 84.8249 69.2776 86.8437 71.2917C88.8388 73.3004 90.4309 75.6724 91.5343 78.2796C92.6153 80.8794 93.2018 83.658 93.2638 86.4729Z" fill="#696865"/>
<path d="M198.082 92.6488C198.728 90.5525 199.785 91.2425 199.785 89.9236C199.711 89.3734 199.52 88.8453 199.227 88.3741C198.933 87.9028 198.543 87.4991 198.082 87.1895V86.3161C198.56 85.5771 198.86 84.7366 198.956 83.8616C198.906 82.9685 198.603 82.108 198.082 81.3809V81.2411C199.261 82.0622 201.288 80.7869 199.951 79.5465C198.956 78.6206 198.37 74.7074 198.082 72.0782V56.3555C198.641 51.8658 201.331 51.2194 200.703 49.7781C200.056 48.1971 198.082 49.4462 198.082 49.4462C198.475 46.7559 200.615 47.3848 200.537 44.7818C200.458 42.1788 197.043 41.9342 195.942 43.9083C194.841 45.8824 191.837 45.8562 191.837 45.8562C193.584 43.0086 190.291 42.4845 189.766 43.9083C189.242 45.3321 182.246 45.8999 182.246 45.8999H182.377H143.323C137.724 45.8999 136.405 44.0568 134.492 44.1529C132.745 44.2053 133.619 45.6815 133.759 45.8999H132.422C128.474 45.664 127.697 44.4062 125.915 43.0872C123.941 41.6285 123.128 45.8999 123.128 45.8999C123.128 45.8999 122.316 41.6285 120.342 43.0872C118.595 44.4062 117.782 45.7077 113.834 45.8999H112.498C112.655 45.6466 113.511 44.1529 111.764 44.1529C109.851 44.0918 108.532 45.8999 102.933 45.8999H58.4815H58.6126C58.6126 45.8999 51.6247 45.3321 51.0918 43.9083C50.559 42.4845 47.231 43.0348 49.0217 45.8562C49.0217 45.8562 45.9732 45.8562 44.9163 43.9083C43.8594 41.9604 40.4091 42.1613 40.3218 44.7818C40.2344 47.4023 42.3832 46.7559 42.7763 49.4462C42.7763 49.4462 40.7672 48.1971 40.1558 49.7781C39.5618 51.2194 42.2522 51.8658 42.7763 56.3555V72.0782C42.488 74.6987 41.9028 78.6206 40.907 79.5465C39.5706 80.7869 41.597 82.0622 42.7763 81.2411V81.3809C42.2554 82.108 41.9524 82.9685 41.9028 83.8616C41.9988 84.7366 42.2979 85.5771 42.7763 86.3161V87.1895C42.304 87.4929 41.9022 87.8938 41.5978 88.3654C41.2935 88.837 41.0937 89.3683 41.0118 89.9236C41.0118 91.2425 42.0687 90.5525 42.7151 92.6488V111.691C42.1561 116.181 39.4657 116.827 40.0946 118.268C40.741 119.849 42.7151 118.6 42.7151 118.6C42.322 121.29 40.182 120.662 40.2606 123.265C40.3392 125.868 43.7546 126.112 44.8551 124.138C45.2156 123.595 45.6962 123.143 46.2597 122.816C46.8232 122.488 47.4544 122.295 48.1045 122.251H48.9169C47.231 125.038 50.5066 125.544 51.0307 124.138C51.4325 123.064 55.4942 122.478 57.477 122.251H104.986C108.873 122.627 110.087 123.998 111.738 123.937C113.389 123.876 112.76 122.671 112.524 122.251H114.917C117.922 122.636 118.7 123.78 120.307 124.968C122.106 126.304 122.927 122.854 123.076 122.251C123.207 122.854 124.037 126.304 125.845 124.968C127.443 123.78 128.229 122.636 131.234 122.251H133.628C133.392 122.671 132.833 123.885 134.414 123.937C135.995 123.99 137.279 122.627 141.166 122.251H183.242C185.224 122.478 189.286 123.064 189.688 124.138C190.212 125.553 193.488 125.011 191.802 122.251H192.614C193.264 122.295 193.895 122.488 194.459 122.816C195.022 123.143 195.503 123.595 195.863 124.138C196.92 126.13 200.371 125.885 200.458 123.265C200.545 120.644 198.396 121.29 198.003 118.6C198.003 118.6 200.012 119.849 200.624 118.268C201.218 116.827 198.528 116.181 198.003 111.691L198.082 92.6488ZM194.518 118.749H46.3226V49.3589H194.518V118.749Z" fill="#293A77"/>
<path d="M123.137 34.4743C124.261 34.4743 125.172 33.5631 125.172 32.439C125.172 31.315 124.261 30.4038 123.137 30.4038C122.013 30.4038 121.102 31.315 121.102 32.439C121.102 33.5631 122.013 34.4743 123.137 34.4743Z" fill="#F1D007"/>
</g>
<defs>
<filter id="filter0_d_577:18211" x="0" y="0" width="240.797" height="175.456" filterUnits="userSpaceOnUse" color-interpolation-filters="sRGB">
<feFlood flood-opacity="0" result="BackgroundImageFix"/>
<feColorMatrix in="SourceAlpha" type="matrix" values="0 0 0 0 0 0 0 0 0 0 0 0 0 0 0 0 0 0 127 0" result="hardAlpha"/>
<feOffset dy="10"/>
<feGaussianBlur stdDeviation="20"/>
<feComposite in2="hardAlpha" operator="out"/>
<feColorMatrix type="matrix" values="0 0 0 0 0 0 0 0 0 0 0 0 0 0 0 0 0 0 0.15 0"/>
<feBlend mode="normal" in2="BackgroundImageFix" result="effect1_dropShadow_577:18211"/>
<feBlend mode="normal" in="SourceGraphic" in2="effect1_dropShadow_577:18211" result="shape"/>
</filter>
<linearGradient id="paint0_linear_577:18211" x1="144.5" y1="53.5" x2="202.984" y2="131.012" gradientUnits="userSpaceOnUse">
<stop stop-color="#D2A91D" stop-opacity="0.02"/>
<stop offset="0.17" stop-color="#FFEB47"/>
<stop offset="0.29" stop-color="white"/>
<stop offset="0.41" stop-color="#FFEB47"/>
<stop offset="0.6" stop-color="#D2A91D" stop-opacity="0.02"/>
<stop offset="0.75" stop-color="#FFEB47"/>
<stop offset="0.85" stop-color="white"/>
<stop offset="0.93" stop-color="#FFEB47"/>
<stop offset="1" stop-color="#D2A91D" stop-opacity="0.02"/>
</linearGradient>
<linearGradient id="paint1_linear_577:18211" x1="2011.11" y1="1429.59" x2="2608.44" y2="1700.07" gradientUnits="userSpaceOnUse">
<stop stop-color="#D2A91D" stop-opacity="0.02"/>
<stop offset="0.17" stop-color="#FFEB47"/>
<stop offset="0.29" stop-color="white"/>
<stop offset="0.41" stop-color="#FFEB47"/>
<stop offset="0.6" stop-color="#D2A91D" stop-opacity="0.02"/>
<stop offset="0.75" stop-color="#FFEB47"/>
<stop offset="0.85" stop-color="white"/>
<stop offset="0.93" stop-color="#FFEB47"/>
<stop offset="1" stop-color="#D2A91D" stop-opacity="0.02"/>
</linearGradient>
<linearGradient id="paint2_linear_577:18211" x1="2060.17" y1="1369.61" x2="2659.44" y2="1640.34" gradientUnits="userSpaceOnUse">
<stop stop-color="#D2A91D" stop-opacity="0.02"/>
<stop offset="0.17" stop-color="#FFEB47"/>
<stop offset="0.29" stop-color="white"/>
<stop offset="0.41" stop-color="#FFEB47"/>
<stop offset="0.6" stop-color="#D2A91D" stop-opacity="0.02"/>
<stop offset="0.75" stop-color="#FFEB47"/>
<stop offset="0.85" stop-color="white"/>
<stop offset="0.93" stop-color="#FFEB47"/>
<stop offset="1" stop-color="#D2A91D" stop-opacity="0.02"/>
</linearGradient>
<linearGradient id="paint3_linear_577:18211" x1="116" y1="66" x2="180.485" y2="139.513" gradientUnits="userSpaceOnUse">
<stop stop-color="#AFAFAF" stop-opacity="0.02"/>
<stop offset="0.17" stop-color="#E0E0E0"/>
<stop offset="0.29" stop-color="white"/>
<stop offset="0.41" stop-color="#DCDCDC"/>
<stop offset="0.6" stop-color="#DBDBDB" stop-opacity="0.02"/>
<stop offset="0.75" stop-color="#E3E3E3"/>
<stop offset="0.85" stop-color="white"/>
<stop offset="0.93" stop-color="#AFAFAF"/>
<stop offset="1" stop-color="#B4B4B4" stop-opacity="0.02"/>
</linearGradient>
<linearGradient id="paint4_linear_577:18211" x1="1369.34" y1="1429.59" x2="1966.67" y2="1700.07" gradientUnits="userSpaceOnUse">
<stop stop-color="#D2A91D" stop-opacity="0.02"/>
<stop offset="0.17" stop-color="#FFEB47"/>
<stop offset="0.29" stop-color="white"/>
<stop offset="0.41" stop-color="#FFEB47"/>
<stop offset="0.6" stop-color="#D2A91D" stop-opacity="0.02"/>
<stop offset="0.75" stop-color="#FFEB47"/>
<stop offset="0.85" stop-color="white"/>
<stop offset="0.93" stop-color="#FFEB47"/>
<stop offset="1" stop-color="#D2A91D" stop-opacity="0.02"/>
</linearGradient>
<linearGradient id="paint5_linear_577:18211" x1="1416.77" y1="1369.61" x2="2016.05" y2="1640.34" gradientUnits="userSpaceOnUse">
<stop stop-color="#D2A91D" stop-opacity="0.02"/>
<stop offset="0.17" stop-color="#FFEB47"/>
<stop offset="0.29" stop-color="white"/>
<stop offset="0.41" stop-color="#FFEB47"/>
<stop offset="0.6" stop-color="#D2A91D" stop-opacity="0.02"/>
<stop offset="0.75" stop-color="#FFEB47"/>
<stop offset="0.85" stop-color="white"/>
<stop offset="0.93" stop-color="#FFEB47"/>
<stop offset="1" stop-color="#D2A91D" stop-opacity="0.02"/>
</linearGradient>
<linearGradient id="paint6_linear_577:18211" x1="63.5" y1="63" x2="115.002" y2="125.499" gradientUnits="userSpaceOnUse">
<stop offset="0.102073" stop-color="#D2741D" stop-opacity="0.02"/>
<stop offset="0.17" stop-color="#FF9F47"/>
<stop offset="0.29" stop-color="#F4BA83"/>
<stop offset="0.41" stop-color="#E9A745"/>
<stop offset="0.532921" stop-color="#D99C42" stop-opacity="0.02"/>
<stop offset="0.749801" stop-color="#FFC047"/>
<stop offset="0.875096" stop-color="#FFE2C8"/>
<stop offset="1" stop-color="#CE7A3D" stop-opacity="0.02"/>
</linearGradient>
<linearGradient id="paint7_linear_577:18211" x1="760.396" y1="1429.59" x2="1357.57" y2="1700.07" gradientUnits="userSpaceOnUse">
<stop stop-color="#D2A91D" stop-opacity="0.02"/>
<stop offset="0.17" stop-color="#FFEB47"/>
<stop offset="0.29" stop-color="white"/>
<stop offset="0.41" stop-color="#FFEB47"/>
<stop offset="0.6" stop-color="#D2A91D" stop-opacity="0.02"/>
<stop offset="0.75" stop-color="#FFEB47"/>
<stop offset="0.85" stop-color="white"/>
<stop offset="0.93" stop-color="#FFEB47"/>
<stop offset="1" stop-color="#D2A91D" stop-opacity="0.02"/>
</linearGradient>
<linearGradient id="paint8_linear_577:18211" x1="806.06" y1="1369.61" x2="1405.33" y2="1640.34" gradientUnits="userSpaceOnUse">
<stop stop-color="#D2A91D" stop-opacity="0.02"/>
<stop offset="0.17" stop-color="#FFEB47"/>
<stop offset="0.29" stop-color="white"/>
<stop offset="0.41" stop-color="#FFEB47"/>
<stop offset="0.6" stop-color="#D2A91D" stop-opacity="0.02"/>
<stop offset="0.75" stop-color="#FFEB47"/>
<stop offset="0.85" stop-color="white"/>
<stop offset="0.93" stop-color="#FFEB47"/>
<stop offset="1" stop-color="#D2A91D" stop-opacity="0.02"/>
</linearGradient>
<linearGradient id="paint9_linear_577:18211" x1="44" y1="52.5" x2="94" y2="114.5" gradientUnits="userSpaceOnUse">
<stop stop-color="#B5B5B5" stop-opacity="0.02"/>
<stop offset="0.17" stop-color="white"/>
<stop offset="0.29" stop-color="#FBFBFB"/>
<stop offset="0.41" stop-color="white"/>
<stop offset="0.494234" stop-color="#D0D0D0" stop-opacity="0.425715"/>
<stop offset="0.6" stop-color="#D8D8D8" stop-opacity="0.02"/>
<stop offset="0.75" stop-color="white"/>
<stop offset="0.85" stop-color="white"/>
<stop offset="0.93" stop-color="white"/>
<stop offset="1" stop-color="#D3D3D3" stop-opacity="0.02"/>
</linearGradient>
</defs>
</svg>
