<svg width="159" height="176" viewBox="0 0 159 176" fill="none" xmlns="http://www.w3.org/2000/svg">
<g filter="url(#filter0_d_577:18183)">
<path d="M115.048 62.258L79.4626 58.6593L43.9467 62.258L77.4623 31.0921C78.017 30.5813 78.7435 30.2979 79.4975 30.2979C80.2516 30.2979 80.978 30.5813 81.5328 31.0921L115.048 62.258ZM79.4626 57.9605L113.066 61.3496L81.0436 31.5987C80.6177 31.2058 80.0595 30.9877 79.4801 30.9877C78.9006 30.9877 78.3424 31.2058 77.9165 31.5987L45.9295 61.3584L79.4626 57.9605Z" fill="#293A77"/>
<path d="M113.494 48.9546H45.4928V118.344H113.494V48.9546Z" fill="#9958FF"/>
<path d="M80.3974 75.0371L62.7005 75.0895L62.587 75.4826L60.6304 82.4268L69.4963 83.6759L66.902 93.3366H74.4926H75.0167V84.9075V84.4533L77.2441 84.759L77.6459 84.8201L80.3974 75.0371Z" fill="#428A7A"/>
<path d="M89.1409 75.4302L88.4771 82.8286L87.9704 82.9946L85.5771 83.7982V75.1419H82.3714L82.2666 75.535L77.4624 93.424H85.053H85.5771V86.6894V86.2352L88.1451 86.5584L87.5337 93.424H90.3551H90.7481L97.2905 75.0371H89.1758L89.1409 75.4302Z" fill="#428A7A"/>
<path d="M56.1757 82.5578C56.2019 89.065 58.7867 95.3008 63.3718 99.9184C67.9568 104.536 74.1742 107.165 80.6811 107.237C87.188 107.309 93.4622 104.819 98.1487 100.305C102.835 95.79 105.558 89.6131 105.729 83.1081C105.62 77.6482 103.811 72.3583 100.554 67.9746C97.2979 63.5909 92.7557 60.3316 87.56 58.6505C83.8785 57.6326 80.0116 57.4796 76.2612 58.2033C72.5108 58.927 68.9785 60.5078 65.94 62.8224C62.9016 65.1369 60.4393 68.1225 58.7455 71.546C57.0517 74.9695 56.1722 78.7382 56.1757 82.5578ZM75.0168 84.4532V93.3366H66.9021L69.5225 83.6671L60.6304 82.418L62.5871 75.4301L62.6919 75.0458L80.3974 74.9934L77.6372 84.8201L77.2354 84.7677L75.0168 84.4532ZM82.3628 75.1506H85.5772V83.8068L87.9706 83.0032L88.4772 82.8373L89.141 75.4301V75.0458H97.2906L90.7395 93.389H87.5338L88.1453 86.5234L85.5772 86.2002V93.389H77.4625L82.2667 75.5L82.3628 75.1506Z" fill="#FFEB47"/>
<path d="M80.9652 107.338C77.431 107.336 73.9383 106.577 70.7215 105.114C67.5046 103.65 64.6381 101.515 62.3141 98.8529C59.9901 96.1903 58.2626 93.0615 57.2473 89.6763C56.2321 86.2911 55.9527 82.728 56.4278 79.2259C56.903 75.7239 58.1217 72.364 60.0022 69.3717C61.8827 66.3794 64.3815 63.824 67.3309 61.8769C70.2803 59.9298 73.6121 58.6361 77.1026 58.0826C80.5931 57.5291 84.1616 57.7286 87.5687 58.6678C82.2958 56.9659 76.6195 56.9763 71.3528 58.6974C66.0861 60.4186 61.4992 63.7623 58.2489 68.2496C54.9985 72.7369 53.2516 78.1376 53.2582 83.6784C53.2648 89.2192 55.0246 94.6158 58.2856 99.0954C61.5466 103.575 66.1415 106.908 71.4122 108.616C76.683 110.325 82.3593 110.322 87.6282 108.607C92.897 106.893 97.4883 103.555 100.744 99.0719C104 94.5888 105.754 89.1903 105.755 83.6495C105.755 83.466 105.755 83.2826 105.755 83.0992C105.613 89.5787 102.939 95.7448 98.3047 100.276C93.6708 104.807 87.4462 107.342 80.9652 107.338Z" fill="#CB9E16"/>
<path opacity="0.81" d="M105.737 83.0995C105.664 76.2618 102.888 69.731 98.0142 64.9345C93.1405 60.138 86.5663 57.466 79.7284 57.5023C72.8904 57.5387 66.345 60.2805 61.5226 65.1286C56.7003 69.9766 53.9933 76.5366 53.9933 83.3746C53.9933 90.2126 56.7003 96.7726 61.5226 101.621C66.345 106.469 72.8904 109.211 79.7284 109.247C86.5663 109.283 93.1405 106.611 98.0142 101.815C102.888 97.0182 105.664 90.4874 105.737 83.6498C105.746 83.4663 105.737 83.2916 105.737 83.0995Z" fill="url(#paint0_linear_577:18183)"/>
<path d="M74.274 85.3707V93.3369H74.4924H75.0165V85.0126L74.274 84.9165V85.3707Z" fill="#B07320"/>
<path d="M62.5869 75.4826L62.5695 75.5525L79.6548 75.5001L77.0519 84.7328L77.244 84.759L77.6458 84.8201L80.3973 75.0371L62.7005 75.0895L62.5869 75.4826Z" fill="#B07320"/>
<path d="M84.8346 87.1525V93.4241H85.053H85.5771V86.7943L84.8346 86.6982V87.1525Z" fill="#B07320"/>
<path d="M85.5771 75.1421H82.3714L82.2666 75.5352L82.2404 75.605H84.8346V84.2613L87.228 83.4577L87.7346 83.2917L87.7608 83.0646L85.5771 83.7983V75.1421Z" fill="#B07320"/>
<path d="M89.1758 75.0371L89.1408 75.4302L89.1321 75.5001H96.548L90.1628 93.424H90.355H90.748L97.2904 75.0371H89.1758Z" fill="#B07320"/>
<path d="M75.0167 84.4532L77.0519 84.7327L79.6549 75.5L62.5695 75.5524L60.6304 82.4267L69.4963 83.6758L66.902 93.3366H74.2742V85.3704V84.9162L75.0167 85.0123V84.9074V84.4532Z" fill="#CB9E16"/>
<path d="M89.1322 75.5L88.4771 82.8285L87.9704 82.9945L87.7608 83.0644L87.7346 83.2915L87.228 83.4575L84.8346 84.2611V75.6048H82.2404L77.4624 93.4239H84.8346V87.1523V86.6981L85.5771 86.7942V86.6894V86.2351L88.1451 86.5583L87.5337 93.4239H90.1629L96.5481 75.5H89.1322Z" fill="#CB9E16"/>
<g opacity="0.66">
<path opacity="0.66" d="M62.5695 75.5524L60.6304 82.4267L69.4963 83.6758L66.902 93.3366H74.2742V85.3704V84.9162L75.0167 85.0123V84.9074V84.4532L77.0519 84.7327L79.6549 75.5L62.5695 75.5524Z" fill="url(#paint1_linear_577:18183)"/>
<path opacity="0.66" d="M89.1323 75.5L88.4772 82.8285L87.9706 82.9945L87.7609 83.0644L87.7347 83.2915L87.2281 83.4575L84.8347 84.2611V75.6048H82.2405L77.4625 93.4239H84.8347V87.1523V86.6981L85.5772 86.7942V86.6894V86.2351L88.1453 86.5583L87.5338 93.4239H90.163L96.5482 75.5H89.1323Z" fill="url(#paint2_linear_577:18183)"/>
</g>
<path d="M75.3923 84.8727L77.5935 85.1435H77.8817L77.9516 84.8727C78.4058 83.1956 78.8251 81.5098 79.2269 79.8502L80.4235 74.9761L71.6887 74.749C68.7101 74.6966 65.6966 74.6617 62.7005 74.7053H62.4385L62.3686 74.9499C62.0367 76.1728 61.731 77.4131 61.4078 78.6448L60.4644 82.4182L60.412 82.6104H60.6042C62.0891 82.7851 63.5711 82.9772 65.0502 83.1869L67.2689 83.5188L69.2953 83.8245L67.9414 88.4365C67.4698 90.035 67.0243 91.6422 66.5613 93.2494L66.4303 93.6949H66.902L75.0167 93.7648H75.4447V93.3368C75.4447 91.8519 75.4447 90.3757 75.4447 88.8907C75.433 87.5514 75.4156 86.212 75.3923 84.8727ZM68.4655 88.585L69.6884 83.7197L69.7321 83.5363H69.5486C68.8062 83.4489 68.0637 83.3441 67.33 83.248L65.1113 82.951C63.6963 82.753 62.2842 82.5405 60.8749 82.3134L61.9493 78.8194C62.2987 77.6839 62.6481 76.5571 62.9888 75.4216C65.8101 75.4216 68.6053 75.4216 71.4441 75.3255L80.3973 75.046L78.8076 79.9724C78.3272 81.4836 77.8555 82.9685 77.41 84.4534L75.0691 84.0866L74.6585 84.0254V84.4534C74.6585 85.9384 74.6585 87.4145 74.6061 88.8995C74.6061 90.2359 74.6061 91.5811 74.6061 92.9175L67.3824 92.9787C67.7318 91.5112 68.1161 90.0525 68.4655 88.5763V88.585Z" fill="#B07320"/>
<path d="M97.2906 74.9148H93.2289L89.1672 74.8537H88.975V75.0458C88.7042 77.5615 88.4335 80.0771 88.1802 82.6015L85.9528 83.2916L86.0052 75.1419V74.7227H82.0395L81.9522 75.0458L80.7381 79.6229C80.3595 81.137 79.9665 82.651 79.5589 84.165C78.7814 87.2222 78.0739 90.2794 77.3227 93.3628L77.2791 93.555H77.4712C78.7378 93.555 80.0043 93.4939 81.2709 93.4764C82.5374 93.4589 83.804 93.4764 85.0705 93.4764H85.6383C85.6383 92.2797 85.6383 91.083 85.6383 89.8776C85.6383 88.6722 85.682 87.5891 85.7082 86.4536L87.9094 86.7855L87.5425 90.0174C87.4144 91.182 87.295 92.3234 87.1844 93.4415V93.8171H87.5687C88.6431 93.8171 89.7088 93.8171 90.7831 93.8171H91.0365L91.1238 93.5812C92.2244 90.5153 93.2376 87.4668 94.2771 84.3485C94.7924 82.8111 95.2991 81.2563 95.8319 79.7277C96.3647 78.1991 96.8975 76.6531 97.4478 75.1245L97.509 74.9585L97.2906 74.9148ZM95.5436 79.588C94.9846 81.1166 94.3994 82.6364 93.7967 84.1563C92.6786 87.1174 91.5431 90.0785 90.4862 93.0659H87.8657C87.9472 92.0468 88.0229 91.0277 88.0928 90.0087L88.3112 86.5671V86.3662H88.119L85.5422 86.1042H85.3763V86.2614C85.3763 87.4581 85.4374 88.6548 85.4549 89.8602C85.4724 91.0656 85.4549 92.2273 85.4549 93.4152H84.9745C83.7079 93.4152 82.4414 93.4152 81.1748 93.4152C79.9082 93.4152 78.7727 93.3716 77.576 93.3454C78.4495 90.3755 79.323 87.4231 80.1965 84.4446C80.6274 82.9247 81.0496 81.4048 81.4631 79.885L82.6161 75.6398H85.0793L85.1317 83.8681V84.3834L85.6121 84.2174L88.5033 83.2129L88.713 83.1431V82.9334C88.9139 80.4003 89.0886 77.8585 89.272 75.3254L93.2726 75.1856H97.1509C96.6093 76.6531 96.0648 78.1205 95.5174 79.588H95.5436Z" fill="#B07320"/>
<path d="M105.694 83.108C105.465 76.219 102.532 69.6973 97.5288 64.9559C92.5259 60.2145 85.8562 57.6353 78.9649 57.7769C74.6924 57.8192 70.4978 58.9258 66.7604 60.9966C63.0231 63.0674 59.8608 66.0371 57.5596 69.6372C55.2584 73.2373 53.8908 77.3542 53.5805 81.6156C53.2703 85.877 54.0271 90.1486 55.7826 94.044C57.1865 97.1348 59.1736 99.9256 61.6349 102.264C65.3485 105.811 70.0276 108.183 75.0845 109.081C80.1415 109.978 85.3509 109.362 90.0588 107.309C94.7666 105.256 98.763 101.858 101.546 97.5414C104.329 93.2249 105.775 88.1823 105.702 83.0468L105.694 83.108ZM105.781 83.108C105.934 90.0958 103.373 96.8709 98.6358 102.01C96.2611 104.579 93.3906 106.641 90.1974 108.07C87.0043 109.499 83.5546 110.266 80.0567 110.326C76.5524 110.409 73.0665 109.794 69.802 108.518C66.5495 107.23 63.5818 105.316 61.0671 102.884C58.5506 100.454 56.5437 97.5477 55.1639 94.3336C53.7841 91.1195 53.059 87.6626 53.0311 84.1649C53.0017 78.9564 54.4751 73.85 57.2746 69.4578C60.0742 65.0656 64.0811 61.574 68.815 59.4016C72.0034 57.9594 75.449 57.1723 78.9474 57.0868C82.4364 56.982 85.9104 57.5859 89.1594 58.8621C92.4083 60.1382 95.3647 62.0601 97.8496 64.5115C100.307 66.9635 102.273 69.8632 103.641 73.0542C104.974 76.2398 105.7 79.6468 105.781 83.0993V83.108Z" fill="#752714"/>
<path d="M116.184 92.2448C116.83 90.1484 117.887 90.8384 117.887 89.5195C117.813 88.9693 117.622 88.4412 117.329 87.97C117.035 87.4987 116.645 87.095 116.184 86.7855V85.912C116.662 85.173 116.961 84.3325 117.057 83.4575C117.008 82.5644 116.705 81.7039 116.184 80.9768V80.837C117.363 81.6581 119.39 80.3828 118.053 79.1425C117.057 78.2166 116.472 74.3033 116.184 71.6742V55.9514C116.743 51.4617 119.433 50.8153 118.804 49.3741C118.755 49.2556 118.69 49.144 118.612 49.0421C117.826 48.0027 116.149 49.0421 116.149 49.0421C116.542 46.3518 118.682 46.9807 118.604 44.3777C118.604 44.2904 118.604 44.2205 118.604 44.1419C118.315 41.7747 115.066 41.6 114.044 43.5304C113.776 44.0198 113.381 44.4273 112.9 44.7096C112.961 44.2642 112.786 43.8362 111.834 43.775C111.363 43.7709 110.895 43.8538 110.454 44.0196C110.454 42.5085 108.288 42.4036 107.833 43.5304C107.309 44.9542 100.313 45.522 100.313 45.522H100.444H58.5165H58.6475C58.6475 45.522 53.4677 45.094 51.6596 44.072C51.4156 43.9593 51.2159 43.7688 51.0918 43.5304C50.5677 42.1241 47.3096 42.657 48.9693 45.391L49.0217 45.4783C49.0217 45.4783 45.9732 45.4783 44.9163 43.5304L44.8377 43.4082C43.8506 41.7922 41.2127 41.7922 40.4702 43.513C40.3592 43.791 40.3 44.0871 40.2956 44.3865C40.2082 47.0069 42.357 46.3605 42.75 49.0509C42.75 49.0509 41.0642 48.0114 40.2868 49.0509C40.2087 49.1527 40.1441 49.2643 40.0946 49.3828C39.5007 50.824 42.191 51.4704 42.7151 55.9601V71.6829C42.4269 74.3033 41.8416 78.2253 40.8458 79.1512C39.5094 80.3915 41.5359 81.6668 42.7151 80.8458V80.9855C42.1942 81.7127 41.8912 82.5731 41.8416 83.4662C41.938 84.3412 42.2371 85.1816 42.7151 85.9207V86.7942C42.2491 87.1085 41.8559 87.5191 41.5621 87.9982C41.2683 88.4774 41.0806 89.014 41.0118 89.5719C41.0118 90.8909 42.0687 90.2008 42.7151 92.2972V111.339C42.1561 115.829 39.4657 116.475 40.0946 117.917C40.1638 118.093 40.2678 118.253 40.4004 118.388C41.0118 118.991 42.0163 118.615 42.488 118.388H42.7238C42.2784 120.913 40.2169 120.362 40.3043 122.913C40.3137 123.213 40.3789 123.51 40.4965 123.786C41.2127 125.455 43.7371 125.481 44.7591 123.961C44.8064 123.893 44.8501 123.824 44.8901 123.751C45.2506 123.209 45.7312 122.756 46.2947 122.429C46.8581 122.102 47.4894 121.909 48.1395 121.865H48.9518V121.926C47.3533 124.651 50.5765 125.149 51.0918 123.743C51.2074 123.514 51.3946 123.33 51.6247 123.219C52.8737 122.476 55.9047 122.048 57.5382 121.865H101.387C103.37 122.092 107.432 122.677 107.833 123.751C108.235 124.826 110.384 124.773 110.454 123.306C110.897 123.475 111.368 123.561 111.843 123.559C112.83 123.559 112.987 123.044 112.908 122.581C113.393 122.862 113.792 123.269 114.061 123.76C115.075 125.673 118.307 125.507 118.621 123.184C118.626 123.091 118.626 122.997 118.621 122.904C118.7 120.354 116.647 120.904 116.201 118.379H116.437C116.909 118.607 117.914 118.982 118.525 118.379C118.658 118.244 118.762 118.084 118.831 117.908C119.425 116.467 116.734 115.82 116.21 111.33L116.184 92.2448ZM46.375 118.345V48.9548H112.611V118.345H46.375Z" fill="#293A77"/>
<path d="M79.4976 34.0704C80.6216 34.0704 81.5328 33.1592 81.5328 32.0352C81.5328 30.9112 80.6216 30 79.4976 30C78.3736 30 77.4624 30.9112 77.4624 32.0352C77.4624 33.1592 78.3736 34.0704 79.4976 34.0704Z" fill="#F1D007"/>
</g>
<defs>
<filter id="filter0_d_577:18183" x="0" y="0" width="158.916" height="175.073" filterUnits="userSpaceOnUse" color-interpolation-filters="sRGB">
<feFlood flood-opacity="0" result="BackgroundImageFix"/>
<feColorMatrix in="SourceAlpha" type="matrix" values="0 0 0 0 0 0 0 0 0 0 0 0 0 0 0 0 0 0 127 0" result="hardAlpha"/>
<feOffset dy="10"/>
<feGaussianBlur stdDeviation="20"/>
<feComposite in2="hardAlpha" operator="out"/>
<feColorMatrix type="matrix" values="0 0 0 0 0 0 0 0 0 0 0 0 0 0 0 0 0 0 0.15 0"/>
<feBlend mode="normal" in2="BackgroundImageFix" result="effect1_dropShadow_577:18183"/>
<feBlend mode="normal" in="SourceGraphic" in2="effect1_dropShadow_577:18183" result="shape"/>
</filter>
<linearGradient id="paint0_linear_577:18183" x1="41.1254" y1="55.6982" x2="138.327" y2="126.52" gradientUnits="userSpaceOnUse">
<stop stop-color="#D2A91D" stop-opacity="0.02"/>
<stop offset="0.17" stop-color="#FFEB47"/>
<stop offset="0.29" stop-color="white"/>
<stop offset="0.41" stop-color="#FFEB47"/>
<stop offset="0.6" stop-color="#D2A91D" stop-opacity="0.02"/>
<stop offset="0.75" stop-color="#FFEB47"/>
<stop offset="0.85" stop-color="white"/>
<stop offset="0.93" stop-color="#FFEB47"/>
<stop offset="1" stop-color="#D2A91D" stop-opacity="0.02"/>
</linearGradient>
<linearGradient id="paint1_linear_577:18183" x1="1041.53" y1="1652.61" x2="1943.57" y2="2060.83" gradientUnits="userSpaceOnUse">
<stop stop-color="#D2A91D" stop-opacity="0.02"/>
<stop offset="0.17" stop-color="#FFEB47"/>
<stop offset="0.29" stop-color="white"/>
<stop offset="0.41" stop-color="#FFEB47"/>
<stop offset="0.6" stop-color="#D2A91D" stop-opacity="0.02"/>
<stop offset="0.75" stop-color="#FFEB47"/>
<stop offset="0.85" stop-color="white"/>
<stop offset="0.93" stop-color="#FFEB47"/>
<stop offset="1" stop-color="#D2A91D" stop-opacity="0.02"/>
</linearGradient>
<linearGradient id="paint2_linear_577:18183" x1="1106.94" y1="1559.96" x2="2012.41" y2="1968.84" gradientUnits="userSpaceOnUse">
<stop stop-color="#D2A91D" stop-opacity="0.02"/>
<stop offset="0.17" stop-color="#FFEB47"/>
<stop offset="0.29" stop-color="white"/>
<stop offset="0.41" stop-color="#FFEB47"/>
<stop offset="0.6" stop-color="#D2A91D" stop-opacity="0.02"/>
<stop offset="0.75" stop-color="#FFEB47"/>
<stop offset="0.85" stop-color="white"/>
<stop offset="0.93" stop-color="#FFEB47"/>
<stop offset="1" stop-color="#D2A91D" stop-opacity="0.02"/>
</linearGradient>
</defs>
</svg>
