<svg width="222" height="186" viewBox="0 0 222 186" fill="none" xmlns="http://www.w3.org/2000/svg">
<g filter="url(#filter0_d_577:19595)">
<path d="M54.7949 30.1621L55.1418 30.3009L54.7949 30.1621Z" fill="#C7A3FF"/>
<path d="M73.0577 69.3166C72.8988 69.2259 72.734 69.1461 72.5643 69.0776C72.5451 67.8092 72.3558 66.5491 72.0016 65.331C70.9685 61.7771 72.3562 58.7397 73.5819 56.08C74.5687 53.9215 75.4244 52.0558 74.5687 50.5371C74.2309 49.8873 73.7115 49.3497 73.0737 48.9897C72.4359 48.6297 71.7072 48.463 70.9763 48.5096C68.6635 48.6407 66.4433 50.6219 65.0788 53.8212C63.0358 58.5315 62.8739 61.7 62.8817 62.8255C62.6195 62.6174 62.2341 62.3244 61.7947 62.0546C61.313 61.721 60.7959 61.4417 60.2528 61.222C60.3389 60.9742 60.3549 60.7074 60.2991 60.4511C60.1295 59.6031 59.3277 58.7397 57.9093 57.884C55.9065 56.7078 53.6985 55.923 51.4027 55.5712C48.5504 55.178 46.4072 55.8179 45.2354 57.4214C43.046 60.3509 43.524 62.0469 43.7938 62.5634C43.1154 62.972 40.8875 64.6294 41.3732 68.3221C41.4117 68.6151 41.4657 68.9157 41.5428 69.2318C41.1573 69.7252 39.23 72.354 40.7718 75.2295C41.7124 77.0026 44.9965 79.4002 48.242 81.2889C50.9325 82.8307 53.5999 84.0796 54.8719 84.2955L55.1648 84.3494C56.5895 84.6415 58.0442 84.7605 59.4973 84.7041C59.5702 85.4786 59.8158 86.2269 60.216 86.894C60.6163 87.561 61.161 88.1299 61.8101 88.5586C65.0017 90.4165 70.1128 87.6104 73.2119 82.2988C76.311 76.9872 76.257 71.1745 73.0577 69.3166ZM41.8511 69.4631L41.7432 69.2858L41.8511 69.4631Z" fill="#C7A3FF"/>
<path d="M54.8025 30.1311C54.8465 30.0763 54.9017 30.0317 54.9644 30C55.0029 30 55.0415 30 55.0569 30C55.0723 30 55.0569 30.1311 55.0569 30.1619C55.0569 30.1927 55.1186 30.1619 55.1648 30.1619L55.0646 30.4394C55.0359 30.4706 54.9989 30.4929 54.9579 30.5038C54.917 30.5147 54.8738 30.5138 54.8333 30.5011C54.8023 30.4722 54.7807 30.4346 54.7717 30.3932C54.7689 30.365 54.7689 30.3366 54.7717 30.3084C54.7706 30.2904 54.7706 30.2724 54.7717 30.2544V30.2081V30.1542L54.8025 30.1311ZM54.8025 30.1773V30.1233H54.841L54.9104 30.0694C54.9482 30.0585 54.9883 30.0585 55.0261 30.0694C55.08 30.0694 55.1263 30.1465 55.1417 30.2698L55.0415 30.5473C55.0415 30.4934 55.0415 30.4471 54.9721 30.4548C54.9027 30.4625 54.8719 30.5242 54.8333 30.5473C54.7948 30.5705 54.7639 30.5473 54.7485 30.4934C54.7311 30.4428 54.7248 30.3891 54.7301 30.3358C54.7354 30.2826 54.7522 30.2311 54.7794 30.185L54.8025 30.1773Z" fill="#9958FF"/>
<path d="M73.0576 69.3398L72.5642 69.1008C72.5511 68.2333 72.4582 67.3688 72.2867 66.5182C72.1325 65.6779 71.8087 64.8608 71.7008 63.9974C71.5003 62.2663 71.7116 60.5124 72.3175 58.8785C72.8649 57.2364 73.682 55.6946 74.291 54.0988C74.6208 53.3272 74.7811 52.4939 74.7613 51.655C74.6511 50.8423 74.2415 50.1001 73.6126 49.5735C72.9999 49.0271 72.2132 48.7157 71.3924 48.6947C70.9845 48.6855 70.5773 48.7322 70.1821 48.8335C69.785 48.9461 69.4022 49.1039 69.0411 49.3037C67.6012 50.1891 66.4475 51.4714 65.7185 52.9964C64.9807 54.5374 64.3697 56.1359 63.8914 57.7761C63.3866 59.4146 63.0989 61.1122 63.0357 62.8256V63.1416L62.7813 62.9489L61.7174 62.178L61.6095 62.1009L61.6712 61.9776L61.7174 62.178C61.4707 62.0084 61.2395 61.8619 60.9928 61.7154C60.7454 61.573 60.4877 61.4493 60.2219 61.3454L60.0985 61.2992L60.1448 61.1835C60.2142 60.9584 60.233 60.7206 60.1997 60.4874C60.1663 60.2541 60.0818 60.0311 59.952 59.8344C59.701 59.4223 59.3802 59.0571 59.0038 58.7551C58.2365 58.1423 57.3978 57.6246 56.5061 57.2133C54.7405 56.3414 52.8358 55.7856 50.8784 55.5713C49.9061 55.4682 48.9234 55.5308 47.972 55.7563C47.0247 55.9744 46.1683 56.4807 45.5205 57.2056C44.9049 57.9608 44.4036 58.8024 44.0327 59.7034C43.8298 60.1321 43.7143 60.597 43.6932 61.0709C43.672 61.5447 43.7455 62.0181 43.9093 62.4632L43.9633 62.5866L43.8477 62.656C42.9403 63.2388 42.2412 64.0944 41.851 65.0998C41.6583 65.5937 41.5388 66.1131 41.4964 66.6416C41.4538 67.1788 41.4693 67.719 41.5426 68.2528V68.4532H41.3499L41.5272 68.2374L41.7353 69.1856V69.2781L41.6814 69.3552C40.9905 70.2493 40.5585 71.316 40.4325 72.4389C40.3817 72.9952 40.4287 73.5562 40.5713 74.0963C40.7264 74.6323 40.9714 75.138 41.2959 75.5919C42.0118 76.4938 42.8409 77.2996 43.7628 77.9894C44.6725 78.6987 45.6362 79.3617 46.6152 79.9861C48.5843 81.2408 50.646 82.3439 52.7825 83.2856C53.308 83.5159 53.8459 83.7166 54.3938 83.8869C54.9476 84.0276 55.5086 84.1382 56.0744 84.2184C57.2096 84.4116 58.3624 84.4814 59.5126 84.4266H59.767V84.6733C59.9077 85.9936 60.5441 87.2114 61.5478 88.0807C62.0664 88.4747 62.6717 88.739 63.3132 88.8516C63.9641 88.953 64.6282 88.9321 65.2714 88.79C66.5818 88.4618 67.8102 87.866 68.8792 87.04C69.9704 86.2195 70.9477 85.2577 71.7856 84.1799C73.4969 82.023 74.675 79.4926 75.2239 76.7945C75.4996 75.4439 75.4996 74.0516 75.2239 72.701C75.0701 72.0292 74.8098 71.3863 74.4529 70.7968C74.0966 70.2175 73.6209 69.7208 73.0576 69.3398ZM73.0576 69.2935C73.6703 69.6528 74.1967 70.1423 74.5994 70.7274C74.9574 71.3247 75.2176 71.9753 75.3703 72.6547C75.6398 74.0215 75.6398 75.4277 75.3703 76.7945C74.8732 79.5427 73.7377 82.1357 72.0554 84.3649C71.2247 85.4922 70.2444 86.5011 69.1413 87.3638C68.0205 88.2425 66.7287 88.8779 65.3484 89.2294C64.6435 89.394 63.914 89.4254 63.1976 89.3219C62.4701 89.2077 61.7818 88.9165 61.1932 88.4739C60.0766 87.5234 59.3629 86.1841 59.1966 84.7272L59.4818 84.9585C58.2931 85.0174 57.1015 84.9476 55.9279 84.7504C55.3361 84.6671 54.7493 84.5513 54.1702 84.4034C53.6155 84.2428 53.07 84.0524 52.5359 83.833C50.3949 82.8735 48.3327 81.7471 46.3685 80.4641C45.3818 79.8242 44.4181 79.1535 43.4853 78.4212C42.5334 77.7014 41.6784 76.8619 40.9413 75.9234C40.2166 74.9178 39.8923 73.6783 40.0316 72.4466C40.1796 71.2371 40.6599 70.0923 41.4193 69.1393V69.309L41.2497 68.353V68.1526H41.4578L41.2805 68.3684C41.2194 67.8048 41.2194 67.2361 41.2805 66.6724C41.3324 66.1058 41.4675 65.5499 41.6814 65.0227C42.11 63.9594 42.866 63.0602 43.8399 62.4555L43.786 62.6483C43.5777 62.171 43.4682 61.6565 43.4643 61.1358C43.4603 60.6151 43.5619 60.0989 43.7628 59.6186C44.1485 58.6968 44.6681 57.837 45.3047 57.0668C45.9881 56.3146 46.8875 55.7922 47.8795 55.5713C48.8551 55.3492 49.8613 55.2944 50.8553 55.4094C52.8293 55.644 54.7513 56.2013 56.5446 57.0591C57.4542 57.4683 58.311 57.986 59.0963 58.601C59.4935 58.917 59.8349 59.2975 60.1062 59.7265C60.2564 59.9504 60.3557 60.2045 60.397 60.4709C60.4383 60.7373 60.4206 61.0095 60.3452 61.2683L60.2681 61.0987C60.5337 61.2062 60.7913 61.3325 61.039 61.4765C61.2934 61.6152 61.5478 61.7771 61.8099 61.9313L61.9256 62.0084L61.8562 62.1394L61.8099 61.939L62.9124 62.7099L62.6502 62.8333C62.6808 61.0904 62.94 59.359 63.4212 57.6836C63.8771 56.0058 64.4834 54.3725 65.2328 52.8037C65.9815 51.1844 67.1943 49.824 68.7173 48.8951C69.1338 48.6674 69.5765 48.4913 70.0356 48.3709C70.4767 48.2626 70.9308 48.2159 71.3847 48.2322C72.2948 48.281 73.1593 48.6464 73.8285 49.2652C74.1607 49.5724 74.444 49.9286 74.6688 50.3213C74.8996 50.7218 75.0342 51.1705 75.062 51.6319C75.0681 52.5222 74.8813 53.4032 74.5146 54.2145C73.8593 55.8257 73.019 57.2981 72.4331 58.9479C71.7893 60.5455 71.5484 62.2769 71.7316 63.9896C71.8241 64.8454 72.1402 65.6548 72.2944 66.5105C72.46 67.359 72.5477 68.2209 72.5565 69.0854L73.0576 69.2935Z" fill="#9958FF"/>
<path d="M41.8819 69.4474L41.8126 69.4937C41.7594 69.5195 41.7019 69.5352 41.643 69.54C41.643 69.54 41.5813 69.54 41.643 69.4937C41.7046 69.4474 41.7278 69.4012 41.7278 69.3781C41.7278 69.3549 41.7278 69.3781 41.643 69.3781L41.9128 69.2162C41.9508 69.207 41.9904 69.207 42.0284 69.2162C42.0284 69.2162 42.0747 69.2162 42.0824 69.2162C42.0901 69.2162 42.013 69.3318 41.8819 69.4474ZM41.8357 69.4474C41.6738 69.5091 41.6044 69.5091 41.5582 69.4937C41.5119 69.4783 41.5582 69.4937 41.5582 69.432C41.5694 69.3937 41.5907 69.3591 41.6198 69.3318L41.8896 69.1699C41.8896 69.1699 41.8357 69.247 41.8896 69.247C41.9436 69.247 41.9899 69.247 42.0284 69.247C42.067 69.247 42.0284 69.247 42.0284 69.2933C41.9977 69.3455 41.9586 69.3924 41.9128 69.432L41.7663 69.5631L41.8357 69.4783V69.4474Z" fill="#9958FF"/>
<path d="M43.7627 62.5403C45.301 62 46.9529 61.8673 48.5578 62.1548C50.1749 62.4068 51.7384 62.9279 53.1833 63.6967C53.5456 63.8894 53.9002 64.0667 54.2471 64.2363C54.4165 64.3294 54.5916 64.4118 54.7713 64.483L55.3187 64.668C56.0374 64.9152 56.814 64.9394 57.5466 64.7374C58.275 64.4832 58.895 63.9883 59.3043 63.3343C59.7494 62.6758 60.0779 61.9456 60.2757 61.1758C60.1704 61.9892 59.9086 62.7746 59.5048 63.4885C59.097 64.2327 58.4468 64.8149 57.6623 65.1383C56.851 65.4048 55.9758 65.4048 55.1645 65.1383L54.5555 64.9841C54.3629 64.9109 54.1749 64.826 53.9927 64.7297C53.615 64.5524 53.2218 64.3751 52.9057 64.1901C51.5144 63.4429 50.0247 62.8953 48.4807 62.5634C47.7078 62.3966 46.92 62.3088 46.1294 62.3013C45.3333 62.2723 44.5369 62.3527 43.7627 62.5403Z" fill="#9958FF"/>
<path d="M41.5427 69.2319C43.5002 68.8368 45.5154 68.8211 47.4788 69.1857C48.4759 69.3723 49.4365 69.7185 50.3234 70.211C51.1388 70.7219 52.0281 71.1042 52.96 71.3442C53.3972 71.4768 53.8594 71.5046 54.3093 71.4256C54.7593 71.3466 55.1843 71.1629 55.5502 70.8894C56.2604 70.2818 56.7283 69.439 56.8685 68.515C56.9239 68.0536 56.8574 67.5858 56.6758 67.1582C56.4884 66.7237 56.2276 66.3247 55.9049 65.9787C55.2244 65.2781 54.4453 64.6808 53.5921 64.2056C54.5087 64.5972 55.3551 65.1363 56.0976 65.8014C56.4736 66.1524 56.7842 66.5674 57.015 67.0271C57.246 67.5065 57.347 68.0382 57.3079 68.5689C57.2628 69.0869 57.1133 69.5904 56.8685 70.0491C56.6343 70.5236 56.3065 70.9457 55.9049 71.2903C55.481 71.6183 54.986 71.8422 54.4598 71.944C53.9335 72.0458 53.3908 72.0225 52.8752 71.8762C51.8916 71.619 50.955 71.2079 50.0999 70.6581C49.2623 70.1745 48.3585 69.8161 47.4171 69.5943C46.4589 69.3627 45.4803 69.2259 44.4953 69.1857C43.5113 69.1276 42.5244 69.1431 41.5427 69.2319Z" fill="#9958FF"/>
<path d="M46.438 76.733C47.0203 76.9377 47.6152 77.105 48.2188 77.2341C48.8099 77.3774 49.4147 77.4576 50.0227 77.473C50.6091 77.5049 51.1954 77.4103 51.7419 77.1955C52.2577 76.9736 52.6821 76.5819 52.9445 76.0854C53.2683 75.606 53.454 75.0467 53.4812 74.4688C53.5084 73.8909 53.376 73.3167 53.0987 72.809C52.7736 72.2985 52.3552 71.8538 51.8652 71.4985C51.3734 71.1245 50.8584 70.7821 50.3234 70.4731C51.5255 70.8613 52.5942 71.5799 53.407 72.5469C53.8082 73.0914 54.0023 73.761 53.9544 74.4356C53.8963 75.0905 53.702 75.7259 53.3839 76.3013C53.0733 76.9101 52.5611 77.3924 51.9346 77.6658C51.3161 77.8911 50.6526 77.9651 49.9996 77.8816C48.7462 77.7469 47.5339 77.3559 46.438 76.733Z" fill="#9958FF"/>
<path d="M63.036 62.6482C62.9999 63.5045 63.0231 64.3622 63.1053 65.2153C63.145 65.6386 63.2145 66.0585 63.3135 66.4719C63.3984 66.8748 63.5665 67.2555 63.8069 67.5898L63.8994 67.7054L63.8069 67.8133C63.3286 68.357 62.9195 68.9577 62.5888 69.6018C62.2507 70.2473 62.0067 70.9379 61.8642 71.6525C61.7219 72.3701 61.7219 73.1088 61.8642 73.8265C61.9976 74.5479 62.2586 75.2397 62.6351 75.8694C62.2231 75.2413 61.928 74.544 61.7639 73.811C61.5906 73.0836 61.5618 72.3293 61.6791 71.5908C61.7971 70.851 62.0203 70.1319 62.3421 69.4554C62.662 68.773 63.066 68.1333 63.5448 67.5512V67.7748C63.2615 67.4076 63.0592 66.9846 62.9512 66.5336C62.8306 66.1062 62.7404 65.6709 62.6813 65.2308C62.5639 64.3569 62.5072 63.4759 62.5117 62.5942L63.036 62.6482Z" fill="#9958FF"/>
<path d="M117.385 82.1753C117.47 81.9903 117.555 81.813 117.647 81.628C121.639 73.8357 128.514 67.909 136.809 65.109C145.104 62.3091 154.165 62.8572 162.062 66.6365C169.959 70.4159 176.07 77.1282 179.093 85.3447C182.116 93.5612 181.813 102.633 178.249 110.63C178.038 111.092 177.817 111.555 177.586 112.017C177.493 112.202 177.393 112.38 177.293 112.557C174.96 116.96 171.678 120.788 167.684 123.767C163.689 126.745 159.083 128.798 154.198 129.777C149.313 130.756 144.271 130.637 139.437 129.428C134.604 128.219 130.1 125.951 126.251 122.787C125.809 122.422 125.377 122.05 124.956 121.669C119.605 116.782 115.977 110.296 114.613 103.179C113.248 96.0621 114.221 88.6947 117.385 82.1753Z" fill="#C7A3FF"/>
<path d="M169.029 122.741C163.016 127.724 155.46 130.466 147.651 130.5C139.841 130.534 132.262 127.858 126.206 122.928C120.149 117.997 115.991 111.119 114.44 103.465C112.889 95.811 114.042 87.8561 117.701 80.9572C118.736 78.9945 119.968 77.1424 121.379 75.4297C122.065 74.5586 122.836 73.7569 123.591 72.9551L124.802 71.8141C125.002 71.6214 125.21 71.4441 125.426 71.2668L126.066 70.7349C127.779 69.3284 129.625 68.0916 131.578 67.0422C133.537 66.0079 135.589 65.1588 137.707 64.5059C144.101 62.5547 150.932 62.5547 157.326 64.5059C159.443 65.1426 161.489 65.9951 163.432 67.0499C165.379 68.0872 167.215 69.3192 168.913 70.7272L169.545 71.2591C169.761 71.4364 169.969 71.6137 170.17 71.8064L171.372 72.9397C172.143 73.7106 172.914 74.5355 173.577 75.3989L174.101 76.0388C174.271 76.2546 174.425 76.4859 174.587 76.7017L175.073 77.3724L175.32 77.7039L175.543 78.0508L176.43 79.4462L177.201 80.8878C178.227 82.8368 179.073 84.8753 179.729 86.978C180.362 89.0865 180.798 91.2492 181.032 93.4383C181.145 94.5319 181.202 95.6306 181.202 96.7301C181.202 97.2774 181.202 97.8325 181.202 98.3798C181.202 98.9272 181.14 99.4823 181.078 100.022C180.194 108.887 175.864 117.051 169.021 122.756L169.029 122.741ZM181.047 100.022C181.109 99.4745 181.132 98.9272 181.163 98.3798C181.194 97.8325 181.202 97.2851 181.163 96.7301C181.161 95.6305 181.102 94.5317 180.986 93.4383C180.747 91.2538 180.305 89.0963 179.667 86.9934C179.015 84.8932 178.166 82.8593 177.131 80.9186L176.36 79.4847L175.466 78.1048L175.242 77.7579L174.996 77.4264L174.51 76.7634C174.348 76.5476 174.186 76.324 174.017 76.1004L173.485 75.4683C172.768 74.5817 171.997 73.8108 171.234 73.0399L170.031 71.9221C169.838 71.7293 169.622 71.552 169.407 71.3824L168.774 70.8582C167.061 69.4762 165.212 68.2725 163.255 67.2658C161.323 66.2327 159.29 65.4009 157.188 64.7834C155.088 64.1593 152.932 63.7461 150.75 63.5499C146.389 63.1598 141.994 63.6313 137.815 64.9376C135.728 65.5884 133.708 66.4323 131.778 67.4585C129.865 68.502 128.058 69.7283 126.382 71.1203L125.757 71.6445C125.549 71.8219 125.341 71.9915 125.148 72.1842L123.938 73.3174C123.167 74.0883 122.435 74.8978 121.764 75.7612C120.382 77.4509 119.176 79.2771 118.164 81.2116C115.852 85.5835 114.538 90.4136 114.316 95.3543C114.094 100.295 114.971 105.223 116.882 109.785C118.794 114.346 121.693 118.427 125.371 121.734C129.048 125.04 133.413 127.49 138.152 128.908C142.89 130.325 147.883 130.674 152.773 129.93C157.662 129.186 162.326 127.368 166.428 124.605C170.53 121.843 173.969 118.205 176.497 113.955C179.025 109.704 180.579 104.945 181.047 100.022Z" fill="#9958FF"/>
<path d="M156.679 99.5361H156.64L156.324 99.4436C156.053 99.3657 155.802 99.2304 155.588 99.0469C155.374 98.8633 155.201 98.6359 155.083 98.3799C154.964 98.124 154.902 97.8455 154.901 97.5635C154.9 97.2815 154.959 97.0024 155.075 96.7454C156.216 94.1859 157.835 89.1673 157.758 81.4581C157.762 80.9682 157.948 80.4973 158.281 80.1377C158.614 79.7782 159.069 79.5559 159.557 79.5144C160.046 79.4729 160.532 79.6152 160.92 79.9135C161.309 80.2117 161.572 80.6444 161.659 81.1267C162.067 83.7015 162.491 90.0847 158.991 98.3874C158.808 98.8248 158.474 99.1816 158.049 99.3925C157.624 99.6034 157.138 99.6544 156.679 99.5361Z" fill="#9958FF"/>
<path d="M169.584 103.306H169.545L169.229 103.213C168.958 103.135 168.707 103 168.493 102.816C168.279 102.633 168.106 102.405 167.988 102.149C167.87 101.893 167.808 101.615 167.806 101.333C167.805 101.051 167.864 100.772 167.98 100.515C169.121 97.9555 170.74 92.9368 170.663 85.2277C170.667 84.7377 170.853 84.2668 171.186 83.9073C171.519 83.5477 171.974 83.3254 172.462 83.2839C172.951 83.2424 173.437 83.3847 173.825 83.683C174.214 83.9812 174.477 84.4139 174.564 84.8962C174.972 87.471 175.396 93.8542 171.896 102.157C171.713 102.594 171.379 102.951 170.954 103.162C170.529 103.373 170.043 103.424 169.584 103.306Z" fill="#9958FF"/>
<path d="M145.763 96.2751C145.639 95.745 145.707 95.1884 145.954 94.7033C146.201 94.2182 146.611 93.8356 147.111 93.6229C147.612 93.4102 148.172 93.381 148.693 93.5404C149.213 93.6997 149.661 94.0375 149.956 94.4942C150.159 94.8461 150.262 95.246 150.255 95.6517C150.249 96.0574 150.133 96.4538 149.92 96.799C149.706 97.1442 149.404 97.4253 149.044 97.6127C148.684 97.8 148.28 97.8865 147.875 97.8631C147.63 99.5262 147.677 101.219 148.014 102.866C148.536 105.367 149.737 107.677 151.484 109.541C153.231 111.405 155.458 112.752 157.92 113.436C158.733 113.66 159.563 113.815 160.402 113.898C161.241 113.976 162.085 113.976 162.923 113.898C164.605 113.746 166.247 113.297 167.772 112.572C169.3 111.846 170.688 110.857 171.873 109.65C173.048 108.448 173.998 107.046 174.68 105.511C174.308 105.233 174.041 104.839 173.92 104.391C173.8 103.944 173.834 103.468 174.016 103.042C174.199 102.616 174.519 102.263 174.926 102.041C175.333 101.819 175.803 101.741 176.26 101.818C176.626 101.881 176.967 102.044 177.247 102.288C177.569 102.567 177.796 102.94 177.896 103.354C177.996 103.768 177.964 104.204 177.804 104.599C177.644 104.994 177.365 105.329 177.005 105.558C176.645 105.786 176.223 105.896 175.797 105.873C174.773 108.506 173.037 110.803 170.782 112.506C168.528 114.209 165.844 115.252 163.031 115.517C161.149 115.703 159.249 115.525 157.434 114.993C153.785 113.942 150.658 111.57 148.663 108.339C146.668 105.108 145.947 101.25 146.641 97.5162C146.217 97.2134 145.907 96.776 145.763 96.2751Z" fill="#9958FF"/>
<path d="M156.679 91.2795C156.853 90.3441 157.002 89.4062 157.126 88.4657C157.249 87.5252 157.342 86.5846 157.411 85.6364L157.496 84.2179L157.542 82.7995V81.3656C157.556 80.9743 157.678 80.5946 157.894 80.2682C158.111 79.9418 158.413 79.6814 158.767 79.5156C159.122 79.3498 159.516 79.2851 159.905 79.3286C160.294 79.3721 160.663 79.5221 160.973 79.7621C161.381 80.077 161.656 80.5337 161.743 81.0418C161.813 81.5274 161.859 81.9977 161.898 82.4757C162.023 84.3827 161.977 86.2971 161.759 88.1959C161.566 90.0983 161.223 91.9826 160.734 93.8312C160.61 94.2938 160.464 94.7486 160.325 95.2035C160.186 95.6583 160.017 96.1054 159.855 96.5603C159.693 97.0151 159.5 97.4468 159.323 97.8939C159.223 98.1175 159.153 98.3334 159.038 98.5569C158.92 98.781 158.764 98.9821 158.575 99.1505C158.197 99.4862 157.709 99.6726 157.203 99.6748C156.956 99.6734 156.711 99.6317 156.478 99.5514C156.243 99.4912 156.017 99.3978 155.807 99.2739C155.395 99.0127 155.091 98.6121 154.949 98.1451C154.808 97.6782 154.839 97.1759 155.037 96.7299C155.786 94.9801 156.336 93.1519 156.679 91.2795ZM155.013 98.1329C155.157 98.5839 155.465 98.9639 155.877 99.1968C156.083 99.3075 156.303 99.388 156.532 99.4358C156.755 99.5017 156.986 99.5303 157.218 99.5206C157.673 99.497 158.104 99.3078 158.429 98.9886C158.586 98.8328 158.714 98.65 158.806 98.449C158.899 98.2486 158.976 98.0096 159.061 97.7937L159.315 97.1307L159.446 96.7993L159.562 96.46C159.708 96.0129 159.886 95.5658 160.024 95.1187C160.163 94.6715 160.317 94.2167 160.448 93.7618C161.011 91.9446 161.415 90.0824 161.659 88.1959C161.891 86.3075 161.909 84.3989 161.713 82.5065C161.666 82.0362 161.597 81.5583 161.512 81.1034C161.446 80.7798 161.292 80.4806 161.067 80.2381C160.843 79.9956 160.556 79.8192 160.238 79.7279C159.921 79.6366 159.584 79.6339 159.265 79.7201C158.946 79.8063 158.657 79.9781 158.429 80.2169C158.127 80.5306 157.954 80.9459 157.943 81.381V82.8072C157.943 83.2851 157.943 83.7631 157.943 84.2411C157.943 84.719 157.889 85.197 157.858 85.675C157.717 87.5852 157.418 89.4804 156.964 91.3412C156.503 93.1888 155.887 94.994 155.121 96.7376C154.917 97.1713 154.878 97.6651 155.013 98.1252V98.1329Z" fill="#9958FF"/>
<path d="M169.584 95.0495C169.758 94.1142 169.907 93.1762 170.031 92.2357C170.154 91.2952 170.247 90.3547 170.316 89.4064L170.401 87.988L170.447 86.5695V85.1356C170.461 84.7443 170.583 84.3646 170.799 84.0382C171.016 83.7118 171.318 83.4514 171.672 83.2856C172.027 83.1198 172.421 83.0551 172.81 83.0986C173.199 83.1421 173.568 83.2921 173.878 83.5321C174.286 83.847 174.561 84.3037 174.649 84.8118C174.718 85.2975 174.764 85.7677 174.803 86.2457C174.928 88.1527 174.882 90.0672 174.664 91.9659C174.471 93.8684 174.128 95.7527 173.639 97.6013C173.515 98.0638 173.369 98.5186 173.23 98.9735C173.091 99.4283 172.922 99.8755 172.76 100.33C172.598 100.785 172.405 101.217 172.228 101.664C172.128 101.888 172.058 102.103 171.943 102.327C171.825 102.551 171.669 102.752 171.48 102.921C171.102 103.256 170.614 103.443 170.108 103.445C169.861 103.443 169.616 103.402 169.383 103.321C169.148 103.261 168.922 103.168 168.712 103.044C168.3 102.783 167.996 102.382 167.854 101.915C167.713 101.448 167.744 100.946 167.942 100.5C168.691 98.7501 169.241 96.9219 169.584 95.0495ZM167.918 101.903C168.062 102.354 168.37 102.734 168.782 102.967C168.988 103.077 169.208 103.158 169.437 103.206C169.66 103.272 169.891 103.3 170.123 103.291C170.578 103.267 171.009 103.078 171.334 102.759C171.491 102.603 171.619 102.42 171.711 102.219C171.804 102.019 171.881 101.78 171.966 101.564L172.22 100.901L172.351 100.569L172.467 100.23C172.613 99.7829 172.791 99.3358 172.929 98.8887C173.068 98.4415 173.222 97.9867 173.353 97.5319C173.916 95.7146 174.32 93.8525 174.564 91.9659C174.796 90.0775 174.814 88.1689 174.618 86.2765C174.571 85.8063 174.502 85.3283 174.417 84.8735C174.351 84.5498 174.197 84.2506 173.972 84.0081C173.748 83.7657 173.461 83.5892 173.143 83.4979C172.826 83.4066 172.489 83.4039 172.17 83.4901C171.851 83.5763 171.562 83.7481 171.334 83.9869C171.032 84.3007 170.859 84.7159 170.848 85.151V86.5772C170.848 87.0551 170.848 87.5331 170.848 88.0111C170.848 88.489 170.794 88.967 170.763 89.445C170.622 91.3552 170.323 93.2504 169.869 95.1112C169.408 96.9588 168.792 98.764 168.026 100.508C167.822 100.941 167.783 101.435 167.918 101.895V101.903Z" fill="#9958FF"/>
<path d="M147.397 94.5105C147.836 93.2847 148.368 91.1801 148.384 91.0953L147.998 90.9951C147.952 91.1956 147.443 93.2076 147.011 94.3948C147.011 94.4642 146.919 94.7186 146.834 95.0193C143.103 108.41 137.868 117.322 131.709 120.791C130.308 121.602 128.757 122.122 127.151 122.32C125.544 122.517 123.913 122.388 122.358 121.94L122.527 121.994H122.627C124.198 122.462 125.848 122.604 127.476 122.412C129.104 122.22 130.676 121.697 132.094 120.876C138.262 117.407 143.488 108.495 147.22 95.1041C147.304 94.8343 147.374 94.5722 147.397 94.5105Z" fill="#FFEB47"/>
<path d="M119.783 119.904C120.63 120.278 121.504 120.59 122.396 120.837H122.489H122.604C121.631 120.553 120.682 120.189 119.767 119.75" fill="#B07320"/>
<path d="M119.659 120.937C120.534 121.336 121.435 121.671 122.358 121.939C123.913 122.388 125.544 122.517 127.15 122.32C128.757 122.122 130.308 121.602 131.709 120.791C137.876 117.322 143.103 108.41 146.834 95.0191C146.919 94.7184 146.988 94.464 147.011 94.3946C147.443 93.2074 147.952 91.1876 147.998 90.9949L147.358 90.833C147.358 90.833 146.826 92.9684 146.402 94.1479C146.402 94.2482 146.318 94.4332 146.202 94.8418C142.594 107.77 137.406 116.697 131.555 119.974C130.256 120.726 128.818 121.205 127.328 121.381C125.838 121.558 124.328 121.428 122.89 120.999H122.797L122.62 120.945H122.504H122.412C121.505 120.69 120.619 120.368 119.76 119.981" fill="#CB9E16"/>
<path opacity="0.81" d="M119.659 120.937C120.534 121.336 121.435 121.671 122.358 121.939L122.527 121.993H122.627C124.198 122.462 125.848 122.604 127.476 122.412C129.104 122.22 130.676 121.697 132.094 120.876C138.262 117.406 143.488 108.495 147.22 95.1039C147.304 94.8033 147.374 94.5489 147.397 94.4795C147.836 93.2538 148.368 91.1492 148.384 91.0644L147.998 90.9641L147.358 90.8022C147.358 90.8022 146.826 92.9377 146.402 94.1172C146.402 94.2174 146.318 94.4024 146.202 94.811C142.594 107.739 137.406 116.666 131.555 119.943C130.256 120.695 128.818 121.174 127.328 121.351C125.838 121.527 124.328 121.397 122.89 120.968H122.797L122.62 120.914C121.624 120.623 120.654 120.25 119.721 119.796" fill="url(#paint0_linear_577:19595)"/>
<path d="M119.69 120.945C121.493 121.778 123.43 122.284 125.41 122.44C127.394 122.551 129.373 122.155 131.161 121.291C132.933 120.402 134.539 119.216 135.91 117.784C137.289 116.366 138.525 114.816 139.603 113.158C141.712 109.791 143.459 106.209 144.814 102.473C145.508 100.613 146.133 98.7268 146.688 96.8149C147.212 94.8953 147.875 93.022 148.33 91.087L148.376 91.1564L147.351 90.902L147.428 90.8558C146.981 92.7368 146.348 94.5561 145.84 96.414C145.331 98.2719 144.699 100.099 144.036 101.911C142.736 105.553 141.067 109.053 139.056 112.357C138.038 114.012 136.858 115.561 135.533 116.982C134.205 118.402 132.64 119.578 130.907 120.459C129.158 121.312 127.212 121.682 125.272 121.53C124.31 121.448 123.361 121.257 122.442 120.96C121.522 120.676 120.625 120.32 119.76 119.896C120.628 120.31 121.528 120.656 122.45 120.929C123.367 121.215 124.314 121.396 125.272 121.469C127.196 121.601 129.121 121.215 130.845 120.351C132.546 119.459 134.077 118.277 135.371 116.859C136.67 115.448 137.837 113.92 138.855 112.295C140.861 109.011 142.527 105.532 143.828 101.911C144.483 100.107 145.1 98.2797 145.647 96.4372C146.194 94.5947 146.819 92.7676 147.281 90.902V90.8403H147.343L148.368 91.1024H148.422V91.1564C147.952 93.0914 147.281 94.9647 146.742 96.8766C146.202 98.7885 145.539 100.662 144.868 102.535C143.538 106.287 141.811 109.887 139.719 113.274C138.652 114.959 137.415 116.53 136.026 117.961C134.632 119.397 133.002 120.584 131.208 121.469C129.394 122.331 127.391 122.718 125.387 122.594C124.391 122.532 123.405 122.353 122.45 122.062C121.495 121.782 120.562 121.432 119.659 121.014L119.69 120.945Z" fill="#9958FF"/>
<path d="M148.677 89.4995L148.014 91.8123C148.014 91.8816 147.59 91.8123 147.104 91.6889L146.749 91.5733C147.002 91.7345 147.281 91.8493 147.574 91.9125C148.06 92.0512 148.461 92.1052 148.484 92.0358L149.147 89.7231C149.17 89.7154 148.97 89.6074 148.677 89.4995Z" fill="#CB9E16"/>
<path d="M148.029 91.8429L148.692 89.5301L148.337 89.4145C147.836 89.2295 147.428 89.2295 147.405 89.2295L146.742 91.5422L147.096 91.6579C147.605 91.8506 148.006 91.9123 148.029 91.8429Z" fill="#B07320"/>
<path d="M148.314 89.3986C148.142 89.3513 147.967 89.3152 147.79 89.2907H147.528C147.528 89.2907 147.42 89.2907 147.459 89.2907V89.4218C147.387 89.7707 147.297 90.1155 147.189 90.4548C147.081 90.794 146.95 91.1255 146.85 91.4647L146.811 91.588C146.835 91.6085 146.861 91.6266 146.888 91.642C146.965 91.6833 147.045 91.7194 147.127 91.7499C147.293 91.8102 147.463 91.8591 147.636 91.8964C147.806 91.9384 147.979 91.9719 148.152 91.9966H148.407H148.461V91.8733C148.553 91.5264 148.638 91.1872 148.746 90.848C148.854 90.5088 148.954 90.1696 149.078 89.8304L149.124 89.707C149.124 89.761 149.124 89.707 149.062 89.707C148.991 89.6582 148.916 89.6145 148.839 89.576C148.668 89.5052 148.493 89.446 148.314 89.3986ZM148.314 89.3986C148.484 89.4449 148.654 89.4989 148.831 89.5528C148.918 89.5802 149.003 89.6137 149.085 89.6531H149.147C149.147 89.6531 149.201 89.6531 149.209 89.761V89.892C149.139 90.2389 149.054 90.5859 148.954 90.9251C148.854 91.2643 148.754 91.6112 148.654 91.9504L148.615 92.0814C148.546 92.1971 148.507 92.1585 148.476 92.1739H148.399C148.306 92.1651 148.213 92.1496 148.122 92.1277C147.945 92.0877 147.77 92.0388 147.597 91.9812C147.428 91.9272 147.258 91.8579 147.096 91.7885C147.011 91.7531 146.929 91.7119 146.85 91.6651C146.85 91.6651 146.757 91.6651 146.742 91.5418V91.4107C146.834 91.0715 146.904 90.7169 146.988 90.37C147.075 90.0254 147.181 89.6857 147.304 89.3524L147.351 89.2213C147.397 89.152 147.428 89.1751 147.459 89.1597H147.536C147.638 89.1748 147.738 89.198 147.836 89.229C147.975 89.283 148.152 89.3216 148.322 89.3755L148.314 89.3986Z" fill="#9958FF"/>
<path d="M167.395 90.3858C167.913 86.6089 167.597 82.7644 166.469 79.1227C165.328 75.8078 163.455 73.7263 161.196 73.1713C160.793 73.0717 160.378 73.025 159.963 73.0325C156.478 73.8882 153.163 78.4289 151.652 84.9663C149.648 93.7239 151.537 102.759 156.347 105.049L156.702 105.203C157.324 105.452 157.99 105.575 158.66 105.565C160.348 105.149 162.006 103.861 163.463 101.78C165.665 98.3506 167.013 94.4434 167.395 90.3858ZM161.713 98.3725C160.464 100.099 159.107 100.97 157.935 100.816C157.785 100.797 157.638 100.761 157.496 100.708L157.365 100.654C154.852 99.5288 153.233 93.084 154.775 85.9376C155.908 80.5027 158.352 77.0567 160.433 76.2858C160.862 76.1133 161.333 76.0783 161.782 76.1856H161.898C162.954 76.5325 163.902 77.8276 164.534 79.8088C165.381 82.8387 165.557 86.0166 165.051 89.1215C164.683 92.4252 163.539 95.5951 161.713 98.3725Z" fill="#FFEB47"/>
<path d="M156.702 105.202L156.347 105.048C151.537 102.736 149.648 93.7236 151.652 84.966C153.194 78.3901 156.471 73.8802 159.963 73.0322C156.108 73.0939 152.2 77.835 150.535 85.1125C148.53 93.87 150.419 102.905 155.229 105.195L155.584 105.349C156.563 105.745 157.643 105.82 158.668 105.565C157.995 105.576 157.327 105.452 156.702 105.202Z" fill="#B07320"/>
<path d="M165.043 89.1521C165.549 86.0472 165.373 82.8693 164.527 79.8395C163.895 77.8582 162.939 76.5631 161.89 76.2162H161.775C161.325 76.1089 160.854 76.1439 160.426 76.3164L160.649 76.3626H160.765C161.821 76.7095 162.769 78.0047 163.401 79.9859C164.248 83.0158 164.424 86.1937 163.918 89.2986C163.55 92.6022 162.406 95.7721 160.58 98.5495C159.936 99.5593 159.016 100.362 157.928 100.862C159.1 101.009 160.456 100.138 161.705 98.4185C163.534 95.6365 164.678 92.4611 165.043 89.1521Z" fill="#CB9E16"/>
<path d="M160.564 98.4803C161.498 97.1203 162.23 95.6325 162.738 94.063C163.254 92.5004 163.621 90.8922 163.833 89.2602C164.176 86.8904 164.176 84.4836 163.833 82.1138C163.658 80.9315 163.326 79.7778 162.846 78.6833C162.606 78.1244 162.284 77.6047 161.89 77.1414C161.509 76.6828 160.98 76.3719 160.394 76.2626C159.862 76.48 159.375 76.7966 158.96 77.1954C158.547 77.6079 158.177 78.0626 157.858 78.5522C157.185 79.4928 156.626 80.5098 156.193 81.5819C155.325 83.7279 154.752 85.9814 154.489 88.2811C154.348 89.4293 154.287 90.5859 154.304 91.7425C154.311 92.8975 154.411 94.0499 154.605 95.1885C154.771 96.3226 155.088 97.4295 155.545 98.4803C155.78 99.0051 156.089 99.4932 156.463 99.9297C156.656 100.138 156.876 100.32 157.118 100.469C157.236 100.551 157.362 100.618 157.496 100.67L157.912 100.77C158.461 100.554 158.963 100.234 159.392 99.8294C159.826 99.4191 160.218 98.9673 160.564 98.4803ZM160.564 98.4803C160.221 98.9668 159.831 99.4186 159.4 99.8294C158.971 100.248 158.466 100.58 157.912 100.808L157.48 100.708C157.342 100.657 157.21 100.59 157.087 100.508C156.835 100.357 156.604 100.173 156.401 99.9605C156.012 99.5206 155.687 99.0274 155.437 98.4958C154.944 97.437 154.594 96.3169 154.397 95.1654C154.187 94.0183 154.081 92.8547 154.081 91.6886C154.065 90.524 154.13 89.3598 154.273 88.2041C154.543 85.9039 155.137 83.6536 156.039 81.5202C156.493 80.446 157.073 79.4291 157.766 78.4905C158.111 78.0196 158.503 77.5856 158.937 77.1954C159.364 76.7912 159.864 76.472 160.41 76.2549C161.016 76.3698 161.562 76.6946 161.952 77.1723C162.35 77.6368 162.68 78.156 162.931 78.7141C163.427 79.8117 163.774 80.9706 163.964 82.1601C164.163 83.3472 164.261 84.5489 164.257 85.7525C164.26 86.9549 164.172 88.1558 163.995 89.345C163.754 90.9821 163.359 92.5928 162.815 94.1555C162.285 95.7117 161.535 97.1837 160.587 98.5266L160.564 98.4803Z" fill="#9958FF"/>
<path d="M157.442 105.819C156.79 105.806 156.147 105.67 155.546 105.418L155.183 105.264C150.442 103.013 148.353 94.1323 150.434 85.0586C152.092 77.8429 155.916 72.9553 159.963 72.8936C160.389 72.8825 160.815 72.9318 161.227 73.0401C163.54 73.6183 165.436 75.7537 166.577 79.0609C167.658 82.5286 167.997 86.1849 167.572 89.7921L167.502 90.3934C167.12 94.4664 165.764 98.3876 163.548 101.826C162.091 103.907 160.41 105.233 158.683 105.681C158.277 105.777 157.86 105.824 157.442 105.819ZM160.032 73.1403H159.963C156.016 73.202 152.254 78.0202 150.635 85.1434C148.576 94.1246 150.635 102.874 155.26 105.11L155.607 105.264C156.565 105.649 157.62 105.722 158.621 105.472C160.294 105.056 161.936 103.761 163.363 101.726C165.538 98.3562 166.878 94.516 167.271 90.5244V90.3857C167.783 86.6209 167.465 82.7898 166.338 79.1612C165.22 75.9233 163.378 73.8341 161.142 73.2791C160.779 73.1868 160.407 73.1376 160.032 73.1326V73.1403Z" fill="#752714"/>
<path d="M149.378 89.5458C149.378 89.5458 150.111 86.9709 149.656 86.8784L148.608 86.6626L148.746 85.9688L147.027 86.3311L146.156 90.7715L147.875 90.4092L147.945 90.0777L149.378 89.5458Z" fill="#B07320"/>
<path d="M151.36 86.5161L148.769 85.9688L147.836 90.4323L151.043 89.1835C151.043 89.1835 151.814 86.6086 151.36 86.5161Z" fill="#CB9E16"/>
<path d="M162.892 97.8176C163.643 95.8163 164.216 93.7525 164.604 91.6503V91.5964C164.09 94.0263 163.108 96.333 161.713 98.3881C160.464 100.115 159.107 100.986 157.935 100.832C157.785 100.813 157.638 100.777 157.496 100.724L157.365 100.67C154.852 99.5291 153.233 93.0842 154.775 85.9379C153.865 89.5534 151.259 92.4444 151.691 87.048C152.108 83.4173 153.299 79.9184 155.183 76.7871C153.498 79.2604 152.312 82.0388 151.691 84.9665C149.687 93.7241 151.575 102.759 156.386 105.049L156.741 105.203C157.363 105.452 158.028 105.575 158.699 105.565C160.387 105.149 162.044 103.862 163.501 101.78C164.204 100.762 164.806 99.6774 165.298 98.5423C163.794 101.31 162.037 99.7758 162.892 97.8176Z" fill="#CB9E16"/>
<path d="M167.395 90.4011C167.581 88.6628 167.627 86.9124 167.533 85.1666C167.441 83.4261 167.154 81.7014 166.678 80.0246C166.228 78.342 165.441 76.7683 164.365 75.3991C163.827 74.7247 163.165 74.1595 162.415 73.734C161.661 73.3126 160.811 73.0923 159.948 73.0941C159.157 73.3028 158.413 73.6556 157.751 74.1348C157.079 74.6051 156.47 75.1595 155.939 75.7846C154.88 77.0493 154.013 78.4622 153.364 79.9784C152.055 82.9993 151.273 86.222 151.051 89.5069C150.756 92.7826 151.101 96.0846 152.069 99.2281C152.551 100.791 153.354 102.235 154.428 103.468C154.971 104.071 155.619 104.569 156.34 104.941C157.055 105.306 157.849 105.491 158.653 105.48C160.111 105.041 161.411 104.187 162.391 103.021C163.403 101.875 164.248 100.593 164.905 99.2127C165.573 97.8341 166.112 96.3967 166.516 94.9187C166.911 93.4346 167.205 91.9252 167.395 90.4011ZM167.395 90.4011C167.233 91.9317 166.952 93.4473 166.554 94.9341C166.173 96.422 165.657 97.8721 165.013 99.2666C164.366 100.661 163.527 101.958 162.523 103.121C161.527 104.34 160.182 105.225 158.668 105.658C157.825 105.672 156.991 105.478 156.24 105.095C155.494 104.705 154.825 104.182 154.266 103.553C153.174 102.297 152.357 100.827 151.868 99.2358C150.904 96.0732 150.582 92.7497 150.92 89.4606C151.179 86.165 151.99 82.9363 153.318 79.909C153.972 78.3924 154.845 76.9795 155.908 75.7152C156.44 75.0795 157.052 74.5146 157.727 74.0346C158.4 73.5404 159.158 73.1745 159.963 72.9554C160.854 72.9462 161.733 73.1666 162.515 73.5952C163.288 74.027 163.971 74.6027 164.527 75.2912C165.609 76.6855 166.396 78.2855 166.84 79.9938C167.287 81.6843 167.545 83.4192 167.611 85.1666C167.695 86.9065 167.625 88.6504 167.402 90.378L167.395 90.4011Z" fill="#9958FF"/>
<path d="M161.713 98.38C161.152 99.2181 160.422 99.9297 159.57 100.469C159.132 100.733 158.632 100.874 158.121 100.878C157.993 100.877 157.866 100.858 157.743 100.824C157.617 100.802 157.493 100.769 157.373 100.724C157.257 100.67 157.149 100.6 157.041 100.539C156.927 100.481 156.823 100.405 156.733 100.315C155.995 99.6168 155.439 98.7487 155.114 97.7864C154.751 96.8437 154.492 95.8639 154.343 94.8647C154.061 92.8721 154.03 90.8519 154.251 88.8515C154.464 86.8516 154.899 84.8815 155.546 82.9772C156.145 81.0534 157.114 79.265 158.398 77.7118C159.043 76.9148 159.922 76.3404 160.911 76.0698C161.43 75.9713 161.968 76.0733 162.415 76.355C162.849 76.6337 163.221 76.9984 163.509 77.4266C164.072 78.2718 164.492 79.2043 164.75 80.1865C165.025 81.1573 165.214 82.1505 165.313 83.1545C165.512 85.1577 165.457 87.178 165.151 89.1676C164.91 90.8046 164.515 92.4152 163.972 93.9781C163.435 95.5468 162.675 97.0295 161.713 98.38ZM161.713 98.38C162.644 97.0197 163.374 95.5318 163.879 93.9627C164.396 92.4003 164.763 90.7921 164.974 89.1599C165.246 87.1826 165.292 85.1808 165.113 83.193C165.017 82.2023 164.834 81.222 164.565 80.2636C164.313 79.3037 163.904 78.3921 163.355 77.5654C163.083 77.1579 162.732 76.8093 162.322 76.54C161.915 76.2727 161.422 76.1707 160.942 76.2548C159.985 76.5014 159.128 77.0404 158.491 77.7966C157.198 79.3259 156.219 81.0938 155.607 83.0003C154.974 84.899 154.565 86.8654 154.389 88.8592C154.191 90.8494 154.243 92.8566 154.544 94.8338C154.685 95.8192 154.925 96.7877 155.261 97.7248C155.564 98.6702 156.093 99.5275 156.802 100.223C156.888 100.31 156.987 100.383 157.095 100.438C157.203 100.5 157.303 100.569 157.411 100.623C157.526 100.668 157.645 100.701 157.766 100.724C157.883 100.761 158.005 100.781 158.128 100.785C158.624 100.788 159.111 100.657 159.539 100.408C160.398 99.8858 161.139 99.1899 161.713 98.3646V98.38Z" fill="#9958FF"/>
<path opacity="0.81" d="M167.395 90.3858C167.913 86.6089 167.597 82.7644 166.469 79.1227C165.328 75.8078 163.455 73.7263 161.196 73.1713C160.793 73.0717 160.378 73.025 159.963 73.0325C158.244 73.4565 156.563 74.7671 155.122 76.7792L154.852 77.1723C154.478 77.7336 154.136 78.3152 153.826 78.9146L153.595 79.3848L153.372 79.8551L153.163 80.3254V80.3639L152.971 80.8342V80.8881L152.793 81.343V81.4278L152.632 81.8749V81.9751L152.485 82.4222L152.446 82.5379L152.308 82.9773L152.261 83.1161L152.138 83.5478L152.092 83.7097L151.976 84.1491L151.93 84.311C151.879 84.5114 151.83 84.717 151.784 84.9277C151.665 85.4417 151.563 85.9556 151.475 86.4695L148.9 85.9222L147.836 90.432L150.92 89.2217C150.28 96.476 152.254 103.098 156.316 105.049L156.671 105.203C157.293 105.452 157.959 105.575 158.629 105.565C160.318 105.149 161.975 103.861 163.432 101.78C163.586 101.564 163.733 101.333 163.879 101.101L163.987 100.932C164.105 100.737 164.223 100.536 164.342 100.331L164.411 100.207C164.699 99.6933 164.971 99.1408 165.228 98.5498C166.348 95.9497 167.078 93.1988 167.395 90.3858ZM164.026 93.5234L163.887 93.932L163.848 94.0476L163.717 94.4177L163.671 94.5333C163.589 94.7594 163.501 94.9804 163.409 95.1963L163.355 95.3351L163.232 95.6049L163.131 95.8284L163.016 96.0751L162.892 96.3372L162.792 96.5377L162.561 96.9694L162.484 97.1005L162.306 97.4088L162.214 97.563L162.029 97.856L161.944 97.987L161.667 98.3802C160.418 100.107 159.061 100.978 157.889 100.824C157.739 100.805 157.592 100.769 157.45 100.716L157.319 100.662C154.852 99.5288 153.233 93.084 154.775 85.9376C155.908 80.5027 158.352 77.0567 160.433 76.2858C160.862 76.1133 161.333 76.0783 161.782 76.1856H161.898C162.954 76.5325 163.902 77.8276 164.534 79.8088C165.381 82.8387 165.557 86.0166 165.051 89.1215C164.935 89.9541 164.781 90.7635 164.596 91.5499L164.48 92.0355C164.342 92.5598 164.19 93.0557 164.026 93.5234Z" fill="url(#paint1_linear_577:19595)"/>
<path d="M151.359 86.5158C150.488 86.3539 149.617 86.2075 148.754 86.0302L147.035 86.4156L147.104 86.3462C146.819 87.8341 146.526 89.3297 146.217 90.8175L146.102 90.7096L147.829 90.3627L147.767 90.4167L147.813 90.3627L149.355 89.7768L150.126 89.4916C150.388 89.399 150.643 89.2911 150.897 89.2217C150.635 89.3143 150.38 89.4376 150.126 89.5378L149.355 89.8693L147.813 90.5092L147.86 90.4552L147.798 90.5092L146.079 90.8869H145.94V90.7404C146.225 89.2449 146.526 87.7647 146.834 86.2768V86.2152H146.896L148.623 85.876C149.64 86.0918 150.496 86.3077 151.359 86.5158Z" fill="#9958FF"/>
<path d="M147.775 90.4089L148.553 87.04L147.975 90.4552L147.775 90.4089Z" fill="#9958FF"/>
<path d="M76.1879 91.3801C76.1879 92.4517 76.1879 93.5155 76.1879 94.5871C76.1879 95.6587 76.3035 96.7225 76.3575 97.7864C76.4114 98.8502 76.5965 99.9141 76.7429 100.97C76.8894 102.026 77.0744 103.083 77.3288 104.116C78.2469 108.281 79.6924 112.312 81.6305 116.111C83.5874 119.87 86.1181 123.3 89.1315 126.279C89.9024 126.973 90.6733 127.721 91.5214 128.338C92.3367 128.999 93.1943 129.607 94.0885 130.157C95.8686 131.26 97.7666 132.16 99.747 132.84L100.163 132.979V133.41V134.544L99.5928 133.95L107.055 134.127L106.493 134.667V134.112H107.032C111.876 134.197 116.646 132.906 120.785 130.388C122.872 129.144 124.81 127.665 126.559 125.979C128.305 124.278 129.878 122.408 131.254 120.397C134.005 116.355 136.061 111.881 137.337 107.161C138.633 102.454 139.296 97.5956 139.31 92.7138C139.367 87.8479 138.797 82.9949 137.614 78.2746C136.425 73.5784 134.488 69.104 131.879 65.0225C129.29 60.9569 125.84 57.5094 121.772 54.9236C117.714 52.3669 113.008 51.0291 108.212 51.069H107.487V50.352L108.165 51.0613L101.813 50.9225L102.507 50.2595V51.3542V51.8476L102.029 51.9864C98.0663 53.179 94.4048 55.2056 91.2901 57.9301C88.1315 60.6704 85.421 63.8881 83.2572 67.4663C81.0937 71.0646 79.3994 74.9248 78.2154 78.953C77.0593 83.0026 76.3789 87.173 76.1879 91.3801ZM76.0568 91.3801C76.1936 87.1534 76.8222 82.9571 77.9301 78.8759C78.9936 74.7689 80.5738 70.8134 82.6327 67.104C84.6823 63.3541 87.3365 59.968 90.4883 57.0821C93.6596 54.1444 97.4509 51.9576 101.582 50.6835L101.088 51.3157V50.221V49.5503H101.759L108.111 49.6659H108.805V50.3598L108.104 49.6505C113.198 49.5891 118.199 51.0202 122.489 53.7672C126.701 56.496 130.262 60.1174 132.919 64.375C135.569 68.5879 137.5 73.2122 138.632 78.0587C139.759 82.879 140.234 87.8288 140.043 92.7754C139.902 97.7061 139.137 102.599 137.768 107.338C136.415 112.083 134.334 116.59 131.601 120.698C130.228 122.75 128.656 124.661 126.906 126.403C125.163 128.155 123.229 129.707 121.14 131.028C116.912 133.739 112 135.191 106.978 135.214L107.533 134.675V135.222H106.978L99.5157 135.106H98.9298V134.52V133.387L99.3307 133.958C97.2482 133.278 95.2612 132.335 93.4178 131.152C92.4958 130.567 91.6126 129.923 90.7736 129.224C89.8947 128.577 89.1392 127.79 88.3298 127.058C85.2899 123.959 82.7933 120.37 80.9444 116.443C79.1155 112.543 77.7892 108.427 76.9973 104.193C76.204 99.9706 75.8859 95.673 76.0491 91.3801H76.0568Z" fill="#752714"/>
<path d="M76.1415 91.38C76.1415 91.6267 76.1415 91.8734 76.1415 92.151C75.7946 107.723 82.1238 122.325 92.2921 129.656C94.5205 131.273 96.9823 132.542 99.5927 133.418V134.551L107.055 134.698C123.607 134.952 138.832 118.285 139.703 93.6697C140.605 68.1601 125.526 50.0745 108.235 50.3982L101.882 50.2749V51.3696C87.2272 55.5017 76.7814 72.67 76.1415 91.38Z" fill="#B07320"/>
<path d="M113.639 126.387L113.353 131.121C113.353 131.121 116.9 133.611 126.698 124.614C136.496 115.618 143.812 90.9562 133.744 71.0666C123.676 51.177 125.056 61.4996 128.903 70.9355C132.75 80.3715 111.943 99.0045 111.943 99.0045L95.7534 114.307L113.639 126.387Z" fill="#CB9E16"/>
<path d="M107.996 79.0603L84.8836 76.6396L84.6986 77.3026L81.3374 89.4831L93.9033 92.1659L89.7712 108.656L99.8162 108.193L100.479 108.162L100.965 94.4323L100.988 93.6846L103.702 94.2627L104.187 94.363L107.996 79.0603Z" fill="#428A7A"/>
<path d="M117.593 80.6796L116.506 91.6882L115.967 91.9272L113.346 93.045L113.816 79.8547L110.247 79.4692L110.108 80.0551L103.478 108.155L112.251 107.739L112.822 107.716L113.192 97.447L113.215 96.7531L115.959 97.2851L114.934 107.615L117.91 107.477L118.31 107.453L125.727 80.9879L117.655 80.1091L117.593 80.6796Z" fill="#428A7A"/>
<path d="M106.855 129.787C89.4396 132.647 73.4663 114.8 74.3682 89.3984C75.2702 63.9967 92.4539 47.638 109.614 52.0476C112.181 52.718 114.622 53.8039 116.838 55.2623C114.161 53.3094 111.144 51.8716 107.942 51.0223C89.3086 46.1809 70.4212 63.7886 69.4421 91.2563C68.463 118.724 86.0553 137.627 104.981 134.119C120.739 131.197 132.264 113.204 132.965 93.515C132.965 93.2684 132.965 93.0217 132.965 92.7441C132.079 111.038 121.34 127.404 106.855 129.787Z" fill="#CB9E16"/>
<path d="M74.3604 89.3983C73.4585 114.792 89.4318 132.639 106.847 129.786C121.34 127.404 132.079 111.038 132.981 92.7826C133.328 77.2101 126.998 62.609 116.83 55.2776C114.614 53.8193 112.174 52.7334 109.607 52.0629C92.4538 47.6456 75.2624 64.0044 74.3604 89.3983Z" fill="#FFEB47"/>
<path opacity="0.81" d="M132.981 92.7673C133.328 77.1948 126.999 62.5937 116.83 55.2623C114.153 53.3094 111.137 51.8716 107.934 51.0223C89.3086 46.1809 70.4212 63.7886 69.4421 91.2563C68.463 118.724 86.0553 137.627 104.981 134.119C120.739 131.197 132.264 113.204 132.965 93.515C132.973 93.2606 132.973 93.0217 132.981 92.7673Z" fill="url(#paint2_linear_577:19595)"/>
<path d="M91.0736 95.5506L90.5879 109.126L90.8269 109.157L91.3974 109.242L91.9062 94.9801L91.0967 94.772L91.0736 95.5506Z" fill="#B07320"/>
<path d="M79.9186 79.5618L79.8955 79.6774L97.8193 78.2898L94.2037 94.5869L94.4195 94.6409L94.8744 94.7565L98.7366 77.3955L80.042 78.9528L79.9186 79.5618Z" fill="#B07320"/>
<path d="M103.501 99.4204L103.092 111.061L103.37 111.1L104.056 111.192L104.495 98.8191L103.532 98.5801L103.501 99.4204Z" fill="#B07320"/>
<path d="M105.266 77.0796L101.149 77.3957L100.995 78.1049L100.964 78.2514L104.264 78.0124L103.693 94.0628L106.908 92.6443L107.61 92.336L107.648 91.9197L104.688 93.2302L105.266 77.0796Z" fill="#B07320"/>
<path d="M110.154 76.4934L110.077 77.2412L110.061 77.3877L121.155 76.5782L110.285 112.087L110.555 112.125L111.11 112.21L122.388 75.5298L110.154 76.4934Z" fill="#B07320"/>
<path d="M91.9447 94.0085L94.2035 94.5867L97.8191 78.2896L79.8953 79.6772L77.7522 90.4006L86.1397 92.536L83.0021 108.047L90.5879 109.126L91.0736 95.5503L91.0967 94.7717L91.9062 94.9798L91.9139 94.7948L91.9447 94.0085Z" fill="#CB9E16"/>
<path d="M110.061 77.3876L108.658 91.4722L107.949 91.7806L107.648 91.9193L107.61 92.3356L106.908 92.644L103.694 94.0625L104.264 78.012L100.965 78.251L94.1343 109.774L103.092 111.061L103.501 99.4203L103.532 98.58L104.495 98.819L104.503 98.6186L104.534 97.7706L107.941 98.5877L106.646 111.57L110.285 112.086L121.155 76.5781L110.061 77.3876Z" fill="#CB9E16"/>
<g opacity="0.66">
<path opacity="0.66" d="M79.8953 79.6777L77.7522 90.4011L86.1397 92.5365L83.0021 108.047L90.5879 109.127L91.0736 95.5508L91.0967 94.7722L91.9062 94.9803L91.9139 94.7953L91.9447 94.009L94.2035 94.5872L97.8191 78.29L79.8953 79.6777Z" fill="url(#paint3_linear_577:19595)"/>
<path opacity="0.66" d="M110.061 77.3881L108.658 91.4727L107.949 91.781L107.648 91.9198L107.61 92.3361L106.908 92.6445L103.693 94.0629L104.264 78.0125L100.964 78.2515L94.134 109.774L103.092 111.062L103.501 99.4208L103.531 98.5805L104.495 98.8195L104.503 98.6191L104.534 97.771L107.941 98.5882L106.646 111.57L110.285 112.087L121.155 76.5786L110.061 77.3881Z" fill="url(#paint4_linear_577:19595)"/>
</g>
<path d="M92.3304 94.7409L94.8051 95.3191L95.1366 95.3962L95.2368 94.926C95.8689 91.9965 96.4548 89.0285 97.0407 86.099L98.783 77.3491L88.923 77.7577C85.8393 77.9196 82.8867 78.1123 80.0575 78.413H79.8108L79.7337 78.8062C79.3559 80.7411 79.0167 82.6607 78.6544 84.5957L77.606 90.3159L77.552 90.6088H77.7216C79.0553 90.8941 80.4044 91.2179 81.7843 91.5725L83.912 92.143C84.575 92.3203 85.2457 92.4976 85.9164 92.6903L84.2975 100.176C83.7347 102.728 83.2105 105.272 82.6709 107.8L82.5167 108.502L82.9792 108.579L91.3745 109.928L91.8447 110.005V109.234C91.9373 106.69 92.0375 104.138 92.1069 101.594C92.1994 99.333 92.2739 97.0485 92.3304 94.7409ZM84.814 100.5L86.3019 92.6055L86.3558 92.3049H86.1708C85.3999 92.1507 84.6907 91.9579 83.966 91.7883L81.8306 91.2795C80.5097 90.9455 79.2249 90.596 77.976 90.2311L79.1324 84.8347C79.5101 83.0616 79.9033 81.2808 80.2733 79.4846C82.933 79.315 85.6697 79.0297 88.6223 78.7136L98.7136 77.4648L96.5473 86.2686C95.892 88.936 95.2445 91.5339 94.6432 94.1242L92.0298 93.4073L91.5595 93.2531V94.024C91.4413 96.5526 91.3334 99.0838 91.2357 101.617C91.1355 103.93 91.0584 106.197 90.9813 108.486L83.5035 107.561C83.9198 105.195 84.3823 102.866 84.814 100.5Z" fill="#B07320"/>
<path d="M122.396 75.2676L116.059 75.7301L110.169 76.0847H109.907L109.869 76.4625C109.329 81.3192 108.766 86.1529 108.258 90.9711L105.212 92.3125L105.829 77.0484V76.2774L105.266 76.3237L101.15 76.6552H100.741L100.618 77.2411L98.837 85.5593C98.2511 88.2934 97.6806 91.0173 97.1256 93.7309C96.0232 99.1273 95.0056 104.439 93.9494 109.697L93.8723 110.043H94.0882C95.5529 110.198 97.0408 110.36 98.5672 110.552C100.094 110.745 101.705 110.969 103.331 111.184L104.018 111.285H104.072V111.208C104.156 108.972 104.241 106.736 104.349 104.501C104.457 102.265 104.557 100.237 104.665 98.102L107.587 98.8729L106.862 104.979C106.616 107.127 106.377 109.273 106.145 111.416L106.068 112.117L106.585 112.194C108.042 112.418 109.53 112.665 111.041 112.88L111.403 112.934L111.542 112.487C113.346 106.667 115.072 100.661 116.861 94.5558C117.771 91.4722 118.665 88.3268 119.613 85.1892C120.561 82.0516 121.533 78.8061 122.543 75.5836L122.651 75.229L122.396 75.2676ZM119.228 85.0196C118.249 88.1033 117.239 91.1869 116.26 94.2706C114.371 100.106 112.505 105.834 110.771 111.47C109.553 111.292 108.358 111.146 107.171 110.992C107.345 109.064 107.517 107.135 107.687 105.202L108.227 98.6571V98.2716L107.965 98.2177L104.534 97.5238L104.318 97.4776V97.7782C104.272 100.014 104.241 102.257 104.179 104.493C104.118 106.729 104.056 108.918 103.979 111.13L103.355 111.046C101.736 110.799 100.148 110.575 98.598 110.275C97.0485 109.974 95.7379 109.789 94.3503 109.504C95.5375 104.416 96.7864 99.2815 97.9813 94.0393C98.598 91.336 99.207 88.6095 99.8084 85.8599L101.512 78.0891L104.665 77.8501L104.195 93.1605V94.1164L104.835 93.8235L108.797 92.0195L109.09 91.8885V91.4799C109.545 86.6077 109.961 81.7201 110.393 76.8325L116.013 76.2852L122.065 75.7764C121.14 78.9114 120.194 81.9925 119.228 85.0196Z" fill="#B07320"/>
<path d="M69.5114 91.2645C69.3512 96.1284 69.8702 100.991 71.0533 105.711C71.6544 108.057 72.4274 110.356 73.366 112.588C73.8054 113.714 74.3682 114.785 74.9078 115.88C75.1777 116.419 75.4937 116.936 75.7867 117.46C76.0796 117.984 76.3803 118.509 76.7118 119.002C79.2223 123.104 82.5433 126.65 86.4715 129.425C88.4446 130.76 90.5791 131.841 92.8239 132.639C95.0755 133.414 97.4289 133.853 99.8084 133.942C104.614 134.127 109.374 132.949 113.538 130.543C115.633 129.352 117.583 127.924 119.351 126.287C121.115 124.635 122.711 122.811 124.115 120.844C126.917 116.88 129.04 112.477 130.398 107.816C131.071 105.492 131.586 103.125 131.94 100.731C132.283 98.3344 132.491 95.9203 132.564 93.5001C132.61 91.084 132.52 88.6673 132.295 86.2612C132.041 83.8632 131.647 81.4822 131.115 79.1303C130.023 74.4403 128.202 69.9505 125.719 65.8243C123.27 61.7271 119.981 58.1957 116.067 55.4632C112.155 52.7448 107.558 51.1796 102.8 50.9457C100.43 50.8388 98.0583 51.1147 95.7765 51.7628C94.6269 52.0531 93.5008 52.4293 92.4076 52.8884L91.9913 53.0426L91.5904 53.243L90.8195 53.6439C90.2953 53.9137 89.7479 54.1527 89.2314 54.4533C85.1247 56.9447 81.5595 60.2346 78.747 64.1283C75.8832 68.0402 73.6441 72.3729 72.1094 76.9717C70.5803 81.5913 69.7058 86.4023 69.5114 91.2645ZM69.3804 91.2645C69.5302 86.3903 70.3287 81.5579 71.7548 76.8946C73.1528 72.1899 75.2612 67.7262 78.0069 63.658C80.762 59.5188 84.3613 56.0089 88.5684 53.3586C89.1004 53.0349 89.6631 52.7727 90.2105 52.4721L91.0354 52.0404L91.4516 51.8245L91.8911 51.6549C93.034 51.1673 94.2116 50.7653 95.4141 50.4523C97.8229 49.762 100.327 49.4626 102.83 49.5657C107.858 49.7746 112.72 51.4229 116.838 54.3146C120.914 57.1891 124.331 60.9001 126.86 65.1999C129.369 69.4557 131.173 74.0898 132.202 78.9221C132.711 81.325 133.061 83.7586 133.251 86.2073C133.609 91.0999 133.376 96.0179 132.557 100.855C132.129 103.262 131.566 105.642 130.868 107.986C130.143 110.322 129.249 112.602 128.193 114.808C127.148 117.023 125.918 119.145 124.516 121.153C123.111 123.162 121.515 125.031 119.752 126.734C117.991 128.454 116.038 129.964 113.931 131.236C109.68 133.843 104.772 135.181 99.7852 135.091C94.7763 134.911 89.928 133.277 85.8317 130.388C81.7956 127.496 78.4365 123.761 75.9871 119.441C75.6633 118.917 75.3704 118.378 75.0928 117.83C74.8153 117.283 74.5147 116.743 74.2603 116.188C73.7669 115.063 73.2349 113.96 72.8264 112.804C71.9508 110.52 71.2448 108.176 70.7141 105.789C69.6694 101.019 69.2214 96.1372 69.3804 91.2568V91.2645Z" fill="#752714"/>
<path d="M130.514 108.163L135.039 109.596L130.321 109.041L130.514 108.163Z" fill="#752714"/>
<path d="M131.231 120.968L126.937 120.104L131.292 120.528L131.231 120.968Z" fill="#752714"/>
<path d="M121.371 130.573L117.077 129.71L121.433 130.134L121.371 130.573Z" fill="#752714"/>
<path d="M123.483 121.962L128.008 122.794L123.421 122.401L123.483 121.962Z" fill="#752714"/>
<path d="M137.545 75.669L132.75 75.1294L137.568 75.2219L137.545 75.669Z" fill="#752714"/>
<path d="M137.776 77.1796L135.147 76.7864L137.807 76.7324L137.776 77.1796Z" fill="#752714"/>
<path d="M125.595 64.105L131.316 64.9761L125.542 64.5521L125.595 64.105Z" fill="#752714"/>
<path d="M121.108 58.5256L121.077 58.9717L128.114 59.465L128.145 59.0189L121.108 58.5256Z" fill="#752714"/>
<path d="M119.185 56.7323L119.14 57.1772L126.512 57.9156L126.557 57.4707L119.185 56.7323Z" fill="#752714"/>
</g>
<defs>
<filter id="filter0_d_577:19595" x="0" y="0" width="221.202" height="185.222" filterUnits="userSpaceOnUse" color-interpolation-filters="sRGB">
<feFlood flood-opacity="0" result="BackgroundImageFix"/>
<feColorMatrix in="SourceAlpha" type="matrix" values="0 0 0 0 0 0 0 0 0 0 0 0 0 0 0 0 0 0 127 0" result="hardAlpha"/>
<feOffset dy="10"/>
<feGaussianBlur stdDeviation="20"/>
<feComposite in2="hardAlpha" operator="out"/>
<feColorMatrix type="matrix" values="0 0 0 0 0 0 0 0 0 0 0 0 0 0 0 0 0 0 0.15 0"/>
<feBlend mode="normal" in2="BackgroundImageFix" result="effect1_dropShadow_577:19595"/>
<feBlend mode="normal" in="SourceGraphic" in2="effect1_dropShadow_577:19595" result="shape"/>
</filter>
<linearGradient id="paint0_linear_577:19595" x1="2820.6" y1="65940.8" x2="3553.36" y2="65940.8" gradientUnits="userSpaceOnUse">
<stop stop-color="#D2A91D" stop-opacity="0.02"/>
<stop offset="0.17" stop-color="#FFEB47"/>
<stop offset="0.29" stop-color="white"/>
<stop offset="0.41" stop-color="#FFEB47"/>
<stop offset="0.6" stop-color="#D2A91D" stop-opacity="0.02"/>
<stop offset="0.75" stop-color="#FFEB47"/>
<stop offset="0.85" stop-color="white"/>
<stop offset="0.93" stop-color="#FFEB47"/>
<stop offset="1" stop-color="#D2A91D" stop-opacity="0.02"/>
</linearGradient>
<linearGradient id="paint1_linear_577:19595" x1="2553.55" y1="66133.8" x2="3306.23" y2="66968.4" gradientUnits="userSpaceOnUse">
<stop stop-color="#D2A91D" stop-opacity="0.02"/>
<stop offset="0.17" stop-color="#FFEB47"/>
<stop offset="0.29" stop-color="white"/>
<stop offset="0.41" stop-color="#FFEB47"/>
<stop offset="0.6" stop-color="#D2A91D" stop-opacity="0.02"/>
<stop offset="0.75" stop-color="#FFEB47"/>
<stop offset="0.85" stop-color="white"/>
<stop offset="0.93" stop-color="#FFEB47"/>
<stop offset="1" stop-color="#D2A91D" stop-opacity="0.02"/>
</linearGradient>
<linearGradient id="paint2_linear_577:19595" x1="83750.5" y1="16043.5" x2="96337.6" y2="23553.6" gradientUnits="userSpaceOnUse">
<stop stop-color="#D2A91D" stop-opacity="0.02"/>
<stop offset="0.17" stop-color="#FFEB47"/>
<stop offset="0.29" stop-color="white"/>
<stop offset="0.41" stop-color="#FFEB47"/>
<stop offset="0.572917" stop-color="#D8B223" stop-opacity="0.159693"/>
<stop offset="0.6" stop-color="#D2A91D" stop-opacity="0.02"/>
<stop offset="0.75" stop-color="#FFEB47"/>
<stop offset="0.85" stop-color="white"/>
<stop offset="0.93" stop-color="#FFEB47"/>
<stop offset="1" stop-color="#D2A91D" stop-opacity="0"/>
</linearGradient>
<linearGradient id="paint3_linear_577:19595" x1="26324.4" y1="6970.97" x2="27816.2" y2="7440.15" gradientUnits="userSpaceOnUse">
<stop stop-color="#D2A91D" stop-opacity="0.02"/>
<stop offset="0.17" stop-color="#FFEB47"/>
<stop offset="0.29" stop-color="white"/>
<stop offset="0.41" stop-color="#FFEB47"/>
<stop offset="0.6" stop-color="#D2A91D" stop-opacity="0.02"/>
<stop offset="0.75" stop-color="#FFEB47"/>
<stop offset="0.85" stop-color="white"/>
<stop offset="0.93" stop-color="#FFEB47"/>
<stop offset="1" stop-color="#D2A91D" stop-opacity="0.02"/>
</linearGradient>
<linearGradient id="paint4_linear_577:19595" x1="35555.8" y1="7688.3" x2="38054.1" y2="8593.62" gradientUnits="userSpaceOnUse">
<stop stop-color="#D2A91D" stop-opacity="0.02"/>
<stop offset="0.17" stop-color="#FFEB47"/>
<stop offset="0.29" stop-color="white"/>
<stop offset="0.41" stop-color="#FFEB47"/>
<stop offset="0.6" stop-color="#D2A91D" stop-opacity="0.02"/>
<stop offset="0.75" stop-color="#FFEB47"/>
<stop offset="0.85" stop-color="white"/>
<stop offset="0.93" stop-color="#FFEB47"/>
<stop offset="1" stop-color="#D2A91D" stop-opacity="0.02"/>
</linearGradient>
</defs>
</svg>
