<svg width="41" height="33" viewBox="0 0 41 33" fill="none" xmlns="http://www.w3.org/2000/svg">
<path d="M3.39458 5.25002C6.20058 2.20802 10.4466 0.666016 16.0126 0.666016H18.0126V6.30402L16.4046 6.62602C13.6646 7.17402 11.7586 8.25202 10.7386 9.83401C10.2064 10.6863 9.90452 11.6621 9.86258 12.666H16.0126C16.543 12.666 17.0517 12.8767 17.4268 13.2518C17.8019 13.6269 18.0126 14.1356 18.0126 14.666V28.666C18.0126 30.872 16.2186 32.666 14.0126 32.666H2.01258C1.48214 32.666 0.973435 32.4553 0.598362 32.0802C0.223289 31.7052 0.0125757 31.1964 0.0125757 30.666V20.666L0.0185757 14.828C0.000575705 14.606 -0.379424 9.34602 3.39458 5.25002ZM36.0126 32.666H24.0126C23.4821 32.666 22.9734 32.4553 22.5984 32.0802C22.2233 31.7052 22.0126 31.1964 22.0126 30.666V20.666L22.0186 14.828C22.0006 14.606 21.6206 9.34602 25.3946 5.25002C28.2006 2.20802 32.4466 0.666016 38.0126 0.666016H40.0126V6.30402L38.4046 6.62602C35.6646 7.17402 33.7586 8.25202 32.7386 9.83401C32.2064 10.6863 31.9045 11.6621 31.8626 12.666H38.0126C38.543 12.666 39.0517 12.8767 39.4268 13.2518C39.8019 13.6269 40.0126 14.1356 40.0126 14.666V28.666C40.0126 30.872 38.2186 32.666 36.0126 32.666Z" fill="white" fill-opacity="0.9"/>
</svg>
