<svg width="488" height="140" viewBox="0 0 488 140" fill="none" xmlns="http://www.w3.org/2000/svg">
<path opacity="0.1" d="M110.292 -9.53674e-06L104.892 30.8H68.8922L49.6922 140H17.6922L36.8922 30.8H0.892188L6.29219 -9.53674e-06H110.292ZM198.9 30.8H143.9L139.7 54.2H189.9L184.5 84.2H134.5L130.1 109.2H186.1L180.7 140H92.7L117.3 -9.53674e-06H204.3L198.9 30.8ZM282.708 140L279.908 118H227.908L216.708 140H181.708L253.908 -9.53674e-06H294.708L317.708 140H282.708ZM242.908 88H276.308L269.708 35L242.908 88ZM487.245 -9.53674e-06L462.645 140H430.645L445.045 58L397.245 118H393.645L369.045 57.6L354.645 140H322.645L347.245 -9.53674e-06H379.245L403.445 63.2L452.445 -9.53674e-06H487.245Z" fill="white"/>
</svg>
