<svg width="790" height="146" viewBox="0 0 790 146" fill="none" xmlns="http://www.w3.org/2000/svg">
<path opacity="0.1" d="M-49.825 143L-63.825 2.99999H-31.825L-24.425 101L19.775 2.99999H45.775L55.575 101L96.975 2.99999H131.775L68.575 143H32.175L23.775 60.4L-13.425 143H-49.825ZM195.177 143L192.377 121H140.377L129.177 143H94.1766L166.377 2.99999H207.177L230.177 143H195.177ZM155.377 91H188.777L182.177 38L155.377 91ZM343.753 2.99999L338.353 33.8H302.353L283.153 143H251.153L270.353 33.8H234.353L239.753 2.99999H343.753ZM386.753 145.8C365.42 145.8 348.886 138.533 337.153 124C325.42 109.467 321.286 91.8 324.753 71C328.22 50.4667 337.686 33.5333 353.153 20.2C368.753 6.86666 386.953 0.199991 407.753 0.199991C421.086 0.199991 432.486 3.06666 441.953 8.8C451.553 14.5333 458.686 22.5333 463.353 32.8L433.953 48.2C428.486 37 418.62 31.4 404.353 31.4C392.22 31.4 381.753 35.2 372.953 42.8C364.286 50.4 358.886 60.4667 356.753 73C354.62 85.4 356.486 95.4667 362.353 103.2C368.22 110.8 376.953 114.6 388.553 114.6C403.886 114.6 416.02 108.667 424.953 96.8L450.953 113.8C443.353 123.8 433.953 131.667 422.753 137.4C411.553 143 399.553 145.8 386.753 145.8ZM554.331 2.99999H586.331L561.731 143H529.731L539.531 87.4H495.531L485.731 143H453.731L478.331 2.99999H510.331L500.931 56.6H544.931L554.331 2.99999ZM646.363 2.99999H678.363L653.763 143H621.763L646.363 2.99999ZM789.417 2.99999L784.017 33.8H748.017L728.817 143H696.817L716.017 33.8H680.017L685.417 2.99999H789.417Z" fill="white"/>
</svg>
